<svg xmlns="http://www.w3.org/2000/svg" xmlns:xlink="http://www.w3.org/1999/xlink" width="160" zoomAndPan="magnify" viewBox="0 0 120 67.499998" height="90" preserveAspectRatio="xMidYMid meet" version="1.0"><defs><g/><clipPath id="25af41df11"><rect x="0" width="109" y="0" height="47"/></clipPath></defs><g transform="matrix(1, 0, 0, 1, 4, 12)"><g clip-path="url(#25af41df11)"><g fill="#000000" fill-opacity="1"><g transform="translate(1.052989, 35.820915)"><g><path d="M 28.203125 -30.265625 C 28.566406 -29.898438 28.710938 -29.53125 28.640625 -29.15625 C 28.566406 -28.789062 28.347656 -28.273438 27.984375 -27.609375 C 27.859375 -27.367188 27.671875 -27.035156 27.421875 -26.609375 C 27.179688 -26.179688 26.910156 -25.789062 26.609375 -25.4375 C 26.304688 -25.09375 25.988281 -24.921875 25.65625 -24.921875 C 25.164062 -24.921875 24.660156 -25.054688 24.140625 -25.328125 C 23.628906 -25.597656 23.113281 -25.910156 22.59375 -26.265625 C 22.070312 -26.617188 21.582031 -26.867188 21.125 -27.015625 C 19.300781 -27.679688 17.460938 -27.847656 15.609375 -27.515625 C 13.597656 -27.179688 11.921875 -26.40625 10.578125 -25.1875 C 9.242188 -23.976562 8.265625 -22.519531 7.640625 -20.8125 C 7.015625 -19.101562 6.800781 -17.320312 7 -15.46875 C 7.195312 -13.613281 7.816406 -11.863281 8.859375 -10.21875 C 9.617188 -9.03125 10.664062 -8.070312 12 -7.34375 C 13.34375 -6.613281 14.765625 -6.164062 16.265625 -6 C 17.773438 -5.832031 19.1875 -5.960938 20.5 -6.390625 C 21.59375 -6.785156 22.359375 -7.378906 22.796875 -8.171875 C 23.234375 -8.960938 23.5 -9.859375 23.59375 -10.859375 C 23.6875 -11.867188 23.71875 -12.84375 23.6875 -13.78125 C 23.6875 -14.113281 23.65625 -14.460938 23.59375 -14.828125 C 23.53125 -15.191406 23.535156 -15.535156 23.609375 -15.859375 C 23.691406 -16.179688 23.914062 -16.382812 24.28125 -16.46875 C 24.550781 -16.5625 24.875 -16.597656 25.25 -16.578125 C 25.632812 -16.566406 25.96875 -16.5625 26.25 -16.5625 C 26.726562 -16.59375 27.203125 -16.644531 27.671875 -16.71875 C 28.148438 -16.800781 28.632812 -16.8125 29.125 -16.75 C 29.820312 -16.6875 30.226562 -16.460938 30.34375 -16.078125 C 30.46875 -15.703125 30.515625 -15.210938 30.484375 -14.609375 C 30.484375 -13.597656 30.515625 -12.53125 30.578125 -11.40625 C 30.640625 -10.28125 30.625 -9.160156 30.53125 -8.046875 C 30.4375 -6.941406 30.171875 -5.925781 29.734375 -5 C 29.296875 -4.070312 28.570312 -3.300781 27.5625 -2.6875 C 26.101562 -1.84375 24.488281 -1.191406 22.71875 -0.734375 C 20.957031 -0.273438 19.164062 -0.046875 17.34375 -0.046875 C 15.851562 -0.046875 14.367188 -0.203125 12.890625 -0.515625 C 11.421875 -0.835938 10.015625 -1.335938 8.671875 -2.015625 C 6.785156 -2.953125 5.203125 -4.171875 3.921875 -5.671875 C 2.648438 -7.179688 1.691406 -8.859375 1.046875 -10.703125 C 0.410156 -12.546875 0.078125 -14.453125 0.046875 -16.421875 C 0.015625 -18.398438 0.300781 -20.34375 0.90625 -22.25 C 1.519531 -24.15625 2.453125 -25.910156 3.703125 -27.515625 C 5.304688 -29.554688 7.1875 -31.128906 9.34375 -32.234375 C 11.507812 -33.347656 13.765625 -33.90625 16.109375 -33.90625 L 16.390625 -33.90625 C 18.304688 -33.875 20.195312 -33.625 22.0625 -33.15625 C 23.9375 -32.6875 25.695312 -31.9375 27.34375 -30.90625 C 27.519531 -30.78125 27.675781 -30.660156 27.8125 -30.546875 C 27.945312 -30.441406 28.078125 -30.347656 28.203125 -30.265625 Z M 28.203125 -30.265625 "/></g></g></g><g fill="#000000" fill-opacity="1"><g transform="translate(33.640407, 35.820915)"><g><path d="M 0 -16.9375 C 0 -19.28125 0.445312 -21.476562 1.34375 -23.53125 C 2.238281 -25.582031 3.46875 -27.382812 5.03125 -28.9375 C 6.601562 -30.488281 8.421875 -31.703125 10.484375 -32.578125 C 12.554688 -33.460938 14.765625 -33.90625 17.109375 -33.90625 L 17.203125 -33.90625 C 19.546875 -33.875 21.820312 -33.429688 24.03125 -32.578125 C 26.238281 -31.734375 28.160156 -30.457031 29.796875 -28.75 C 31.347656 -27.164062 32.519531 -25.363281 33.3125 -23.34375 C 34.101562 -21.320312 34.5 -19.226562 34.5 -17.0625 C 34.5 -14.90625 34.125 -12.816406 33.375 -10.796875 C 32.632812 -8.773438 31.503906 -6.941406 29.984375 -5.296875 C 28.429688 -3.617188 26.582031 -2.335938 24.4375 -1.453125 C 22.289062 -0.578125 20.039062 -0.109375 17.6875 -0.046875 C 15.332031 0.015625 13.054688 -0.335938 10.859375 -1.109375 C 8.671875 -1.890625 6.769531 -3.101562 5.15625 -4.75 C 3.539062 -6.363281 2.273438 -8.25 1.359375 -10.40625 C 0.453125 -12.5625 0 -14.738281 0 -16.9375 Z M 17.34375 -28.203125 C 16.851562 -28.203125 16.359375 -28.164062 15.859375 -28.09375 C 15.359375 -28.019531 14.863281 -27.890625 14.375 -27.703125 C 13.007812 -27.210938 11.789062 -26.457031 10.71875 -25.4375 C 9.65625 -24.425781 8.789062 -23.28125 8.125 -22 C 7.125 -20.082031 6.722656 -18.039062 6.921875 -15.875 C 7.117188 -13.71875 7.867188 -11.789062 9.171875 -10.09375 C 9.234375 -10 9.296875 -9.910156 9.359375 -9.828125 C 9.421875 -9.753906 9.476562 -9.6875 9.53125 -9.625 C 10.539062 -8.46875 11.707031 -7.5625 13.03125 -6.90625 C 14.351562 -6.257812 15.75 -5.921875 17.21875 -5.890625 C 18.695312 -5.859375 20.140625 -6.191406 21.546875 -6.890625 C 22.972656 -7.617188 24.148438 -8.59375 25.078125 -9.8125 C 26.003906 -11.03125 26.664062 -12.359375 27.0625 -13.796875 C 27.457031 -15.242188 27.578125 -16.722656 27.421875 -18.234375 C 27.273438 -19.742188 26.851562 -21.175781 26.15625 -22.53125 C 25.457031 -23.882812 24.46875 -25.046875 23.1875 -26.015625 C 22.332031 -26.679688 21.410156 -27.203125 20.421875 -27.578125 C 19.429688 -27.960938 18.40625 -28.171875 17.34375 -28.203125 Z M 17.34375 -28.203125 "/></g></g></g><g fill="#000000" fill-opacity="1"><g transform="translate(70.107287, 35.820915)"><g><path d="M 17.4375 -0.359375 C 16.945312 -0.328125 16.46875 -0.304688 16 -0.296875 C 15.53125 -0.285156 15.066406 -0.265625 14.609375 -0.234375 C 12.722656 -0.203125 10.820312 -0.207031 8.90625 -0.25 C 6.988281 -0.289062 5.082031 -0.238281 3.1875 -0.09375 C 2.882812 -0.0625 2.472656 -0.0351562 1.953125 -0.015625 C 1.441406 -0.00390625 0.992188 -0.0820312 0.609375 -0.25 C 0.234375 -0.414062 0.046875 -0.742188 0.046875 -1.234375 C 0.109375 -4.335938 0.140625 -7.429688 0.140625 -10.515625 C 0.140625 -13.609375 0.15625 -16.707031 0.1875 -19.8125 C 0.1875 -21.082031 0.1875 -22.359375 0.1875 -23.640625 C 0.1875 -24.921875 0.1875 -26.195312 0.1875 -27.46875 C 0.1875 -28.113281 0.191406 -28.753906 0.203125 -29.390625 C 0.222656 -30.023438 0.234375 -30.664062 0.234375 -31.3125 C 0.234375 -31.738281 0.269531 -32.222656 0.34375 -32.765625 C 0.414062 -33.316406 0.695312 -33.664062 1.1875 -33.8125 C 1.28125 -33.84375 1.367188 -33.859375 1.453125 -33.859375 C 1.546875 -33.859375 1.640625 -33.859375 1.734375 -33.859375 C 4.566406 -33.828125 7.40625 -33.78125 10.25 -33.71875 C 13.09375 -33.664062 15.898438 -33.410156 18.671875 -32.953125 C 20.035156 -32.742188 21.21875 -32.234375 22.21875 -31.421875 C 23.226562 -30.617188 23.96875 -29.628906 24.4375 -28.453125 C 24.90625 -27.285156 25.019531 -26.015625 24.78125 -24.640625 C 24.570312 -23.429688 24.160156 -22.34375 23.546875 -21.375 C 22.941406 -20.414062 22.378906 -19.40625 21.859375 -18.34375 C 21.828125 -18.226562 21.785156 -18.113281 21.734375 -18 C 21.691406 -17.894531 21.671875 -17.78125 21.671875 -17.65625 C 21.703125 -17.382812 21.878906 -17.101562 22.203125 -16.8125 C 22.523438 -16.53125 22.882812 -16.257812 23.28125 -16 C 23.675781 -15.738281 23.960938 -15.515625 24.140625 -15.328125 C 24.753906 -14.722656 25.3125 -14.046875 25.8125 -13.296875 C 26.3125 -12.554688 26.65625 -11.742188 26.84375 -10.859375 C 27.113281 -9.554688 26.992188 -8.15625 26.484375 -6.65625 C 25.984375 -5.164062 25.265625 -3.9375 24.328125 -2.96875 C 23.441406 -2.019531 22.382812 -1.367188 21.15625 -1.015625 C 19.925781 -0.671875 18.6875 -0.453125 17.4375 -0.359375 Z M 7.125 -23.921875 C 7.125 -23.890625 7.125 -23.847656 7.125 -23.796875 C 7.125 -23.753906 7.125 -23.71875 7.125 -23.6875 C 7.09375 -23.382812 7.0625 -23.003906 7.03125 -22.546875 C 7 -22.085938 7.035156 -21.660156 7.140625 -21.265625 C 7.242188 -20.867188 7.460938 -20.582031 7.796875 -20.40625 C 7.984375 -20.3125 8.164062 -20.253906 8.34375 -20.234375 C 8.53125 -20.222656 8.734375 -20.21875 8.953125 -20.21875 C 9.859375 -20.1875 10.773438 -20.15625 11.703125 -20.125 C 12.628906 -20.09375 13.550781 -20.171875 14.46875 -20.359375 C 15.164062 -20.472656 15.8125 -20.828125 16.40625 -21.421875 C 17 -22.015625 17.359375 -22.664062 17.484375 -23.375 C 17.660156 -24.25 17.554688 -25.003906 17.171875 -25.640625 C 16.796875 -26.285156 16.265625 -26.78125 15.578125 -27.125 C 14.898438 -27.476562 14.164062 -27.6875 13.375 -27.75 C 12.914062 -27.8125 12.375 -27.863281 11.75 -27.90625 C 11.125 -27.957031 10.503906 -27.953125 9.890625 -27.890625 C 9.285156 -27.828125 8.753906 -27.648438 8.296875 -27.359375 C 7.847656 -27.066406 7.5625 -26.601562 7.4375 -25.96875 C 7.375 -25.632812 7.320312 -25.289062 7.28125 -24.9375 C 7.238281 -24.59375 7.1875 -24.253906 7.125 -23.921875 Z M 7.484375 -7.484375 C 7.878906 -6.785156 8.445312 -6.320312 9.1875 -6.09375 C 9.9375 -5.863281 10.753906 -5.769531 11.640625 -5.8125 C 12.523438 -5.863281 13.332031 -5.9375 14.0625 -6.03125 C 14.9375 -6.113281 15.832031 -6.367188 16.75 -6.796875 C 17.664062 -7.222656 18.363281 -7.816406 18.84375 -8.578125 C 19.300781 -9.210938 19.476562 -9.859375 19.375 -10.515625 C 19.269531 -11.171875 18.992188 -11.78125 18.546875 -12.34375 C 18.109375 -12.90625 17.601562 -13.351562 17.03125 -13.6875 C 16.351562 -14.113281 15.617188 -14.378906 14.828125 -14.484375 C 14.035156 -14.597656 13.257812 -14.671875 12.5 -14.703125 C 11.625 -14.753906 10.765625 -14.675781 9.921875 -14.46875 C 9.085938 -14.257812 8.394531 -13.878906 7.84375 -13.328125 C 7.300781 -12.773438 6.984375 -11.984375 6.890625 -10.953125 C 6.859375 -10.523438 6.863281 -10.097656 6.90625 -9.671875 C 6.957031 -9.242188 7.03125 -8.816406 7.125 -8.390625 C 7.1875 -8.242188 7.238281 -8.09375 7.28125 -7.9375 C 7.320312 -7.789062 7.390625 -7.640625 7.484375 -7.484375 Z M 7.484375 -7.484375 "/></g></g></g><g fill="#000000" fill-opacity="1"><g transform="translate(99.043441, 35.820915)"><g><path d="M 1.546875 -33.859375 C 1.578125 -33.859375 1.609375 -33.859375 1.640625 -33.859375 C 1.671875 -33.859375 1.703125 -33.859375 1.734375 -33.859375 C 2.492188 -33.859375 3.238281 -33.847656 3.96875 -33.828125 C 4.695312 -33.816406 5.441406 -33.800781 6.203125 -33.78125 C 6.753906 -33.75 7.03125 -33.535156 7.03125 -33.140625 C 7.03125 -32.742188 7.03125 -32.332031 7.03125 -31.90625 C 7.03125 -29.289062 7.03125 -26.65625 7.03125 -24 C 7.03125 -21.351562 7.03125 -18.722656 7.03125 -16.109375 C 7.03125 -14.859375 7.019531 -13.601562 7 -12.34375 C 6.988281 -11.082031 6.984375 -9.828125 6.984375 -8.578125 C 6.984375 -7.421875 7.050781 -6.253906 7.1875 -5.078125 C 7.320312 -3.910156 7.316406 -2.734375 7.171875 -1.546875 C 7.078125 -0.972656 6.875 -0.601562 6.5625 -0.4375 C 6.257812 -0.269531 5.820312 -0.15625 5.25 -0.09375 C 4.976562 -0.0625 4.5625 -0.0351562 4 -0.015625 C 3.4375 -0.00390625 2.847656 -0.0351562 2.234375 -0.109375 C 1.628906 -0.191406 1.101562 -0.34375 0.65625 -0.5625 C 0.21875 -0.789062 0 -1.117188 0 -1.546875 C 0 -6.660156 0.00390625 -11.773438 0.015625 -16.890625 C 0.0351562 -22.003906 0.03125 -27.113281 0 -32.21875 C 0 -32.832031 0.113281 -33.25 0.34375 -33.46875 C 0.570312 -33.695312 0.972656 -33.828125 1.546875 -33.859375 Z M 1.546875 -33.859375 "/></g></g></g></g></g></svg>