<svg xmlns="http://www.w3.org/2000/svg" xmlns:xlink="http://www.w3.org/1999/xlink" width="160" zoomAndPan="magnify" viewBox="0 0 120 52.499999" height="70" preserveAspectRatio="xMidYMid meet" version="1.0"><defs><filter x="0%" y="0%" width="100%" height="100%" id="15a779fdcb"><feColorMatrix values="0 0 0 0 1 0 0 0 0 1 0 0 0 0 1 0 0 0 1 0" color-interpolation-filters="sRGB"/></filter><g/><clipPath id="b82f87c748"><path d="M 0.566406 0 L 119.433594 0 L 119.433594 52.003906 L 0.566406 52.003906 Z M 0.566406 0 " clip-rule="nonzero"/></clipPath><clipPath id="5bd9d556ad"><path d="M 0.566406 0 L 119.433594 0 L 119.433594 52.003906 L 0.566406 52.003906 Z M 0.566406 0 " clip-rule="nonzero"/></clipPath><clipPath id="57e1a66a3b"><path d="M 0.566406 0 L 119.433594 0 L 119.433594 52.003906 L 0.566406 52.003906 Z M 0.566406 0 " clip-rule="nonzero"/></clipPath><clipPath id="680f105499"><path d="M 0.566406 0 L 119.433594 0 L 119.433594 52.003906 L 0.566406 52.003906 Z M 0.566406 0 " clip-rule="nonzero"/></clipPath><linearGradient x1="18.714963" gradientTransform="matrix(1.056083, 0, 0, 1.055557, -3.370038, 10.152564)" y1="54.63707" x2="99.625757" gradientUnits="userSpaceOnUse" y2="-26.274794" id="4086fa87eb"><stop stop-opacity="1" stop-color="rgb(99.609375%, 51.368713%, 33.729553%)" offset="0"/><stop stop-opacity="1" stop-color="rgb(99.609375%, 51.368713%, 33.729553%)" offset="0.125"/><stop stop-opacity="1" stop-color="rgb(99.609375%, 51.368713%, 33.729553%)" offset="0.15625"/><stop stop-opacity="1" stop-color="rgb(99.610901%, 51.525879%, 33.653259%)" offset="0.171875"/><stop stop-opacity="1" stop-color="rgb(99.617004%, 52.185059%, 33.332825%)" offset="0.175781"/><stop stop-opacity="1" stop-color="rgb(99.621582%, 52.687073%, 33.088684%)" offset="0.179688"/><stop stop-opacity="1" stop-color="rgb(99.62616%, 53.187561%, 32.844543%)" offset="0.183594"/><stop stop-opacity="1" stop-color="rgb(99.630737%, 53.689575%, 32.600403%)" offset="0.1875"/><stop stop-opacity="1" stop-color="rgb(99.635315%, 54.191589%, 32.356262%)" offset="0.191406"/><stop stop-opacity="1" stop-color="rgb(99.639893%, 54.693604%, 32.113647%)" offset="0.195313"/><stop stop-opacity="1" stop-color="rgb(99.64447%, 55.195618%, 31.869507%)" offset="0.199219"/><stop stop-opacity="1" stop-color="rgb(99.649048%, 55.697632%, 31.625366%)" offset="0.203125"/><stop stop-opacity="1" stop-color="rgb(99.653625%, 56.199646%, 31.381226%)" offset="0.207031"/><stop stop-opacity="1" stop-color="rgb(99.658203%, 56.70166%, 31.137085%)" offset="0.210938"/><stop stop-opacity="1" stop-color="rgb(99.662781%, 57.202148%, 30.892944%)" offset="0.214844"/><stop stop-opacity="1" stop-color="rgb(99.667358%, 57.704163%, 30.648804%)" offset="0.21875"/><stop stop-opacity="1" stop-color="rgb(99.671936%, 58.206177%, 30.404663%)" offset="0.222656"/><stop stop-opacity="1" stop-color="rgb(99.67804%, 58.708191%, 30.160522%)" offset="0.226563"/><stop stop-opacity="1" stop-color="rgb(99.682617%, 59.210205%, 29.916382%)" offset="0.230469"/><stop stop-opacity="1" stop-color="rgb(99.687195%, 59.712219%, 29.673767%)" offset="0.234375"/><stop stop-opacity="1" stop-color="rgb(99.691772%, 60.212708%, 29.429626%)" offset="0.238281"/><stop stop-opacity="1" stop-color="rgb(99.69635%, 60.714722%, 29.185486%)" offset="0.242188"/><stop stop-opacity="1" stop-color="rgb(99.700928%, 61.216736%, 28.941345%)" offset="0.246094"/><stop stop-opacity="1" stop-color="rgb(99.705505%, 61.71875%, 28.697205%)" offset="0.25"/><stop stop-opacity="1" stop-color="rgb(99.710083%, 62.220764%, 28.453064%)" offset="0.253906"/><stop stop-opacity="1" stop-color="rgb(99.714661%, 62.722778%, 28.208923%)" offset="0.257812"/><stop stop-opacity="1" stop-color="rgb(99.719238%, 63.224792%, 27.964783%)" offset="0.261719"/><stop stop-opacity="1" stop-color="rgb(99.723816%, 63.726807%, 27.722168%)" offset="0.265625"/><stop stop-opacity="1" stop-color="rgb(99.728394%, 64.227295%, 27.478027%)" offset="0.269531"/><stop stop-opacity="1" stop-color="rgb(99.732971%, 64.729309%, 27.233887%)" offset="0.273438"/><stop stop-opacity="1" stop-color="rgb(99.737549%, 65.231323%, 26.989746%)" offset="0.277344"/><stop stop-opacity="1" stop-color="rgb(99.742126%, 65.733337%, 26.745605%)" offset="0.28125"/><stop stop-opacity="1" stop-color="rgb(99.746704%, 66.235352%, 26.501465%)" offset="0.285156"/><stop stop-opacity="1" stop-color="rgb(99.752808%, 66.737366%, 26.257324%)" offset="0.289063"/><stop stop-opacity="1" stop-color="rgb(99.757385%, 67.23938%, 26.013184%)" offset="0.292969"/><stop stop-opacity="1" stop-color="rgb(99.761963%, 67.741394%, 25.769043%)" offset="0.296875"/><stop stop-opacity="1" stop-color="rgb(99.766541%, 68.241882%, 25.524902%)" offset="0.300781"/><stop stop-opacity="1" stop-color="rgb(99.771118%, 68.743896%, 25.282288%)" offset="0.304688"/><stop stop-opacity="1" stop-color="rgb(99.775696%, 69.245911%, 25.038147%)" offset="0.308594"/><stop stop-opacity="1" stop-color="rgb(99.780273%, 69.747925%, 24.794006%)" offset="0.3125"/><stop stop-opacity="1" stop-color="rgb(99.784851%, 70.249939%, 24.549866%)" offset="0.316406"/><stop stop-opacity="1" stop-color="rgb(99.789429%, 70.751953%, 24.305725%)" offset="0.320313"/><stop stop-opacity="1" stop-color="rgb(99.794006%, 71.253967%, 24.061584%)" offset="0.324219"/><stop stop-opacity="1" stop-color="rgb(99.798584%, 71.755981%, 23.817444%)" offset="0.328125"/><stop stop-opacity="1" stop-color="rgb(99.803162%, 72.25647%, 23.573303%)" offset="0.332031"/><stop stop-opacity="1" stop-color="rgb(99.807739%, 72.758484%, 23.330688%)" offset="0.335938"/><stop stop-opacity="1" stop-color="rgb(99.812317%, 73.260498%, 23.086548%)" offset="0.339844"/><stop stop-opacity="1" stop-color="rgb(99.816895%, 73.762512%, 22.842407%)" offset="0.34375"/><stop stop-opacity="1" stop-color="rgb(99.821472%, 74.264526%, 22.598267%)" offset="0.347656"/><stop stop-opacity="1" stop-color="rgb(99.82605%, 74.766541%, 22.354126%)" offset="0.351563"/><stop stop-opacity="1" stop-color="rgb(99.830627%, 75.268555%, 22.109985%)" offset="0.355469"/><stop stop-opacity="1" stop-color="rgb(99.836731%, 75.770569%, 21.865845%)" offset="0.359375"/><stop stop-opacity="1" stop-color="rgb(99.841309%, 76.271057%, 21.621704%)" offset="0.363281"/><stop stop-opacity="1" stop-color="rgb(99.845886%, 76.773071%, 21.377563%)" offset="0.367188"/><stop stop-opacity="1" stop-color="rgb(99.850464%, 77.275085%, 21.133423%)" offset="0.371094"/><stop stop-opacity="1" stop-color="rgb(99.855042%, 77.7771%, 20.890808%)" offset="0.375"/><stop stop-opacity="1" stop-color="rgb(99.859619%, 78.279114%, 20.646667%)" offset="0.378906"/><stop stop-opacity="1" stop-color="rgb(99.864197%, 78.781128%, 20.402527%)" offset="0.382813"/><stop stop-opacity="1" stop-color="rgb(99.868774%, 79.283142%, 20.158386%)" offset="0.386719"/><stop stop-opacity="1" stop-color="rgb(99.873352%, 79.785156%, 19.914246%)" offset="0.390625"/><stop stop-opacity="1" stop-color="rgb(99.87793%, 80.285645%, 19.670105%)" offset="0.394531"/><stop stop-opacity="1" stop-color="rgb(99.882507%, 80.787659%, 19.425964%)" offset="0.398438"/><stop stop-opacity="1" stop-color="rgb(99.887085%, 81.289673%, 19.181824%)" offset="0.402344"/><stop stop-opacity="1" stop-color="rgb(99.891663%, 81.791687%, 18.939209%)" offset="0.40625"/><stop stop-opacity="1" stop-color="rgb(99.89624%, 82.293701%, 18.695068%)" offset="0.410156"/><stop stop-opacity="1" stop-color="rgb(99.900818%, 82.795715%, 18.450928%)" offset="0.414063"/><stop stop-opacity="1" stop-color="rgb(99.905396%, 83.297729%, 18.206787%)" offset="0.417969"/><stop stop-opacity="1" stop-color="rgb(99.909973%, 83.799744%, 17.962646%)" offset="0.421875"/><stop stop-opacity="1" stop-color="rgb(99.914551%, 84.300232%, 17.718506%)" offset="0.425781"/><stop stop-opacity="1" stop-color="rgb(99.920654%, 84.802246%, 17.474365%)" offset="0.429688"/><stop stop-opacity="1" stop-color="rgb(99.925232%, 85.30426%, 17.230225%)" offset="0.433594"/><stop stop-opacity="1" stop-color="rgb(99.92981%, 85.806274%, 16.986084%)" offset="0.4375"/><stop stop-opacity="1" stop-color="rgb(99.934387%, 86.308289%, 16.741943%)" offset="0.441406"/><stop stop-opacity="1" stop-color="rgb(99.938965%, 86.810303%, 16.499329%)" offset="0.445313"/><stop stop-opacity="1" stop-color="rgb(99.943542%, 87.312317%, 16.255188%)" offset="0.449219"/><stop stop-opacity="1" stop-color="rgb(99.94812%, 87.814331%, 16.011047%)" offset="0.453125"/><stop stop-opacity="1" stop-color="rgb(99.952698%, 88.314819%, 15.766907%)" offset="0.457031"/><stop stop-opacity="1" stop-color="rgb(99.957275%, 88.816833%, 15.522766%)" offset="0.460938"/><stop stop-opacity="1" stop-color="rgb(99.961853%, 89.318848%, 15.278625%)" offset="0.464844"/><stop stop-opacity="1" stop-color="rgb(99.966431%, 89.820862%, 15.034485%)" offset="0.46875"/><stop stop-opacity="1" stop-color="rgb(99.971008%, 90.322876%, 14.790344%)" offset="0.472656"/><stop stop-opacity="1" stop-color="rgb(99.975586%, 90.82489%, 14.546204%)" offset="0.476563"/><stop stop-opacity="1" stop-color="rgb(99.980164%, 91.326904%, 14.302063%)" offset="0.480469"/><stop stop-opacity="1" stop-color="rgb(99.984741%, 91.828918%, 14.059448%)" offset="0.484375"/><stop stop-opacity="1" stop-color="rgb(99.989319%, 92.329407%, 13.815308%)" offset="0.488281"/><stop stop-opacity="1" stop-color="rgb(99.993896%, 92.831421%, 13.571167%)" offset="0.492188"/><stop stop-opacity="1" stop-color="rgb(99.780273%, 93.093872%, 13.374329%)" offset="0.496094"/><stop stop-opacity="1" stop-color="rgb(99.568176%, 93.357849%, 13.17749%)" offset="0.5"/><stop stop-opacity="1" stop-color="rgb(99.14093%, 93.385315%, 13.026428%)" offset="0.503906"/><stop stop-opacity="1" stop-color="rgb(98.71521%, 93.414307%, 12.876892%)" offset="0.507813"/><stop stop-opacity="1" stop-color="rgb(98.287964%, 93.441772%, 12.727356%)" offset="0.511719"/><stop stop-opacity="1" stop-color="rgb(97.860718%, 93.470764%, 12.57782%)" offset="0.515625"/><stop stop-opacity="1" stop-color="rgb(97.433472%, 93.49823%, 12.426758%)" offset="0.519531"/><stop stop-opacity="1" stop-color="rgb(97.007751%, 93.527222%, 12.277222%)" offset="0.523438"/><stop stop-opacity="1" stop-color="rgb(96.580505%, 93.554688%, 12.12616%)" offset="0.527344"/><stop stop-opacity="1" stop-color="rgb(96.153259%, 93.583679%, 11.976624%)" offset="0.53125"/><stop stop-opacity="1" stop-color="rgb(95.726013%, 93.611145%, 11.827087%)" offset="0.535156"/><stop stop-opacity="1" stop-color="rgb(95.300293%, 93.640137%, 11.677551%)" offset="0.539062"/><stop stop-opacity="1" stop-color="rgb(94.873047%, 93.667603%, 11.526489%)" offset="0.542969"/><stop stop-opacity="1" stop-color="rgb(94.447327%, 93.696594%, 11.376953%)" offset="0.546875"/><stop stop-opacity="1" stop-color="rgb(94.020081%, 93.72406%, 11.225891%)" offset="0.550781"/><stop stop-opacity="1" stop-color="rgb(93.592834%, 93.753052%, 11.076355%)" offset="0.554688"/><stop stop-opacity="1" stop-color="rgb(93.165588%, 93.780518%, 10.925293%)" offset="0.558594"/><stop stop-opacity="1" stop-color="rgb(92.739868%, 93.809509%, 10.775757%)" offset="0.5625"/><stop stop-opacity="1" stop-color="rgb(92.312622%, 93.836975%, 10.626221%)" offset="0.566406"/><stop stop-opacity="1" stop-color="rgb(91.885376%, 93.865967%, 10.476685%)" offset="0.570313"/><stop stop-opacity="1" stop-color="rgb(91.45813%, 93.893433%, 10.325623%)" offset="0.574219"/><stop stop-opacity="1" stop-color="rgb(91.03241%, 93.922424%, 10.176086%)" offset="0.578125"/><stop stop-opacity="1" stop-color="rgb(90.605164%, 93.94989%, 10.025024%)" offset="0.582031"/><stop stop-opacity="1" stop-color="rgb(90.177917%, 93.978882%, 9.875488%)" offset="0.585938"/><stop stop-opacity="1" stop-color="rgb(89.750671%, 94.006348%, 9.724426%)" offset="0.589844"/><stop stop-opacity="1" stop-color="rgb(89.324951%, 94.035339%, 9.57489%)" offset="0.59375"/><stop stop-opacity="1" stop-color="rgb(88.897705%, 94.062805%, 9.425354%)" offset="0.597656"/><stop stop-opacity="1" stop-color="rgb(88.470459%, 94.091797%, 9.275818%)" offset="0.601562"/><stop stop-opacity="1" stop-color="rgb(88.043213%, 94.119263%, 9.124756%)" offset="0.605469"/><stop stop-opacity="1" stop-color="rgb(87.617493%, 94.148254%, 8.97522%)" offset="0.609375"/><stop stop-opacity="1" stop-color="rgb(87.190247%, 94.17572%, 8.824158%)" offset="0.613281"/><stop stop-opacity="1" stop-color="rgb(86.763%, 94.204712%, 8.674622%)" offset="0.617188"/><stop stop-opacity="1" stop-color="rgb(86.335754%, 94.232178%, 8.525085%)" offset="0.621094"/><stop stop-opacity="1" stop-color="rgb(85.910034%, 94.261169%, 8.375549%)" offset="0.625"/><stop stop-opacity="1" stop-color="rgb(85.482788%, 94.288635%, 8.224487%)" offset="0.628906"/><stop stop-opacity="1" stop-color="rgb(85.057068%, 94.317627%, 8.074951%)" offset="0.632813"/><stop stop-opacity="1" stop-color="rgb(84.629822%, 94.345093%, 7.923889%)" offset="0.636719"/><stop stop-opacity="1" stop-color="rgb(84.202576%, 94.374084%, 7.774353%)" offset="0.640625"/><stop stop-opacity="1" stop-color="rgb(83.77533%, 94.40155%, 7.623291%)" offset="0.644531"/><stop stop-opacity="1" stop-color="rgb(83.349609%, 94.430542%, 7.473755%)" offset="0.648438"/><stop stop-opacity="1" stop-color="rgb(82.922363%, 94.458008%, 7.324219%)" offset="0.652344"/><stop stop-opacity="1" stop-color="rgb(82.495117%, 94.487%, 7.174683%)" offset="0.65625"/><stop stop-opacity="1" stop-color="rgb(82.067871%, 94.514465%, 7.023621%)" offset="0.660156"/><stop stop-opacity="1" stop-color="rgb(81.642151%, 94.543457%, 6.874084%)" offset="0.664062"/><stop stop-opacity="1" stop-color="rgb(81.214905%, 94.570923%, 6.723022%)" offset="0.667969"/><stop stop-opacity="1" stop-color="rgb(80.787659%, 94.599915%, 6.573486%)" offset="0.671875"/><stop stop-opacity="1" stop-color="rgb(80.360413%, 94.62738%, 6.422424%)" offset="0.675781"/><stop stop-opacity="1" stop-color="rgb(79.934692%, 94.656372%, 6.272888%)" offset="0.679688"/><stop stop-opacity="1" stop-color="rgb(79.507446%, 94.683838%, 6.123352%)" offset="0.683594"/><stop stop-opacity="1" stop-color="rgb(79.0802%, 94.71283%, 5.973816%)" offset="0.6875"/><stop stop-opacity="1" stop-color="rgb(78.652954%, 94.740295%, 5.822754%)" offset="0.691406"/><stop stop-opacity="1" stop-color="rgb(78.227234%, 94.769287%, 5.673218%)" offset="0.695312"/><stop stop-opacity="1" stop-color="rgb(77.799988%, 94.796753%, 5.522156%)" offset="0.699219"/><stop stop-opacity="1" stop-color="rgb(77.372742%, 94.825745%, 5.37262%)" offset="0.703125"/><stop stop-opacity="1" stop-color="rgb(76.945496%, 94.85321%, 5.223083%)" offset="0.707031"/><stop stop-opacity="1" stop-color="rgb(76.519775%, 94.882202%, 5.073547%)" offset="0.710938"/><stop stop-opacity="1" stop-color="rgb(76.092529%, 94.909668%, 4.922485%)" offset="0.714844"/><stop stop-opacity="1" stop-color="rgb(75.665283%, 94.93866%, 4.772949%)" offset="0.71875"/><stop stop-opacity="1" stop-color="rgb(75.238037%, 94.966125%, 4.621887%)" offset="0.722656"/><stop stop-opacity="1" stop-color="rgb(74.812317%, 94.995117%, 4.472351%)" offset="0.726563"/><stop stop-opacity="1" stop-color="rgb(74.385071%, 95.022583%, 4.321289%)" offset="0.730469"/><stop stop-opacity="1" stop-color="rgb(73.959351%, 95.051575%, 4.171753%)" offset="0.734375"/><stop stop-opacity="1" stop-color="rgb(73.532104%, 95.079041%, 4.022217%)" offset="0.738281"/><stop stop-opacity="1" stop-color="rgb(73.104858%, 95.108032%, 3.872681%)" offset="0.742188"/><stop stop-opacity="1" stop-color="rgb(72.677612%, 95.135498%, 3.721619%)" offset="0.746094"/><stop stop-opacity="1" stop-color="rgb(72.251892%, 95.16449%, 3.572083%)" offset="0.75"/><stop stop-opacity="1" stop-color="rgb(71.824646%, 95.191956%, 3.421021%)" offset="0.753906"/><stop stop-opacity="1" stop-color="rgb(71.3974%, 95.220947%, 3.271484%)" offset="0.757812"/><stop stop-opacity="1" stop-color="rgb(70.970154%, 95.248413%, 3.120422%)" offset="0.761719"/><stop stop-opacity="1" stop-color="rgb(70.544434%, 95.277405%, 2.970886%)" offset="0.765625"/><stop stop-opacity="1" stop-color="rgb(70.117188%, 95.304871%, 2.82135%)" offset="0.769531"/><stop stop-opacity="1" stop-color="rgb(69.689941%, 95.333862%, 2.671814%)" offset="0.773438"/><stop stop-opacity="1" stop-color="rgb(69.262695%, 95.361328%, 2.520752%)" offset="0.777344"/><stop stop-opacity="1" stop-color="rgb(68.836975%, 95.39032%, 2.371216%)" offset="0.78125"/><stop stop-opacity="1" stop-color="rgb(68.409729%, 95.417786%, 2.220154%)" offset="0.785156"/><stop stop-opacity="1" stop-color="rgb(67.982483%, 95.446777%, 2.070618%)" offset="0.789063"/><stop stop-opacity="1" stop-color="rgb(67.555237%, 95.474243%, 1.921082%)" offset="0.792969"/><stop stop-opacity="1" stop-color="rgb(67.129517%, 95.503235%, 1.771545%)" offset="0.796875"/><stop stop-opacity="1" stop-color="rgb(66.702271%, 95.530701%, 1.620483%)" offset="0.800781"/><stop stop-opacity="1" stop-color="rgb(66.275024%, 95.559692%, 1.470947%)" offset="0.804688"/><stop stop-opacity="1" stop-color="rgb(65.847778%, 95.587158%, 1.319885%)" offset="0.808594"/><stop stop-opacity="1" stop-color="rgb(65.422058%, 95.61615%, 1.170349%)" offset="0.8125"/><stop stop-opacity="1" stop-color="rgb(64.994812%, 95.643616%, 1.019287%)" offset="0.816406"/><stop stop-opacity="1" stop-color="rgb(64.569092%, 95.672607%, 0.869751%)" offset="0.820313"/><stop stop-opacity="1" stop-color="rgb(64.439392%, 95.680237%, 0.823975%)" offset="0.828125"/><stop stop-opacity="1" stop-color="rgb(64.309692%, 95.689392%, 0.779724%)" offset="0.84375"/><stop stop-opacity="1" stop-color="rgb(64.309692%, 95.689392%, 0.779724%)" offset="0.875"/><stop stop-opacity="1" stop-color="rgb(64.309692%, 95.689392%, 0.779724%)" offset="1"/></linearGradient><clipPath id="17c45ae5c2"><rect x="0" width="120" y="0" height="53"/></clipPath><clipPath id="180604f898"><path d="M 0.566406 0 L 119.433594 0 L 119.433594 52.003906 L 0.566406 52.003906 Z M 0.566406 0 " clip-rule="nonzero"/></clipPath><clipPath id="37ef38d424"><rect x="0" width="120" y="0" height="53"/></clipPath><clipPath id="bcee4a3ffe"><rect x="0" width="120" y="0" height="53"/></clipPath><mask id="59edcbd4f4"><g filter="url(#15a779fdcb)"><g><g clip-path="url(#bcee4a3ffe)"><g clip-path="url(#180604f898)"><g><g clip-path="url(#37ef38d424)"><g fill="#000000" fill-opacity="1"><g transform="translate(2.55558, 38.695569)"><g><path d="M 29.484375 -31.640625 C 29.867188 -31.253906 30.019531 -30.867188 29.9375 -30.484375 C 29.863281 -30.109375 29.632812 -29.570312 29.25 -28.875 C 29.125 -28.613281 28.929688 -28.257812 28.671875 -27.8125 C 28.421875 -27.375 28.132812 -26.96875 27.8125 -26.59375 C 27.5 -26.226562 27.164062 -26.046875 26.8125 -26.046875 C 26.300781 -26.046875 25.773438 -26.1875 25.234375 -26.46875 C 24.703125 -26.757812 24.164062 -27.085938 23.625 -27.453125 C 23.082031 -27.828125 22.570312 -28.09375 22.09375 -28.25 C 20.1875 -28.945312 18.257812 -29.125 16.3125 -28.78125 C 14.21875 -28.425781 12.46875 -27.613281 11.0625 -26.34375 C 9.664062 -25.070312 8.640625 -23.546875 7.984375 -21.765625 C 7.335938 -19.984375 7.117188 -18.117188 7.328125 -16.171875 C 7.535156 -14.234375 8.175781 -12.40625 9.25 -10.6875 C 10.050781 -9.445312 11.148438 -8.441406 12.546875 -7.671875 C 13.953125 -6.910156 15.441406 -6.441406 17.015625 -6.265625 C 18.585938 -6.097656 20.054688 -6.238281 21.421875 -6.6875 C 22.566406 -7.09375 23.367188 -7.707031 23.828125 -8.53125 C 24.296875 -9.363281 24.578125 -10.304688 24.671875 -11.359375 C 24.765625 -12.410156 24.796875 -13.425781 24.765625 -14.40625 C 24.765625 -14.757812 24.734375 -15.125 24.671875 -15.5 C 24.609375 -15.882812 24.613281 -16.242188 24.6875 -16.578125 C 24.769531 -16.910156 25.003906 -17.125 25.390625 -17.21875 C 25.671875 -17.320312 26.007812 -17.363281 26.40625 -17.34375 C 26.8125 -17.332031 27.15625 -17.328125 27.4375 -17.328125 C 27.945312 -17.359375 28.445312 -17.410156 28.9375 -17.484375 C 29.4375 -17.566406 29.9375 -17.578125 30.4375 -17.515625 C 31.175781 -17.453125 31.609375 -17.21875 31.734375 -16.8125 C 31.859375 -16.414062 31.90625 -15.898438 31.875 -15.265625 C 31.875 -14.210938 31.90625 -13.097656 31.96875 -11.921875 C 32.03125 -10.753906 32.015625 -9.585938 31.921875 -8.421875 C 31.828125 -7.265625 31.546875 -6.195312 31.078125 -5.21875 C 30.617188 -4.25 29.867188 -3.445312 28.828125 -2.8125 C 27.296875 -1.925781 25.609375 -1.242188 23.765625 -0.765625 C 21.921875 -0.285156 20.046875 -0.046875 18.140625 -0.046875 C 16.578125 -0.046875 15.023438 -0.210938 13.484375 -0.546875 C 11.941406 -0.878906 10.46875 -1.394531 9.0625 -2.09375 C 7.09375 -3.082031 5.4375 -4.363281 4.09375 -5.9375 C 2.757812 -7.507812 1.757812 -9.257812 1.09375 -11.1875 C 0.425781 -13.113281 0.078125 -15.109375 0.046875 -17.171875 C 0.015625 -19.242188 0.316406 -21.273438 0.953125 -23.265625 C 1.585938 -25.253906 2.554688 -27.09375 3.859375 -28.78125 C 5.546875 -30.90625 7.519531 -32.546875 9.78125 -33.703125 C 12.039062 -34.867188 14.394531 -35.453125 16.84375 -35.453125 L 17.125 -35.453125 C 19.132812 -35.421875 21.113281 -35.15625 23.0625 -34.65625 C 25.019531 -34.164062 26.859375 -33.382812 28.578125 -32.3125 C 28.773438 -32.175781 28.941406 -32.050781 29.078125 -31.9375 C 29.222656 -31.832031 29.359375 -31.734375 29.484375 -31.640625 Z M 29.484375 -31.640625 "/></g></g></g><g fill="#000000" fill-opacity="1"><g transform="translate(36.624135, 38.695569)"><g><path d="M 0 -17.703125 C 0 -20.148438 0.46875 -22.445312 1.40625 -24.59375 C 2.34375 -26.738281 3.628906 -28.625 5.265625 -30.25 C 6.910156 -31.875 8.8125 -33.144531 10.96875 -34.0625 C 13.132812 -34.988281 15.441406 -35.453125 17.890625 -35.453125 L 17.984375 -35.453125 C 20.441406 -35.421875 22.820312 -34.957031 25.125 -34.0625 C 27.425781 -33.175781 29.4375 -31.84375 31.15625 -30.0625 C 32.78125 -28.40625 34.003906 -26.519531 34.828125 -24.40625 C 35.660156 -22.289062 36.078125 -20.101562 36.078125 -17.84375 C 36.078125 -15.582031 35.6875 -13.394531 34.90625 -11.28125 C 34.125 -9.164062 32.9375 -7.25 31.34375 -5.53125 C 29.726562 -3.78125 27.796875 -2.441406 25.546875 -1.515625 C 23.304688 -0.597656 20.953125 -0.109375 18.484375 -0.046875 C 16.023438 0.015625 13.648438 -0.359375 11.359375 -1.171875 C 9.066406 -1.984375 7.078125 -3.25 5.390625 -4.96875 C 3.703125 -6.644531 2.378906 -8.613281 1.421875 -10.875 C 0.472656 -13.132812 0 -15.410156 0 -17.703125 Z M 18.140625 -29.484375 C 17.628906 -29.484375 17.109375 -29.441406 16.578125 -29.359375 C 16.054688 -29.285156 15.539062 -29.15625 15.03125 -28.96875 C 13.601562 -28.457031 12.332031 -27.664062 11.21875 -26.59375 C 10.101562 -25.53125 9.195312 -24.332031 8.5 -23 C 7.445312 -21 7.023438 -18.867188 7.234375 -16.609375 C 7.441406 -14.347656 8.226562 -12.328125 9.59375 -10.546875 C 9.65625 -10.453125 9.71875 -10.363281 9.78125 -10.28125 C 9.84375 -10.207031 9.90625 -10.132812 9.96875 -10.0625 C 11.019531 -8.851562 12.238281 -7.90625 13.625 -7.21875 C 15.007812 -6.539062 16.472656 -6.1875 18.015625 -6.15625 C 19.554688 -6.125 21.054688 -6.472656 22.515625 -7.203125 C 24.015625 -7.960938 25.25 -8.976562 26.21875 -10.25 C 27.1875 -11.53125 27.878906 -12.925781 28.296875 -14.4375 C 28.710938 -15.945312 28.835938 -17.488281 28.671875 -19.0625 C 28.515625 -20.632812 28.070312 -22.128906 27.34375 -23.546875 C 26.613281 -24.960938 25.578125 -26.179688 24.234375 -27.203125 C 23.347656 -27.898438 22.382812 -28.445312 21.34375 -28.84375 C 20.3125 -29.238281 19.242188 -29.453125 18.140625 -29.484375 Z M 18.140625 -29.484375 "/></g></g></g><g fill="#000000" fill-opacity="1"><g transform="translate(74.748478, 38.695569)"><g><path d="M 18.234375 -0.375 C 17.722656 -0.34375 17.21875 -0.316406 16.71875 -0.296875 C 16.226562 -0.285156 15.742188 -0.265625 15.265625 -0.234375 C 13.296875 -0.203125 11.304688 -0.207031 9.296875 -0.25 C 7.296875 -0.300781 5.3125 -0.25 3.34375 -0.09375 C 3.019531 -0.0625 2.585938 -0.0351562 2.046875 -0.015625 C 1.503906 -0.00390625 1.035156 -0.0859375 0.640625 -0.265625 C 0.242188 -0.441406 0.046875 -0.78125 0.046875 -1.28125 C 0.109375 -4.53125 0.140625 -7.769531 0.140625 -11 C 0.140625 -14.226562 0.15625 -17.460938 0.1875 -20.703125 C 0.1875 -22.046875 0.1875 -23.382812 0.1875 -24.71875 C 0.1875 -26.050781 0.1875 -27.390625 0.1875 -28.734375 C 0.1875 -29.398438 0.191406 -30.066406 0.203125 -30.734375 C 0.222656 -31.398438 0.234375 -32.066406 0.234375 -32.734375 C 0.234375 -33.179688 0.273438 -33.691406 0.359375 -34.265625 C 0.441406 -34.835938 0.734375 -35.203125 1.234375 -35.359375 C 1.335938 -35.390625 1.4375 -35.40625 1.53125 -35.40625 C 1.625 -35.40625 1.71875 -35.40625 1.8125 -35.40625 C 4.769531 -35.375 7.734375 -35.328125 10.703125 -35.265625 C 13.679688 -35.203125 16.617188 -34.929688 19.515625 -34.453125 C 20.953125 -34.234375 22.191406 -33.703125 23.234375 -32.859375 C 24.285156 -32.015625 25.054688 -30.976562 25.546875 -29.75 C 26.046875 -28.53125 26.164062 -27.203125 25.90625 -25.765625 C 25.6875 -24.492188 25.257812 -23.359375 24.625 -22.359375 C 23.988281 -21.359375 23.398438 -20.300781 22.859375 -19.1875 C 22.828125 -19.050781 22.785156 -18.925781 22.734375 -18.8125 C 22.691406 -18.707031 22.671875 -18.59375 22.671875 -18.46875 C 22.703125 -18.175781 22.882812 -17.878906 23.21875 -17.578125 C 23.550781 -17.273438 23.921875 -16.988281 24.328125 -16.71875 C 24.742188 -16.445312 25.050781 -16.21875 25.25 -16.03125 C 25.882812 -15.394531 26.460938 -14.6875 26.984375 -13.90625 C 27.503906 -13.125 27.863281 -12.273438 28.0625 -11.359375 C 28.34375 -9.992188 28.21875 -8.53125 27.6875 -6.96875 C 27.164062 -5.40625 26.414062 -4.117188 25.4375 -3.109375 C 24.507812 -2.117188 23.398438 -1.441406 22.109375 -1.078125 C 20.828125 -0.710938 19.535156 -0.476562 18.234375 -0.375 Z M 7.4375 -25 C 7.4375 -24.96875 7.4375 -24.925781 7.4375 -24.875 C 7.4375 -24.832031 7.4375 -24.796875 7.4375 -24.765625 C 7.40625 -24.441406 7.375 -24.039062 7.34375 -23.5625 C 7.3125 -23.09375 7.351562 -22.648438 7.46875 -22.234375 C 7.582031 -21.816406 7.8125 -21.515625 8.15625 -21.328125 C 8.351562 -21.234375 8.546875 -21.175781 8.734375 -21.15625 C 8.921875 -21.144531 9.128906 -21.140625 9.359375 -21.140625 C 10.304688 -21.109375 11.265625 -21.078125 12.234375 -21.046875 C 13.203125 -21.015625 14.164062 -21.09375 15.125 -21.28125 C 15.851562 -21.40625 16.523438 -21.773438 17.140625 -22.390625 C 17.765625 -23.015625 18.144531 -23.695312 18.28125 -24.4375 C 18.46875 -25.351562 18.363281 -26.144531 17.96875 -26.8125 C 17.570312 -27.476562 17.015625 -27.992188 16.296875 -28.359375 C 15.578125 -28.734375 14.804688 -28.953125 13.984375 -29.015625 C 13.503906 -29.078125 12.9375 -29.128906 12.28125 -29.171875 C 11.632812 -29.222656 10.992188 -29.21875 10.359375 -29.15625 C 9.722656 -29.09375 9.164062 -28.910156 8.6875 -28.609375 C 8.207031 -28.304688 7.90625 -27.820312 7.78125 -27.15625 C 7.71875 -26.800781 7.660156 -26.441406 7.609375 -26.078125 C 7.566406 -25.710938 7.507812 -25.351562 7.4375 -25 Z M 7.828125 -7.828125 C 8.242188 -7.097656 8.835938 -6.613281 9.609375 -6.375 C 10.390625 -6.132812 11.238281 -6.035156 12.15625 -6.078125 C 13.082031 -6.128906 13.929688 -6.203125 14.703125 -6.296875 C 15.617188 -6.390625 16.550781 -6.660156 17.5 -7.109375 C 18.457031 -7.554688 19.191406 -8.175781 19.703125 -8.96875 C 20.179688 -9.632812 20.363281 -10.3125 20.25 -11 C 20.144531 -11.6875 19.859375 -12.320312 19.390625 -12.90625 C 18.929688 -13.5 18.398438 -13.96875 17.796875 -14.3125 C 17.097656 -14.757812 16.332031 -15.035156 15.5 -15.140625 C 14.675781 -15.253906 13.867188 -15.328125 13.078125 -15.359375 C 12.148438 -15.421875 11.25 -15.34375 10.375 -15.125 C 9.5 -14.90625 8.773438 -14.507812 8.203125 -13.9375 C 7.628906 -13.363281 7.296875 -12.535156 7.203125 -11.453125 C 7.171875 -11.003906 7.175781 -10.554688 7.21875 -10.109375 C 7.269531 -9.671875 7.34375 -9.226562 7.4375 -8.78125 C 7.507812 -8.625 7.566406 -8.460938 7.609375 -8.296875 C 7.660156 -8.140625 7.734375 -7.984375 7.828125 -7.828125 Z M 7.828125 -7.828125 "/></g></g></g><g fill="#000000" fill-opacity="1"><g transform="translate(104.999815, 38.695569)"><g><path d="M 1.625 -35.40625 C 1.65625 -35.40625 1.6875 -35.40625 1.71875 -35.40625 C 1.75 -35.40625 1.78125 -35.40625 1.8125 -35.40625 C 2.601562 -35.40625 3.378906 -35.394531 4.140625 -35.375 C 4.910156 -35.363281 5.691406 -35.34375 6.484375 -35.3125 C 7.054688 -35.28125 7.34375 -35.054688 7.34375 -34.640625 C 7.34375 -34.234375 7.34375 -33.804688 7.34375 -33.359375 C 7.34375 -30.617188 7.34375 -27.863281 7.34375 -25.09375 C 7.34375 -22.332031 7.34375 -19.582031 7.34375 -16.84375 C 7.34375 -15.539062 7.332031 -14.226562 7.3125 -12.90625 C 7.300781 -11.582031 7.296875 -10.269531 7.296875 -8.96875 C 7.296875 -7.757812 7.367188 -6.539062 7.515625 -5.3125 C 7.660156 -4.09375 7.648438 -2.863281 7.484375 -1.625 C 7.390625 -1.019531 7.179688 -0.628906 6.859375 -0.453125 C 6.546875 -0.273438 6.085938 -0.15625 5.484375 -0.09375 C 5.203125 -0.0625 4.765625 -0.0351562 4.171875 -0.015625 C 3.585938 -0.00390625 2.976562 -0.0351562 2.34375 -0.109375 C 1.707031 -0.191406 1.15625 -0.351562 0.6875 -0.59375 C 0.226562 -0.832031 0 -1.175781 0 -1.625 C 0 -6.96875 0.00390625 -12.3125 0.015625 -17.65625 C 0.0351562 -23 0.03125 -28.34375 0 -33.6875 C 0 -34.320312 0.117188 -34.757812 0.359375 -35 C 0.597656 -35.238281 1.019531 -35.375 1.625 -35.40625 Z M 1.625 -35.40625 "/></g></g></g></g></g></g></g></g></g></mask><clipPath id="6beb687715"><path d="M 0.566406 0 L 119.433594 0 L 119.433594 52.003906 L 0.566406 52.003906 Z M 0.566406 0 " clip-rule="nonzero"/></clipPath><clipPath id="ddbf0f7569"><rect x="0" width="120" y="0" height="53"/></clipPath><clipPath id="a103d6ee9f"><rect x="0" width="120" y="0" height="53"/></clipPath><clipPath id="6444252c0d"><rect x="0" width="120" y="0" height="53"/></clipPath></defs><g clip-path="url(#b82f87c748)"><g><g clip-path="url(#6444252c0d)"><g clip-path="url(#5bd9d556ad)"><g><g clip-path="url(#a103d6ee9f)"><g clip-path="url(#57e1a66a3b)"><g mask="url(#59edcbd4f4)"><g><g clip-path="url(#ddbf0f7569)"><g clip-path="url(#6beb687715)"><path fill="url(#4086fa87eb)" d="M 0.566406 0 L 0.566406 52.003906 L 119.433594 52.003906 L 119.433594 0 Z M 0.566406 0 " fill-rule="nonzero"/></g></g></g></g></g></g></g></g></g></g></g></svg>