<svg xmlns="http://www.w3.org/2000/svg" xmlns:xlink="http://www.w3.org/1999/xlink" width="50" zoomAndPan="magnify" viewBox="0 0 37.5 30.000001" height="40" preserveAspectRatio="xMidYMid meet" version="1.0"><defs><g/></defs><g fill="#000000" fill-opacity="1"><g transform="translate(4.457096, 27.729741)"><g><path d="M 22.515625 -24.140625 C 22.804688 -23.847656 22.921875 -23.554688 22.859375 -23.265625 C 22.796875 -22.984375 22.617188 -22.570312 22.328125 -22.03125 C 22.234375 -21.84375 22.085938 -21.578125 21.890625 -21.234375 C 21.691406 -20.890625 21.472656 -20.578125 21.234375 -20.296875 C 20.992188 -20.023438 20.738281 -19.890625 20.46875 -19.890625 C 20.082031 -19.890625 19.679688 -20 19.265625 -20.21875 C 18.847656 -20.4375 18.429688 -20.679688 18.015625 -20.953125 C 17.609375 -21.234375 17.222656 -21.4375 16.859375 -21.5625 C 15.398438 -22.09375 13.929688 -22.226562 12.453125 -21.96875 C 10.847656 -21.695312 9.507812 -21.070312 8.4375 -20.09375 C 7.375 -19.125 6.59375 -17.957031 6.09375 -16.59375 C 5.601562 -15.238281 5.4375 -13.820312 5.59375 -12.34375 C 5.75 -10.863281 6.238281 -9.46875 7.0625 -8.15625 C 7.664062 -7.207031 8.503906 -6.441406 9.578125 -5.859375 C 10.648438 -5.273438 11.785156 -4.914062 12.984375 -4.78125 C 14.179688 -4.65625 15.304688 -4.757812 16.359375 -5.09375 C 17.234375 -5.414062 17.84375 -5.890625 18.1875 -6.515625 C 18.539062 -7.148438 18.753906 -7.867188 18.828125 -8.671875 C 18.898438 -9.472656 18.925781 -10.25 18.90625 -11 C 18.90625 -11.269531 18.878906 -11.550781 18.828125 -11.84375 C 18.773438 -12.132812 18.78125 -12.40625 18.84375 -12.65625 C 18.90625 -12.90625 19.082031 -13.066406 19.375 -13.140625 C 19.59375 -13.210938 19.851562 -13.242188 20.15625 -13.234375 C 20.457031 -13.222656 20.71875 -13.21875 20.9375 -13.21875 C 21.332031 -13.238281 21.71875 -13.28125 22.09375 -13.34375 C 22.46875 -13.40625 22.847656 -13.410156 23.234375 -13.359375 C 23.796875 -13.316406 24.125 -13.144531 24.21875 -12.84375 C 24.3125 -12.539062 24.347656 -12.144531 24.328125 -11.65625 C 24.328125 -10.851562 24.347656 -10.003906 24.390625 -9.109375 C 24.441406 -8.210938 24.429688 -7.316406 24.359375 -6.421875 C 24.285156 -5.535156 24.070312 -4.722656 23.71875 -3.984375 C 23.375 -3.242188 22.800781 -2.632812 22 -2.15625 C 20.832031 -1.46875 19.546875 -0.941406 18.140625 -0.578125 C 16.734375 -0.210938 15.300781 -0.03125 13.84375 -0.03125 C 12.65625 -0.03125 11.46875 -0.15625 10.28125 -0.40625 C 9.101562 -0.664062 7.984375 -1.066406 6.921875 -1.609375 C 5.410156 -2.359375 4.144531 -3.332031 3.125 -4.53125 C 2.113281 -5.738281 1.351562 -7.078125 0.84375 -8.546875 C 0.332031 -10.015625 0.0625 -11.535156 0.03125 -13.109375 C 0.0078125 -14.691406 0.238281 -16.238281 0.71875 -17.75 C 1.207031 -19.269531 1.953125 -20.675781 2.953125 -21.96875 C 4.234375 -23.59375 5.734375 -24.847656 7.453125 -25.734375 C 9.179688 -26.617188 10.984375 -27.0625 12.859375 -27.0625 L 13.078125 -27.0625 C 14.609375 -27.039062 16.117188 -26.835938 17.609375 -26.453125 C 19.097656 -26.078125 20.5 -25.476562 21.8125 -24.65625 C 21.957031 -24.5625 22.082031 -24.46875 22.1875 -24.375 C 22.300781 -24.289062 22.410156 -24.210938 22.515625 -24.140625 Z M 22.515625 -24.140625 "/></g></g></g></svg>