<svg xmlns="http://www.w3.org/2000/svg" xmlns:xlink="http://www.w3.org/1999/xlink" width="170" zoomAndPan="magnify" viewBox="0 0 127.5 72" height="96" preserveAspectRatio="xMidYMid meet" version="1.0"><defs><g/></defs><g fill="#ffcc4b" fill-opacity="1"><g transform="translate(5.680113, 51.325536)"><g><path d="M 32.765625 -24.4375 C 32.765625 -21.863281 32.78125 -19.269531 32.8125 -16.65625 C 32.851562 -14.050781 32.835938 -11.46875 32.765625 -8.90625 C 32.722656 -7.46875 32.703125 -5.972656 32.703125 -4.421875 C 32.703125 -2.867188 32.585938 -1.335938 32.359375 0.171875 C 32.140625 1.679688 31.671875 3.097656 30.953125 4.421875 C 30.003906 6.160156 28.753906 7.601562 27.203125 8.75 C 25.660156 9.90625 23.953125 10.765625 22.078125 11.328125 C 20.210938 11.898438 18.3125 12.1875 16.375 12.1875 C 16.226562 12.1875 16.078125 12.1875 15.921875 12.1875 C 15.773438 12.1875 15.625 12.1875 15.46875 12.1875 C 14.226562 12.113281 12.992188 12.007812 11.765625 11.875 C 10.535156 11.738281 9.316406 11.484375 8.109375 11.109375 C 7.617188 10.960938 7.03125 10.765625 6.34375 10.515625 C 5.664062 10.265625 5.023438 9.96875 4.421875 9.625 C 3.816406 9.289062 3.390625 8.867188 3.140625 8.359375 C 2.898438 7.847656 2.945312 7.234375 3.28125 6.515625 C 3.550781 5.984375 3.816406 5.441406 4.078125 4.890625 C 4.347656 4.347656 4.613281 3.8125 4.875 3.28125 C 5.175781 2.71875 5.570312 2.425781 6.0625 2.40625 C 6.550781 2.382812 7.097656 2.515625 7.703125 2.796875 C 8.304688 3.085938 8.890625 3.398438 9.453125 3.734375 C 10.023438 4.078125 10.503906 4.304688 10.890625 4.421875 C 11.679688 4.679688 12.5 4.882812 13.34375 5.03125 C 14.195312 5.1875 15.039062 5.265625 15.875 5.265625 C 17.945312 5.265625 19.796875 4.726562 21.421875 3.65625 C 23.046875 2.582031 24.21875 1.0625 24.9375 -0.90625 C 25.019531 -1.09375 25.078125 -1.269531 25.109375 -1.4375 C 25.148438 -1.613281 25.148438 -1.773438 25.109375 -1.921875 C 25.078125 -2.566406 24.832031 -2.945312 24.375 -3.0625 C 23.925781 -3.175781 23.40625 -3.15625 22.8125 -3 C 22.226562 -2.851562 21.660156 -2.65625 21.109375 -2.40625 C 20.566406 -2.164062 20.144531 -2.003906 19.84375 -1.921875 C 18.96875 -1.660156 18.078125 -1.441406 17.171875 -1.265625 C 16.265625 -1.097656 15.359375 -1.015625 14.453125 -1.015625 C 12.078125 -1.015625 9.960938 -1.617188 8.109375 -2.828125 C 6.597656 -3.816406 5.253906 -4.929688 4.078125 -6.171875 C 2.910156 -7.421875 2.0625 -8.632812 1.53125 -9.8125 C 0.0507812 -13.25 -0.363281 -16.664062 0.28125 -20.0625 C 0.925781 -23.46875 2.570312 -26.4375 5.21875 -28.96875 C 7.863281 -31.539062 10.90625 -32.828125 14.34375 -32.828125 C 16.945312 -32.828125 19.535156 -32.109375 22.109375 -30.671875 C 22.296875 -30.515625 22.539062 -30.4375 22.84375 -30.4375 C 23.300781 -30.4375 23.679688 -30.628906 23.984375 -31.015625 C 24.171875 -31.234375 24.628906 -31.460938 25.359375 -31.703125 C 26.097656 -31.953125 26.96875 -32.171875 27.96875 -32.359375 C 28.976562 -32.554688 29.9375 -32.65625 30.84375 -32.65625 C 31.40625 -32.65625 31.800781 -32.613281 32.03125 -32.53125 C 32.257812 -32.457031 32.445312 -32.15625 32.59375 -31.625 C 32.78125 -31.019531 32.835938 -30.3125 32.765625 -29.5 C 32.691406 -28.6875 32.671875 -27.960938 32.703125 -27.328125 C 32.703125 -26.835938 32.703125 -26.351562 32.703125 -25.875 C 32.703125 -25.40625 32.722656 -24.925781 32.765625 -24.4375 Z M 22.734375 -10.765625 C 24.285156 -12.617188 25.0625 -14.796875 25.0625 -17.296875 C 25.0625 -18.953125 24.691406 -20.441406 23.953125 -21.765625 C 23.210938 -23.085938 22.226562 -24.125 21 -24.875 C 19.769531 -25.632812 18.382812 -26.015625 16.84375 -26.015625 C 15.78125 -25.984375 14.753906 -25.757812 13.765625 -25.34375 C 12.785156 -24.925781 11.921875 -24.320312 11.171875 -23.53125 C 9.390625 -21.707031 8.535156 -19.457031 8.609375 -16.78125 C 8.648438 -15.226562 9.066406 -13.769531 9.859375 -12.40625 C 10.648438 -11.050781 11.660156 -9.957031 12.890625 -9.125 C 14.117188 -8.289062 15.4375 -7.875 16.84375 -7.875 C 16.84375 -7.875 16.847656 -7.875 16.859375 -7.875 C 16.878906 -7.875 16.890625 -7.875 16.890625 -7.875 C 19.160156 -7.875 21.109375 -8.835938 22.734375 -10.765625 Z M 22.734375 -10.765625 "/></g></g></g><g fill="#ffcc4b" fill-opacity="1"><g transform="translate(38.662236, 51.325536)"><g><path d="M 0.0625 -16.4375 C 0.0195312 -18.550781 0.429688 -20.65625 1.296875 -22.75 C 2.171875 -24.851562 3.382812 -26.695312 4.9375 -28.28125 C 6.40625 -29.789062 8.082031 -30.941406 9.96875 -31.734375 C 11.863281 -32.535156 13.8125 -32.9375 15.8125 -32.9375 C 16 -32.9375 16.195312 -32.9375 16.40625 -32.9375 C 16.613281 -32.9375 16.8125 -32.9375 17 -32.9375 C 17 -32.9375 17.007812 -32.9375 17.03125 -32.9375 C 17.050781 -32.9375 17.0625 -32.9375 17.0625 -32.9375 C 20.351562 -32.9375 23.253906 -32.253906 25.765625 -30.890625 C 28.273438 -29.535156 30.25 -27.644531 31.6875 -25.21875 C 33.125 -22.800781 33.84375 -20.007812 33.84375 -16.84375 C 33.84375 -11.882812 32.289062 -7.859375 29.1875 -4.765625 C 27.675781 -3.253906 25.875 -2.09375 23.78125 -1.28125 C 21.6875 -0.46875 19.410156 -0.0625 16.953125 -0.0625 C 14.609375 -0.0625 12.425781 -0.484375 10.40625 -1.328125 C 8.382812 -2.179688 6.609375 -3.351562 5.078125 -4.84375 C 3.546875 -6.34375 2.332031 -8.082031 1.4375 -10.0625 C 0.550781 -12.039062 0.09375 -14.164062 0.0625 -16.4375 Z M 16.78125 -26.1875 C 15.457031 -26.1875 14.171875 -25.757812 12.921875 -24.90625 C 11.671875 -24.0625 10.640625 -22.96875 9.828125 -21.625 C 9.015625 -20.28125 8.59375 -18.875 8.5625 -17.40625 C 8.519531 -15.78125 8.78125 -14.210938 9.34375 -12.703125 C 9.914062 -11.191406 10.785156 -9.925781 11.953125 -8.90625 C 13.128906 -7.882812 14.585938 -7.28125 16.328125 -7.09375 C 18.253906 -6.894531 19.878906 -7.191406 21.203125 -7.984375 C 22.523438 -8.785156 23.546875 -9.875 24.265625 -11.25 C 24.984375 -12.632812 25.378906 -14.144531 25.453125 -15.78125 C 25.523438 -17.425781 25.273438 -19.003906 24.703125 -20.515625 C 24.140625 -22.023438 23.234375 -23.300781 21.984375 -24.34375 C 20.742188 -25.382812 19.160156 -26 17.234375 -26.1875 C 17.160156 -26.1875 17.082031 -26.1875 17 -26.1875 C 16.925781 -26.1875 16.851562 -26.1875 16.78125 -26.1875 Z M 16.78125 -26.1875 "/></g></g></g><g fill="#ffcc4b" fill-opacity="1"><g transform="translate(72.607777, 51.325536)"><g><path d="M 0.234375 -2.09375 C 0.378906 -5.800781 0.460938 -9.503906 0.484375 -13.203125 C 0.503906 -16.910156 0.472656 -20.613281 0.390625 -24.3125 C 0.390625 -26.394531 0.367188 -28.484375 0.328125 -30.578125 C 0.296875 -32.679688 0.28125 -34.769531 0.28125 -36.84375 C 0.28125 -37.414062 0.234375 -38.125 0.140625 -38.96875 C 0.046875 -39.820312 0.015625 -40.679688 0.046875 -41.546875 C 0.0859375 -42.421875 0.257812 -43.148438 0.5625 -43.734375 C 0.863281 -44.316406 1.410156 -44.609375 2.203125 -44.609375 C 2.285156 -44.609375 2.34375 -44.609375 2.375 -44.609375 C 2.414062 -44.609375 2.457031 -44.609375 2.5 -44.609375 C 3.0625 -44.578125 3.585938 -44.5625 4.078125 -44.5625 C 4.566406 -44.5625 5.003906 -44.539062 5.390625 -44.5 C 5.722656 -44.5 6.109375 -44.515625 6.546875 -44.546875 C 6.984375 -44.585938 7.378906 -44.550781 7.734375 -44.4375 C 8.097656 -44.320312 8.296875 -44.039062 8.328125 -43.59375 C 8.515625 -41.894531 8.539062 -40.203125 8.40625 -38.515625 C 8.28125 -36.835938 8.21875 -35.128906 8.21875 -33.390625 C 8.21875 -32.785156 8.359375 -32.226562 8.640625 -31.71875 C 8.921875 -31.207031 9.421875 -30.953125 10.140625 -30.953125 C 10.335938 -30.953125 10.53125 -30.976562 10.71875 -31.03125 C 10.90625 -31.09375 11.070312 -31.140625 11.21875 -31.171875 C 11.300781 -31.171875 11.347656 -31.179688 11.359375 -31.203125 C 11.378906 -31.222656 11.410156 -31.234375 11.453125 -31.234375 C 11.679688 -31.273438 11.898438 -31.332031 12.109375 -31.40625 C 12.316406 -31.476562 12.53125 -31.535156 12.75 -31.578125 C 12.9375 -31.609375 13.125 -31.648438 13.3125 -31.703125 C 13.507812 -31.765625 13.703125 -31.816406 13.890625 -31.859375 C 16.867188 -32.503906 19.738281 -32.539062 22.5 -31.96875 C 25.257812 -31.40625 27.640625 -29.835938 29.640625 -27.265625 C 31.304688 -25.148438 32.382812 -22.804688 32.875 -20.234375 C 33.363281 -17.660156 33.332031 -15.117188 32.78125 -12.609375 C 32.238281 -10.097656 31.226562 -7.832031 29.75 -5.8125 C 28.28125 -3.789062 26.410156 -2.226562 24.140625 -1.125 C 21.878906 -0.03125 19.289062 0.34375 16.375 0 C 15.320312 -0.113281 14.300781 -0.320312 13.3125 -0.625 C 12.332031 -0.925781 11.316406 -1.078125 10.265625 -1.078125 C 9.804688 -1.078125 9.359375 -1.046875 8.921875 -0.984375 C 8.492188 -0.929688 8.070312 -0.8125 7.65625 -0.625 C 6.96875 -0.363281 6.039062 -0.234375 4.875 -0.234375 C 4.6875 -0.234375 4.476562 -0.234375 4.25 -0.234375 C 4.019531 -0.234375 3.8125 -0.234375 3.625 -0.234375 C 3.132812 -0.265625 2.613281 -0.25 2.0625 -0.1875 C 1.519531 -0.132812 1.078125 -0.203125 0.734375 -0.390625 C 0.398438 -0.585938 0.234375 -1.039062 0.234375 -1.75 C 0.234375 -1.832031 0.234375 -1.898438 0.234375 -1.953125 C 0.234375 -2.015625 0.234375 -2.0625 0.234375 -2.09375 Z M 11.171875 -22.90625 C 9.546875 -21.050781 8.734375 -18.800781 8.734375 -16.15625 C 8.734375 -14.570312 9.128906 -13.039062 9.921875 -11.5625 C 10.710938 -10.09375 11.738281 -8.882812 13 -7.9375 C 14.269531 -6.988281 15.566406 -6.515625 16.890625 -6.515625 L 17 -6.515625 C 19.34375 -6.585938 21.367188 -7.59375 23.078125 -9.53125 C 24.734375 -11.488281 25.5625 -13.753906 25.5625 -16.328125 C 25.53125 -17.984375 25.125 -19.53125 24.34375 -20.96875 C 23.570312 -22.40625 22.5625 -23.566406 21.3125 -24.453125 C 20.0625 -25.347656 18.703125 -25.796875 17.234375 -25.796875 C 17.234375 -25.796875 17.222656 -25.796875 17.203125 -25.796875 C 17.179688 -25.796875 17.171875 -25.796875 17.171875 -25.796875 C 16.078125 -25.796875 15 -25.546875 13.9375 -25.046875 C 12.882812 -24.554688 11.960938 -23.84375 11.171875 -22.90625 Z M 11.171875 -22.90625 "/></g></g></g><g fill="#ffcc4b" fill-opacity="1"><g transform="translate(105.929932, 51.325536)"><g><path d="M 2.15625 -35.71875 C 1.320312 -36.238281 0.710938 -36.976562 0.328125 -37.9375 C -0.046875 -38.90625 -0.0625 -39.957031 0.28125 -41.09375 C 0.925781 -43.320312 2.4375 -44.476562 4.8125 -44.5625 L 4.9375 -44.5625 C 6.101562 -44.5625 7.082031 -44.25 7.875 -43.625 C 8.664062 -43 9.195312 -42.140625 9.46875 -41.046875 C 9.8125 -39.679688 9.675781 -38.429688 9.0625 -37.296875 C 8.457031 -36.160156 7.441406 -35.425781 6.015625 -35.09375 C 5.296875 -34.9375 4.601562 -34.914062 3.9375 -35.03125 C 3.28125 -35.144531 2.6875 -35.375 2.15625 -35.71875 Z M 1.359375 -30.046875 C 1.890625 -30.378906 2.644531 -30.53125 3.625 -30.5 C 4.195312 -30.5 4.820312 -30.515625 5.5 -30.546875 C 6.175781 -30.585938 6.804688 -30.519531 7.390625 -30.34375 C 7.984375 -30.175781 8.375 -29.789062 8.5625 -29.1875 C 8.894531 -28.25 9.003906 -27.109375 8.890625 -25.765625 C 8.785156 -24.421875 8.734375 -23.257812 8.734375 -22.28125 C 8.765625 -19.96875 8.78125 -17.675781 8.78125 -15.40625 C 8.78125 -13.144531 8.800781 -10.863281 8.84375 -8.5625 C 8.84375 -8.1875 8.890625 -7.550781 8.984375 -6.65625 C 9.078125 -5.769531 9.132812 -4.816406 9.15625 -3.796875 C 9.175781 -2.773438 9.070312 -1.90625 8.84375 -1.1875 C 8.613281 -0.46875 8.160156 -0.09375 7.484375 -0.0625 C 6.609375 -0.0195312 5.695312 0.0078125 4.75 0.03125 C 3.8125 0.0507812 2.910156 0.00390625 2.046875 -0.109375 C 1.441406 -0.191406 1.023438 -0.523438 0.796875 -1.109375 C 0.566406 -1.691406 0.441406 -2.398438 0.421875 -3.234375 C 0.398438 -4.066406 0.425781 -4.859375 0.5 -5.609375 C 0.582031 -6.367188 0.625 -6.957031 0.625 -7.375 C 0.582031 -8.914062 0.550781 -10.472656 0.53125 -12.046875 C 0.519531 -13.617188 0.515625 -15.175781 0.515625 -16.71875 C 0.472656 -18.039062 0.453125 -19.363281 0.453125 -20.6875 C 0.453125 -22.007812 0.429688 -23.316406 0.390625 -24.609375 C 0.390625 -25.703125 0.367188 -26.757812 0.328125 -27.78125 C 0.296875 -28.800781 0.640625 -29.554688 1.359375 -30.046875 Z M 1.359375 -30.046875 "/></g></g></g></svg>