<svg xmlns="http://www.w3.org/2000/svg" xmlns:xlink="http://www.w3.org/1999/xlink" width="160" zoomAndPan="magnify" viewBox="0 0 120 67.499998" height="90" preserveAspectRatio="xMidYMid meet" version="1.0"><defs><g/><clipPath id="a98bf10abc"><path d="M 1 9 L 26 9 L 26 42.695312 L 1 42.695312 Z M 1 9 " clip-rule="nonzero"/></clipPath><clipPath id="b3a2d063d8"><path d="M 50 0.289062 L 76 0.289062 L 76 34 L 50 34 Z M 50 0.289062 " clip-rule="nonzero"/></clipPath><clipPath id="42ebc09580"><path d="M 74 0.289062 L 83 0.289062 L 83 34 L 74 34 Z M 74 0.289062 " clip-rule="nonzero"/></clipPath><clipPath id="c1039c024d"><rect x="0" width="84" y="0" height="43"/></clipPath><clipPath id="4dbe96042f"><rect x="0" width="83" y="0" height="12"/></clipPath></defs><g transform="matrix(1, 0, 0, 1, 15, 4)"><g clip-path="url(#c1039c024d)"><g clip-path="url(#a98bf10abc)"><g fill="#ffffff" fill-opacity="1"><g transform="translate(1.704914, 33.311498)"><g><path d="M 24 -17.890625 C 24 -16.003906 24.007812 -14.109375 24.03125 -12.203125 C 24.0625 -10.296875 24.050781 -8.398438 24 -6.515625 C 23.96875 -5.460938 23.953125 -4.367188 23.953125 -3.234375 C 23.953125 -2.097656 23.867188 -0.976562 23.703125 0.125 C 23.535156 1.226562 23.191406 2.265625 22.671875 3.234375 C 21.972656 4.503906 21.054688 5.5625 19.921875 6.40625 C 18.785156 7.257812 17.53125 7.890625 16.15625 8.296875 C 14.789062 8.710938 13.40625 8.921875 12 8.921875 C 11.882812 8.921875 11.769531 8.921875 11.65625 8.921875 C 11.550781 8.921875 11.441406 8.921875 11.328125 8.921875 C 10.421875 8.867188 9.515625 8.789062 8.609375 8.6875 C 7.710938 8.59375 6.820312 8.410156 5.9375 8.140625 C 5.570312 8.023438 5.140625 7.878906 4.640625 7.703125 C 4.148438 7.523438 3.679688 7.3125 3.234375 7.0625 C 2.796875 6.8125 2.484375 6.5 2.296875 6.125 C 2.117188 5.75 2.15625 5.300781 2.40625 4.78125 C 2.601562 4.382812 2.796875 3.984375 2.984375 3.578125 C 3.179688 3.179688 3.378906 2.789062 3.578125 2.40625 C 3.796875 1.988281 4.082031 1.773438 4.4375 1.765625 C 4.800781 1.753906 5.203125 1.847656 5.640625 2.046875 C 6.085938 2.253906 6.519531 2.484375 6.9375 2.734375 C 7.351562 2.984375 7.695312 3.148438 7.96875 3.234375 C 8.550781 3.429688 9.15625 3.582031 9.78125 3.6875 C 10.40625 3.800781 11.019531 3.859375 11.625 3.859375 C 13.144531 3.859375 14.5 3.460938 15.6875 2.671875 C 16.882812 1.890625 17.742188 0.773438 18.265625 -0.671875 C 18.316406 -0.804688 18.359375 -0.9375 18.390625 -1.0625 C 18.421875 -1.1875 18.421875 -1.300781 18.390625 -1.40625 C 18.359375 -1.882812 18.175781 -2.160156 17.84375 -2.234375 C 17.519531 -2.316406 17.140625 -2.300781 16.703125 -2.1875 C 16.273438 -2.082031 15.859375 -1.941406 15.453125 -1.765625 C 15.054688 -1.585938 14.75 -1.46875 14.53125 -1.40625 C 13.894531 -1.21875 13.242188 -1.0625 12.578125 -0.9375 C 11.910156 -0.8125 11.25 -0.75 10.59375 -0.75 C 8.84375 -0.75 7.289062 -1.191406 5.9375 -2.078125 C 4.832031 -2.796875 3.847656 -3.609375 2.984375 -4.515625 C 2.128906 -5.429688 1.507812 -6.320312 1.125 -7.1875 C 0.0390625 -9.695312 -0.265625 -12.195312 0.203125 -14.6875 C 0.671875 -17.1875 1.875 -19.363281 3.8125 -21.21875 C 5.75 -23.09375 7.976562 -24.03125 10.5 -24.03125 C 12.414062 -24.03125 14.3125 -23.503906 16.1875 -22.453125 C 16.332031 -22.347656 16.515625 -22.296875 16.734375 -22.296875 C 17.066406 -22.296875 17.34375 -22.429688 17.5625 -22.703125 C 17.695312 -22.867188 18.035156 -23.039062 18.578125 -23.21875 C 19.117188 -23.40625 19.753906 -23.566406 20.484375 -23.703125 C 21.222656 -23.835938 21.921875 -23.90625 22.578125 -23.90625 C 22.992188 -23.90625 23.285156 -23.878906 23.453125 -23.828125 C 23.617188 -23.773438 23.757812 -23.554688 23.875 -23.171875 C 24.007812 -22.722656 24.046875 -22.203125 23.984375 -21.609375 C 23.929688 -21.015625 23.921875 -20.484375 23.953125 -20.015625 C 23.953125 -19.648438 23.953125 -19.296875 23.953125 -18.953125 C 23.953125 -18.609375 23.96875 -18.253906 24 -17.890625 Z M 16.640625 -7.890625 C 17.773438 -9.242188 18.34375 -10.832031 18.34375 -12.65625 C 18.34375 -13.875 18.070312 -14.96875 17.53125 -15.9375 C 17 -16.90625 16.28125 -17.664062 15.375 -18.21875 C 14.476562 -18.78125 13.460938 -19.0625 12.328125 -19.0625 C 11.554688 -19.03125 10.8125 -18.859375 10.09375 -18.546875 C 9.375 -18.242188 8.734375 -17.804688 8.171875 -17.234375 C 6.878906 -15.898438 6.257812 -14.25 6.3125 -12.28125 C 6.34375 -11.15625 6.644531 -10.09375 7.21875 -9.09375 C 7.800781 -8.09375 8.539062 -7.285156 9.4375 -6.671875 C 10.34375 -6.066406 11.304688 -5.765625 12.328125 -5.765625 C 12.328125 -5.765625 12.332031 -5.765625 12.34375 -5.765625 C 12.363281 -5.765625 12.375 -5.765625 12.375 -5.765625 C 14.03125 -5.765625 15.453125 -6.472656 16.640625 -7.890625 Z M 16.640625 -7.890625 "/></g></g></g></g><g fill="#ffffff" fill-opacity="1"><g transform="translate(25.866653, 33.311498)"><g><path d="M 0.046875 -12.046875 C 0.015625 -13.585938 0.316406 -15.125 0.953125 -16.65625 C 1.585938 -18.195312 2.472656 -19.550781 3.609375 -20.71875 C 4.691406 -21.820312 5.921875 -22.664062 7.296875 -23.25 C 8.679688 -23.832031 10.109375 -24.125 11.578125 -24.125 C 11.722656 -24.125 11.867188 -24.125 12.015625 -24.125 C 12.171875 -24.125 12.316406 -24.125 12.453125 -24.125 C 12.453125 -24.125 12.457031 -24.125 12.46875 -24.125 C 12.488281 -24.125 12.5 -24.125 12.5 -24.125 C 14.90625 -24.125 17.023438 -23.625 18.859375 -22.625 C 20.703125 -21.625 22.148438 -20.238281 23.203125 -18.46875 C 24.253906 -16.695312 24.78125 -14.648438 24.78125 -12.328125 C 24.78125 -8.703125 23.644531 -5.753906 21.375 -3.484375 C 20.269531 -2.378906 18.945312 -1.53125 17.40625 -0.9375 C 15.875 -0.34375 14.207031 -0.046875 12.40625 -0.046875 C 10.695312 -0.046875 9.097656 -0.351562 7.609375 -0.96875 C 6.128906 -1.59375 4.828125 -2.453125 3.703125 -3.546875 C 2.585938 -4.640625 1.703125 -5.910156 1.046875 -7.359375 C 0.398438 -8.816406 0.0664062 -10.378906 0.046875 -12.046875 Z M 12.28125 -19.1875 C 11.3125 -19.1875 10.367188 -18.875 9.453125 -18.25 C 8.546875 -17.625 7.796875 -16.816406 7.203125 -15.828125 C 6.609375 -14.847656 6.296875 -13.820312 6.265625 -12.75 C 6.242188 -11.550781 6.4375 -10.398438 6.84375 -9.296875 C 7.257812 -8.191406 7.894531 -7.265625 8.75 -6.515625 C 9.613281 -5.765625 10.679688 -5.320312 11.953125 -5.1875 C 13.367188 -5.050781 14.5625 -5.269531 15.53125 -5.84375 C 16.5 -6.425781 17.242188 -7.222656 17.765625 -8.234375 C 18.296875 -9.242188 18.585938 -10.351562 18.640625 -11.5625 C 18.691406 -12.769531 18.507812 -13.925781 18.09375 -15.03125 C 17.6875 -16.132812 17.023438 -17.066406 16.109375 -17.828125 C 15.191406 -18.585938 14.03125 -19.039062 12.625 -19.1875 C 12.5625 -19.1875 12.503906 -19.1875 12.453125 -19.1875 C 12.398438 -19.1875 12.34375 -19.1875 12.28125 -19.1875 Z M 12.28125 -19.1875 "/></g></g></g><g clip-path="url(#b3a2d063d8)"><g fill="#ffffff" fill-opacity="1"><g transform="translate(50.734164, 33.311498)"><g><path d="M 0.171875 -1.53125 C 0.273438 -4.25 0.332031 -6.960938 0.34375 -9.671875 C 0.363281 -12.378906 0.347656 -15.09375 0.296875 -17.8125 C 0.296875 -19.332031 0.28125 -20.859375 0.25 -22.390625 C 0.21875 -23.929688 0.203125 -25.460938 0.203125 -26.984375 C 0.203125 -27.398438 0.164062 -27.914062 0.09375 -28.53125 C 0.03125 -29.15625 0.0078125 -29.785156 0.03125 -30.421875 C 0.0625 -31.066406 0.1875 -31.601562 0.40625 -32.03125 C 0.632812 -32.457031 1.039062 -32.671875 1.625 -32.671875 C 1.675781 -32.671875 1.710938 -32.671875 1.734375 -32.671875 C 1.765625 -32.671875 1.796875 -32.671875 1.828125 -32.671875 C 2.242188 -32.640625 2.628906 -32.625 2.984375 -32.625 C 3.347656 -32.625 3.664062 -32.613281 3.9375 -32.59375 C 4.1875 -32.59375 4.46875 -32.601562 4.78125 -32.625 C 5.101562 -32.65625 5.394531 -32.628906 5.65625 -32.546875 C 5.925781 -32.460938 6.078125 -32.253906 6.109375 -31.921875 C 6.242188 -30.679688 6.257812 -29.441406 6.15625 -28.203125 C 6.0625 -26.972656 6.015625 -25.722656 6.015625 -24.453125 C 6.015625 -24.003906 6.117188 -23.59375 6.328125 -23.21875 C 6.535156 -22.851562 6.90625 -22.671875 7.4375 -22.671875 C 7.570312 -22.671875 7.707031 -22.691406 7.84375 -22.734375 C 7.976562 -22.773438 8.101562 -22.804688 8.21875 -22.828125 C 8.269531 -22.828125 8.300781 -22.832031 8.3125 -22.84375 C 8.332031 -22.863281 8.359375 -22.875 8.390625 -22.875 C 8.554688 -22.90625 8.710938 -22.945312 8.859375 -23 C 9.015625 -23.050781 9.175781 -23.09375 9.34375 -23.125 C 9.476562 -23.15625 9.613281 -23.191406 9.75 -23.234375 C 9.894531 -23.273438 10.035156 -23.304688 10.171875 -23.328125 C 12.359375 -23.796875 14.460938 -23.820312 16.484375 -23.40625 C 18.503906 -23 20.25 -21.851562 21.71875 -19.96875 C 22.9375 -18.414062 23.722656 -16.695312 24.078125 -14.8125 C 24.441406 -12.9375 24.421875 -11.078125 24.015625 -9.234375 C 23.617188 -7.390625 22.878906 -5.726562 21.796875 -4.25 C 20.710938 -2.769531 19.335938 -1.628906 17.671875 -0.828125 C 16.015625 -0.0234375 14.125 0.25 12 0 C 11.21875 -0.0820312 10.46875 -0.234375 9.75 -0.453125 C 9.03125 -0.671875 8.285156 -0.78125 7.515625 -0.78125 C 7.179688 -0.78125 6.851562 -0.757812 6.53125 -0.71875 C 6.21875 -0.6875 5.910156 -0.597656 5.609375 -0.453125 C 5.109375 -0.265625 4.429688 -0.171875 3.578125 -0.171875 C 3.429688 -0.171875 3.273438 -0.171875 3.109375 -0.171875 C 2.941406 -0.171875 2.789062 -0.171875 2.65625 -0.171875 C 2.300781 -0.191406 1.921875 -0.179688 1.515625 -0.140625 C 1.109375 -0.0976562 0.78125 -0.144531 0.53125 -0.28125 C 0.289062 -0.425781 0.171875 -0.757812 0.171875 -1.28125 C 0.171875 -1.34375 0.171875 -1.394531 0.171875 -1.4375 C 0.171875 -1.476562 0.171875 -1.507812 0.171875 -1.53125 Z M 8.171875 -16.765625 C 6.984375 -15.410156 6.390625 -13.765625 6.390625 -11.828125 C 6.390625 -10.671875 6.679688 -9.550781 7.265625 -8.46875 C 7.847656 -7.382812 8.601562 -6.5 9.53125 -5.8125 C 10.457031 -5.125 11.40625 -4.78125 12.375 -4.78125 L 12.453125 -4.78125 C 14.171875 -4.832031 15.648438 -5.5625 16.890625 -6.96875 C 18.109375 -8.414062 18.71875 -10.078125 18.71875 -11.953125 C 18.695312 -13.171875 18.398438 -14.304688 17.828125 -15.359375 C 17.265625 -16.410156 16.523438 -17.257812 15.609375 -17.90625 C 14.691406 -18.5625 13.695312 -18.890625 12.625 -18.890625 C 12.625 -18.890625 12.613281 -18.890625 12.59375 -18.890625 C 12.582031 -18.890625 12.578125 -18.890625 12.578125 -18.890625 C 11.773438 -18.890625 10.984375 -18.707031 10.203125 -18.34375 C 9.429688 -17.988281 8.753906 -17.460938 8.171875 -16.765625 Z M 8.171875 -16.765625 "/></g></g></g></g><g clip-path="url(#42ebc09580)"><g fill="#ffffff" fill-opacity="1"><g transform="translate(75.145, 33.311498)"><g><path d="M 1.578125 -26.15625 C 0.972656 -26.539062 0.53125 -27.085938 0.25 -27.796875 C -0.03125 -28.503906 -0.046875 -29.269531 0.203125 -30.09375 C 0.671875 -31.726562 1.78125 -32.570312 3.53125 -32.625 L 3.609375 -32.625 C 4.472656 -32.625 5.191406 -32.394531 5.765625 -31.9375 C 6.347656 -31.488281 6.738281 -30.863281 6.9375 -30.0625 C 7.1875 -29.0625 7.085938 -28.144531 6.640625 -27.3125 C 6.203125 -26.488281 5.457031 -25.953125 4.40625 -25.703125 C 3.875 -25.585938 3.363281 -25.570312 2.875 -25.65625 C 2.394531 -25.738281 1.960938 -25.90625 1.578125 -26.15625 Z M 1 -22 C 1.382812 -22.25 1.9375 -22.359375 2.65625 -22.328125 C 3.070312 -22.328125 3.53125 -22.34375 4.03125 -22.375 C 4.53125 -22.40625 4.992188 -22.359375 5.421875 -22.234375 C 5.847656 -22.109375 6.128906 -21.820312 6.265625 -21.375 C 6.515625 -20.6875 6.597656 -19.847656 6.515625 -18.859375 C 6.429688 -17.878906 6.390625 -17.03125 6.390625 -16.3125 C 6.421875 -14.625 6.4375 -12.945312 6.4375 -11.28125 C 6.4375 -9.625 6.445312 -7.953125 6.46875 -6.265625 C 6.46875 -5.992188 6.503906 -5.53125 6.578125 -4.875 C 6.648438 -4.226562 6.691406 -3.53125 6.703125 -2.78125 C 6.710938 -2.03125 6.632812 -1.390625 6.46875 -0.859375 C 6.3125 -0.335938 5.984375 -0.0664062 5.484375 -0.046875 C 4.847656 -0.015625 4.179688 0.00390625 3.484375 0.015625 C 2.796875 0.0351562 2.132812 0.00390625 1.5 -0.078125 C 1.050781 -0.140625 0.742188 -0.382812 0.578125 -0.8125 C 0.410156 -1.238281 0.320312 -1.753906 0.3125 -2.359375 C 0.300781 -2.972656 0.320312 -3.554688 0.375 -4.109375 C 0.425781 -4.660156 0.453125 -5.085938 0.453125 -5.390625 C 0.429688 -6.523438 0.410156 -7.664062 0.390625 -8.8125 C 0.378906 -9.96875 0.375 -11.113281 0.375 -12.25 C 0.34375 -13.21875 0.328125 -14.1875 0.328125 -15.15625 C 0.328125 -16.125 0.316406 -17.078125 0.296875 -18.015625 C 0.296875 -18.816406 0.28125 -19.59375 0.25 -20.34375 C 0.21875 -21.09375 0.46875 -21.644531 1 -22 Z M 1 -22 "/></g></g></g></g></g></g><g transform="matrix(1, 0, 0, 1, 18, 48)"><g clip-path="url(#4dbe96042f)"><g fill="#ffffff" fill-opacity="1"><g transform="translate(0.503026, 8.626775)"><g><path d="M 7.105469 -3.460938 L 7.105469 -5.769531 L 5.890625 -5.769531 L 5.890625 -3.460938 Z M 5.316406 -4.675781 L 5.316406 -5.769531 L 2.546875 -5.769531 L 2.546875 -4.675781 Z M 7.949219 0 L 7.949219 -3.054688 L 6.734375 -3.054688 L 6.734375 0 Z M 5.519531 -2.371094 L 5.519531 -3.460938 L 2.546875 -3.460938 L 2.546875 -2.371094 Z M 6.160156 0 L 6.160156 -1.097656 L 2.546875 -1.097656 L 2.546875 0 Z M 1.972656 0 L 1.972656 -5.769531 L 0.757812 -5.769531 L 0.757812 0 Z M 1.972656 0 "/></g></g></g><g fill="#ffffff" fill-opacity="1"><g transform="translate(9.210625, 8.626775)"><g><path d="M 6.734375 -4.675781 L 6.734375 -5.769531 L 2.546875 -5.769531 L 2.546875 -4.675781 Z M 4.664062 -2.371094 L 4.664062 -3.460938 L 2.546875 -3.460938 L 2.546875 -2.371094 Z M 6.734375 0 L 6.734375 -1.097656 L 2.546875 -1.097656 L 2.546875 0 Z M 1.972656 0 L 1.972656 -5.769531 L 0.757812 -5.769531 L 0.757812 0 Z M 1.972656 0 "/></g></g></g><g fill="#ffffff" fill-opacity="1"><g transform="translate(16.703212, 8.626775)"><g><path d="M 1.972656 0 L 1.972656 -5.769531 L 0.757812 -5.769531 L 0.757812 0 Z M 1.972656 0 "/></g></g></g><g fill="#ffffff" fill-opacity="1"><g transform="translate(19.436995, 8.626775)"><g><path d="M 6.734375 0 L 6.734375 -5.769531 L 5.507812 -5.769531 L 5.507812 0 Z M 4.9375 0 L 4.9375 -1.097656 L 0.757812 -1.097656 L 0.757812 0 Z M 4.9375 0 "/></g></g></g><g fill="#ffffff" fill-opacity="1"><g transform="translate(26.929581, 8.626775)"><g><path d="M 1.972656 0 L 1.972656 -5.769531 L 0.757812 -5.769531 L 0.757812 0 Z M 1.972656 0 "/></g></g></g><g fill="#ffffff" fill-opacity="1"><g transform="translate(29.663364, 8.626775)"><g><path d="M 7.949219 0 L 7.949219 -5.769531 L 6.734375 -5.769531 L 6.734375 0 Z M 6.335938 -1.753906 L 3.222656 -4.867188 L 2.363281 -4.015625 L 5.484375 -0.894531 Z M 1.972656 0 L 1.972656 -5.769531 L 0.757812 -5.769531 L 0.757812 0 Z M 1.972656 0 "/></g></g></g><g fill="#ffffff" fill-opacity="1"><g transform="translate(38.370964, 8.626775)"><g><path d="M 6.160156 -4.675781 L 6.160156 -5.769531 L 2.546875 -5.769531 L 2.546875 -4.675781 Z M 6.976562 -2.371094 L 6.976562 -3.460938 L 4.050781 -3.460938 L 4.050781 -2.371094 Z M 6.160156 0 L 6.160156 -1.796875 L 4.9375 -1.796875 L 4.9375 0 Z M 1.972656 0 L 1.972656 -5.769531 L 0.757812 -5.769531 L 0.757812 0 Z M 4.371094 0 L 4.371094 -1.097656 L 2.546875 -1.097656 L 2.546875 0 Z M 4.371094 0 "/></g></g></g><g fill="#ffffff" fill-opacity="1"><g transform="translate(46.108233, 8.626775)"><g><path d="M 1.972656 -2.34375 L 1.972656 -3.5 L 0.757812 -3.5 L 0.757812 -2.34375 Z M 1.972656 -2.34375 "/></g></g></g><g fill="#ffffff" fill-opacity="1"><g transform="translate(48.842015, 8.626775)"><g><path d="M 5.550781 -4.675781 L 5.550781 -5.769531 L 1.972656 -5.769531 L 1.972656 -4.675781 Z M 1.972656 0 L 1.972656 -3.460938 L 0.757812 -3.460938 L 0.757812 0 Z M 5.550781 -2.371094 L 5.550781 -3.460938 L 2.546875 -3.460938 L 2.546875 -2.371094 Z M 7.339844 -2.371094 L 7.339844 -5.769531 L 6.125 -5.769531 L 6.125 -2.371094 Z M 7.339844 0 L 7.339844 -1.097656 L 2.546875 -1.097656 L 2.546875 0 Z M 7.339844 0 "/></g></g></g><g fill="#ffffff" fill-opacity="1"><g transform="translate(56.942103, 8.626775)"><g><path d="M 7.695312 -1.097656 L 7.695312 -4.675781 L 6.480469 -4.675781 L 6.480469 -1.097656 Z M 5.90625 -4.675781 L 5.90625 -5.769531 L 2.546875 -5.769531 L 2.546875 -4.675781 Z M 5.90625 0 L 5.90625 -1.097656 L 2.546875 -1.097656 L 2.546875 0 Z M 1.972656 -1.097656 L 1.972656 -4.675781 L 0.757812 -4.675781 L 0.757812 -1.097656 Z M 1.972656 -1.097656 "/></g></g></g><g fill="#ffffff" fill-opacity="1"><g transform="translate(65.396566, 8.626775)"><g><path d="M 5.550781 -4.675781 L 5.550781 -5.769531 L 1.972656 -5.769531 L 1.972656 -4.675781 Z M 1.972656 0 L 1.972656 -3.460938 L 0.757812 -3.460938 L 0.757812 0 Z M 5.550781 -2.371094 L 5.550781 -3.460938 L 2.546875 -3.460938 L 2.546875 -2.371094 Z M 7.339844 -2.371094 L 7.339844 -5.769531 L 6.125 -5.769531 L 6.125 -2.371094 Z M 7.339844 0 L 7.339844 -1.097656 L 2.546875 -1.097656 L 2.546875 0 Z M 7.339844 0 "/></g></g></g><g fill="#ffffff" fill-opacity="1"><g transform="translate(73.496654, 8.626775)"><g><path d="M 6.125 -4.675781 L 6.125 -5.769531 L 2.546875 -5.769531 L 2.546875 -4.675781 Z M 7.339844 0 L 7.339844 -3.460938 L 6.125 -3.460938 L 6.125 0 Z M 5.550781 -2.371094 L 5.550781 -3.460938 L 2.546875 -3.460938 L 2.546875 -2.371094 Z M 1.972656 -2.371094 L 1.972656 -5.769531 L 0.757812 -5.769531 L 0.757812 -2.371094 Z M 5.550781 0 L 5.550781 -1.097656 L 0.757812 -1.097656 L 0.757812 0 Z M 5.550781 0 "/></g></g></g></g></g></svg>