<svg xmlns="http://www.w3.org/2000/svg" xmlns:xlink="http://www.w3.org/1999/xlink" width="160" zoomAndPan="magnify" viewBox="0 0 120 67.499998" height="90" preserveAspectRatio="xMidYMid meet" version="1.0"><defs><g/><clipPath id="e83018e4bd"><rect x="0" width="83" y="0" height="12"/></clipPath></defs><g fill="#000000" fill-opacity="1"><g transform="translate(16.162002, 34.183233)"><g><path d="M 23.203125 -24.890625 C 23.503906 -24.585938 23.625 -24.285156 23.5625 -23.984375 C 23.5 -23.691406 23.316406 -23.269531 23.015625 -22.71875 C 22.910156 -22.519531 22.757812 -22.242188 22.5625 -21.890625 C 22.363281 -21.535156 22.140625 -21.210938 21.890625 -20.921875 C 21.640625 -20.640625 21.375 -20.5 21.09375 -20.5 C 20.695312 -20.5 20.285156 -20.609375 19.859375 -20.828125 C 19.429688 -21.054688 19.003906 -21.316406 18.578125 -21.609375 C 18.160156 -21.898438 17.765625 -22.109375 17.390625 -22.234375 C 15.878906 -22.773438 14.363281 -22.910156 12.84375 -22.640625 C 11.1875 -22.367188 9.804688 -21.726562 8.703125 -20.71875 C 7.609375 -19.71875 6.800781 -18.515625 6.28125 -17.109375 C 5.769531 -15.710938 5.59375 -14.25 5.75 -12.71875 C 5.914062 -11.195312 6.425781 -9.757812 7.28125 -8.40625 C 7.90625 -7.4375 8.769531 -6.648438 9.875 -6.046875 C 10.976562 -5.441406 12.148438 -5.070312 13.390625 -4.9375 C 14.628906 -4.800781 15.785156 -4.90625 16.859375 -5.25 C 17.753906 -5.582031 18.382812 -6.070312 18.75 -6.71875 C 19.113281 -7.375 19.332031 -8.113281 19.40625 -8.9375 C 19.488281 -9.757812 19.515625 -10.5625 19.484375 -11.34375 C 19.484375 -11.613281 19.457031 -11.898438 19.40625 -12.203125 C 19.363281 -12.503906 19.375 -12.785156 19.4375 -13.046875 C 19.5 -13.304688 19.675781 -13.472656 19.96875 -13.546875 C 20.195312 -13.628906 20.46875 -13.660156 20.78125 -13.640625 C 21.09375 -13.628906 21.363281 -13.625 21.59375 -13.625 C 21.988281 -13.65625 22.378906 -13.703125 22.765625 -13.765625 C 23.160156 -13.828125 23.554688 -13.832031 23.953125 -13.78125 C 24.523438 -13.726562 24.863281 -13.546875 24.96875 -13.234375 C 25.070312 -12.921875 25.109375 -12.515625 25.078125 -12.015625 C 25.078125 -11.191406 25.101562 -10.316406 25.15625 -9.390625 C 25.207031 -8.460938 25.191406 -7.539062 25.109375 -6.625 C 25.035156 -5.707031 24.816406 -4.867188 24.453125 -4.109375 C 24.097656 -3.347656 23.503906 -2.71875 22.671875 -2.21875 C 21.472656 -1.507812 20.144531 -0.96875 18.6875 -0.59375 C 17.238281 -0.21875 15.765625 -0.03125 14.265625 -0.03125 C 13.035156 -0.03125 11.8125 -0.160156 10.59375 -0.421875 C 9.382812 -0.691406 8.234375 -1.101562 7.140625 -1.65625 C 5.585938 -2.425781 4.285156 -3.429688 3.234375 -4.671875 C 2.179688 -5.910156 1.390625 -7.285156 0.859375 -8.796875 C 0.335938 -10.316406 0.0625 -11.890625 0.03125 -13.515625 C 0.0078125 -15.140625 0.25 -16.734375 0.75 -18.296875 C 1.25 -19.867188 2.015625 -21.316406 3.046875 -22.640625 C 4.367188 -24.316406 5.914062 -25.609375 7.6875 -26.515625 C 9.46875 -27.429688 11.320312 -27.890625 13.25 -27.890625 L 13.484375 -27.890625 C 15.054688 -27.867188 16.613281 -27.664062 18.15625 -27.28125 C 19.695312 -26.894531 21.140625 -26.273438 22.484375 -25.421875 C 22.640625 -25.316406 22.769531 -25.21875 22.875 -25.125 C 22.988281 -25.039062 23.097656 -24.960938 23.203125 -24.890625 Z M 23.203125 -24.890625 "/></g></g></g><g fill="#000000" fill-opacity="1"><g transform="translate(41.432684, 34.183233)"><g><path d="M 0 -13.9375 C 0 -15.863281 0.367188 -17.671875 1.109375 -19.359375 C 1.847656 -21.046875 2.859375 -22.523438 4.140625 -23.796875 C 5.429688 -25.078125 6.925781 -26.078125 8.625 -26.796875 C 10.332031 -27.523438 12.148438 -27.890625 14.078125 -27.890625 L 14.15625 -27.890625 C 16.082031 -27.867188 17.953125 -27.503906 19.765625 -26.796875 C 21.578125 -26.097656 23.160156 -25.050781 24.515625 -23.65625 C 25.796875 -22.351562 26.757812 -20.867188 27.40625 -19.203125 C 28.0625 -17.535156 28.390625 -15.8125 28.390625 -14.03125 C 28.390625 -12.257812 28.082031 -10.539062 27.46875 -8.875 C 26.851562 -7.21875 25.921875 -5.710938 24.671875 -4.359375 C 23.390625 -2.984375 21.863281 -1.929688 20.09375 -1.203125 C 18.332031 -0.472656 16.484375 -0.0820312 14.546875 -0.03125 C 12.609375 0.0078125 10.738281 -0.285156 8.9375 -0.921875 C 7.132812 -1.554688 5.570312 -2.550781 4.25 -3.90625 C 2.914062 -5.226562 1.875 -6.773438 1.125 -8.546875 C 0.375 -10.328125 0 -12.125 0 -13.9375 Z M 14.265625 -23.203125 C 13.867188 -23.203125 13.460938 -23.171875 13.046875 -23.109375 C 12.628906 -23.046875 12.222656 -22.941406 11.828125 -22.796875 C 10.703125 -22.390625 9.703125 -21.765625 8.828125 -20.921875 C 7.953125 -20.085938 7.238281 -19.144531 6.6875 -18.09375 C 5.851562 -16.519531 5.519531 -14.84375 5.6875 -13.0625 C 5.851562 -11.289062 6.472656 -9.703125 7.546875 -8.296875 C 7.597656 -8.222656 7.644531 -8.15625 7.6875 -8.09375 C 7.738281 -8.03125 7.789062 -7.972656 7.84375 -7.921875 C 8.675781 -6.972656 9.632812 -6.226562 10.71875 -5.6875 C 11.8125 -5.144531 12.960938 -4.863281 14.171875 -4.84375 C 15.390625 -4.820312 16.570312 -5.097656 17.71875 -5.671875 C 18.894531 -6.273438 19.863281 -7.078125 20.625 -8.078125 C 21.394531 -9.078125 21.941406 -10.171875 22.265625 -11.359375 C 22.585938 -12.546875 22.6875 -13.757812 22.5625 -15 C 22.4375 -16.238281 22.085938 -17.414062 21.515625 -18.53125 C 20.941406 -19.644531 20.128906 -20.601562 19.078125 -21.40625 C 18.367188 -21.957031 17.609375 -22.390625 16.796875 -22.703125 C 15.984375 -23.015625 15.140625 -23.179688 14.265625 -23.203125 Z M 14.265625 -23.203125 "/></g></g></g><g fill="#000000" fill-opacity="1"><g transform="translate(69.895113, 34.183233)"><g><path d="M 14.34375 -0.296875 C 13.9375 -0.273438 13.539062 -0.253906 13.15625 -0.234375 C 12.769531 -0.222656 12.390625 -0.207031 12.015625 -0.1875 C 10.460938 -0.164062 8.894531 -0.171875 7.3125 -0.203125 C 5.738281 -0.242188 4.175781 -0.203125 2.625 -0.078125 C 2.375 -0.046875 2.035156 -0.0234375 1.609375 -0.015625 C 1.179688 -0.00390625 0.8125 -0.0664062 0.5 -0.203125 C 0.1875 -0.335938 0.03125 -0.609375 0.03125 -1.015625 C 0.0820312 -3.566406 0.109375 -6.113281 0.109375 -8.65625 C 0.109375 -11.195312 0.125 -13.742188 0.15625 -16.296875 C 0.15625 -17.347656 0.15625 -18.398438 0.15625 -19.453125 C 0.15625 -20.503906 0.15625 -21.554688 0.15625 -22.609375 C 0.15625 -23.128906 0.160156 -23.648438 0.171875 -24.171875 C 0.179688 -24.703125 0.1875 -25.226562 0.1875 -25.75 C 0.1875 -26.101562 0.21875 -26.503906 0.28125 -26.953125 C 0.34375 -27.410156 0.570312 -27.703125 0.96875 -27.828125 C 1.050781 -27.847656 1.128906 -27.859375 1.203125 -27.859375 C 1.273438 -27.859375 1.347656 -27.859375 1.421875 -27.859375 C 3.753906 -27.835938 6.085938 -27.800781 8.421875 -27.75 C 10.765625 -27.695312 13.078125 -27.484375 15.359375 -27.109375 C 16.484375 -26.929688 17.457031 -26.507812 18.28125 -25.84375 C 19.113281 -25.1875 19.722656 -24.375 20.109375 -23.40625 C 20.492188 -22.445312 20.585938 -21.40625 20.390625 -20.28125 C 20.210938 -19.269531 19.875 -18.367188 19.375 -17.578125 C 18.875 -16.796875 18.410156 -15.96875 17.984375 -15.09375 C 17.960938 -14.988281 17.929688 -14.894531 17.890625 -14.8125 C 17.847656 -14.726562 17.828125 -14.632812 17.828125 -14.53125 C 17.859375 -14.300781 18.003906 -14.066406 18.265625 -13.828125 C 18.523438 -13.597656 18.816406 -13.375 19.140625 -13.15625 C 19.472656 -12.945312 19.710938 -12.765625 19.859375 -12.609375 C 20.359375 -12.109375 20.816406 -11.550781 21.234375 -10.9375 C 21.648438 -10.332031 21.929688 -9.664062 22.078125 -8.9375 C 22.304688 -7.863281 22.210938 -6.710938 21.796875 -5.484375 C 21.378906 -4.253906 20.785156 -3.238281 20.015625 -2.4375 C 19.285156 -1.664062 18.410156 -1.132812 17.390625 -0.84375 C 16.378906 -0.550781 15.363281 -0.367188 14.34375 -0.296875 Z M 5.859375 -19.671875 C 5.859375 -19.648438 5.859375 -19.617188 5.859375 -19.578125 C 5.859375 -19.546875 5.859375 -19.515625 5.859375 -19.484375 C 5.828125 -19.234375 5.800781 -18.921875 5.78125 -18.546875 C 5.757812 -18.171875 5.789062 -17.820312 5.875 -17.5 C 5.957031 -17.175781 6.140625 -16.9375 6.421875 -16.78125 C 6.566406 -16.707031 6.710938 -16.664062 6.859375 -16.65625 C 7.015625 -16.644531 7.179688 -16.640625 7.359375 -16.640625 C 8.109375 -16.609375 8.863281 -16.578125 9.625 -16.546875 C 10.394531 -16.523438 11.15625 -16.59375 11.90625 -16.75 C 12.476562 -16.84375 13.007812 -17.132812 13.5 -17.625 C 13.988281 -18.113281 14.28125 -18.644531 14.375 -19.21875 C 14.53125 -19.945312 14.453125 -20.570312 14.140625 -21.09375 C 13.828125 -21.625 13.390625 -22.03125 12.828125 -22.3125 C 12.265625 -22.601562 11.65625 -22.773438 11 -22.828125 C 10.625 -22.878906 10.179688 -22.921875 9.671875 -22.953125 C 9.160156 -22.992188 8.648438 -22.988281 8.140625 -22.9375 C 7.640625 -22.882812 7.203125 -22.738281 6.828125 -22.5 C 6.453125 -22.269531 6.21875 -21.890625 6.125 -21.359375 C 6.070312 -21.085938 6.023438 -20.804688 5.984375 -20.515625 C 5.953125 -20.234375 5.910156 -19.953125 5.859375 -19.671875 Z M 6.15625 -6.15625 C 6.476562 -5.582031 6.945312 -5.203125 7.5625 -5.015625 C 8.175781 -4.828125 8.84375 -4.75 9.5625 -4.78125 C 10.289062 -4.820312 10.957031 -4.878906 11.5625 -4.953125 C 12.289062 -5.023438 13.03125 -5.238281 13.78125 -5.59375 C 14.53125 -5.945312 15.101562 -6.4375 15.5 -7.0625 C 15.875 -7.582031 16.019531 -8.113281 15.9375 -8.65625 C 15.851562 -9.195312 15.628906 -9.695312 15.265625 -10.15625 C 14.898438 -10.613281 14.476562 -10.984375 14 -11.265625 C 13.445312 -11.617188 12.84375 -11.835938 12.1875 -11.921875 C 11.539062 -12.003906 10.90625 -12.0625 10.28125 -12.09375 C 9.5625 -12.144531 8.859375 -12.082031 8.171875 -11.90625 C 7.484375 -11.726562 6.910156 -11.410156 6.453125 -10.953125 C 6.003906 -10.503906 5.742188 -9.859375 5.671875 -9.015625 C 5.640625 -8.660156 5.644531 -8.304688 5.6875 -7.953125 C 5.726562 -7.609375 5.785156 -7.257812 5.859375 -6.90625 C 5.910156 -6.78125 5.953125 -6.65625 5.984375 -6.53125 C 6.023438 -6.40625 6.082031 -6.28125 6.15625 -6.15625 Z M 6.15625 -6.15625 "/></g></g></g><g fill="#000000" fill-opacity="1"><g transform="translate(92.161806, 34.183233)"><g><path d="M 1.28125 -27.859375 C 1.300781 -27.859375 1.320312 -27.859375 1.34375 -27.859375 C 1.375 -27.859375 1.398438 -27.859375 1.421875 -27.859375 C 2.046875 -27.859375 2.660156 -27.851562 3.265625 -27.84375 C 3.867188 -27.832031 4.484375 -27.8125 5.109375 -27.78125 C 5.554688 -27.757812 5.78125 -27.582031 5.78125 -27.25 C 5.78125 -26.925781 5.78125 -26.59375 5.78125 -26.25 C 5.78125 -24.09375 5.78125 -21.925781 5.78125 -19.75 C 5.78125 -17.570312 5.78125 -15.40625 5.78125 -13.25 C 5.78125 -12.226562 5.773438 -11.195312 5.765625 -10.15625 C 5.753906 -9.113281 5.75 -8.082031 5.75 -7.0625 C 5.75 -6.101562 5.800781 -5.140625 5.90625 -4.171875 C 6.019531 -3.210938 6.015625 -2.25 5.890625 -1.28125 C 5.816406 -0.800781 5.65625 -0.492188 5.40625 -0.359375 C 5.15625 -0.222656 4.789062 -0.128906 4.3125 -0.078125 C 4.09375 -0.046875 3.75 -0.0234375 3.28125 -0.015625 C 2.820312 -0.00390625 2.34375 -0.03125 1.84375 -0.09375 C 1.34375 -0.15625 0.910156 -0.28125 0.546875 -0.46875 C 0.179688 -0.65625 0 -0.925781 0 -1.28125 C 0 -5.476562 0.00390625 -9.679688 0.015625 -13.890625 C 0.0234375 -18.097656 0.0195312 -22.304688 0 -26.515625 C 0 -27.015625 0.09375 -27.359375 0.28125 -27.546875 C 0.46875 -27.734375 0.800781 -27.835938 1.28125 -27.859375 Z M 1.28125 -27.859375 "/></g></g></g><g transform="matrix(1, 0, 0, 1, 18, 40)"><g clip-path="url(#e83018e4bd)"><g fill="#000000" fill-opacity="1"><g transform="translate(0.503026, 8.290184)"><g><path d="M 7.105469 -3.460938 L 7.105469 -5.769531 L 5.890625 -5.769531 L 5.890625 -3.460938 Z M 5.316406 -4.675781 L 5.316406 -5.769531 L 2.546875 -5.769531 L 2.546875 -4.675781 Z M 7.949219 0 L 7.949219 -3.054688 L 6.734375 -3.054688 L 6.734375 0 Z M 5.519531 -2.371094 L 5.519531 -3.460938 L 2.546875 -3.460938 L 2.546875 -2.371094 Z M 6.160156 0 L 6.160156 -1.097656 L 2.546875 -1.097656 L 2.546875 0 Z M 1.972656 0 L 1.972656 -5.769531 L 0.757812 -5.769531 L 0.757812 0 Z M 1.972656 0 "/></g></g></g><g fill="#000000" fill-opacity="1"><g transform="translate(9.210625, 8.290184)"><g><path d="M 6.734375 -4.675781 L 6.734375 -5.769531 L 2.546875 -5.769531 L 2.546875 -4.675781 Z M 4.664062 -2.371094 L 4.664062 -3.460938 L 2.546875 -3.460938 L 2.546875 -2.371094 Z M 6.734375 0 L 6.734375 -1.097656 L 2.546875 -1.097656 L 2.546875 0 Z M 1.972656 0 L 1.972656 -5.769531 L 0.757812 -5.769531 L 0.757812 0 Z M 1.972656 0 "/></g></g></g><g fill="#000000" fill-opacity="1"><g transform="translate(16.703212, 8.290184)"><g><path d="M 1.972656 0 L 1.972656 -5.769531 L 0.757812 -5.769531 L 0.757812 0 Z M 1.972656 0 "/></g></g></g><g fill="#000000" fill-opacity="1"><g transform="translate(19.436995, 8.290184)"><g><path d="M 6.734375 0 L 6.734375 -5.769531 L 5.507812 -5.769531 L 5.507812 0 Z M 4.9375 0 L 4.9375 -1.097656 L 0.757812 -1.097656 L 0.757812 0 Z M 4.9375 0 "/></g></g></g><g fill="#000000" fill-opacity="1"><g transform="translate(26.929581, 8.290184)"><g><path d="M 1.972656 0 L 1.972656 -5.769531 L 0.757812 -5.769531 L 0.757812 0 Z M 1.972656 0 "/></g></g></g><g fill="#000000" fill-opacity="1"><g transform="translate(29.663364, 8.290184)"><g><path d="M 7.949219 0 L 7.949219 -5.769531 L 6.734375 -5.769531 L 6.734375 0 Z M 6.335938 -1.753906 L 3.222656 -4.867188 L 2.363281 -4.015625 L 5.484375 -0.894531 Z M 1.972656 0 L 1.972656 -5.769531 L 0.757812 -5.769531 L 0.757812 0 Z M 1.972656 0 "/></g></g></g><g fill="#000000" fill-opacity="1"><g transform="translate(38.370964, 8.290184)"><g><path d="M 6.160156 -4.675781 L 6.160156 -5.769531 L 2.546875 -5.769531 L 2.546875 -4.675781 Z M 6.976562 -2.371094 L 6.976562 -3.460938 L 4.050781 -3.460938 L 4.050781 -2.371094 Z M 6.160156 0 L 6.160156 -1.796875 L 4.9375 -1.796875 L 4.9375 0 Z M 1.972656 0 L 1.972656 -5.769531 L 0.757812 -5.769531 L 0.757812 0 Z M 4.371094 0 L 4.371094 -1.097656 L 2.546875 -1.097656 L 2.546875 0 Z M 4.371094 0 "/></g></g></g><g fill="#000000" fill-opacity="1"><g transform="translate(46.108233, 8.290184)"><g><path d="M 1.972656 -2.34375 L 1.972656 -3.5 L 0.757812 -3.5 L 0.757812 -2.34375 Z M 1.972656 -2.34375 "/></g></g></g><g fill="#000000" fill-opacity="1"><g transform="translate(48.842015, 8.290184)"><g><path d="M 5.550781 -4.675781 L 5.550781 -5.769531 L 1.972656 -5.769531 L 1.972656 -4.675781 Z M 1.972656 0 L 1.972656 -3.460938 L 0.757812 -3.460938 L 0.757812 0 Z M 5.550781 -2.371094 L 5.550781 -3.460938 L 2.546875 -3.460938 L 2.546875 -2.371094 Z M 7.339844 -2.371094 L 7.339844 -5.769531 L 6.125 -5.769531 L 6.125 -2.371094 Z M 7.339844 0 L 7.339844 -1.097656 L 2.546875 -1.097656 L 2.546875 0 Z M 7.339844 0 "/></g></g></g><g fill="#000000" fill-opacity="1"><g transform="translate(56.942103, 8.290184)"><g><path d="M 7.695312 -1.097656 L 7.695312 -4.675781 L 6.480469 -4.675781 L 6.480469 -1.097656 Z M 5.90625 -4.675781 L 5.90625 -5.769531 L 2.546875 -5.769531 L 2.546875 -4.675781 Z M 5.90625 0 L 5.90625 -1.097656 L 2.546875 -1.097656 L 2.546875 0 Z M 1.972656 -1.097656 L 1.972656 -4.675781 L 0.757812 -4.675781 L 0.757812 -1.097656 Z M 1.972656 -1.097656 "/></g></g></g><g fill="#000000" fill-opacity="1"><g transform="translate(65.396566, 8.290184)"><g><path d="M 5.550781 -4.675781 L 5.550781 -5.769531 L 1.972656 -5.769531 L 1.972656 -4.675781 Z M 1.972656 0 L 1.972656 -3.460938 L 0.757812 -3.460938 L 0.757812 0 Z M 5.550781 -2.371094 L 5.550781 -3.460938 L 2.546875 -3.460938 L 2.546875 -2.371094 Z M 7.339844 -2.371094 L 7.339844 -5.769531 L 6.125 -5.769531 L 6.125 -2.371094 Z M 7.339844 0 L 7.339844 -1.097656 L 2.546875 -1.097656 L 2.546875 0 Z M 7.339844 0 "/></g></g></g><g fill="#000000" fill-opacity="1"><g transform="translate(73.496654, 8.290184)"><g><path d="M 6.125 -4.675781 L 6.125 -5.769531 L 2.546875 -5.769531 L 2.546875 -4.675781 Z M 7.339844 0 L 7.339844 -3.460938 L 6.125 -3.460938 L 6.125 0 Z M 5.550781 -2.371094 L 5.550781 -3.460938 L 2.546875 -3.460938 L 2.546875 -2.371094 Z M 1.972656 -2.371094 L 1.972656 -5.769531 L 0.757812 -5.769531 L 0.757812 -2.371094 Z M 5.550781 0 L 5.550781 -1.097656 L 0.757812 -1.097656 L 0.757812 0 Z M 5.550781 0 "/></g></g></g></g></g></svg>