<svg xmlns="http://www.w3.org/2000/svg" xmlns:xlink="http://www.w3.org/1999/xlink" width="160" zoomAndPan="magnify" viewBox="0 0 120 67.499998" height="90" preserveAspectRatio="xMidYMid meet" version="1.0"><defs><filter x="0%" y="0%" width="100%" height="100%" id="899f5cb91e"><feColorMatrix values="0 0 0 0 1 0 0 0 0 1 0 0 0 0 1 0 0 0 1 0" color-interpolation-filters="sRGB"/></filter><g/><clipPath id="6ec194a76e"><path d="M 0.441406 0 L 119.558594 0 L 119.558594 67.003906 L 0.441406 67.003906 Z M 0.441406 0 " clip-rule="nonzero"/></clipPath><clipPath id="47f7e3dcf7"><path d="M 0.441406 0 L 119.558594 0 L 119.558594 67.003906 L 0.441406 67.003906 Z M 0.441406 0 " clip-rule="nonzero"/></clipPath><clipPath id="05a08e26d4"><path d="M 0.441406 0 L 119.558594 0 L 119.558594 67.003906 L 0.441406 67.003906 Z M 0.441406 0 " clip-rule="nonzero"/></clipPath><clipPath id="41ab65eadd"><path d="M 0.441406 0 L 119.558594 0 L 119.558594 67.003906 L 0.441406 67.003906 Z M 0.441406 0 " clip-rule="nonzero"/></clipPath><linearGradient x1="-9.392803" gradientTransform="matrix(0.547488, 0, 0, 0.548081, 13.417418, 12.111052)" y1="114.462808" x2="160.518422" gradientUnits="userSpaceOnUse" y2="-55.448432" id="667d4ca763"><stop stop-opacity="1" stop-color="rgb(99.609375%, 51.368713%, 33.729553%)" offset="0"/><stop stop-opacity="1" stop-color="rgb(99.609375%, 51.368713%, 33.729553%)" offset="0.25"/><stop stop-opacity="1" stop-color="rgb(99.609375%, 51.368713%, 33.729553%)" offset="0.28125"/><stop stop-opacity="1" stop-color="rgb(99.609375%, 51.402283%, 33.712769%)" offset="0.296875"/><stop stop-opacity="1" stop-color="rgb(99.615479%, 52.148438%, 33.349609%)" offset="0.300781"/><stop stop-opacity="1" stop-color="rgb(99.623108%, 52.861023%, 33.003235%)" offset="0.304688"/><stop stop-opacity="1" stop-color="rgb(99.629211%, 53.573608%, 32.65686%)" offset="0.308594"/><stop stop-opacity="1" stop-color="rgb(99.636841%, 54.286194%, 32.310486%)" offset="0.3125"/><stop stop-opacity="1" stop-color="rgb(99.642944%, 54.998779%, 31.964111%)" offset="0.316406"/><stop stop-opacity="1" stop-color="rgb(99.649048%, 55.711365%, 31.617737%)" offset="0.320312"/><stop stop-opacity="1" stop-color="rgb(99.655151%, 56.42395%, 31.271362%)" offset="0.324219"/><stop stop-opacity="1" stop-color="rgb(99.662781%, 57.136536%, 30.924988%)" offset="0.328125"/><stop stop-opacity="1" stop-color="rgb(99.668884%, 57.849121%, 30.578613%)" offset="0.332031"/><stop stop-opacity="1" stop-color="rgb(99.676514%, 58.561707%, 30.232239%)" offset="0.335938"/><stop stop-opacity="1" stop-color="rgb(99.682617%, 59.274292%, 29.885864%)" offset="0.339844"/><stop stop-opacity="1" stop-color="rgb(99.688721%, 59.986877%, 29.53949%)" offset="0.34375"/><stop stop-opacity="1" stop-color="rgb(99.694824%, 60.699463%, 29.193115%)" offset="0.347656"/><stop stop-opacity="1" stop-color="rgb(99.702454%, 61.412048%, 28.846741%)" offset="0.351562"/><stop stop-opacity="1" stop-color="rgb(99.708557%, 62.124634%, 28.500366%)" offset="0.355469"/><stop stop-opacity="1" stop-color="rgb(99.716187%, 62.837219%, 28.153992%)" offset="0.359375"/><stop stop-opacity="1" stop-color="rgb(99.72229%, 63.549805%, 27.807617%)" offset="0.363281"/><stop stop-opacity="1" stop-color="rgb(99.728394%, 64.26239%, 27.461243%)" offset="0.367187"/><stop stop-opacity="1" stop-color="rgb(99.734497%, 64.974976%, 27.114868%)" offset="0.371094"/><stop stop-opacity="1" stop-color="rgb(99.742126%, 65.687561%, 26.768494%)" offset="0.375"/><stop stop-opacity="1" stop-color="rgb(99.74823%, 66.400146%, 26.422119%)" offset="0.378906"/><stop stop-opacity="1" stop-color="rgb(99.755859%, 67.112732%, 26.075745%)" offset="0.382813"/><stop stop-opacity="1" stop-color="rgb(99.761963%, 67.825317%, 25.72937%)" offset="0.386719"/><stop stop-opacity="1" stop-color="rgb(99.768066%, 68.537903%, 25.382996%)" offset="0.390625"/><stop stop-opacity="1" stop-color="rgb(99.77417%, 69.250488%, 25.035095%)" offset="0.394531"/><stop stop-opacity="1" stop-color="rgb(99.781799%, 69.963074%, 24.688721%)" offset="0.398438"/><stop stop-opacity="1" stop-color="rgb(99.787903%, 70.675659%, 24.342346%)" offset="0.402344"/><stop stop-opacity="1" stop-color="rgb(99.795532%, 71.388245%, 23.995972%)" offset="0.40625"/><stop stop-opacity="1" stop-color="rgb(99.801636%, 72.10083%, 23.649597%)" offset="0.410156"/><stop stop-opacity="1" stop-color="rgb(99.809265%, 72.813416%, 23.303223%)" offset="0.414062"/><stop stop-opacity="1" stop-color="rgb(99.815369%, 73.526001%, 22.956848%)" offset="0.417969"/><stop stop-opacity="1" stop-color="rgb(99.821472%, 74.238586%, 22.610474%)" offset="0.421875"/><stop stop-opacity="1" stop-color="rgb(99.827576%, 74.951172%, 22.264099%)" offset="0.425781"/><stop stop-opacity="1" stop-color="rgb(99.835205%, 75.663757%, 21.917725%)" offset="0.429688"/><stop stop-opacity="1" stop-color="rgb(99.841309%, 76.376343%, 21.57135%)" offset="0.433594"/><stop stop-opacity="1" stop-color="rgb(99.848938%, 77.088928%, 21.224976%)" offset="0.4375"/><stop stop-opacity="1" stop-color="rgb(99.855042%, 77.801514%, 20.878601%)" offset="0.441406"/><stop stop-opacity="1" stop-color="rgb(99.861145%, 78.514099%, 20.532227%)" offset="0.445312"/><stop stop-opacity="1" stop-color="rgb(99.867249%, 79.226685%, 20.185852%)" offset="0.449219"/><stop stop-opacity="1" stop-color="rgb(99.874878%, 79.93927%, 19.839478%)" offset="0.453125"/><stop stop-opacity="1" stop-color="rgb(99.880981%, 80.651855%, 19.493103%)" offset="0.457031"/><stop stop-opacity="1" stop-color="rgb(99.888611%, 81.364441%, 19.146729%)" offset="0.460938"/><stop stop-opacity="1" stop-color="rgb(99.894714%, 82.077026%, 18.800354%)" offset="0.464844"/><stop stop-opacity="1" stop-color="rgb(99.900818%, 82.789612%, 18.453979%)" offset="0.46875"/><stop stop-opacity="1" stop-color="rgb(99.906921%, 83.502197%, 18.107605%)" offset="0.472656"/><stop stop-opacity="1" stop-color="rgb(99.914551%, 84.214783%, 17.76123%)" offset="0.476562"/><stop stop-opacity="1" stop-color="rgb(99.920654%, 84.927368%, 17.41333%)" offset="0.480469"/><stop stop-opacity="1" stop-color="rgb(99.928284%, 85.639954%, 17.066956%)" offset="0.484375"/><stop stop-opacity="1" stop-color="rgb(99.934387%, 86.352539%, 16.720581%)" offset="0.488281"/><stop stop-opacity="1" stop-color="rgb(99.940491%, 87.065125%, 16.374207%)" offset="0.492188"/><stop stop-opacity="1" stop-color="rgb(99.946594%, 87.77771%, 16.027832%)" offset="0.496094"/><stop stop-opacity="1" stop-color="rgb(99.954224%, 88.490295%, 15.681458%)" offset="0.5"/><stop stop-opacity="1" stop-color="rgb(99.960327%, 89.202881%, 15.335083%)" offset="0.503906"/><stop stop-opacity="1" stop-color="rgb(99.967957%, 89.915466%, 14.988708%)" offset="0.507812"/><stop stop-opacity="1" stop-color="rgb(99.97406%, 90.628052%, 14.642334%)" offset="0.511719"/><stop stop-opacity="1" stop-color="rgb(99.980164%, 91.340637%, 14.295959%)" offset="0.515625"/><stop stop-opacity="1" stop-color="rgb(99.986267%, 92.053223%, 13.949585%)" offset="0.519531"/><stop stop-opacity="1" stop-color="rgb(99.993896%, 92.765808%, 13.60321%)" offset="0.523438"/><stop stop-opacity="1" stop-color="rgb(99.629211%, 93.070984%, 13.337708%)" offset="0.527344"/><stop stop-opacity="1" stop-color="rgb(99.266052%, 93.377686%, 13.072205%)" offset="0.53125"/><stop stop-opacity="1" stop-color="rgb(98.660278%, 93.417358%, 12.858582%)" offset="0.535156"/><stop stop-opacity="1" stop-color="rgb(98.054504%, 93.458557%, 12.644958%)" offset="0.539062"/><stop stop-opacity="1" stop-color="rgb(97.447205%, 93.49823%, 12.431335%)" offset="0.542969"/><stop stop-opacity="1" stop-color="rgb(96.841431%, 93.537903%, 12.219238%)" offset="0.546875"/><stop stop-opacity="1" stop-color="rgb(96.235657%, 93.577576%, 12.005615%)" offset="0.550781"/><stop stop-opacity="1" stop-color="rgb(95.629883%, 93.618774%, 11.791992%)" offset="0.554688"/><stop stop-opacity="1" stop-color="rgb(95.022583%, 93.658447%, 11.578369%)" offset="0.558594"/><stop stop-opacity="1" stop-color="rgb(94.416809%, 93.69812%, 11.366272%)" offset="0.5625"/><stop stop-opacity="1" stop-color="rgb(93.811035%, 93.737793%, 11.152649%)" offset="0.566406"/><stop stop-opacity="1" stop-color="rgb(93.205261%, 93.778992%, 10.940552%)" offset="0.570312"/><stop stop-opacity="1" stop-color="rgb(92.599487%, 93.818665%, 10.726929%)" offset="0.574219"/><stop stop-opacity="1" stop-color="rgb(91.993713%, 93.858337%, 10.513306%)" offset="0.578125"/><stop stop-opacity="1" stop-color="rgb(91.386414%, 93.89801%, 10.299683%)" offset="0.582031"/><stop stop-opacity="1" stop-color="rgb(90.78064%, 93.939209%, 10.087585%)" offset="0.585938"/><stop stop-opacity="1" stop-color="rgb(90.174866%, 93.978882%, 9.873962%)" offset="0.589844"/><stop stop-opacity="1" stop-color="rgb(89.569092%, 94.018555%, 9.661865%)" offset="0.59375"/><stop stop-opacity="1" stop-color="rgb(88.961792%, 94.058228%, 9.448242%)" offset="0.597656"/><stop stop-opacity="1" stop-color="rgb(88.356018%, 94.099426%, 9.234619%)" offset="0.601562"/><stop stop-opacity="1" stop-color="rgb(87.750244%, 94.139099%, 9.020996%)" offset="0.605469"/><stop stop-opacity="1" stop-color="rgb(87.14447%, 94.178772%, 8.808899%)" offset="0.609375"/><stop stop-opacity="1" stop-color="rgb(86.53717%, 94.218445%, 8.595276%)" offset="0.613281"/><stop stop-opacity="1" stop-color="rgb(85.931396%, 94.259644%, 8.383179%)" offset="0.617188"/><stop stop-opacity="1" stop-color="rgb(85.325623%, 94.299316%, 8.169556%)" offset="0.621094"/><stop stop-opacity="1" stop-color="rgb(84.719849%, 94.338989%, 7.955933%)" offset="0.625"/><stop stop-opacity="1" stop-color="rgb(84.114075%, 94.378662%, 7.74231%)" offset="0.628906"/><stop stop-opacity="1" stop-color="rgb(83.508301%, 94.419861%, 7.530212%)" offset="0.632812"/><stop stop-opacity="1" stop-color="rgb(82.901001%, 94.459534%, 7.316589%)" offset="0.636719"/><stop stop-opacity="1" stop-color="rgb(82.295227%, 94.499207%, 7.104492%)" offset="0.640625"/><stop stop-opacity="1" stop-color="rgb(81.689453%, 94.538879%, 6.890869%)" offset="0.644531"/><stop stop-opacity="1" stop-color="rgb(81.083679%, 94.580078%, 6.677246%)" offset="0.648438"/><stop stop-opacity="1" stop-color="rgb(80.476379%, 94.619751%, 6.463623%)" offset="0.652344"/><stop stop-opacity="1" stop-color="rgb(79.870605%, 94.66095%, 6.251526%)" offset="0.65625"/><stop stop-opacity="1" stop-color="rgb(79.264832%, 94.700623%, 6.037903%)" offset="0.660156"/><stop stop-opacity="1" stop-color="rgb(78.659058%, 94.740295%, 5.825806%)" offset="0.664062"/><stop stop-opacity="1" stop-color="rgb(78.051758%, 94.779968%, 5.612183%)" offset="0.667969"/><stop stop-opacity="1" stop-color="rgb(77.445984%, 94.821167%, 5.39856%)" offset="0.671875"/><stop stop-opacity="1" stop-color="rgb(76.84021%, 94.86084%, 5.184937%)" offset="0.675781"/><stop stop-opacity="1" stop-color="rgb(76.234436%, 94.900513%, 4.972839%)" offset="0.679688"/><stop stop-opacity="1" stop-color="rgb(75.628662%, 94.940186%, 4.759216%)" offset="0.683594"/><stop stop-opacity="1" stop-color="rgb(75.022888%, 94.981384%, 4.545593%)" offset="0.6875"/><stop stop-opacity="1" stop-color="rgb(74.415588%, 95.021057%, 4.33197%)" offset="0.691406"/><stop stop-opacity="1" stop-color="rgb(73.809814%, 95.06073%, 4.119873%)" offset="0.695312"/><stop stop-opacity="1" stop-color="rgb(73.204041%, 95.100403%, 3.90625%)" offset="0.699219"/><stop stop-opacity="1" stop-color="rgb(72.598267%, 95.141602%, 3.694153%)" offset="0.703125"/><stop stop-opacity="1" stop-color="rgb(71.990967%, 95.181274%, 3.48053%)" offset="0.707031"/><stop stop-opacity="1" stop-color="rgb(71.385193%, 95.220947%, 3.266907%)" offset="0.710937"/><stop stop-opacity="1" stop-color="rgb(70.779419%, 95.26062%, 3.053284%)" offset="0.714844"/><stop stop-opacity="1" stop-color="rgb(70.173645%, 95.301819%, 2.841187%)" offset="0.71875"/><stop stop-opacity="1" stop-color="rgb(69.566345%, 95.341492%, 2.627563%)" offset="0.722656"/><stop stop-opacity="1" stop-color="rgb(68.960571%, 95.381165%, 2.415466%)" offset="0.726562"/><stop stop-opacity="1" stop-color="rgb(68.354797%, 95.420837%, 2.201843%)" offset="0.730469"/><stop stop-opacity="1" stop-color="rgb(67.749023%, 95.462036%, 1.98822%)" offset="0.734375"/><stop stop-opacity="1" stop-color="rgb(67.14325%, 95.501709%, 1.774597%)" offset="0.738281"/><stop stop-opacity="1" stop-color="rgb(66.537476%, 95.541382%, 1.5625%)" offset="0.742187"/><stop stop-opacity="1" stop-color="rgb(65.930176%, 95.581055%, 1.348877%)" offset="0.746094"/><stop stop-opacity="1" stop-color="rgb(65.324402%, 95.622253%, 1.13678%)" offset="0.75"/><stop stop-opacity="1" stop-color="rgb(64.816284%, 95.655823%, 0.958252%)" offset="0.753906"/><stop stop-opacity="1" stop-color="rgb(64.309692%, 95.689392%, 0.779724%)" offset="0.757813"/><stop stop-opacity="1" stop-color="rgb(64.309692%, 95.689392%, 0.779724%)" offset="0.765625"/><stop stop-opacity="1" stop-color="rgb(64.309692%, 95.689392%, 0.779724%)" offset="0.78125"/><stop stop-opacity="1" stop-color="rgb(64.309692%, 95.689392%, 0.779724%)" offset="0.8125"/><stop stop-opacity="1" stop-color="rgb(64.309692%, 95.689392%, 0.779724%)" offset="0.875"/><stop stop-opacity="1" stop-color="rgb(64.309692%, 95.689392%, 0.779724%)" offset="1"/></linearGradient><clipPath id="b710ea7f28"><rect x="0" width="120" y="0" height="68"/></clipPath><clipPath id="a5085e6303"><path d="M 0.441406 0 L 119.558594 0 L 119.558594 67.003906 L 0.441406 67.003906 Z M 0.441406 0 " clip-rule="nonzero"/></clipPath><clipPath id="6c95bd1551"><rect x="0" width="120" y="0" height="68"/></clipPath><clipPath id="2d33501872"><rect x="0" width="120" y="0" height="68"/></clipPath><mask id="e62f6e6052"><g filter="url(#899f5cb91e)"><g transform="matrix(1, 0, 0, 1, 0.000000000000000056, 0)"><g clip-path="url(#2d33501872)"><g clip-path="url(#a5085e6303)"><g transform="matrix(1, 0, 0, 1, 0.000000000000000056, 0)"><g clip-path="url(#6c95bd1551)"><g fill="#000000" fill-opacity="1"><g transform="translate(16.704914, 37.311498)"><g><path d="M 24 -17.890625 C 24 -16.003906 24.007812 -14.109375 24.03125 -12.203125 C 24.0625 -10.296875 24.050781 -8.398438 24 -6.515625 C 23.96875 -5.460938 23.953125 -4.367188 23.953125 -3.234375 C 23.953125 -2.097656 23.867188 -0.976562 23.703125 0.125 C 23.535156 1.226562 23.191406 2.265625 22.671875 3.234375 C 21.972656 4.503906 21.054688 5.5625 19.921875 6.40625 C 18.785156 7.257812 17.53125 7.890625 16.15625 8.296875 C 14.789062 8.710938 13.40625 8.921875 12 8.921875 C 11.882812 8.921875 11.769531 8.921875 11.65625 8.921875 C 11.550781 8.921875 11.441406 8.921875 11.328125 8.921875 C 10.421875 8.867188 9.515625 8.789062 8.609375 8.6875 C 7.710938 8.59375 6.820312 8.410156 5.9375 8.140625 C 5.570312 8.023438 5.140625 7.878906 4.640625 7.703125 C 4.148438 7.523438 3.679688 7.3125 3.234375 7.0625 C 2.796875 6.8125 2.484375 6.5 2.296875 6.125 C 2.117188 5.75 2.15625 5.300781 2.40625 4.78125 C 2.601562 4.382812 2.796875 3.984375 2.984375 3.578125 C 3.179688 3.179688 3.378906 2.789062 3.578125 2.40625 C 3.796875 1.988281 4.082031 1.773438 4.4375 1.765625 C 4.800781 1.753906 5.203125 1.847656 5.640625 2.046875 C 6.085938 2.253906 6.519531 2.484375 6.9375 2.734375 C 7.351562 2.984375 7.695312 3.148438 7.96875 3.234375 C 8.550781 3.429688 9.15625 3.582031 9.78125 3.6875 C 10.40625 3.800781 11.019531 3.859375 11.625 3.859375 C 13.144531 3.859375 14.5 3.460938 15.6875 2.671875 C 16.882812 1.890625 17.742188 0.773438 18.265625 -0.671875 C 18.316406 -0.804688 18.359375 -0.9375 18.390625 -1.0625 C 18.421875 -1.1875 18.421875 -1.300781 18.390625 -1.40625 C 18.359375 -1.882812 18.175781 -2.160156 17.84375 -2.234375 C 17.519531 -2.316406 17.140625 -2.300781 16.703125 -2.1875 C 16.273438 -2.082031 15.859375 -1.941406 15.453125 -1.765625 C 15.054688 -1.585938 14.75 -1.46875 14.53125 -1.40625 C 13.894531 -1.21875 13.242188 -1.0625 12.578125 -0.9375 C 11.910156 -0.8125 11.25 -0.75 10.59375 -0.75 C 8.84375 -0.75 7.289062 -1.191406 5.9375 -2.078125 C 4.832031 -2.796875 3.847656 -3.609375 2.984375 -4.515625 C 2.128906 -5.429688 1.507812 -6.320312 1.125 -7.1875 C 0.0390625 -9.695312 -0.265625 -12.195312 0.203125 -14.6875 C 0.671875 -17.1875 1.875 -19.363281 3.8125 -21.21875 C 5.75 -23.09375 7.976562 -24.03125 10.5 -24.03125 C 12.414062 -24.03125 14.3125 -23.503906 16.1875 -22.453125 C 16.332031 -22.347656 16.515625 -22.296875 16.734375 -22.296875 C 17.066406 -22.296875 17.34375 -22.429688 17.5625 -22.703125 C 17.695312 -22.867188 18.035156 -23.039062 18.578125 -23.21875 C 19.117188 -23.40625 19.753906 -23.566406 20.484375 -23.703125 C 21.222656 -23.835938 21.921875 -23.90625 22.578125 -23.90625 C 22.992188 -23.90625 23.285156 -23.878906 23.453125 -23.828125 C 23.617188 -23.773438 23.757812 -23.554688 23.875 -23.171875 C 24.007812 -22.722656 24.046875 -22.203125 23.984375 -21.609375 C 23.929688 -21.015625 23.921875 -20.484375 23.953125 -20.015625 C 23.953125 -19.648438 23.953125 -19.296875 23.953125 -18.953125 C 23.953125 -18.609375 23.96875 -18.253906 24 -17.890625 Z M 16.640625 -7.890625 C 17.773438 -9.242188 18.34375 -10.832031 18.34375 -12.65625 C 18.34375 -13.875 18.070312 -14.96875 17.53125 -15.9375 C 17 -16.90625 16.28125 -17.664062 15.375 -18.21875 C 14.476562 -18.78125 13.460938 -19.0625 12.328125 -19.0625 C 11.554688 -19.03125 10.8125 -18.859375 10.09375 -18.546875 C 9.375 -18.242188 8.734375 -17.804688 8.171875 -17.234375 C 6.878906 -15.898438 6.257812 -14.25 6.3125 -12.28125 C 6.34375 -11.15625 6.644531 -10.09375 7.21875 -9.09375 C 7.800781 -8.09375 8.539062 -7.285156 9.4375 -6.671875 C 10.34375 -6.066406 11.304688 -5.765625 12.328125 -5.765625 C 12.328125 -5.765625 12.332031 -5.765625 12.34375 -5.765625 C 12.363281 -5.765625 12.375 -5.765625 12.375 -5.765625 C 14.03125 -5.765625 15.453125 -6.472656 16.640625 -7.890625 Z M 16.640625 -7.890625 "/></g></g></g><g fill="#000000" fill-opacity="1"><g transform="translate(40.866653, 37.311498)"><g><path d="M 0.046875 -12.046875 C 0.015625 -13.585938 0.316406 -15.125 0.953125 -16.65625 C 1.585938 -18.195312 2.472656 -19.550781 3.609375 -20.71875 C 4.691406 -21.820312 5.921875 -22.664062 7.296875 -23.25 C 8.679688 -23.832031 10.109375 -24.125 11.578125 -24.125 C 11.722656 -24.125 11.867188 -24.125 12.015625 -24.125 C 12.171875 -24.125 12.316406 -24.125 12.453125 -24.125 C 12.453125 -24.125 12.457031 -24.125 12.46875 -24.125 C 12.488281 -24.125 12.5 -24.125 12.5 -24.125 C 14.90625 -24.125 17.023438 -23.625 18.859375 -22.625 C 20.703125 -21.625 22.148438 -20.238281 23.203125 -18.46875 C 24.253906 -16.695312 24.78125 -14.648438 24.78125 -12.328125 C 24.78125 -8.703125 23.644531 -5.753906 21.375 -3.484375 C 20.269531 -2.378906 18.945312 -1.53125 17.40625 -0.9375 C 15.875 -0.34375 14.207031 -0.046875 12.40625 -0.046875 C 10.695312 -0.046875 9.097656 -0.351562 7.609375 -0.96875 C 6.128906 -1.59375 4.828125 -2.453125 3.703125 -3.546875 C 2.585938 -4.640625 1.703125 -5.910156 1.046875 -7.359375 C 0.398438 -8.816406 0.0664062 -10.378906 0.046875 -12.046875 Z M 12.28125 -19.1875 C 11.3125 -19.1875 10.367188 -18.875 9.453125 -18.25 C 8.546875 -17.625 7.796875 -16.816406 7.203125 -15.828125 C 6.609375 -14.847656 6.296875 -13.820312 6.265625 -12.75 C 6.242188 -11.550781 6.4375 -10.398438 6.84375 -9.296875 C 7.257812 -8.191406 7.894531 -7.265625 8.75 -6.515625 C 9.613281 -5.765625 10.679688 -5.320312 11.953125 -5.1875 C 13.367188 -5.050781 14.5625 -5.269531 15.53125 -5.84375 C 16.5 -6.425781 17.242188 -7.222656 17.765625 -8.234375 C 18.296875 -9.242188 18.585938 -10.351562 18.640625 -11.5625 C 18.691406 -12.769531 18.507812 -13.925781 18.09375 -15.03125 C 17.6875 -16.132812 17.023438 -17.066406 16.109375 -17.828125 C 15.191406 -18.585938 14.03125 -19.039062 12.625 -19.1875 C 12.5625 -19.1875 12.503906 -19.1875 12.453125 -19.1875 C 12.398438 -19.1875 12.34375 -19.1875 12.28125 -19.1875 Z M 12.28125 -19.1875 "/></g></g></g><g fill="#000000" fill-opacity="1"><g transform="translate(65.734164, 37.311498)"><g><path d="M 0.171875 -1.53125 C 0.273438 -4.25 0.332031 -6.960938 0.34375 -9.671875 C 0.363281 -12.378906 0.347656 -15.09375 0.296875 -17.8125 C 0.296875 -19.332031 0.28125 -20.859375 0.25 -22.390625 C 0.21875 -23.929688 0.203125 -25.460938 0.203125 -26.984375 C 0.203125 -27.398438 0.164062 -27.914062 0.09375 -28.53125 C 0.03125 -29.15625 0.0078125 -29.785156 0.03125 -30.421875 C 0.0625 -31.066406 0.1875 -31.601562 0.40625 -32.03125 C 0.632812 -32.457031 1.039062 -32.671875 1.625 -32.671875 C 1.675781 -32.671875 1.710938 -32.671875 1.734375 -32.671875 C 1.765625 -32.671875 1.796875 -32.671875 1.828125 -32.671875 C 2.242188 -32.640625 2.628906 -32.625 2.984375 -32.625 C 3.347656 -32.625 3.664062 -32.613281 3.9375 -32.59375 C 4.1875 -32.59375 4.46875 -32.601562 4.78125 -32.625 C 5.101562 -32.65625 5.394531 -32.628906 5.65625 -32.546875 C 5.925781 -32.460938 6.078125 -32.253906 6.109375 -31.921875 C 6.242188 -30.679688 6.257812 -29.441406 6.15625 -28.203125 C 6.0625 -26.972656 6.015625 -25.722656 6.015625 -24.453125 C 6.015625 -24.003906 6.117188 -23.59375 6.328125 -23.21875 C 6.535156 -22.851562 6.90625 -22.671875 7.4375 -22.671875 C 7.570312 -22.671875 7.707031 -22.691406 7.84375 -22.734375 C 7.976562 -22.773438 8.101562 -22.804688 8.21875 -22.828125 C 8.269531 -22.828125 8.300781 -22.832031 8.3125 -22.84375 C 8.332031 -22.863281 8.359375 -22.875 8.390625 -22.875 C 8.554688 -22.90625 8.710938 -22.945312 8.859375 -23 C 9.015625 -23.050781 9.175781 -23.09375 9.34375 -23.125 C 9.476562 -23.15625 9.613281 -23.191406 9.75 -23.234375 C 9.894531 -23.273438 10.035156 -23.304688 10.171875 -23.328125 C 12.359375 -23.796875 14.460938 -23.820312 16.484375 -23.40625 C 18.503906 -23 20.25 -21.851562 21.71875 -19.96875 C 22.9375 -18.414062 23.722656 -16.695312 24.078125 -14.8125 C 24.441406 -12.9375 24.421875 -11.078125 24.015625 -9.234375 C 23.617188 -7.390625 22.878906 -5.726562 21.796875 -4.25 C 20.710938 -2.769531 19.335938 -1.628906 17.671875 -0.828125 C 16.015625 -0.0234375 14.125 0.25 12 0 C 11.21875 -0.0820312 10.46875 -0.234375 9.75 -0.453125 C 9.03125 -0.671875 8.285156 -0.78125 7.515625 -0.78125 C 7.179688 -0.78125 6.851562 -0.757812 6.53125 -0.71875 C 6.21875 -0.6875 5.910156 -0.597656 5.609375 -0.453125 C 5.109375 -0.265625 4.429688 -0.171875 3.578125 -0.171875 C 3.429688 -0.171875 3.273438 -0.171875 3.109375 -0.171875 C 2.941406 -0.171875 2.789062 -0.171875 2.65625 -0.171875 C 2.300781 -0.191406 1.921875 -0.179688 1.515625 -0.140625 C 1.109375 -0.0976562 0.78125 -0.144531 0.53125 -0.28125 C 0.289062 -0.425781 0.171875 -0.757812 0.171875 -1.28125 C 0.171875 -1.34375 0.171875 -1.394531 0.171875 -1.4375 C 0.171875 -1.476562 0.171875 -1.507812 0.171875 -1.53125 Z M 8.171875 -16.765625 C 6.984375 -15.410156 6.390625 -13.765625 6.390625 -11.828125 C 6.390625 -10.671875 6.679688 -9.550781 7.265625 -8.46875 C 7.847656 -7.382812 8.601562 -6.5 9.53125 -5.8125 C 10.457031 -5.125 11.40625 -4.78125 12.375 -4.78125 L 12.453125 -4.78125 C 14.171875 -4.832031 15.648438 -5.5625 16.890625 -6.96875 C 18.109375 -8.414062 18.71875 -10.078125 18.71875 -11.953125 C 18.695312 -13.171875 18.398438 -14.304688 17.828125 -15.359375 C 17.265625 -16.410156 16.523438 -17.257812 15.609375 -17.90625 C 14.691406 -18.5625 13.695312 -18.890625 12.625 -18.890625 C 12.625 -18.890625 12.613281 -18.890625 12.59375 -18.890625 C 12.582031 -18.890625 12.578125 -18.890625 12.578125 -18.890625 C 11.773438 -18.890625 10.984375 -18.707031 10.203125 -18.34375 C 9.429688 -17.988281 8.753906 -17.460938 8.171875 -16.765625 Z M 8.171875 -16.765625 "/></g></g></g><g fill="#000000" fill-opacity="1"><g transform="translate(90.145, 37.311498)"><g><path d="M 1.578125 -26.15625 C 0.972656 -26.539062 0.53125 -27.085938 0.25 -27.796875 C -0.03125 -28.503906 -0.046875 -29.269531 0.203125 -30.09375 C 0.671875 -31.726562 1.78125 -32.570312 3.53125 -32.625 L 3.609375 -32.625 C 4.472656 -32.625 5.191406 -32.394531 5.765625 -31.9375 C 6.347656 -31.488281 6.738281 -30.863281 6.9375 -30.0625 C 7.1875 -29.0625 7.085938 -28.144531 6.640625 -27.3125 C 6.203125 -26.488281 5.457031 -25.953125 4.40625 -25.703125 C 3.875 -25.585938 3.363281 -25.570312 2.875 -25.65625 C 2.394531 -25.738281 1.960938 -25.90625 1.578125 -26.15625 Z M 1 -22 C 1.382812 -22.25 1.9375 -22.359375 2.65625 -22.328125 C 3.070312 -22.328125 3.53125 -22.34375 4.03125 -22.375 C 4.53125 -22.40625 4.992188 -22.359375 5.421875 -22.234375 C 5.847656 -22.109375 6.128906 -21.820312 6.265625 -21.375 C 6.515625 -20.6875 6.597656 -19.847656 6.515625 -18.859375 C 6.429688 -17.878906 6.390625 -17.03125 6.390625 -16.3125 C 6.421875 -14.625 6.4375 -12.945312 6.4375 -11.28125 C 6.4375 -9.625 6.445312 -7.953125 6.46875 -6.265625 C 6.46875 -5.992188 6.503906 -5.53125 6.578125 -4.875 C 6.648438 -4.226562 6.691406 -3.53125 6.703125 -2.78125 C 6.710938 -2.03125 6.632812 -1.390625 6.46875 -0.859375 C 6.3125 -0.335938 5.984375 -0.0664062 5.484375 -0.046875 C 4.847656 -0.015625 4.179688 0.00390625 3.484375 0.015625 C 2.796875 0.0351562 2.132812 0.00390625 1.5 -0.078125 C 1.050781 -0.140625 0.742188 -0.382812 0.578125 -0.8125 C 0.410156 -1.238281 0.320312 -1.753906 0.3125 -2.359375 C 0.300781 -2.972656 0.320312 -3.554688 0.375 -4.109375 C 0.425781 -4.660156 0.453125 -5.085938 0.453125 -5.390625 C 0.429688 -6.523438 0.410156 -7.664062 0.390625 -8.8125 C 0.378906 -9.96875 0.375 -11.113281 0.375 -12.25 C 0.34375 -13.21875 0.328125 -14.1875 0.328125 -15.15625 C 0.328125 -16.125 0.316406 -17.078125 0.296875 -18.015625 C 0.296875 -18.816406 0.28125 -19.59375 0.25 -20.34375 C 0.21875 -21.09375 0.46875 -21.644531 1 -22 Z M 1 -22 "/></g></g></g></g></g></g></g></g></g></mask><clipPath id="d08056c56c"><path d="M 0.441406 0 L 119.558594 0 L 119.558594 67.003906 L 0.441406 67.003906 Z M 0.441406 0 " clip-rule="nonzero"/></clipPath><clipPath id="e7b3b24c2a"><rect x="0" width="120" y="0" height="68"/></clipPath><clipPath id="86c5e0cf21"><rect x="0" width="120" y="0" height="68"/></clipPath><clipPath id="fcfbe5915e"><rect x="0" width="120" y="0" height="68"/></clipPath><clipPath id="464de0e86e"><path d="M 0.441406 31 L 119.558594 31 L 119.558594 67.003906 L 0.441406 67.003906 Z M 0.441406 31 " clip-rule="nonzero"/></clipPath><clipPath id="270e677c3e"><path d="M 0.441406 1.015625 L 119.558594 1.015625 L 119.558594 36.003906 L 0.441406 36.003906 Z M 0.441406 1.015625 " clip-rule="nonzero"/></clipPath><clipPath id="87cdebd866"><path d="M 0.441406 0.015625 L 119.558594 0.015625 L 119.558594 35.003906 L 0.441406 35.003906 Z M 0.441406 0.015625 " clip-rule="nonzero"/></clipPath><clipPath id="f0d2728b1e"><path d="M 1.496094 0.015625 L 116.105469 0.015625 L 116.105469 35.003906 L 1.496094 35.003906 Z M 1.496094 0.015625 " clip-rule="nonzero"/></clipPath><linearGradient x1="24.893889" gradientTransform="matrix(0.701647, 0, 0, 0.703127, 6.276445, 16.892381)" y1="57.465108" x2="131.444998" gradientUnits="userSpaceOnUse" y2="-49.085997" id="2440850cb4"><stop stop-opacity="1" stop-color="rgb(99.609375%, 51.368713%, 33.729553%)" offset="0"/><stop stop-opacity="1" stop-color="rgb(99.609375%, 51.368713%, 33.729553%)" offset="0.233495"/><stop stop-opacity="1" stop-color="rgb(99.609375%, 51.368713%, 33.729553%)" offset="0.25"/><stop stop-opacity="1" stop-color="rgb(99.610901%, 51.65863%, 33.587646%)" offset="0.253906"/><stop stop-opacity="1" stop-color="rgb(99.613953%, 51.948547%, 33.447266%)" offset="0.257812"/><stop stop-opacity="1" stop-color="rgb(99.621582%, 52.714539%, 33.074951%)" offset="0.261719"/><stop stop-opacity="1" stop-color="rgb(99.629211%, 53.48053%, 32.702637%)" offset="0.265625"/><stop stop-opacity="1" stop-color="rgb(99.635315%, 54.246521%, 32.330322%)" offset="0.269531"/><stop stop-opacity="1" stop-color="rgb(99.642944%, 55.012512%, 31.958008%)" offset="0.273438"/><stop stop-opacity="1" stop-color="rgb(99.649048%, 55.776978%, 31.585693%)" offset="0.277344"/><stop stop-opacity="1" stop-color="rgb(99.656677%, 56.542969%, 31.213379%)" offset="0.28125"/><stop stop-opacity="1" stop-color="rgb(99.664307%, 57.30896%, 30.841064%)" offset="0.285156"/><stop stop-opacity="1" stop-color="rgb(99.671936%, 58.074951%, 30.46875%)" offset="0.289062"/><stop stop-opacity="1" stop-color="rgb(99.67804%, 58.839417%, 30.096436%)" offset="0.292969"/><stop stop-opacity="1" stop-color="rgb(99.685669%, 59.605408%, 29.725647%)" offset="0.296875"/><stop stop-opacity="1" stop-color="rgb(99.691772%, 60.371399%, 29.353333%)" offset="0.300781"/><stop stop-opacity="1" stop-color="rgb(99.699402%, 61.13739%, 28.981018%)" offset="0.304688"/><stop stop-opacity="1" stop-color="rgb(99.707031%, 61.901855%, 28.608704%)" offset="0.308594"/><stop stop-opacity="1" stop-color="rgb(99.714661%, 62.667847%, 28.236389%)" offset="0.3125"/><stop stop-opacity="1" stop-color="rgb(99.720764%, 63.433838%, 27.864075%)" offset="0.316406"/><stop stop-opacity="1" stop-color="rgb(99.728394%, 64.199829%, 27.49176%)" offset="0.320313"/><stop stop-opacity="1" stop-color="rgb(99.734497%, 64.964294%, 27.119446%)" offset="0.324219"/><stop stop-opacity="1" stop-color="rgb(99.742126%, 65.730286%, 26.747131%)" offset="0.328125"/><stop stop-opacity="1" stop-color="rgb(99.749756%, 66.496277%, 26.374817%)" offset="0.332031"/><stop stop-opacity="1" stop-color="rgb(99.757385%, 67.262268%, 26.002502%)" offset="0.335938"/><stop stop-opacity="1" stop-color="rgb(99.763489%, 68.026733%, 25.630188%)" offset="0.339844"/><stop stop-opacity="1" stop-color="rgb(99.771118%, 68.792725%, 25.257874%)" offset="0.34375"/><stop stop-opacity="1" stop-color="rgb(99.777222%, 69.558716%, 24.885559%)" offset="0.347656"/><stop stop-opacity="1" stop-color="rgb(99.784851%, 70.324707%, 24.513245%)" offset="0.351563"/><stop stop-opacity="1" stop-color="rgb(99.79248%, 71.089172%, 24.14093%)" offset="0.355469"/><stop stop-opacity="1" stop-color="rgb(99.80011%, 71.855164%, 23.768616%)" offset="0.359375"/><stop stop-opacity="1" stop-color="rgb(99.806213%, 72.621155%, 23.396301%)" offset="0.363281"/><stop stop-opacity="1" stop-color="rgb(99.813843%, 73.387146%, 23.023987%)" offset="0.367188"/><stop stop-opacity="1" stop-color="rgb(99.819946%, 74.153137%, 22.651672%)" offset="0.371094"/><stop stop-opacity="1" stop-color="rgb(99.827576%, 74.919128%, 22.280884%)" offset="0.375"/><stop stop-opacity="1" stop-color="rgb(99.835205%, 75.683594%, 21.908569%)" offset="0.378906"/><stop stop-opacity="1" stop-color="rgb(99.842834%, 76.449585%, 21.536255%)" offset="0.382813"/><stop stop-opacity="1" stop-color="rgb(99.848938%, 77.215576%, 21.16394%)" offset="0.386719"/><stop stop-opacity="1" stop-color="rgb(99.856567%, 77.981567%, 20.791626%)" offset="0.390625"/><stop stop-opacity="1" stop-color="rgb(99.862671%, 78.746033%, 20.419312%)" offset="0.394531"/><stop stop-opacity="1" stop-color="rgb(99.8703%, 79.512024%, 20.046997%)" offset="0.398438"/><stop stop-opacity="1" stop-color="rgb(99.87793%, 80.278015%, 19.674683%)" offset="0.402344"/><stop stop-opacity="1" stop-color="rgb(99.885559%, 81.044006%, 19.302368%)" offset="0.40625"/><stop stop-opacity="1" stop-color="rgb(99.891663%, 81.808472%, 18.930054%)" offset="0.410156"/><stop stop-opacity="1" stop-color="rgb(99.899292%, 82.574463%, 18.557739%)" offset="0.414063"/><stop stop-opacity="1" stop-color="rgb(99.905396%, 83.340454%, 18.185425%)" offset="0.417969"/><stop stop-opacity="1" stop-color="rgb(99.913025%, 84.106445%, 17.81311%)" offset="0.421875"/><stop stop-opacity="1" stop-color="rgb(99.920654%, 84.870911%, 17.440796%)" offset="0.425781"/><stop stop-opacity="1" stop-color="rgb(99.928284%, 85.636902%, 17.068481%)" offset="0.429688"/><stop stop-opacity="1" stop-color="rgb(99.934387%, 86.402893%, 16.696167%)" offset="0.433594"/><stop stop-opacity="1" stop-color="rgb(99.942017%, 87.168884%, 16.323853%)" offset="0.4375"/><stop stop-opacity="1" stop-color="rgb(99.94812%, 87.93335%, 15.951538%)" offset="0.441406"/><stop stop-opacity="1" stop-color="rgb(99.95575%, 88.699341%, 15.579224%)" offset="0.445312"/><stop stop-opacity="1" stop-color="rgb(99.963379%, 89.465332%, 15.206909%)" offset="0.449219"/><stop stop-opacity="1" stop-color="rgb(99.971008%, 90.231323%, 14.836121%)" offset="0.453125"/><stop stop-opacity="1" stop-color="rgb(99.977112%, 90.995789%, 14.463806%)" offset="0.457031"/><stop stop-opacity="1" stop-color="rgb(99.984741%, 91.76178%, 14.091492%)" offset="0.460938"/><stop stop-opacity="1" stop-color="rgb(99.990845%, 92.527771%, 13.719177%)" offset="0.464844"/><stop stop-opacity="1" stop-color="rgb(99.998474%, 93.293762%, 13.346863%)" offset="0.46875"/><stop stop-opacity="1" stop-color="rgb(99.362183%, 93.353271%, 13.113403%)" offset="0.472656"/><stop stop-opacity="1" stop-color="rgb(98.727417%, 93.412781%, 12.88147%)" offset="0.476562"/><stop stop-opacity="1" stop-color="rgb(98.075867%, 93.455505%, 12.652588%)" offset="0.480469"/><stop stop-opacity="1" stop-color="rgb(97.424316%, 93.499756%, 12.423706%)" offset="0.484375"/><stop stop-opacity="1" stop-color="rgb(96.772766%, 93.54248%, 12.194824%)" offset="0.488281"/><stop stop-opacity="1" stop-color="rgb(96.122742%, 93.585205%, 11.965942%)" offset="0.492188"/><stop stop-opacity="1" stop-color="rgb(95.471191%, 93.62793%, 11.737061%)" offset="0.496094"/><stop stop-opacity="1" stop-color="rgb(94.819641%, 93.67218%, 11.508179%)" offset="0.5"/><stop stop-opacity="1" stop-color="rgb(94.168091%, 93.714905%, 11.279297%)" offset="0.503906"/><stop stop-opacity="1" stop-color="rgb(93.516541%, 93.757629%, 11.050415%)" offset="0.507812"/><stop stop-opacity="1" stop-color="rgb(92.86499%, 93.800354%, 10.820007%)" offset="0.511719"/><stop stop-opacity="1" stop-color="rgb(92.214966%, 93.844604%, 10.591125%)" offset="0.515625"/><stop stop-opacity="1" stop-color="rgb(91.563416%, 93.887329%, 10.362244%)" offset="0.519531"/><stop stop-opacity="1" stop-color="rgb(90.911865%, 93.930054%, 10.133362%)" offset="0.523438"/><stop stop-opacity="1" stop-color="rgb(90.260315%, 93.972778%, 9.90448%)" offset="0.527344"/><stop stop-opacity="1" stop-color="rgb(89.610291%, 94.015503%, 9.675598%)" offset="0.53125"/><stop stop-opacity="1" stop-color="rgb(88.95874%, 94.058228%, 9.446716%)" offset="0.535156"/><stop stop-opacity="1" stop-color="rgb(88.30719%, 94.102478%, 9.217834%)" offset="0.539062"/><stop stop-opacity="1" stop-color="rgb(87.65564%, 94.145203%, 8.988953%)" offset="0.542969"/><stop stop-opacity="1" stop-color="rgb(87.004089%, 94.187927%, 8.760071%)" offset="0.546875"/><stop stop-opacity="1" stop-color="rgb(86.352539%, 94.230652%, 8.531189%)" offset="0.550781"/><stop stop-opacity="1" stop-color="rgb(85.702515%, 94.274902%, 8.302307%)" offset="0.554688"/><stop stop-opacity="1" stop-color="rgb(85.050964%, 94.317627%, 8.073425%)" offset="0.558594"/><stop stop-opacity="1" stop-color="rgb(84.399414%, 94.360352%, 7.844543%)" offset="0.5625"/><stop stop-opacity="1" stop-color="rgb(83.747864%, 94.403076%, 7.614136%)" offset="0.566406"/><stop stop-opacity="1" stop-color="rgb(83.097839%, 94.447327%, 7.385254%)" offset="0.570313"/><stop stop-opacity="1" stop-color="rgb(82.446289%, 94.490051%, 7.156372%)" offset="0.574219"/><stop stop-opacity="1" stop-color="rgb(81.794739%, 94.532776%, 6.92749%)" offset="0.578125"/><stop stop-opacity="1" stop-color="rgb(81.143188%, 94.5755%, 6.698608%)" offset="0.582031"/><stop stop-opacity="1" stop-color="rgb(80.493164%, 94.619751%, 6.469727%)" offset="0.585938"/><stop stop-opacity="1" stop-color="rgb(79.841614%, 94.662476%, 6.240845%)" offset="0.589844"/><stop stop-opacity="1" stop-color="rgb(79.190063%, 94.7052%, 6.011963%)" offset="0.59375"/><stop stop-opacity="1" stop-color="rgb(78.538513%, 94.747925%, 5.783081%)" offset="0.597656"/><stop stop-opacity="1" stop-color="rgb(77.886963%, 94.790649%, 5.554199%)" offset="0.601563"/><stop stop-opacity="1" stop-color="rgb(77.235413%, 94.833374%, 5.325317%)" offset="0.605469"/><stop stop-opacity="1" stop-color="rgb(76.585388%, 94.877625%, 5.096436%)" offset="0.609375"/><stop stop-opacity="1" stop-color="rgb(75.933838%, 94.920349%, 4.866028%)" offset="0.613281"/><stop stop-opacity="1" stop-color="rgb(75.282288%, 94.963074%, 4.637146%)" offset="0.617188"/><stop stop-opacity="1" stop-color="rgb(74.630737%, 95.005798%, 4.408264%)" offset="0.621094"/><stop stop-opacity="1" stop-color="rgb(73.980713%, 95.050049%, 4.179382%)" offset="0.625"/><stop stop-opacity="1" stop-color="rgb(73.329163%, 95.092773%, 3.9505%)" offset="0.628906"/><stop stop-opacity="1" stop-color="rgb(72.677612%, 95.135498%, 3.721619%)" offset="0.632813"/><stop stop-opacity="1" stop-color="rgb(72.026062%, 95.178223%, 3.492737%)" offset="0.636719"/><stop stop-opacity="1" stop-color="rgb(71.374512%, 95.222473%, 3.263855%)" offset="0.640625"/><stop stop-opacity="1" stop-color="rgb(70.722961%, 95.265198%, 3.034973%)" offset="0.644531"/><stop stop-opacity="1" stop-color="rgb(70.072937%, 95.307922%, 2.806091%)" offset="0.648438"/><stop stop-opacity="1" stop-color="rgb(69.421387%, 95.350647%, 2.577209%)" offset="0.652344"/><stop stop-opacity="1" stop-color="rgb(68.769836%, 95.394897%, 2.348328%)" offset="0.65625"/><stop stop-opacity="1" stop-color="rgb(68.118286%, 95.437622%, 2.119446%)" offset="0.660156"/><stop stop-opacity="1" stop-color="rgb(67.468262%, 95.480347%, 1.890564%)" offset="0.664063"/><stop stop-opacity="1" stop-color="rgb(66.816711%, 95.523071%, 1.660156%)" offset="0.667969"/><stop stop-opacity="1" stop-color="rgb(66.165161%, 95.565796%, 1.431274%)" offset="0.671875"/><stop stop-opacity="1" stop-color="rgb(65.513611%, 95.608521%, 1.202393%)" offset="0.675781"/><stop stop-opacity="1" stop-color="rgb(64.863586%, 95.652771%, 0.973511%)" offset="0.679688"/><stop stop-opacity="1" stop-color="rgb(64.585876%, 95.671082%, 0.875854%)" offset="0.683594"/><stop stop-opacity="1" stop-color="rgb(64.309692%, 95.689392%, 0.779724%)" offset="0.6875"/><stop stop-opacity="1" stop-color="rgb(64.309692%, 95.689392%, 0.779724%)" offset="0.75"/><stop stop-opacity="1" stop-color="rgb(64.309692%, 95.689392%, 0.779724%)" offset="0.766505"/><stop stop-opacity="1" stop-color="rgb(64.309692%, 95.689392%, 0.779724%)" offset="1"/></linearGradient><clipPath id="f47c190857"><rect x="0" width="120" y="0" height="36"/></clipPath><clipPath id="77b6ae8589"><path d="M 0.441406 0.015625 L 119.558594 0.015625 L 119.558594 35.003906 L 0.441406 35.003906 Z M 0.441406 0.015625 " clip-rule="nonzero"/></clipPath><clipPath id="462c1c1e5c"><rect x="0" width="120" y="0" height="36"/></clipPath><clipPath id="b34b59de9a"><rect x="0" width="120" y="0" height="36"/></clipPath><mask id="ada951ac87"><g filter="url(#899f5cb91e)"><g transform="matrix(1, 0, 0, 1, 0.000000000000000056, 0)"><g clip-path="url(#b34b59de9a)"><g clip-path="url(#77b6ae8589)"><g transform="matrix(1, 0, 0, 1, 0.000000000000000056, 0)"><g clip-path="url(#462c1c1e5c)"><g fill="#000000" fill-opacity="1"><g transform="translate(18.503026, 24.626775)"><g><path d="M 7.105469 -3.460938 L 7.105469 -5.769531 L 5.890625 -5.769531 L 5.890625 -3.460938 Z M 5.316406 -4.675781 L 5.316406 -5.769531 L 2.546875 -5.769531 L 2.546875 -4.675781 Z M 7.949219 0 L 7.949219 -3.054688 L 6.734375 -3.054688 L 6.734375 0 Z M 5.519531 -2.371094 L 5.519531 -3.460938 L 2.546875 -3.460938 L 2.546875 -2.371094 Z M 6.160156 0 L 6.160156 -1.097656 L 2.546875 -1.097656 L 2.546875 0 Z M 1.972656 0 L 1.972656 -5.769531 L 0.757812 -5.769531 L 0.757812 0 Z M 1.972656 0 "/></g></g></g><g fill="#000000" fill-opacity="1"><g transform="translate(27.210625, 24.626775)"><g><path d="M 6.734375 -4.675781 L 6.734375 -5.769531 L 2.546875 -5.769531 L 2.546875 -4.675781 Z M 4.664062 -2.371094 L 4.664062 -3.460938 L 2.546875 -3.460938 L 2.546875 -2.371094 Z M 6.734375 0 L 6.734375 -1.097656 L 2.546875 -1.097656 L 2.546875 0 Z M 1.972656 0 L 1.972656 -5.769531 L 0.757812 -5.769531 L 0.757812 0 Z M 1.972656 0 "/></g></g></g><g fill="#000000" fill-opacity="1"><g transform="translate(34.703212, 24.626775)"><g><path d="M 1.972656 0 L 1.972656 -5.769531 L 0.757812 -5.769531 L 0.757812 0 Z M 1.972656 0 "/></g></g></g><g fill="#000000" fill-opacity="1"><g transform="translate(37.436995, 24.626775)"><g><path d="M 6.734375 0 L 6.734375 -5.769531 L 5.507812 -5.769531 L 5.507812 0 Z M 4.9375 0 L 4.9375 -1.097656 L 0.757812 -1.097656 L 0.757812 0 Z M 4.9375 0 "/></g></g></g><g fill="#000000" fill-opacity="1"><g transform="translate(44.929581, 24.626775)"><g><path d="M 1.972656 0 L 1.972656 -5.769531 L 0.757812 -5.769531 L 0.757812 0 Z M 1.972656 0 "/></g></g></g><g fill="#000000" fill-opacity="1"><g transform="translate(47.663364, 24.626775)"><g><path d="M 7.949219 0 L 7.949219 -5.769531 L 6.734375 -5.769531 L 6.734375 0 Z M 6.335938 -1.753906 L 3.222656 -4.867188 L 2.363281 -4.015625 L 5.484375 -0.894531 Z M 1.972656 0 L 1.972656 -5.769531 L 0.757812 -5.769531 L 0.757812 0 Z M 1.972656 0 "/></g></g></g><g fill="#000000" fill-opacity="1"><g transform="translate(56.370964, 24.626775)"><g><path d="M 6.160156 -4.675781 L 6.160156 -5.769531 L 2.546875 -5.769531 L 2.546875 -4.675781 Z M 6.976562 -2.371094 L 6.976562 -3.460938 L 4.050781 -3.460938 L 4.050781 -2.371094 Z M 6.160156 0 L 6.160156 -1.796875 L 4.9375 -1.796875 L 4.9375 0 Z M 1.972656 0 L 1.972656 -5.769531 L 0.757812 -5.769531 L 0.757812 0 Z M 4.371094 0 L 4.371094 -1.097656 L 2.546875 -1.097656 L 2.546875 0 Z M 4.371094 0 "/></g></g></g><g fill="#000000" fill-opacity="1"><g transform="translate(64.108233, 24.626775)"><g><path d="M 1.972656 -2.34375 L 1.972656 -3.5 L 0.757812 -3.5 L 0.757812 -2.34375 Z M 1.972656 -2.34375 "/></g></g></g><g fill="#000000" fill-opacity="1"><g transform="translate(66.842015, 24.626775)"><g><path d="M 5.550781 -4.675781 L 5.550781 -5.769531 L 1.972656 -5.769531 L 1.972656 -4.675781 Z M 1.972656 0 L 1.972656 -3.460938 L 0.757812 -3.460938 L 0.757812 0 Z M 5.550781 -2.371094 L 5.550781 -3.460938 L 2.546875 -3.460938 L 2.546875 -2.371094 Z M 7.339844 -2.371094 L 7.339844 -5.769531 L 6.125 -5.769531 L 6.125 -2.371094 Z M 7.339844 0 L 7.339844 -1.097656 L 2.546875 -1.097656 L 2.546875 0 Z M 7.339844 0 "/></g></g></g><g fill="#000000" fill-opacity="1"><g transform="translate(74.942103, 24.626775)"><g><path d="M 7.695312 -1.097656 L 7.695312 -4.675781 L 6.480469 -4.675781 L 6.480469 -1.097656 Z M 5.90625 -4.675781 L 5.90625 -5.769531 L 2.546875 -5.769531 L 2.546875 -4.675781 Z M 5.90625 0 L 5.90625 -1.097656 L 2.546875 -1.097656 L 2.546875 0 Z M 1.972656 -1.097656 L 1.972656 -4.675781 L 0.757812 -4.675781 L 0.757812 -1.097656 Z M 1.972656 -1.097656 "/></g></g></g><g fill="#000000" fill-opacity="1"><g transform="translate(83.396566, 24.626775)"><g><path d="M 5.550781 -4.675781 L 5.550781 -5.769531 L 1.972656 -5.769531 L 1.972656 -4.675781 Z M 1.972656 0 L 1.972656 -3.460938 L 0.757812 -3.460938 L 0.757812 0 Z M 5.550781 -2.371094 L 5.550781 -3.460938 L 2.546875 -3.460938 L 2.546875 -2.371094 Z M 7.339844 -2.371094 L 7.339844 -5.769531 L 6.125 -5.769531 L 6.125 -2.371094 Z M 7.339844 0 L 7.339844 -1.097656 L 2.546875 -1.097656 L 2.546875 0 Z M 7.339844 0 "/></g></g></g><g fill="#000000" fill-opacity="1"><g transform="translate(91.496654, 24.626775)"><g><path d="M 6.125 -4.675781 L 6.125 -5.769531 L 2.546875 -5.769531 L 2.546875 -4.675781 Z M 7.339844 0 L 7.339844 -3.460938 L 6.125 -3.460938 L 6.125 0 Z M 5.550781 -2.371094 L 5.550781 -3.460938 L 2.546875 -3.460938 L 2.546875 -2.371094 Z M 1.972656 -2.371094 L 1.972656 -5.769531 L 0.757812 -5.769531 L 0.757812 -2.371094 Z M 5.550781 0 L 5.550781 -1.097656 L 0.757812 -1.097656 L 0.757812 0 Z M 5.550781 0 "/></g></g></g></g></g></g></g></g></g></mask><clipPath id="555d673a60"><path d="M 1.496094 0.015625 L 116.105469 0.015625 L 116.105469 35.003906 L 1.496094 35.003906 Z M 1.496094 0.015625 " clip-rule="nonzero"/></clipPath><clipPath id="7d67234117"><rect x="0" width="120" y="0" height="36"/></clipPath><clipPath id="22c1de3f59"><rect x="0" width="120" y="0" height="36"/></clipPath><clipPath id="8b63903437"><rect x="0" width="120" y="0" height="37"/></clipPath></defs><g clip-path="url(#6ec194a76e)"><g transform="matrix(1, 0, 0, 1, 0.000000000000000056, 0)"><g clip-path="url(#fcfbe5915e)"><g clip-path="url(#47f7e3dcf7)"><g transform="matrix(1, 0, 0, 1, 0.000000000000000056, 0)"><g clip-path="url(#86c5e0cf21)"><g clip-path="url(#05a08e26d4)"><g mask="url(#e62f6e6052)"><g transform="matrix(1, 0, 0, 1, 0.000000000000000056, 0)"><g clip-path="url(#e7b3b24c2a)"><g clip-path="url(#d08056c56c)"><path fill="url(#667d4ca763)" d="M 0.441406 0 L 0.441406 67.003906 L 119.558594 67.003906 L 119.558594 0 Z M 0.441406 0 " fill-rule="nonzero"/></g></g></g></g></g></g></g></g></g></g></g><g clip-path="url(#464de0e86e)"><g transform="matrix(1, 0, 0, 1, 0.000000000000000056, 31)"><g clip-path="url(#8b63903437)"><g clip-path="url(#270e677c3e)"><g transform="matrix(1, 0, 0, 1, 0.000000000000000056, 1)"><g clip-path="url(#22c1de3f59)"><g clip-path="url(#87cdebd866)"><g mask="url(#ada951ac87)"><g transform="matrix(1, 0, 0, 1, 0.000000000000000056, 0)"><g clip-path="url(#7d67234117)"><g clip-path="url(#555d673a60)"><path fill="url(#2440850cb4)" d="M 1.496094 0.015625 L 1.496094 35.003906 L 116.105469 35.003906 L 116.105469 0.015625 Z M 1.496094 0.015625 " fill-rule="nonzero"/></g></g></g></g></g></g></g></g></g></g></g></svg>