<svg xmlns="http://www.w3.org/2000/svg" xmlns:xlink="http://www.w3.org/1999/xlink" width="160" zoomAndPan="magnify" viewBox="0 0 120 67.499998" height="90" preserveAspectRatio="xMidYMid meet" version="1.0"><defs><g/><clipPath id="6b4d695d03"><path d="M 0.0234375 2 L 9 2 L 9 8 L 0.0234375 8 Z M 0.0234375 2 " clip-rule="nonzero"/></clipPath><clipPath id="37887fc153"><rect x="0" width="82" y="0" height="11"/></clipPath></defs><g fill="#000000" fill-opacity="1"><g transform="translate(18.627056, 39.914362)"><g><path d="M 20.75 -22.265625 C 21.019531 -21.992188 21.125 -21.722656 21.0625 -21.453125 C 21.007812 -21.179688 20.847656 -20.800781 20.578125 -20.3125 C 20.492188 -20.132812 20.359375 -19.890625 20.171875 -19.578125 C 19.992188 -19.265625 19.789062 -18.976562 19.5625 -18.71875 C 19.34375 -18.457031 19.113281 -18.328125 18.875 -18.328125 C 18.507812 -18.328125 18.132812 -18.425781 17.75 -18.625 C 17.375 -18.832031 16.992188 -19.0625 16.609375 -19.3125 C 16.234375 -19.570312 15.878906 -19.757812 15.546875 -19.875 C 14.203125 -20.363281 12.847656 -20.488281 11.484375 -20.25 C 10.003906 -20 8.769531 -19.425781 7.78125 -18.53125 C 6.800781 -17.632812 6.082031 -16.5625 5.625 -15.3125 C 5.164062 -14.0625 5.007812 -12.75 5.15625 -11.375 C 5.300781 -10.007812 5.753906 -8.722656 6.515625 -7.515625 C 7.078125 -6.648438 7.847656 -5.945312 8.828125 -5.40625 C 9.816406 -4.863281 10.863281 -4.53125 11.96875 -4.40625 C 13.070312 -4.289062 14.109375 -4.390625 15.078125 -4.703125 C 15.878906 -4.992188 16.441406 -5.429688 16.765625 -6.015625 C 17.097656 -6.597656 17.296875 -7.253906 17.359375 -7.984375 C 17.421875 -8.722656 17.441406 -9.441406 17.421875 -10.140625 C 17.421875 -10.390625 17.398438 -10.644531 17.359375 -10.90625 C 17.316406 -11.175781 17.320312 -11.425781 17.375 -11.65625 C 17.425781 -11.894531 17.585938 -12.050781 17.859375 -12.125 C 18.066406 -12.1875 18.304688 -12.210938 18.578125 -12.203125 C 18.859375 -12.191406 19.101562 -12.1875 19.3125 -12.1875 C 19.664062 -12.207031 20.015625 -12.242188 20.359375 -12.296875 C 20.710938 -12.359375 21.066406 -12.367188 21.421875 -12.328125 C 21.929688 -12.273438 22.234375 -12.109375 22.328125 -11.828125 C 22.421875 -11.554688 22.457031 -11.195312 22.4375 -10.75 C 22.4375 -10.007812 22.457031 -9.222656 22.5 -8.390625 C 22.539062 -7.566406 22.523438 -6.742188 22.453125 -5.921875 C 22.390625 -5.109375 22.195312 -4.359375 21.875 -3.671875 C 21.550781 -2.992188 21.019531 -2.429688 20.28125 -1.984375 C 19.207031 -1.359375 18.019531 -0.875 16.71875 -0.53125 C 15.425781 -0.195312 14.109375 -0.03125 12.765625 -0.03125 C 11.660156 -0.03125 10.566406 -0.144531 9.484375 -0.375 C 8.398438 -0.613281 7.363281 -0.984375 6.375 -1.484375 C 4.988281 -2.171875 3.828125 -3.066406 2.890625 -4.171875 C 1.953125 -5.285156 1.242188 -6.519531 0.765625 -7.875 C 0.296875 -9.226562 0.0507812 -10.628906 0.03125 -12.078125 C 0.0078125 -13.535156 0.222656 -14.960938 0.671875 -16.359375 C 1.117188 -17.765625 1.800781 -19.0625 2.71875 -20.25 C 3.90625 -21.75 5.289062 -22.90625 6.875 -23.71875 C 8.46875 -24.539062 10.128906 -24.953125 11.859375 -24.953125 L 12.046875 -24.953125 C 13.460938 -24.929688 14.859375 -24.742188 16.234375 -24.390625 C 17.609375 -24.046875 18.898438 -23.492188 20.109375 -22.734375 C 20.242188 -22.640625 20.359375 -22.550781 20.453125 -22.46875 C 20.554688 -22.394531 20.65625 -22.328125 20.75 -22.265625 Z M 20.75 -22.265625 "/></g></g></g><g fill="#000000" fill-opacity="1"><g transform="translate(42.60542, 39.914362)"><g><path d="M 0 -12.453125 C 0 -14.179688 0.328125 -15.800781 0.984375 -17.3125 C 1.648438 -18.820312 2.554688 -20.144531 3.703125 -21.28125 C 4.859375 -22.425781 6.195312 -23.320312 7.71875 -23.96875 C 9.238281 -24.625 10.863281 -24.953125 12.59375 -24.953125 L 12.65625 -24.953125 C 14.382812 -24.929688 16.054688 -24.601562 17.671875 -23.96875 C 19.296875 -23.34375 20.710938 -22.40625 21.921875 -21.15625 C 23.066406 -19.988281 23.929688 -18.660156 24.515625 -17.171875 C 25.097656 -15.679688 25.390625 -14.140625 25.390625 -12.546875 C 25.390625 -10.960938 25.113281 -9.425781 24.5625 -7.9375 C 24.007812 -6.445312 23.175781 -5.097656 22.0625 -3.890625 C 20.914062 -2.660156 19.550781 -1.71875 17.96875 -1.0625 C 16.394531 -0.414062 14.738281 -0.0703125 13 -0.03125 C 11.269531 0.0078125 9.597656 -0.25 7.984375 -0.8125 C 6.378906 -1.382812 4.984375 -2.273438 3.796875 -3.484375 C 2.609375 -4.671875 1.675781 -6.0625 1 -7.65625 C 0.332031 -9.25 0 -10.847656 0 -12.453125 Z M 12.765625 -20.75 C 12.398438 -20.75 12.03125 -20.71875 11.65625 -20.65625 C 11.289062 -20.601562 10.929688 -20.507812 10.578125 -20.375 C 9.566406 -20.019531 8.671875 -19.46875 7.890625 -18.71875 C 7.109375 -17.96875 6.472656 -17.125 5.984375 -16.1875 C 5.242188 -14.769531 4.945312 -13.265625 5.09375 -11.671875 C 5.238281 -10.085938 5.789062 -8.671875 6.75 -7.421875 C 6.789062 -7.347656 6.832031 -7.285156 6.875 -7.234375 C 6.925781 -7.179688 6.972656 -7.128906 7.015625 -7.078125 C 7.753906 -6.234375 8.609375 -5.566406 9.578125 -5.078125 C 10.554688 -4.597656 11.585938 -4.347656 12.671875 -4.328125 C 13.753906 -4.304688 14.8125 -4.550781 15.84375 -5.0625 C 16.894531 -5.601562 17.757812 -6.320312 18.4375 -7.21875 C 19.125 -8.113281 19.613281 -9.09375 19.90625 -10.15625 C 20.195312 -11.21875 20.285156 -12.300781 20.171875 -13.40625 C 20.066406 -14.519531 19.753906 -15.570312 19.234375 -16.5625 C 18.722656 -17.5625 18 -18.421875 17.0625 -19.140625 C 16.4375 -19.628906 15.757812 -20.015625 15.03125 -20.296875 C 14.300781 -20.578125 13.546875 -20.726562 12.765625 -20.75 Z M 12.765625 -20.75 "/></g></g></g><g fill="#000000" fill-opacity="1"><g transform="translate(69.438355, 39.914362)"><g><path d="M 12.828125 -0.265625 C 12.472656 -0.242188 12.117188 -0.226562 11.765625 -0.21875 C 11.421875 -0.207031 11.082031 -0.191406 10.75 -0.171875 C 9.351562 -0.148438 7.953125 -0.15625 6.546875 -0.1875 C 5.140625 -0.21875 3.738281 -0.175781 2.34375 -0.0625 C 2.125 -0.0390625 1.820312 -0.0234375 1.4375 -0.015625 C 1.0625 -0.00390625 0.734375 -0.0625 0.453125 -0.1875 C 0.171875 -0.3125 0.03125 -0.550781 0.03125 -0.90625 C 0.0703125 -3.1875 0.09375 -5.460938 0.09375 -7.734375 C 0.09375 -10.003906 0.109375 -12.285156 0.140625 -14.578125 C 0.140625 -15.515625 0.140625 -16.453125 0.140625 -17.390625 C 0.140625 -18.328125 0.140625 -19.269531 0.140625 -20.21875 C 0.140625 -20.6875 0.144531 -21.15625 0.15625 -21.625 C 0.164062 -22.09375 0.171875 -22.5625 0.171875 -23.03125 C 0.171875 -23.34375 0.195312 -23.703125 0.25 -24.109375 C 0.300781 -24.515625 0.507812 -24.769531 0.875 -24.875 C 0.9375 -24.90625 1 -24.921875 1.0625 -24.921875 C 1.132812 -24.921875 1.207031 -24.921875 1.28125 -24.921875 C 3.363281 -24.890625 5.445312 -24.851562 7.53125 -24.8125 C 9.625 -24.769531 11.691406 -24.582031 13.734375 -24.25 C 14.742188 -24.09375 15.613281 -23.71875 16.34375 -23.125 C 17.082031 -22.53125 17.625 -21.800781 17.96875 -20.9375 C 18.320312 -20.070312 18.410156 -19.132812 18.234375 -18.125 C 18.078125 -17.238281 17.773438 -16.441406 17.328125 -15.734375 C 16.878906 -15.023438 16.460938 -14.28125 16.078125 -13.5 C 16.054688 -13.40625 16.03125 -13.316406 16 -13.234375 C 15.96875 -13.160156 15.953125 -13.082031 15.953125 -13 C 15.972656 -12.789062 16.097656 -12.578125 16.328125 -12.359375 C 16.566406 -12.148438 16.832031 -11.953125 17.125 -11.765625 C 17.414062 -11.578125 17.628906 -11.414062 17.765625 -11.28125 C 18.210938 -10.832031 18.617188 -10.332031 18.984375 -9.78125 C 19.359375 -9.238281 19.613281 -8.640625 19.75 -7.984375 C 19.945312 -7.023438 19.859375 -5.992188 19.484375 -4.890625 C 19.117188 -3.796875 18.585938 -2.894531 17.890625 -2.1875 C 17.242188 -1.488281 16.46875 -1.007812 15.5625 -0.75 C 14.65625 -0.5 13.742188 -0.335938 12.828125 -0.265625 Z M 5.234375 -17.59375 C 5.234375 -17.570312 5.234375 -17.539062 5.234375 -17.5 C 5.234375 -17.46875 5.234375 -17.441406 5.234375 -17.421875 C 5.210938 -17.203125 5.191406 -16.921875 5.171875 -16.578125 C 5.148438 -16.242188 5.175781 -15.929688 5.25 -15.640625 C 5.332031 -15.347656 5.492188 -15.140625 5.734375 -15.015625 C 5.867188 -14.941406 6.003906 -14.898438 6.140625 -14.890625 C 6.273438 -14.878906 6.421875 -14.875 6.578125 -14.875 C 7.253906 -14.851562 7.929688 -14.832031 8.609375 -14.8125 C 9.296875 -14.789062 9.972656 -14.84375 10.640625 -14.96875 C 11.160156 -15.0625 11.632812 -15.328125 12.0625 -15.765625 C 12.5 -16.203125 12.765625 -16.675781 12.859375 -17.1875 C 12.992188 -17.84375 12.921875 -18.40625 12.640625 -18.875 C 12.359375 -19.34375 11.96875 -19.703125 11.46875 -19.953125 C 10.96875 -20.210938 10.425781 -20.367188 9.84375 -20.421875 C 9.5 -20.460938 9.097656 -20.5 8.640625 -20.53125 C 8.179688 -20.5625 7.726562 -20.554688 7.28125 -20.515625 C 6.832031 -20.472656 6.441406 -20.34375 6.109375 -20.125 C 5.773438 -19.914062 5.5625 -19.578125 5.46875 -19.109375 C 5.425781 -18.859375 5.390625 -18.601562 5.359375 -18.34375 C 5.328125 -18.09375 5.285156 -17.84375 5.234375 -17.59375 Z M 5.5 -5.5 C 5.789062 -4.988281 6.210938 -4.648438 6.765625 -4.484375 C 7.316406 -4.316406 7.914062 -4.25 8.5625 -4.28125 C 9.207031 -4.3125 9.800781 -4.363281 10.34375 -4.4375 C 10.988281 -4.5 11.644531 -4.6875 12.3125 -5 C 12.988281 -5.3125 13.507812 -5.75 13.875 -6.3125 C 14.207031 -6.78125 14.332031 -7.253906 14.25 -7.734375 C 14.175781 -8.222656 13.972656 -8.671875 13.640625 -9.078125 C 13.316406 -9.492188 12.945312 -9.828125 12.53125 -10.078125 C 12.03125 -10.390625 11.488281 -10.582031 10.90625 -10.65625 C 10.332031 -10.738281 9.765625 -10.789062 9.203125 -10.8125 C 8.554688 -10.851562 7.921875 -10.796875 7.296875 -10.640625 C 6.679688 -10.484375 6.171875 -10.203125 5.765625 -9.796875 C 5.367188 -9.398438 5.132812 -8.820312 5.0625 -8.0625 C 5.039062 -7.75 5.046875 -7.4375 5.078125 -7.125 C 5.117188 -6.8125 5.171875 -6.492188 5.234375 -6.171875 C 5.285156 -6.066406 5.328125 -5.957031 5.359375 -5.84375 C 5.390625 -5.726562 5.4375 -5.613281 5.5 -5.5 Z M 5.5 -5.5 "/></g></g></g><g fill="#000000" fill-opacity="1"><g transform="translate(90.730059, 39.914362)"><g><path d="M 1.140625 -24.921875 C 1.160156 -24.921875 1.179688 -24.921875 1.203125 -24.921875 C 1.234375 -24.921875 1.257812 -24.921875 1.28125 -24.921875 C 1.832031 -24.921875 2.378906 -24.910156 2.921875 -24.890625 C 3.460938 -24.878906 4.007812 -24.863281 4.5625 -24.84375 C 4.96875 -24.820312 5.171875 -24.664062 5.171875 -24.375 C 5.171875 -24.082031 5.171875 -23.78125 5.171875 -23.46875 C 5.171875 -21.539062 5.171875 -19.601562 5.171875 -17.65625 C 5.171875 -15.707031 5.171875 -13.773438 5.171875 -11.859375 C 5.171875 -10.929688 5.164062 -10.003906 5.15625 -9.078125 C 5.144531 -8.148438 5.140625 -7.226562 5.140625 -6.3125 C 5.140625 -5.457031 5.1875 -4.597656 5.28125 -3.734375 C 5.382812 -2.878906 5.378906 -2.015625 5.265625 -1.140625 C 5.203125 -0.710938 5.054688 -0.4375 4.828125 -0.3125 C 4.609375 -0.195312 4.285156 -0.113281 3.859375 -0.0625 C 3.660156 -0.0390625 3.351562 -0.0234375 2.9375 -0.015625 C 2.519531 -0.00390625 2.085938 -0.0234375 1.640625 -0.078125 C 1.191406 -0.140625 0.804688 -0.253906 0.484375 -0.421875 C 0.160156 -0.585938 0 -0.828125 0 -1.140625 C 0 -4.898438 0.00390625 -8.660156 0.015625 -12.421875 C 0.0234375 -16.179688 0.0195312 -19.941406 0 -23.703125 C 0 -24.148438 0.0820312 -24.457031 0.25 -24.625 C 0.414062 -24.789062 0.710938 -24.890625 1.140625 -24.921875 Z M 1.140625 -24.921875 "/></g></g></g><g transform="matrix(1, 0, 0, 1, 19, 45)"><g clip-path="url(#37887fc153)"><g clip-path="url(#6b4d695d03)"><g fill="#000000" fill-opacity="1"><g transform="translate(0.226553, 7.988987)"><g><path d="M 7.105469 -3.460938 L 7.105469 -5.769531 L 5.890625 -5.769531 L 5.890625 -3.460938 Z M 5.316406 -4.675781 L 5.316406 -5.769531 L 2.546875 -5.769531 L 2.546875 -4.675781 Z M 7.949219 0 L 7.949219 -3.054688 L 6.734375 -3.054688 L 6.734375 0 Z M 5.519531 -2.371094 L 5.519531 -3.460938 L 2.546875 -3.460938 L 2.546875 -2.371094 Z M 6.160156 0 L 6.160156 -1.097656 L 2.546875 -1.097656 L 2.546875 0 Z M 1.972656 0 L 1.972656 -5.769531 L 0.757812 -5.769531 L 0.757812 0 Z M 1.972656 0 "/></g></g></g></g><g fill="#000000" fill-opacity="1"><g transform="translate(8.934153, 7.988987)"><g><path d="M 6.734375 -4.675781 L 6.734375 -5.769531 L 2.546875 -5.769531 L 2.546875 -4.675781 Z M 4.664062 -2.371094 L 4.664062 -3.460938 L 2.546875 -3.460938 L 2.546875 -2.371094 Z M 6.734375 0 L 6.734375 -1.097656 L 2.546875 -1.097656 L 2.546875 0 Z M 1.972656 0 L 1.972656 -5.769531 L 0.757812 -5.769531 L 0.757812 0 Z M 1.972656 0 "/></g></g></g><g fill="#000000" fill-opacity="1"><g transform="translate(16.42674, 7.988987)"><g><path d="M 1.972656 0 L 1.972656 -5.769531 L 0.757812 -5.769531 L 0.757812 0 Z M 1.972656 0 "/></g></g></g><g fill="#000000" fill-opacity="1"><g transform="translate(19.160522, 7.988987)"><g><path d="M 6.734375 0 L 6.734375 -5.769531 L 5.507812 -5.769531 L 5.507812 0 Z M 4.9375 0 L 4.9375 -1.097656 L 0.757812 -1.097656 L 0.757812 0 Z M 4.9375 0 "/></g></g></g><g fill="#000000" fill-opacity="1"><g transform="translate(26.653109, 7.988987)"><g><path d="M 1.972656 0 L 1.972656 -5.769531 L 0.757812 -5.769531 L 0.757812 0 Z M 1.972656 0 "/></g></g></g><g fill="#000000" fill-opacity="1"><g transform="translate(29.386891, 7.988987)"><g><path d="M 7.949219 0 L 7.949219 -5.769531 L 6.734375 -5.769531 L 6.734375 0 Z M 6.335938 -1.753906 L 3.222656 -4.867188 L 2.363281 -4.015625 L 5.484375 -0.894531 Z M 1.972656 0 L 1.972656 -5.769531 L 0.757812 -5.769531 L 0.757812 0 Z M 1.972656 0 "/></g></g></g><g fill="#000000" fill-opacity="1"><g transform="translate(38.094491, 7.988987)"><g><path d="M 6.160156 -4.675781 L 6.160156 -5.769531 L 2.546875 -5.769531 L 2.546875 -4.675781 Z M 6.976562 -2.371094 L 6.976562 -3.460938 L 4.050781 -3.460938 L 4.050781 -2.371094 Z M 6.160156 0 L 6.160156 -1.796875 L 4.9375 -1.796875 L 4.9375 0 Z M 1.972656 0 L 1.972656 -5.769531 L 0.757812 -5.769531 L 0.757812 0 Z M 4.371094 0 L 4.371094 -1.097656 L 2.546875 -1.097656 L 2.546875 0 Z M 4.371094 0 "/></g></g></g><g fill="#000000" fill-opacity="1"><g transform="translate(45.83176, 7.988987)"><g><path d="M 1.972656 -2.34375 L 1.972656 -3.5 L 0.757812 -3.5 L 0.757812 -2.34375 Z M 1.972656 -2.34375 "/></g></g></g><g fill="#000000" fill-opacity="1"><g transform="translate(48.565543, 7.988987)"><g><path d="M 5.550781 -4.675781 L 5.550781 -5.769531 L 1.972656 -5.769531 L 1.972656 -4.675781 Z M 1.972656 0 L 1.972656 -3.460938 L 0.757812 -3.460938 L 0.757812 0 Z M 5.550781 -2.371094 L 5.550781 -3.460938 L 2.546875 -3.460938 L 2.546875 -2.371094 Z M 7.339844 -2.371094 L 7.339844 -5.769531 L 6.125 -5.769531 L 6.125 -2.371094 Z M 7.339844 0 L 7.339844 -1.097656 L 2.546875 -1.097656 L 2.546875 0 Z M 7.339844 0 "/></g></g></g><g fill="#000000" fill-opacity="1"><g transform="translate(56.665631, 7.988987)"><g><path d="M 7.695312 -1.097656 L 7.695312 -4.675781 L 6.480469 -4.675781 L 6.480469 -1.097656 Z M 5.90625 -4.675781 L 5.90625 -5.769531 L 2.546875 -5.769531 L 2.546875 -4.675781 Z M 5.90625 0 L 5.90625 -1.097656 L 2.546875 -1.097656 L 2.546875 0 Z M 1.972656 -1.097656 L 1.972656 -4.675781 L 0.757812 -4.675781 L 0.757812 -1.097656 Z M 1.972656 -1.097656 "/></g></g></g><g fill="#000000" fill-opacity="1"><g transform="translate(65.120094, 7.988987)"><g><path d="M 5.550781 -4.675781 L 5.550781 -5.769531 L 1.972656 -5.769531 L 1.972656 -4.675781 Z M 1.972656 0 L 1.972656 -3.460938 L 0.757812 -3.460938 L 0.757812 0 Z M 5.550781 -2.371094 L 5.550781 -3.460938 L 2.546875 -3.460938 L 2.546875 -2.371094 Z M 7.339844 -2.371094 L 7.339844 -5.769531 L 6.125 -5.769531 L 6.125 -2.371094 Z M 7.339844 0 L 7.339844 -1.097656 L 2.546875 -1.097656 L 2.546875 0 Z M 7.339844 0 "/></g></g></g><g fill="#000000" fill-opacity="1"><g transform="translate(73.220182, 7.988987)"><g><path d="M 6.125 -4.675781 L 6.125 -5.769531 L 2.546875 -5.769531 L 2.546875 -4.675781 Z M 7.339844 0 L 7.339844 -3.460938 L 6.125 -3.460938 L 6.125 0 Z M 5.550781 -2.371094 L 5.550781 -3.460938 L 2.546875 -3.460938 L 2.546875 -2.371094 Z M 1.972656 -2.371094 L 1.972656 -5.769531 L 0.757812 -5.769531 L 0.757812 -2.371094 Z M 5.550781 0 L 5.550781 -1.097656 L 0.757812 -1.097656 L 0.757812 0 Z M 5.550781 0 "/></g></g></g></g></g></svg>