<svg xmlns="http://www.w3.org/2000/svg" xmlns:xlink="http://www.w3.org/1999/xlink" width="160" zoomAndPan="magnify" viewBox="0 0 120 67.499998" height="90" preserveAspectRatio="xMidYMid meet" version="1.0"><defs><filter x="0%" y="0%" width="100%" height="100%" id="af4b047836"><feColorMatrix values="0 0 0 0 1 0 0 0 0 1 0 0 0 0 1 0 0 0 1 0" color-interpolation-filters="sRGB"/></filter><g/><clipPath id="ffa82ad147"><path d="M 0.441406 0 L 119.558594 0 L 119.558594 67.003906 L 0.441406 67.003906 Z M 0.441406 0 " clip-rule="nonzero"/></clipPath><clipPath id="9ff65246bb"><path d="M 0.441406 0 L 119.558594 0 L 119.558594 67.003906 L 0.441406 67.003906 Z M 0.441406 0 " clip-rule="nonzero"/></clipPath><clipPath id="f5d9fc2883"><path d="M 0.441406 0 L 119.558594 0 L 119.558594 67.003906 L 0.441406 67.003906 Z M 0.441406 0 " clip-rule="nonzero"/></clipPath><linearGradient x1="-4.503251" gradientTransform="matrix(0.743299, 0, 0, 0.742929, 14.456447, 19.825031)" y1="77.855592" x2="120.717577" gradientUnits="userSpaceOnUse" y2="-47.366893" id="fee0aaf558"><stop stop-opacity="1" stop-color="rgb(99.609375%, 51.368713%, 33.729553%)" offset="0"/><stop stop-opacity="1" stop-color="rgb(99.609375%, 51.368713%, 33.729553%)" offset="0.25"/><stop stop-opacity="1" stop-color="rgb(99.609375%, 51.368713%, 33.729553%)" offset="0.28125"/><stop stop-opacity="1" stop-color="rgb(99.609375%, 51.368713%, 33.729553%)" offset="0.289062"/><stop stop-opacity="1" stop-color="rgb(99.610901%, 51.565552%, 33.633423%)" offset="0.292969"/><stop stop-opacity="1" stop-color="rgb(99.612427%, 51.76239%, 33.538818%)" offset="0.296875"/><stop stop-opacity="1" stop-color="rgb(99.620056%, 52.539062%, 33.1604%)" offset="0.300781"/><stop stop-opacity="1" stop-color="rgb(99.627686%, 53.315735%, 32.783508%)" offset="0.304688"/><stop stop-opacity="1" stop-color="rgb(99.633789%, 54.092407%, 32.40509%)" offset="0.308594"/><stop stop-opacity="1" stop-color="rgb(99.641418%, 54.86908%, 32.028198%)" offset="0.3125"/><stop stop-opacity="1" stop-color="rgb(99.649048%, 55.645752%, 31.64978%)" offset="0.316406"/><stop stop-opacity="1" stop-color="rgb(99.656677%, 56.422424%, 31.272888%)" offset="0.320312"/><stop stop-opacity="1" stop-color="rgb(99.662781%, 57.199097%, 30.89447%)" offset="0.324219"/><stop stop-opacity="1" stop-color="rgb(99.67041%, 57.975769%, 30.517578%)" offset="0.328125"/><stop stop-opacity="1" stop-color="rgb(99.67804%, 58.752441%, 30.13916%)" offset="0.332031"/><stop stop-opacity="1" stop-color="rgb(99.685669%, 59.529114%, 29.762268%)" offset="0.335938"/><stop stop-opacity="1" stop-color="rgb(99.691772%, 60.305786%, 29.38385%)" offset="0.339844"/><stop stop-opacity="1" stop-color="rgb(99.699402%, 61.082458%, 29.006958%)" offset="0.34375"/><stop stop-opacity="1" stop-color="rgb(99.707031%, 61.859131%, 28.62854%)" offset="0.347656"/><stop stop-opacity="1" stop-color="rgb(99.714661%, 62.635803%, 28.251648%)" offset="0.351562"/><stop stop-opacity="1" stop-color="rgb(99.720764%, 63.412476%, 27.87323%)" offset="0.355469"/><stop stop-opacity="1" stop-color="rgb(99.728394%, 64.189148%, 27.496338%)" offset="0.359375"/><stop stop-opacity="1" stop-color="rgb(99.734497%, 64.96582%, 27.11792%)" offset="0.363281"/><stop stop-opacity="1" stop-color="rgb(99.742126%, 65.742493%, 26.741028%)" offset="0.367188"/><stop stop-opacity="1" stop-color="rgb(99.749756%, 66.519165%, 26.36261%)" offset="0.371094"/><stop stop-opacity="1" stop-color="rgb(99.757385%, 67.295837%, 25.985718%)" offset="0.375"/><stop stop-opacity="1" stop-color="rgb(99.763489%, 68.070984%, 25.608826%)" offset="0.378906"/><stop stop-opacity="1" stop-color="rgb(99.771118%, 68.847656%, 25.231934%)" offset="0.382812"/><stop stop-opacity="1" stop-color="rgb(99.778748%, 69.624329%, 24.853516%)" offset="0.386719"/><stop stop-opacity="1" stop-color="rgb(99.786377%, 70.401001%, 24.476624%)" offset="0.390625"/><stop stop-opacity="1" stop-color="rgb(99.79248%, 71.177673%, 24.098206%)" offset="0.394531"/><stop stop-opacity="1" stop-color="rgb(99.80011%, 71.954346%, 23.721313%)" offset="0.398438"/><stop stop-opacity="1" stop-color="rgb(99.807739%, 72.731018%, 23.342896%)" offset="0.402344"/><stop stop-opacity="1" stop-color="rgb(99.815369%, 73.50769%, 22.966003%)" offset="0.40625"/><stop stop-opacity="1" stop-color="rgb(99.821472%, 74.284363%, 22.587585%)" offset="0.410156"/><stop stop-opacity="1" stop-color="rgb(99.829102%, 75.061035%, 22.210693%)" offset="0.414062"/><stop stop-opacity="1" stop-color="rgb(99.836731%, 75.837708%, 21.832275%)" offset="0.417969"/><stop stop-opacity="1" stop-color="rgb(99.84436%, 76.61438%, 21.455383%)" offset="0.421875"/><stop stop-opacity="1" stop-color="rgb(99.850464%, 77.391052%, 21.076965%)" offset="0.425781"/><stop stop-opacity="1" stop-color="rgb(99.858093%, 78.167725%, 20.700073%)" offset="0.429688"/><stop stop-opacity="1" stop-color="rgb(99.865723%, 78.944397%, 20.321655%)" offset="0.433594"/><stop stop-opacity="1" stop-color="rgb(99.873352%, 79.721069%, 19.944763%)" offset="0.4375"/><stop stop-opacity="1" stop-color="rgb(99.879456%, 80.497742%, 19.566345%)" offset="0.441406"/><stop stop-opacity="1" stop-color="rgb(99.887085%, 81.274414%, 19.189453%)" offset="0.445313"/><stop stop-opacity="1" stop-color="rgb(99.894714%, 82.051086%, 18.811035%)" offset="0.449219"/><stop stop-opacity="1" stop-color="rgb(99.902344%, 82.827759%, 18.434143%)" offset="0.453125"/><stop stop-opacity="1" stop-color="rgb(99.908447%, 83.604431%, 18.057251%)" offset="0.457031"/><stop stop-opacity="1" stop-color="rgb(99.916077%, 84.381104%, 17.680359%)" offset="0.460938"/><stop stop-opacity="1" stop-color="rgb(99.92218%, 85.157776%, 17.301941%)" offset="0.464844"/><stop stop-opacity="1" stop-color="rgb(99.92981%, 85.934448%, 16.925049%)" offset="0.46875"/><stop stop-opacity="1" stop-color="rgb(99.937439%, 86.711121%, 16.546631%)" offset="0.472656"/><stop stop-opacity="1" stop-color="rgb(99.945068%, 87.487793%, 16.169739%)" offset="0.476562"/><stop stop-opacity="1" stop-color="rgb(99.951172%, 88.264465%, 15.791321%)" offset="0.480469"/><stop stop-opacity="1" stop-color="rgb(99.958801%, 89.041138%, 15.414429%)" offset="0.484375"/><stop stop-opacity="1" stop-color="rgb(99.966431%, 89.81781%, 15.036011%)" offset="0.488281"/><stop stop-opacity="1" stop-color="rgb(99.97406%, 90.594482%, 14.659119%)" offset="0.492188"/><stop stop-opacity="1" stop-color="rgb(99.980164%, 91.371155%, 14.280701%)" offset="0.496094"/><stop stop-opacity="1" stop-color="rgb(99.987793%, 92.147827%, 13.903809%)" offset="0.5"/><stop stop-opacity="1" stop-color="rgb(99.835205%, 92.749023%, 13.560486%)" offset="0.503906"/><stop stop-opacity="1" stop-color="rgb(99.682617%, 93.35022%, 13.218689%)" offset="0.507812"/><stop stop-opacity="1" stop-color="rgb(99.021912%, 93.392944%, 12.985229%)" offset="0.511719"/><stop stop-opacity="1" stop-color="rgb(98.362732%, 93.437195%, 12.753296%)" offset="0.515625"/><stop stop-opacity="1" stop-color="rgb(97.702026%, 93.479919%, 12.521362%)" offset="0.519531"/><stop stop-opacity="1" stop-color="rgb(97.041321%, 93.52417%, 12.289429%)" offset="0.523438"/><stop stop-opacity="1" stop-color="rgb(96.380615%, 93.56842%, 12.055969%)" offset="0.527344"/><stop stop-opacity="1" stop-color="rgb(95.71991%, 93.612671%, 11.824036%)" offset="0.53125"/><stop stop-opacity="1" stop-color="rgb(95.059204%, 93.655396%, 11.592102%)" offset="0.535156"/><stop stop-opacity="1" stop-color="rgb(94.398499%, 93.699646%, 11.360168%)" offset="0.539062"/><stop stop-opacity="1" stop-color="rgb(93.737793%, 93.742371%, 11.126709%)" offset="0.542969"/><stop stop-opacity="1" stop-color="rgb(93.077087%, 93.786621%, 10.894775%)" offset="0.546875"/><stop stop-opacity="1" stop-color="rgb(92.416382%, 93.829346%, 10.662842%)" offset="0.550781"/><stop stop-opacity="1" stop-color="rgb(91.755676%, 93.873596%, 10.430908%)" offset="0.554688"/><stop stop-opacity="1" stop-color="rgb(91.094971%, 93.917847%, 10.197449%)" offset="0.558594"/><stop stop-opacity="1" stop-color="rgb(90.435791%, 93.962097%, 9.965515%)" offset="0.5625"/><stop stop-opacity="1" stop-color="rgb(89.775085%, 94.004822%, 9.733582%)" offset="0.566406"/><stop stop-opacity="1" stop-color="rgb(89.11438%, 94.049072%, 9.501648%)" offset="0.570313"/><stop stop-opacity="1" stop-color="rgb(88.453674%, 94.091797%, 9.268188%)" offset="0.574219"/><stop stop-opacity="1" stop-color="rgb(87.792969%, 94.136047%, 9.036255%)" offset="0.578125"/><stop stop-opacity="1" stop-color="rgb(87.132263%, 94.178772%, 8.804321%)" offset="0.582031"/><stop stop-opacity="1" stop-color="rgb(86.471558%, 94.223022%, 8.572388%)" offset="0.585938"/><stop stop-opacity="1" stop-color="rgb(85.810852%, 94.267273%, 8.340454%)" offset="0.589844"/><stop stop-opacity="1" stop-color="rgb(85.150146%, 94.311523%, 8.108521%)" offset="0.59375"/><stop stop-opacity="1" stop-color="rgb(84.489441%, 94.354248%, 7.875061%)" offset="0.597656"/><stop stop-opacity="1" stop-color="rgb(83.828735%, 94.398499%, 7.643127%)" offset="0.601562"/><stop stop-opacity="1" stop-color="rgb(83.16803%, 94.441223%, 7.411194%)" offset="0.605469"/><stop stop-opacity="1" stop-color="rgb(82.50885%, 94.485474%, 7.17926%)" offset="0.609375"/><stop stop-opacity="1" stop-color="rgb(81.848145%, 94.528198%, 6.945801%)" offset="0.613281"/><stop stop-opacity="1" stop-color="rgb(81.187439%, 94.572449%, 6.713867%)" offset="0.617188"/><stop stop-opacity="1" stop-color="rgb(80.526733%, 94.616699%, 6.481934%)" offset="0.621094"/><stop stop-opacity="1" stop-color="rgb(79.866028%, 94.66095%, 6.25%)" offset="0.625"/><stop stop-opacity="1" stop-color="rgb(79.205322%, 94.703674%, 6.016541%)" offset="0.628906"/><stop stop-opacity="1" stop-color="rgb(78.544617%, 94.747925%, 5.784607%)" offset="0.632813"/><stop stop-opacity="1" stop-color="rgb(77.883911%, 94.790649%, 5.552673%)" offset="0.636719"/><stop stop-opacity="1" stop-color="rgb(77.223206%, 94.8349%, 5.32074%)" offset="0.640625"/><stop stop-opacity="1" stop-color="rgb(76.5625%, 94.87915%, 5.08728%)" offset="0.644531"/><stop stop-opacity="1" stop-color="rgb(75.901794%, 94.923401%, 4.855347%)" offset="0.648438"/><stop stop-opacity="1" stop-color="rgb(75.241089%, 94.966125%, 4.623413%)" offset="0.652344"/><stop stop-opacity="1" stop-color="rgb(74.580383%, 95.010376%, 4.391479%)" offset="0.65625"/><stop stop-opacity="1" stop-color="rgb(73.919678%, 95.053101%, 4.15802%)" offset="0.660156"/><stop stop-opacity="1" stop-color="rgb(73.260498%, 95.097351%, 3.926086%)" offset="0.664062"/><stop stop-opacity="1" stop-color="rgb(72.599792%, 95.140076%, 3.694153%)" offset="0.667969"/><stop stop-opacity="1" stop-color="rgb(71.939087%, 95.184326%, 3.462219%)" offset="0.671875"/><stop stop-opacity="1" stop-color="rgb(71.278381%, 95.228577%, 3.22876%)" offset="0.675781"/><stop stop-opacity="1" stop-color="rgb(70.617676%, 95.272827%, 2.996826%)" offset="0.679688"/><stop stop-opacity="1" stop-color="rgb(69.95697%, 95.315552%, 2.764893%)" offset="0.683594"/><stop stop-opacity="1" stop-color="rgb(69.296265%, 95.359802%, 2.532959%)" offset="0.6875"/><stop stop-opacity="1" stop-color="rgb(68.635559%, 95.402527%, 2.301025%)" offset="0.691406"/><stop stop-opacity="1" stop-color="rgb(67.974854%, 95.446777%, 2.069092%)" offset="0.695313"/><stop stop-opacity="1" stop-color="rgb(67.314148%, 95.489502%, 1.835632%)" offset="0.699219"/><stop stop-opacity="1" stop-color="rgb(66.653442%, 95.533752%, 1.603699%)" offset="0.703125"/><stop stop-opacity="1" stop-color="rgb(65.992737%, 95.578003%, 1.371765%)" offset="0.707031"/><stop stop-opacity="1" stop-color="rgb(65.333557%, 95.622253%, 1.139832%)" offset="0.710938"/><stop stop-opacity="1" stop-color="rgb(64.820862%, 95.655823%, 0.959778%)" offset="0.714844"/><stop stop-opacity="1" stop-color="rgb(64.309692%, 95.689392%, 0.779724%)" offset="0.71875"/><stop stop-opacity="1" stop-color="rgb(64.309692%, 95.689392%, 0.779724%)" offset="0.75"/><stop stop-opacity="1" stop-color="rgb(64.309692%, 95.689392%, 0.779724%)" offset="1"/></linearGradient><clipPath id="a6c1eec1d9"><rect x="0" width="120" y="0" height="68"/></clipPath><clipPath id="de0a82291d"><path d="M 0.441406 0 L 119.558594 0 L 119.558594 67.003906 L 0.441406 67.003906 Z M 0.441406 0 " clip-rule="nonzero"/></clipPath><clipPath id="40234acebc"><rect x="0" width="120" y="0" height="68"/></clipPath><clipPath id="7b45e51b8e"><rect x="0" width="120" y="0" height="68"/></clipPath><mask id="ced00f1215"><g filter="url(#af4b047836)"><g transform="matrix(1, 0, 0, 1, 0.000000000000000056, 0)"><g clip-path="url(#7b45e51b8e)"><g clip-path="url(#de0a82291d)"><g transform="matrix(1, 0, 0, 1, 0.000000000000000056, 0)"><g clip-path="url(#40234acebc)"><g fill="#000000" fill-opacity="1"><g transform="translate(18.627056, 39.914362)"><g><path d="M 20.75 -22.265625 C 21.019531 -21.992188 21.125 -21.722656 21.0625 -21.453125 C 21.007812 -21.179688 20.847656 -20.800781 20.578125 -20.3125 C 20.492188 -20.132812 20.359375 -19.890625 20.171875 -19.578125 C 19.992188 -19.265625 19.789062 -18.976562 19.5625 -18.71875 C 19.34375 -18.457031 19.113281 -18.328125 18.875 -18.328125 C 18.507812 -18.328125 18.132812 -18.425781 17.75 -18.625 C 17.375 -18.832031 16.992188 -19.0625 16.609375 -19.3125 C 16.234375 -19.570312 15.878906 -19.757812 15.546875 -19.875 C 14.203125 -20.363281 12.847656 -20.488281 11.484375 -20.25 C 10.003906 -20 8.769531 -19.425781 7.78125 -18.53125 C 6.800781 -17.632812 6.082031 -16.5625 5.625 -15.3125 C 5.164062 -14.0625 5.007812 -12.75 5.15625 -11.375 C 5.300781 -10.007812 5.753906 -8.722656 6.515625 -7.515625 C 7.078125 -6.648438 7.847656 -5.945312 8.828125 -5.40625 C 9.816406 -4.863281 10.863281 -4.53125 11.96875 -4.40625 C 13.070312 -4.289062 14.109375 -4.390625 15.078125 -4.703125 C 15.878906 -4.992188 16.441406 -5.429688 16.765625 -6.015625 C 17.097656 -6.597656 17.296875 -7.253906 17.359375 -7.984375 C 17.421875 -8.722656 17.441406 -9.441406 17.421875 -10.140625 C 17.421875 -10.390625 17.398438 -10.644531 17.359375 -10.90625 C 17.316406 -11.175781 17.320312 -11.425781 17.375 -11.65625 C 17.425781 -11.894531 17.585938 -12.050781 17.859375 -12.125 C 18.066406 -12.1875 18.304688 -12.210938 18.578125 -12.203125 C 18.859375 -12.191406 19.101562 -12.1875 19.3125 -12.1875 C 19.664062 -12.207031 20.015625 -12.242188 20.359375 -12.296875 C 20.710938 -12.359375 21.066406 -12.367188 21.421875 -12.328125 C 21.929688 -12.273438 22.234375 -12.109375 22.328125 -11.828125 C 22.421875 -11.554688 22.457031 -11.195312 22.4375 -10.75 C 22.4375 -10.007812 22.457031 -9.222656 22.5 -8.390625 C 22.539062 -7.566406 22.523438 -6.742188 22.453125 -5.921875 C 22.390625 -5.109375 22.195312 -4.359375 21.875 -3.671875 C 21.550781 -2.992188 21.019531 -2.429688 20.28125 -1.984375 C 19.207031 -1.359375 18.019531 -0.875 16.71875 -0.53125 C 15.425781 -0.195312 14.109375 -0.03125 12.765625 -0.03125 C 11.660156 -0.03125 10.566406 -0.144531 9.484375 -0.375 C 8.398438 -0.613281 7.363281 -0.984375 6.375 -1.484375 C 4.988281 -2.171875 3.828125 -3.066406 2.890625 -4.171875 C 1.953125 -5.285156 1.242188 -6.519531 0.765625 -7.875 C 0.296875 -9.226562 0.0507812 -10.628906 0.03125 -12.078125 C 0.0078125 -13.535156 0.222656 -14.960938 0.671875 -16.359375 C 1.117188 -17.765625 1.800781 -19.0625 2.71875 -20.25 C 3.90625 -21.75 5.289062 -22.90625 6.875 -23.71875 C 8.46875 -24.539062 10.128906 -24.953125 11.859375 -24.953125 L 12.046875 -24.953125 C 13.460938 -24.929688 14.859375 -24.742188 16.234375 -24.390625 C 17.609375 -24.046875 18.898438 -23.492188 20.109375 -22.734375 C 20.242188 -22.640625 20.359375 -22.550781 20.453125 -22.46875 C 20.554688 -22.394531 20.65625 -22.328125 20.75 -22.265625 Z M 20.75 -22.265625 "/></g></g></g><g fill="#000000" fill-opacity="1"><g transform="translate(42.60542, 39.914362)"><g><path d="M 0 -12.453125 C 0 -14.179688 0.328125 -15.800781 0.984375 -17.3125 C 1.648438 -18.820312 2.554688 -20.144531 3.703125 -21.28125 C 4.859375 -22.425781 6.195312 -23.320312 7.71875 -23.96875 C 9.238281 -24.625 10.863281 -24.953125 12.59375 -24.953125 L 12.65625 -24.953125 C 14.382812 -24.929688 16.054688 -24.601562 17.671875 -23.96875 C 19.296875 -23.34375 20.710938 -22.40625 21.921875 -21.15625 C 23.066406 -19.988281 23.929688 -18.660156 24.515625 -17.171875 C 25.097656 -15.679688 25.390625 -14.140625 25.390625 -12.546875 C 25.390625 -10.960938 25.113281 -9.425781 24.5625 -7.9375 C 24.007812 -6.445312 23.175781 -5.097656 22.0625 -3.890625 C 20.914062 -2.660156 19.550781 -1.71875 17.96875 -1.0625 C 16.394531 -0.414062 14.738281 -0.0703125 13 -0.03125 C 11.269531 0.0078125 9.597656 -0.25 7.984375 -0.8125 C 6.378906 -1.382812 4.984375 -2.273438 3.796875 -3.484375 C 2.609375 -4.671875 1.675781 -6.0625 1 -7.65625 C 0.332031 -9.25 0 -10.847656 0 -12.453125 Z M 12.765625 -20.75 C 12.398438 -20.75 12.03125 -20.71875 11.65625 -20.65625 C 11.289062 -20.601562 10.929688 -20.507812 10.578125 -20.375 C 9.566406 -20.019531 8.671875 -19.46875 7.890625 -18.71875 C 7.109375 -17.96875 6.472656 -17.125 5.984375 -16.1875 C 5.242188 -14.769531 4.945312 -13.265625 5.09375 -11.671875 C 5.238281 -10.085938 5.789062 -8.671875 6.75 -7.421875 C 6.789062 -7.347656 6.832031 -7.285156 6.875 -7.234375 C 6.925781 -7.179688 6.972656 -7.128906 7.015625 -7.078125 C 7.753906 -6.234375 8.609375 -5.566406 9.578125 -5.078125 C 10.554688 -4.597656 11.585938 -4.347656 12.671875 -4.328125 C 13.753906 -4.304688 14.8125 -4.550781 15.84375 -5.0625 C 16.894531 -5.601562 17.757812 -6.320312 18.4375 -7.21875 C 19.125 -8.113281 19.613281 -9.09375 19.90625 -10.15625 C 20.195312 -11.21875 20.285156 -12.300781 20.171875 -13.40625 C 20.066406 -14.519531 19.753906 -15.570312 19.234375 -16.5625 C 18.722656 -17.5625 18 -18.421875 17.0625 -19.140625 C 16.4375 -19.628906 15.757812 -20.015625 15.03125 -20.296875 C 14.300781 -20.578125 13.546875 -20.726562 12.765625 -20.75 Z M 12.765625 -20.75 "/></g></g></g><g fill="#000000" fill-opacity="1"><g transform="translate(69.438355, 39.914362)"><g><path d="M 12.828125 -0.265625 C 12.472656 -0.242188 12.117188 -0.226562 11.765625 -0.21875 C 11.421875 -0.207031 11.082031 -0.191406 10.75 -0.171875 C 9.351562 -0.148438 7.953125 -0.15625 6.546875 -0.1875 C 5.140625 -0.21875 3.738281 -0.175781 2.34375 -0.0625 C 2.125 -0.0390625 1.820312 -0.0234375 1.4375 -0.015625 C 1.0625 -0.00390625 0.734375 -0.0625 0.453125 -0.1875 C 0.171875 -0.3125 0.03125 -0.550781 0.03125 -0.90625 C 0.0703125 -3.1875 0.09375 -5.460938 0.09375 -7.734375 C 0.09375 -10.003906 0.109375 -12.285156 0.140625 -14.578125 C 0.140625 -15.515625 0.140625 -16.453125 0.140625 -17.390625 C 0.140625 -18.328125 0.140625 -19.269531 0.140625 -20.21875 C 0.140625 -20.6875 0.144531 -21.15625 0.15625 -21.625 C 0.164062 -22.09375 0.171875 -22.5625 0.171875 -23.03125 C 0.171875 -23.34375 0.195312 -23.703125 0.25 -24.109375 C 0.300781 -24.515625 0.507812 -24.769531 0.875 -24.875 C 0.9375 -24.90625 1 -24.921875 1.0625 -24.921875 C 1.132812 -24.921875 1.207031 -24.921875 1.28125 -24.921875 C 3.363281 -24.890625 5.445312 -24.851562 7.53125 -24.8125 C 9.625 -24.769531 11.691406 -24.582031 13.734375 -24.25 C 14.742188 -24.09375 15.613281 -23.71875 16.34375 -23.125 C 17.082031 -22.53125 17.625 -21.800781 17.96875 -20.9375 C 18.320312 -20.070312 18.410156 -19.132812 18.234375 -18.125 C 18.078125 -17.238281 17.773438 -16.441406 17.328125 -15.734375 C 16.878906 -15.023438 16.460938 -14.28125 16.078125 -13.5 C 16.054688 -13.40625 16.03125 -13.316406 16 -13.234375 C 15.96875 -13.160156 15.953125 -13.082031 15.953125 -13 C 15.972656 -12.789062 16.097656 -12.578125 16.328125 -12.359375 C 16.566406 -12.148438 16.832031 -11.953125 17.125 -11.765625 C 17.414062 -11.578125 17.628906 -11.414062 17.765625 -11.28125 C 18.210938 -10.832031 18.617188 -10.332031 18.984375 -9.78125 C 19.359375 -9.238281 19.613281 -8.640625 19.75 -7.984375 C 19.945312 -7.023438 19.859375 -5.992188 19.484375 -4.890625 C 19.117188 -3.796875 18.585938 -2.894531 17.890625 -2.1875 C 17.242188 -1.488281 16.46875 -1.007812 15.5625 -0.75 C 14.65625 -0.5 13.742188 -0.335938 12.828125 -0.265625 Z M 5.234375 -17.59375 C 5.234375 -17.570312 5.234375 -17.539062 5.234375 -17.5 C 5.234375 -17.46875 5.234375 -17.441406 5.234375 -17.421875 C 5.210938 -17.203125 5.191406 -16.921875 5.171875 -16.578125 C 5.148438 -16.242188 5.175781 -15.929688 5.25 -15.640625 C 5.332031 -15.347656 5.492188 -15.140625 5.734375 -15.015625 C 5.867188 -14.941406 6.003906 -14.898438 6.140625 -14.890625 C 6.273438 -14.878906 6.421875 -14.875 6.578125 -14.875 C 7.253906 -14.851562 7.929688 -14.832031 8.609375 -14.8125 C 9.296875 -14.789062 9.972656 -14.84375 10.640625 -14.96875 C 11.160156 -15.0625 11.632812 -15.328125 12.0625 -15.765625 C 12.5 -16.203125 12.765625 -16.675781 12.859375 -17.1875 C 12.992188 -17.84375 12.921875 -18.40625 12.640625 -18.875 C 12.359375 -19.34375 11.96875 -19.703125 11.46875 -19.953125 C 10.96875 -20.210938 10.425781 -20.367188 9.84375 -20.421875 C 9.5 -20.460938 9.097656 -20.5 8.640625 -20.53125 C 8.179688 -20.5625 7.726562 -20.554688 7.28125 -20.515625 C 6.832031 -20.472656 6.441406 -20.34375 6.109375 -20.125 C 5.773438 -19.914062 5.5625 -19.578125 5.46875 -19.109375 C 5.425781 -18.859375 5.390625 -18.601562 5.359375 -18.34375 C 5.328125 -18.09375 5.285156 -17.84375 5.234375 -17.59375 Z M 5.5 -5.5 C 5.789062 -4.988281 6.210938 -4.648438 6.765625 -4.484375 C 7.316406 -4.316406 7.914062 -4.25 8.5625 -4.28125 C 9.207031 -4.3125 9.800781 -4.363281 10.34375 -4.4375 C 10.988281 -4.5 11.644531 -4.6875 12.3125 -5 C 12.988281 -5.3125 13.507812 -5.75 13.875 -6.3125 C 14.207031 -6.78125 14.332031 -7.253906 14.25 -7.734375 C 14.175781 -8.222656 13.972656 -8.671875 13.640625 -9.078125 C 13.316406 -9.492188 12.945312 -9.828125 12.53125 -10.078125 C 12.03125 -10.390625 11.488281 -10.582031 10.90625 -10.65625 C 10.332031 -10.738281 9.765625 -10.789062 9.203125 -10.8125 C 8.554688 -10.851562 7.921875 -10.796875 7.296875 -10.640625 C 6.679688 -10.484375 6.171875 -10.203125 5.765625 -9.796875 C 5.367188 -9.398438 5.132812 -8.820312 5.0625 -8.0625 C 5.039062 -7.75 5.046875 -7.4375 5.078125 -7.125 C 5.117188 -6.8125 5.171875 -6.492188 5.234375 -6.171875 C 5.285156 -6.066406 5.328125 -5.957031 5.359375 -5.84375 C 5.390625 -5.726562 5.4375 -5.613281 5.5 -5.5 Z M 5.5 -5.5 "/></g></g></g><g fill="#000000" fill-opacity="1"><g transform="translate(90.730059, 39.914362)"><g><path d="M 1.140625 -24.921875 C 1.160156 -24.921875 1.179688 -24.921875 1.203125 -24.921875 C 1.234375 -24.921875 1.257812 -24.921875 1.28125 -24.921875 C 1.832031 -24.921875 2.378906 -24.910156 2.921875 -24.890625 C 3.460938 -24.878906 4.007812 -24.863281 4.5625 -24.84375 C 4.96875 -24.820312 5.171875 -24.664062 5.171875 -24.375 C 5.171875 -24.082031 5.171875 -23.78125 5.171875 -23.46875 C 5.171875 -21.539062 5.171875 -19.601562 5.171875 -17.65625 C 5.171875 -15.707031 5.171875 -13.773438 5.171875 -11.859375 C 5.171875 -10.929688 5.164062 -10.003906 5.15625 -9.078125 C 5.144531 -8.148438 5.140625 -7.226562 5.140625 -6.3125 C 5.140625 -5.457031 5.1875 -4.597656 5.28125 -3.734375 C 5.382812 -2.878906 5.378906 -2.015625 5.265625 -1.140625 C 5.203125 -0.710938 5.054688 -0.4375 4.828125 -0.3125 C 4.609375 -0.195312 4.285156 -0.113281 3.859375 -0.0625 C 3.660156 -0.0390625 3.351562 -0.0234375 2.9375 -0.015625 C 2.519531 -0.00390625 2.085938 -0.0234375 1.640625 -0.078125 C 1.191406 -0.140625 0.804688 -0.253906 0.484375 -0.421875 C 0.160156 -0.585938 0 -0.828125 0 -1.140625 C 0 -4.898438 0.00390625 -8.660156 0.015625 -12.421875 C 0.0234375 -16.179688 0.0195312 -19.941406 0 -23.703125 C 0 -24.148438 0.0820312 -24.457031 0.25 -24.625 C 0.414062 -24.789062 0.710938 -24.890625 1.140625 -24.921875 Z M 1.140625 -24.921875 "/></g></g></g></g></g></g></g></g></g></mask><clipPath id="f08d76122c"><path d="M 0.441406 0 L 119.558594 0 L 119.558594 67.003906 L 0.441406 67.003906 Z M 0.441406 0 " clip-rule="nonzero"/></clipPath><clipPath id="c798497cd9"><rect x="0" width="120" y="0" height="68"/></clipPath><clipPath id="0585edba63"><rect x="0" width="120" y="0" height="68"/></clipPath><clipPath id="76c9d37273"><path d="M 0.441406 28 L 119.558594 28 L 119.558594 67.003906 L 0.441406 67.003906 Z M 0.441406 28 " clip-rule="nonzero"/></clipPath><clipPath id="c6b6295904"><path d="M 0.441406 0.378906 L 119.558594 0.378906 L 119.558594 39.003906 L 0.441406 39.003906 Z M 0.441406 0.378906 " clip-rule="nonzero"/></clipPath><clipPath id="f58899830e"><path d="M 0.441406 0.378906 L 119.558594 0.378906 L 119.558594 39.003906 L 0.441406 39.003906 Z M 0.441406 0.378906 " clip-rule="nonzero"/></clipPath><clipPath id="f56f3b2fdd"><path d="M 2.21875 0.378906 L 116.828125 0.378906 L 116.828125 39.003906 L 2.21875 39.003906 Z M 2.21875 0.378906 " clip-rule="nonzero"/></clipPath><linearGradient x1="22.307021" gradientTransform="matrix(0.701647, 0, 0, 0.703127, 6.999972, 17.25459)" y1="60.051976" x2="131.444998" gradientUnits="userSpaceOnUse" y2="-49.085997" id="61296a5e5e"><stop stop-opacity="1" stop-color="rgb(99.609375%, 51.368713%, 33.729553%)" offset="0"/><stop stop-opacity="1" stop-color="rgb(99.609375%, 51.368713%, 33.729553%)" offset="0.25"/><stop stop-opacity="1" stop-color="rgb(99.609375%, 51.368713%, 33.729553%)" offset="0.251663"/><stop stop-opacity="1" stop-color="rgb(99.609375%, 51.368713%, 33.729553%)" offset="0.265625"/><stop stop-opacity="1" stop-color="rgb(99.609375%, 51.461792%, 33.683777%)" offset="0.273438"/><stop stop-opacity="1" stop-color="rgb(99.61853%, 52.339172%, 33.258057%)" offset="0.277344"/><stop stop-opacity="1" stop-color="rgb(99.62616%, 53.123474%, 32.876587%)" offset="0.28125"/><stop stop-opacity="1" stop-color="rgb(99.632263%, 53.90625%, 32.495117%)" offset="0.285156"/><stop stop-opacity="1" stop-color="rgb(99.639893%, 54.690552%, 32.113647%)" offset="0.289062"/><stop stop-opacity="1" stop-color="rgb(99.647522%, 55.474854%, 31.732178%)" offset="0.292969"/><stop stop-opacity="1" stop-color="rgb(99.655151%, 56.259155%, 31.352234%)" offset="0.296875"/><stop stop-opacity="1" stop-color="rgb(99.661255%, 57.043457%, 30.970764%)" offset="0.300781"/><stop stop-opacity="1" stop-color="rgb(99.668884%, 57.827759%, 30.589294%)" offset="0.304688"/><stop stop-opacity="1" stop-color="rgb(99.676514%, 58.612061%, 30.207825%)" offset="0.308594"/><stop stop-opacity="1" stop-color="rgb(99.684143%, 59.396362%, 29.826355%)" offset="0.3125"/><stop stop-opacity="1" stop-color="rgb(99.690247%, 60.180664%, 29.444885%)" offset="0.316406"/><stop stop-opacity="1" stop-color="rgb(99.697876%, 60.964966%, 29.063416%)" offset="0.320312"/><stop stop-opacity="1" stop-color="rgb(99.705505%, 61.749268%, 28.681946%)" offset="0.324219"/><stop stop-opacity="1" stop-color="rgb(99.713135%, 62.533569%, 28.302002%)" offset="0.328125"/><stop stop-opacity="1" stop-color="rgb(99.719238%, 63.317871%, 27.920532%)" offset="0.332031"/><stop stop-opacity="1" stop-color="rgb(99.726868%, 64.102173%, 27.539062%)" offset="0.335938"/><stop stop-opacity="1" stop-color="rgb(99.734497%, 64.886475%, 27.157593%)" offset="0.339844"/><stop stop-opacity="1" stop-color="rgb(99.742126%, 65.670776%, 26.776123%)" offset="0.34375"/><stop stop-opacity="1" stop-color="rgb(99.749756%, 66.455078%, 26.394653%)" offset="0.347656"/><stop stop-opacity="1" stop-color="rgb(99.757385%, 67.23938%, 26.013184%)" offset="0.351562"/><stop stop-opacity="1" stop-color="rgb(99.763489%, 68.023682%, 25.631714%)" offset="0.355469"/><stop stop-opacity="1" stop-color="rgb(99.771118%, 68.807983%, 25.25177%)" offset="0.359375"/><stop stop-opacity="1" stop-color="rgb(99.778748%, 69.592285%, 24.8703%)" offset="0.363281"/><stop stop-opacity="1" stop-color="rgb(99.786377%, 70.376587%, 24.488831%)" offset="0.367188"/><stop stop-opacity="1" stop-color="rgb(99.79248%, 71.159363%, 24.107361%)" offset="0.371094"/><stop stop-opacity="1" stop-color="rgb(99.80011%, 71.943665%, 23.725891%)" offset="0.375"/><stop stop-opacity="1" stop-color="rgb(99.807739%, 72.727966%, 23.344421%)" offset="0.378906"/><stop stop-opacity="1" stop-color="rgb(99.815369%, 73.512268%, 22.962952%)" offset="0.382812"/><stop stop-opacity="1" stop-color="rgb(99.821472%, 74.29657%, 22.581482%)" offset="0.386719"/><stop stop-opacity="1" stop-color="rgb(99.829102%, 75.080872%, 22.201538%)" offset="0.390625"/><stop stop-opacity="1" stop-color="rgb(99.836731%, 75.865173%, 21.820068%)" offset="0.394531"/><stop stop-opacity="1" stop-color="rgb(99.84436%, 76.649475%, 21.438599%)" offset="0.398438"/><stop stop-opacity="1" stop-color="rgb(99.850464%, 77.433777%, 21.057129%)" offset="0.402344"/><stop stop-opacity="1" stop-color="rgb(99.858093%, 78.218079%, 20.675659%)" offset="0.40625"/><stop stop-opacity="1" stop-color="rgb(99.865723%, 79.00238%, 20.294189%)" offset="0.410156"/><stop stop-opacity="1" stop-color="rgb(99.873352%, 79.786682%, 19.91272%)" offset="0.414062"/><stop stop-opacity="1" stop-color="rgb(99.880981%, 80.570984%, 19.53125%)" offset="0.417969"/><stop stop-opacity="1" stop-color="rgb(99.888611%, 81.355286%, 19.151306%)" offset="0.421875"/><stop stop-opacity="1" stop-color="rgb(99.894714%, 82.139587%, 18.769836%)" offset="0.425781"/><stop stop-opacity="1" stop-color="rgb(99.902344%, 82.923889%, 18.388367%)" offset="0.429688"/><stop stop-opacity="1" stop-color="rgb(99.909973%, 83.708191%, 18.006897%)" offset="0.433594"/><stop stop-opacity="1" stop-color="rgb(99.917603%, 84.492493%, 17.625427%)" offset="0.4375"/><stop stop-opacity="1" stop-color="rgb(99.923706%, 85.276794%, 17.243958%)" offset="0.441406"/><stop stop-opacity="1" stop-color="rgb(99.931335%, 86.061096%, 16.862488%)" offset="0.445312"/><stop stop-opacity="1" stop-color="rgb(99.938965%, 86.843872%, 16.481018%)" offset="0.449219"/><stop stop-opacity="1" stop-color="rgb(99.946594%, 87.628174%, 16.101074%)" offset="0.453125"/><stop stop-opacity="1" stop-color="rgb(99.952698%, 88.412476%, 15.719604%)" offset="0.457031"/><stop stop-opacity="1" stop-color="rgb(99.960327%, 89.196777%, 15.338135%)" offset="0.460938"/><stop stop-opacity="1" stop-color="rgb(99.967957%, 89.981079%, 14.956665%)" offset="0.464844"/><stop stop-opacity="1" stop-color="rgb(99.975586%, 90.765381%, 14.575195%)" offset="0.46875"/><stop stop-opacity="1" stop-color="rgb(99.981689%, 91.549683%, 14.193726%)" offset="0.472656"/><stop stop-opacity="1" stop-color="rgb(99.989319%, 92.333984%, 13.812256%)" offset="0.476562"/><stop stop-opacity="1" stop-color="rgb(99.749756%, 92.84668%, 13.484192%)" offset="0.480469"/><stop stop-opacity="1" stop-color="rgb(99.511719%, 93.360901%, 13.157654%)" offset="0.484375"/><stop stop-opacity="1" stop-color="rgb(98.84491%, 93.405151%, 12.922668%)" offset="0.488281"/><stop stop-opacity="1" stop-color="rgb(98.178101%, 93.449402%, 12.689209%)" offset="0.492188"/><stop stop-opacity="1" stop-color="rgb(97.509766%, 93.493652%, 12.454224%)" offset="0.496094"/><stop stop-opacity="1" stop-color="rgb(96.842957%, 93.537903%, 12.219238%)" offset="0.5"/><stop stop-opacity="1" stop-color="rgb(96.176147%, 93.582153%, 11.984253%)" offset="0.503906"/><stop stop-opacity="1" stop-color="rgb(95.509338%, 93.626404%, 11.750793%)" offset="0.507812"/><stop stop-opacity="1" stop-color="rgb(94.842529%, 93.670654%, 11.515808%)" offset="0.511719"/><stop stop-opacity="1" stop-color="rgb(94.17572%, 93.714905%, 11.280823%)" offset="0.515625"/><stop stop-opacity="1" stop-color="rgb(93.507385%, 93.757629%, 11.045837%)" offset="0.519531"/><stop stop-opacity="1" stop-color="rgb(92.840576%, 93.80188%, 10.812378%)" offset="0.523438"/><stop stop-opacity="1" stop-color="rgb(92.173767%, 93.84613%, 10.577393%)" offset="0.527344"/><stop stop-opacity="1" stop-color="rgb(91.506958%, 93.890381%, 10.342407%)" offset="0.53125"/><stop stop-opacity="1" stop-color="rgb(90.840149%, 93.934631%, 10.107422%)" offset="0.535156"/><stop stop-opacity="1" stop-color="rgb(90.17334%, 93.978882%, 9.873962%)" offset="0.539062"/><stop stop-opacity="1" stop-color="rgb(89.505005%, 94.023132%, 9.638977%)" offset="0.542969"/><stop stop-opacity="1" stop-color="rgb(88.838196%, 94.067383%, 9.405518%)" offset="0.546875"/><stop stop-opacity="1" stop-color="rgb(88.171387%, 94.111633%, 9.170532%)" offset="0.550781"/><stop stop-opacity="1" stop-color="rgb(87.504578%, 94.155884%, 8.935547%)" offset="0.554688"/><stop stop-opacity="1" stop-color="rgb(86.837769%, 94.200134%, 8.700562%)" offset="0.558594"/><stop stop-opacity="1" stop-color="rgb(86.170959%, 94.244385%, 8.467102%)" offset="0.5625"/><stop stop-opacity="1" stop-color="rgb(85.502625%, 94.287109%, 8.232117%)" offset="0.566406"/><stop stop-opacity="1" stop-color="rgb(84.835815%, 94.33136%, 7.997131%)" offset="0.570312"/><stop stop-opacity="1" stop-color="rgb(84.169006%, 94.37561%, 7.762146%)" offset="0.574219"/><stop stop-opacity="1" stop-color="rgb(83.502197%, 94.419861%, 7.528687%)" offset="0.578125"/><stop stop-opacity="1" stop-color="rgb(82.835388%, 94.464111%, 7.293701%)" offset="0.582031"/><stop stop-opacity="1" stop-color="rgb(82.168579%, 94.508362%, 7.058716%)" offset="0.585938"/><stop stop-opacity="1" stop-color="rgb(81.50177%, 94.552612%, 6.82373%)" offset="0.589844"/><stop stop-opacity="1" stop-color="rgb(80.834961%, 94.596863%, 6.590271%)" offset="0.59375"/><stop stop-opacity="1" stop-color="rgb(80.166626%, 94.641113%, 6.355286%)" offset="0.597656"/><stop stop-opacity="1" stop-color="rgb(79.499817%, 94.685364%, 6.1203%)" offset="0.601562"/><stop stop-opacity="1" stop-color="rgb(78.833008%, 94.728088%, 5.885315%)" offset="0.605469"/><stop stop-opacity="1" stop-color="rgb(78.166199%, 94.772339%, 5.651855%)" offset="0.609375"/><stop stop-opacity="1" stop-color="rgb(77.49939%, 94.816589%, 5.41687%)" offset="0.613281"/><stop stop-opacity="1" stop-color="rgb(76.832581%, 94.86084%, 5.183411%)" offset="0.617188"/><stop stop-opacity="1" stop-color="rgb(76.164246%, 94.90509%, 4.948425%)" offset="0.621094"/><stop stop-opacity="1" stop-color="rgb(75.497437%, 94.949341%, 4.71344%)" offset="0.625"/><stop stop-opacity="1" stop-color="rgb(74.830627%, 94.993591%, 4.478455%)" offset="0.628906"/><stop stop-opacity="1" stop-color="rgb(74.163818%, 95.037842%, 4.244995%)" offset="0.632812"/><stop stop-opacity="1" stop-color="rgb(73.497009%, 95.082092%, 4.01001%)" offset="0.636719"/><stop stop-opacity="1" stop-color="rgb(72.8302%, 95.126343%, 3.775024%)" offset="0.640625"/><stop stop-opacity="1" stop-color="rgb(72.161865%, 95.169067%, 3.540039%)" offset="0.644531"/><stop stop-opacity="1" stop-color="rgb(71.495056%, 95.213318%, 3.30658%)" offset="0.648438"/><stop stop-opacity="1" stop-color="rgb(70.828247%, 95.257568%, 3.071594%)" offset="0.652344"/><stop stop-opacity="1" stop-color="rgb(70.161438%, 95.301819%, 2.836609%)" offset="0.65625"/><stop stop-opacity="1" stop-color="rgb(69.494629%, 95.346069%, 2.601624%)" offset="0.660156"/><stop stop-opacity="1" stop-color="rgb(68.82782%, 95.39032%, 2.368164%)" offset="0.664062"/><stop stop-opacity="1" stop-color="rgb(68.161011%, 95.43457%, 2.133179%)" offset="0.667969"/><stop stop-opacity="1" stop-color="rgb(67.494202%, 95.478821%, 1.898193%)" offset="0.671875"/><stop stop-opacity="1" stop-color="rgb(66.825867%, 95.523071%, 1.663208%)" offset="0.675781"/><stop stop-opacity="1" stop-color="rgb(66.159058%, 95.567322%, 1.429749%)" offset="0.679687"/><stop stop-opacity="1" stop-color="rgb(65.492249%, 95.611572%, 1.194763%)" offset="0.683594"/><stop stop-opacity="1" stop-color="rgb(64.825439%, 95.655823%, 0.961304%)" offset="0.6875"/><stop stop-opacity="1" stop-color="rgb(64.567566%, 95.672607%, 0.869751%)" offset="0.691406"/><stop stop-opacity="1" stop-color="rgb(64.309692%, 95.689392%, 0.779724%)" offset="0.695313"/><stop stop-opacity="1" stop-color="rgb(64.309692%, 95.689392%, 0.779724%)" offset="0.703125"/><stop stop-opacity="1" stop-color="rgb(64.309692%, 95.689392%, 0.779724%)" offset="0.71875"/><stop stop-opacity="1" stop-color="rgb(64.309692%, 95.689392%, 0.779724%)" offset="0.748337"/><stop stop-opacity="1" stop-color="rgb(64.309692%, 95.689392%, 0.779724%)" offset="0.75"/><stop stop-opacity="1" stop-color="rgb(64.309692%, 95.689392%, 0.779724%)" offset="1"/></linearGradient><clipPath id="9a24e1cee2"><rect x="0" width="120" y="0" height="40"/></clipPath><clipPath id="ce2a9f3f9e"><path d="M 0.441406 0.378906 L 119.558594 0.378906 L 119.558594 39.003906 L 0.441406 39.003906 Z M 0.441406 0.378906 " clip-rule="nonzero"/></clipPath><clipPath id="9a46fb9c7a"><rect x="0" width="120" y="0" height="40"/></clipPath><clipPath id="4e17338bf7"><rect x="0" width="120" y="0" height="40"/></clipPath><mask id="e471f2e50f"><g filter="url(#af4b047836)"><g transform="matrix(1, 0, 0, 1, 0.000000000000000056, 0)"><g clip-path="url(#4e17338bf7)"><g clip-path="url(#ce2a9f3f9e)"><g transform="matrix(1, 0, 0, 1, 0.000000000000000056, 0)"><g clip-path="url(#9a46fb9c7a)"><g fill="#000000" fill-opacity="1"><g transform="translate(19.226553, 24.988987)"><g><path d="M 7.105469 -3.460938 L 7.105469 -5.769531 L 5.890625 -5.769531 L 5.890625 -3.460938 Z M 5.316406 -4.675781 L 5.316406 -5.769531 L 2.546875 -5.769531 L 2.546875 -4.675781 Z M 7.949219 0 L 7.949219 -3.054688 L 6.734375 -3.054688 L 6.734375 0 Z M 5.519531 -2.371094 L 5.519531 -3.460938 L 2.546875 -3.460938 L 2.546875 -2.371094 Z M 6.160156 0 L 6.160156 -1.097656 L 2.546875 -1.097656 L 2.546875 0 Z M 1.972656 0 L 1.972656 -5.769531 L 0.757812 -5.769531 L 0.757812 0 Z M 1.972656 0 "/></g></g></g><g fill="#000000" fill-opacity="1"><g transform="translate(27.934153, 24.988987)"><g><path d="M 6.734375 -4.675781 L 6.734375 -5.769531 L 2.546875 -5.769531 L 2.546875 -4.675781 Z M 4.664062 -2.371094 L 4.664062 -3.460938 L 2.546875 -3.460938 L 2.546875 -2.371094 Z M 6.734375 0 L 6.734375 -1.097656 L 2.546875 -1.097656 L 2.546875 0 Z M 1.972656 0 L 1.972656 -5.769531 L 0.757812 -5.769531 L 0.757812 0 Z M 1.972656 0 "/></g></g></g><g fill="#000000" fill-opacity="1"><g transform="translate(35.42674, 24.988987)"><g><path d="M 1.972656 0 L 1.972656 -5.769531 L 0.757812 -5.769531 L 0.757812 0 Z M 1.972656 0 "/></g></g></g><g fill="#000000" fill-opacity="1"><g transform="translate(38.160522, 24.988987)"><g><path d="M 6.734375 0 L 6.734375 -5.769531 L 5.507812 -5.769531 L 5.507812 0 Z M 4.9375 0 L 4.9375 -1.097656 L 0.757812 -1.097656 L 0.757812 0 Z M 4.9375 0 "/></g></g></g><g fill="#000000" fill-opacity="1"><g transform="translate(45.653109, 24.988987)"><g><path d="M 1.972656 0 L 1.972656 -5.769531 L 0.757812 -5.769531 L 0.757812 0 Z M 1.972656 0 "/></g></g></g><g fill="#000000" fill-opacity="1"><g transform="translate(48.386891, 24.988987)"><g><path d="M 7.949219 0 L 7.949219 -5.769531 L 6.734375 -5.769531 L 6.734375 0 Z M 6.335938 -1.753906 L 3.222656 -4.867188 L 2.363281 -4.015625 L 5.484375 -0.894531 Z M 1.972656 0 L 1.972656 -5.769531 L 0.757812 -5.769531 L 0.757812 0 Z M 1.972656 0 "/></g></g></g><g fill="#000000" fill-opacity="1"><g transform="translate(57.094491, 24.988987)"><g><path d="M 6.160156 -4.675781 L 6.160156 -5.769531 L 2.546875 -5.769531 L 2.546875 -4.675781 Z M 6.976562 -2.371094 L 6.976562 -3.460938 L 4.050781 -3.460938 L 4.050781 -2.371094 Z M 6.160156 0 L 6.160156 -1.796875 L 4.9375 -1.796875 L 4.9375 0 Z M 1.972656 0 L 1.972656 -5.769531 L 0.757812 -5.769531 L 0.757812 0 Z M 4.371094 0 L 4.371094 -1.097656 L 2.546875 -1.097656 L 2.546875 0 Z M 4.371094 0 "/></g></g></g><g fill="#000000" fill-opacity="1"><g transform="translate(64.83176, 24.988987)"><g><path d="M 1.972656 -2.34375 L 1.972656 -3.5 L 0.757812 -3.5 L 0.757812 -2.34375 Z M 1.972656 -2.34375 "/></g></g></g><g fill="#000000" fill-opacity="1"><g transform="translate(67.565543, 24.988987)"><g><path d="M 5.550781 -4.675781 L 5.550781 -5.769531 L 1.972656 -5.769531 L 1.972656 -4.675781 Z M 1.972656 0 L 1.972656 -3.460938 L 0.757812 -3.460938 L 0.757812 0 Z M 5.550781 -2.371094 L 5.550781 -3.460938 L 2.546875 -3.460938 L 2.546875 -2.371094 Z M 7.339844 -2.371094 L 7.339844 -5.769531 L 6.125 -5.769531 L 6.125 -2.371094 Z M 7.339844 0 L 7.339844 -1.097656 L 2.546875 -1.097656 L 2.546875 0 Z M 7.339844 0 "/></g></g></g><g fill="#000000" fill-opacity="1"><g transform="translate(75.665631, 24.988987)"><g><path d="M 7.695312 -1.097656 L 7.695312 -4.675781 L 6.480469 -4.675781 L 6.480469 -1.097656 Z M 5.90625 -4.675781 L 5.90625 -5.769531 L 2.546875 -5.769531 L 2.546875 -4.675781 Z M 5.90625 0 L 5.90625 -1.097656 L 2.546875 -1.097656 L 2.546875 0 Z M 1.972656 -1.097656 L 1.972656 -4.675781 L 0.757812 -4.675781 L 0.757812 -1.097656 Z M 1.972656 -1.097656 "/></g></g></g><g fill="#000000" fill-opacity="1"><g transform="translate(84.120094, 24.988987)"><g><path d="M 5.550781 -4.675781 L 5.550781 -5.769531 L 1.972656 -5.769531 L 1.972656 -4.675781 Z M 1.972656 0 L 1.972656 -3.460938 L 0.757812 -3.460938 L 0.757812 0 Z M 5.550781 -2.371094 L 5.550781 -3.460938 L 2.546875 -3.460938 L 2.546875 -2.371094 Z M 7.339844 -2.371094 L 7.339844 -5.769531 L 6.125 -5.769531 L 6.125 -2.371094 Z M 7.339844 0 L 7.339844 -1.097656 L 2.546875 -1.097656 L 2.546875 0 Z M 7.339844 0 "/></g></g></g><g fill="#000000" fill-opacity="1"><g transform="translate(92.220182, 24.988987)"><g><path d="M 6.125 -4.675781 L 6.125 -5.769531 L 2.546875 -5.769531 L 2.546875 -4.675781 Z M 7.339844 0 L 7.339844 -3.460938 L 6.125 -3.460938 L 6.125 0 Z M 5.550781 -2.371094 L 5.550781 -3.460938 L 2.546875 -3.460938 L 2.546875 -2.371094 Z M 1.972656 -2.371094 L 1.972656 -5.769531 L 0.757812 -5.769531 L 0.757812 -2.371094 Z M 5.550781 0 L 5.550781 -1.097656 L 0.757812 -1.097656 L 0.757812 0 Z M 5.550781 0 "/></g></g></g></g></g></g></g></g></g></mask><clipPath id="c4af52eaef"><path d="M 2.21875 0.378906 L 116.828125 0.378906 L 116.828125 39.003906 L 2.21875 39.003906 Z M 2.21875 0.378906 " clip-rule="nonzero"/></clipPath><clipPath id="e8e37344dd"><rect x="0" width="120" y="0" height="40"/></clipPath><clipPath id="ce726b841c"><rect x="0" width="120" y="0" height="40"/></clipPath><clipPath id="f2d8aecf52"><rect x="0" width="120" y="0" height="40"/></clipPath></defs><g clip-path="url(#ffa82ad147)"><g transform="matrix(1, 0, 0, 1, 0.000000000000000056, 0)"><g clip-path="url(#0585edba63)"><g clip-path="url(#9ff65246bb)"><g mask="url(#ced00f1215)"><g transform="matrix(1, 0, 0, 1, 0.000000000000000056, 0)"><g clip-path="url(#c798497cd9)"><g clip-path="url(#f08d76122c)"><path fill="url(#fee0aaf558)" d="M 0.441406 0 L 0.441406 67.003906 L 119.558594 67.003906 L 119.558594 0 Z M 0.441406 0 " fill-rule="nonzero"/></g></g></g></g></g></g></g></g><g clip-path="url(#76c9d37273)"><g transform="matrix(1, 0, 0, 1, 0.000000000000000056, 28)"><g clip-path="url(#f2d8aecf52)"><g clip-path="url(#c6b6295904)"><g transform="matrix(1, 0, 0, 1, 0.000000000000000056, 0)"><g clip-path="url(#ce726b841c)"><g clip-path="url(#f58899830e)"><g mask="url(#e471f2e50f)"><g transform="matrix(1, 0, 0, 1, 0.000000000000000056, 0)"><g clip-path="url(#e8e37344dd)"><g clip-path="url(#c4af52eaef)"><path fill="url(#61296a5e5e)" d="M 2.21875 0.378906 L 2.21875 39.003906 L 116.828125 39.003906 L 116.828125 0.378906 Z M 2.21875 0.378906 " fill-rule="nonzero"/></g></g></g></g></g></g></g></g></g></g></g></svg>