<svg xmlns="http://www.w3.org/2000/svg" xmlns:xlink="http://www.w3.org/1999/xlink" width="160" zoomAndPan="magnify" viewBox="0 0 120 67.499998" height="90" preserveAspectRatio="xMidYMid meet" version="1.0"><defs><filter x="0%" y="0%" width="100%" height="100%" id="b9f33e57c4"><feColorMatrix values="0 0 0 0 1 0 0 0 0 1 0 0 0 0 1 0 0 0 1 0" color-interpolation-filters="sRGB"/></filter><g/><clipPath id="fb8899a023"><path d="M 0.441406 0 L 119.558594 0 L 119.558594 67.003906 L 0.441406 67.003906 Z M 0.441406 0 " clip-rule="nonzero"/></clipPath><clipPath id="b36af6acc7"><path d="M 0.441406 0 L 119.558594 0 L 119.558594 67.003906 L 0.441406 67.003906 Z M 0.441406 0 " clip-rule="nonzero"/></clipPath><clipPath id="f33b6bd4fb"><path d="M 0.441406 0 L 119.558594 0 L 119.558594 67.003906 L 0.441406 67.003906 Z M 0.441406 0 " clip-rule="nonzero"/></clipPath><linearGradient x1="-2.071225" gradientTransform="matrix(0.744389, 0, 0, 0.745253, 13.509672, 20.844932)" y1="77.421973" x2="122.893751" gradientUnits="userSpaceOnUse" y2="-47.541459" id="76d8efb539"><stop stop-opacity="1" stop-color="rgb(99.609375%, 51.368713%, 33.729553%)" offset="0"/><stop stop-opacity="1" stop-color="rgb(99.609375%, 51.368713%, 33.729553%)" offset="0.25"/><stop stop-opacity="1" stop-color="rgb(99.609375%, 51.368713%, 33.729553%)" offset="0.257812"/><stop stop-opacity="1" stop-color="rgb(99.612427%, 51.734924%, 33.551025%)" offset="0.261719"/><stop stop-opacity="1" stop-color="rgb(99.615479%, 52.101135%, 33.372498%)" offset="0.265625"/><stop stop-opacity="1" stop-color="rgb(99.621582%, 52.827454%, 33.02002%)" offset="0.269531"/><stop stop-opacity="1" stop-color="rgb(99.629211%, 53.553772%, 32.667542%)" offset="0.273437"/><stop stop-opacity="1" stop-color="rgb(99.635315%, 54.278564%, 32.313538%)" offset="0.277344"/><stop stop-opacity="1" stop-color="rgb(99.642944%, 55.004883%, 31.96106%)" offset="0.28125"/><stop stop-opacity="1" stop-color="rgb(99.649048%, 55.729675%, 31.608582%)" offset="0.285156"/><stop stop-opacity="1" stop-color="rgb(99.656677%, 56.455994%, 31.256104%)" offset="0.289062"/><stop stop-opacity="1" stop-color="rgb(99.662781%, 57.182312%, 30.9021%)" offset="0.292969"/><stop stop-opacity="1" stop-color="rgb(99.67041%, 57.90863%, 30.549622%)" offset="0.296875"/><stop stop-opacity="1" stop-color="rgb(99.676514%, 58.633423%, 30.197144%)" offset="0.300781"/><stop stop-opacity="1" stop-color="rgb(99.684143%, 59.359741%, 29.844666%)" offset="0.304688"/><stop stop-opacity="1" stop-color="rgb(99.690247%, 60.084534%, 29.490662%)" offset="0.308594"/><stop stop-opacity="1" stop-color="rgb(99.69635%, 60.810852%, 29.138184%)" offset="0.3125"/><stop stop-opacity="1" stop-color="rgb(99.702454%, 61.535645%, 28.785706%)" offset="0.316406"/><stop stop-opacity="1" stop-color="rgb(99.710083%, 62.261963%, 28.433228%)" offset="0.320312"/><stop stop-opacity="1" stop-color="rgb(99.716187%, 62.988281%, 28.079224%)" offset="0.324219"/><stop stop-opacity="1" stop-color="rgb(99.723816%, 63.7146%, 27.726746%)" offset="0.328125"/><stop stop-opacity="1" stop-color="rgb(99.729919%, 64.439392%, 27.374268%)" offset="0.332031"/><stop stop-opacity="1" stop-color="rgb(99.737549%, 65.16571%, 27.02179%)" offset="0.335938"/><stop stop-opacity="1" stop-color="rgb(99.743652%, 65.890503%, 26.667786%)" offset="0.339844"/><stop stop-opacity="1" stop-color="rgb(99.751282%, 66.616821%, 26.315308%)" offset="0.34375"/><stop stop-opacity="1" stop-color="rgb(99.757385%, 67.34314%, 25.96283%)" offset="0.347656"/><stop stop-opacity="1" stop-color="rgb(99.765015%, 68.069458%, 25.610352%)" offset="0.351562"/><stop stop-opacity="1" stop-color="rgb(99.771118%, 68.79425%, 25.256348%)" offset="0.355469"/><stop stop-opacity="1" stop-color="rgb(99.777222%, 69.520569%, 24.90387%)" offset="0.359375"/><stop stop-opacity="1" stop-color="rgb(99.783325%, 70.245361%, 24.551392%)" offset="0.363281"/><stop stop-opacity="1" stop-color="rgb(99.790955%, 70.97168%, 24.198914%)" offset="0.367187"/><stop stop-opacity="1" stop-color="rgb(99.797058%, 71.696472%, 23.84491%)" offset="0.371094"/><stop stop-opacity="1" stop-color="rgb(99.804688%, 72.422791%, 23.492432%)" offset="0.375"/><stop stop-opacity="1" stop-color="rgb(99.810791%, 73.149109%, 23.139954%)" offset="0.378906"/><stop stop-opacity="1" stop-color="rgb(99.81842%, 73.875427%, 22.787476%)" offset="0.382812"/><stop stop-opacity="1" stop-color="rgb(99.824524%, 74.60022%, 22.433472%)" offset="0.386719"/><stop stop-opacity="1" stop-color="rgb(99.832153%, 75.326538%, 22.080994%)" offset="0.390625"/><stop stop-opacity="1" stop-color="rgb(99.838257%, 76.051331%, 21.728516%)" offset="0.394531"/><stop stop-opacity="1" stop-color="rgb(99.845886%, 76.777649%, 21.376038%)" offset="0.398438"/><stop stop-opacity="1" stop-color="rgb(99.85199%, 77.503967%, 21.022034%)" offset="0.402344"/><stop stop-opacity="1" stop-color="rgb(99.859619%, 78.230286%, 20.669556%)" offset="0.40625"/><stop stop-opacity="1" stop-color="rgb(99.865723%, 78.955078%, 20.317078%)" offset="0.410156"/><stop stop-opacity="1" stop-color="rgb(99.871826%, 79.681396%, 19.9646%)" offset="0.414062"/><stop stop-opacity="1" stop-color="rgb(99.87793%, 80.406189%, 19.612122%)" offset="0.417969"/><stop stop-opacity="1" stop-color="rgb(99.885559%, 81.132507%, 19.259644%)" offset="0.421875"/><stop stop-opacity="1" stop-color="rgb(99.891663%, 81.8573%, 18.90564%)" offset="0.425781"/><stop stop-opacity="1" stop-color="rgb(99.899292%, 82.583618%, 18.553162%)" offset="0.429687"/><stop stop-opacity="1" stop-color="rgb(99.905396%, 83.309937%, 18.200684%)" offset="0.433594"/><stop stop-opacity="1" stop-color="rgb(99.913025%, 84.036255%, 17.848206%)" offset="0.4375"/><stop stop-opacity="1" stop-color="rgb(99.919128%, 84.761047%, 17.494202%)" offset="0.441406"/><stop stop-opacity="1" stop-color="rgb(99.926758%, 85.487366%, 17.141724%)" offset="0.445312"/><stop stop-opacity="1" stop-color="rgb(99.932861%, 86.212158%, 16.789246%)" offset="0.449219"/><stop stop-opacity="1" stop-color="rgb(99.940491%, 86.938477%, 16.436768%)" offset="0.453125"/><stop stop-opacity="1" stop-color="rgb(99.946594%, 87.664795%, 16.082764%)" offset="0.457031"/><stop stop-opacity="1" stop-color="rgb(99.952698%, 88.391113%, 15.730286%)" offset="0.460938"/><stop stop-opacity="1" stop-color="rgb(99.958801%, 89.115906%, 15.377808%)" offset="0.464844"/><stop stop-opacity="1" stop-color="rgb(99.966431%, 89.842224%, 15.02533%)" offset="0.46875"/><stop stop-opacity="1" stop-color="rgb(99.972534%, 90.567017%, 14.671326%)" offset="0.472656"/><stop stop-opacity="1" stop-color="rgb(99.980164%, 91.293335%, 14.318848%)" offset="0.476562"/><stop stop-opacity="1" stop-color="rgb(99.986267%, 92.018127%, 13.96637%)" offset="0.480469"/><stop stop-opacity="1" stop-color="rgb(99.993896%, 92.744446%, 13.613892%)" offset="0.484375"/><stop stop-opacity="1" stop-color="rgb(99.627686%, 93.060303%, 13.340759%)" offset="0.488281"/><stop stop-opacity="1" stop-color="rgb(99.261475%, 93.377686%, 13.069153%)" offset="0.492188"/><stop stop-opacity="1" stop-color="rgb(98.643494%, 93.418884%, 12.852478%)" offset="0.496094"/><stop stop-opacity="1" stop-color="rgb(98.027039%, 93.460083%, 12.635803%)" offset="0.5"/><stop stop-opacity="1" stop-color="rgb(97.409058%, 93.499756%, 12.417603%)" offset="0.503906"/><stop stop-opacity="1" stop-color="rgb(96.792603%, 93.540955%, 12.200928%)" offset="0.507812"/><stop stop-opacity="1" stop-color="rgb(96.174622%, 93.582153%, 11.984253%)" offset="0.511719"/><stop stop-opacity="1" stop-color="rgb(95.556641%, 93.623352%, 11.767578%)" offset="0.515625"/><stop stop-opacity="1" stop-color="rgb(94.93866%, 93.663025%, 11.549377%)" offset="0.519531"/><stop stop-opacity="1" stop-color="rgb(94.322205%, 93.704224%, 11.332703%)" offset="0.523437"/><stop stop-opacity="1" stop-color="rgb(93.704224%, 93.745422%, 11.116028%)" offset="0.527344"/><stop stop-opacity="1" stop-color="rgb(93.087769%, 93.786621%, 10.899353%)" offset="0.53125"/><stop stop-opacity="1" stop-color="rgb(92.469788%, 93.826294%, 10.681152%)" offset="0.535156"/><stop stop-opacity="1" stop-color="rgb(91.853333%, 93.867493%, 10.464478%)" offset="0.539062"/><stop stop-opacity="1" stop-color="rgb(91.235352%, 93.908691%, 10.247803%)" offset="0.542969"/><stop stop-opacity="1" stop-color="rgb(90.618896%, 93.94989%, 10.031128%)" offset="0.546875"/><stop stop-opacity="1" stop-color="rgb(90.000916%, 93.989563%, 9.812927%)" offset="0.550781"/><stop stop-opacity="1" stop-color="rgb(89.38446%, 94.030762%, 9.596252%)" offset="0.554688"/><stop stop-opacity="1" stop-color="rgb(88.766479%, 94.07196%, 9.379578%)" offset="0.558594"/><stop stop-opacity="1" stop-color="rgb(88.150024%, 94.113159%, 9.162903%)" offset="0.5625"/><stop stop-opacity="1" stop-color="rgb(87.532043%, 94.152832%, 8.944702%)" offset="0.566406"/><stop stop-opacity="1" stop-color="rgb(86.915588%, 94.194031%, 8.728027%)" offset="0.570312"/><stop stop-opacity="1" stop-color="rgb(86.297607%, 94.235229%, 8.511353%)" offset="0.574219"/><stop stop-opacity="1" stop-color="rgb(85.679626%, 94.276428%, 8.294678%)" offset="0.578125"/><stop stop-opacity="1" stop-color="rgb(85.061646%, 94.316101%, 8.076477%)" offset="0.582031"/><stop stop-opacity="1" stop-color="rgb(84.44519%, 94.3573%, 7.859802%)" offset="0.585938"/><stop stop-opacity="1" stop-color="rgb(83.827209%, 94.398499%, 7.643127%)" offset="0.589844"/><stop stop-opacity="1" stop-color="rgb(83.210754%, 94.439697%, 7.426453%)" offset="0.59375"/><stop stop-opacity="1" stop-color="rgb(82.592773%, 94.47937%, 7.208252%)" offset="0.597656"/><stop stop-opacity="1" stop-color="rgb(81.976318%, 94.520569%, 6.991577%)" offset="0.601562"/><stop stop-opacity="1" stop-color="rgb(81.358337%, 94.561768%, 6.774902%)" offset="0.605469"/><stop stop-opacity="1" stop-color="rgb(80.741882%, 94.602966%, 6.558228%)" offset="0.609375"/><stop stop-opacity="1" stop-color="rgb(80.123901%, 94.642639%, 6.340027%)" offset="0.613281"/><stop stop-opacity="1" stop-color="rgb(79.507446%, 94.683838%, 6.123352%)" offset="0.617187"/><stop stop-opacity="1" stop-color="rgb(78.889465%, 94.725037%, 5.905151%)" offset="0.621094"/><stop stop-opacity="1" stop-color="rgb(78.27301%, 94.766235%, 5.688477%)" offset="0.625"/><stop stop-opacity="1" stop-color="rgb(77.655029%, 94.805908%, 5.471802%)" offset="0.628906"/><stop stop-opacity="1" stop-color="rgb(77.037048%, 94.847107%, 5.255127%)" offset="0.632812"/><stop stop-opacity="1" stop-color="rgb(76.419067%, 94.888306%, 5.036926%)" offset="0.636719"/><stop stop-opacity="1" stop-color="rgb(75.802612%, 94.929504%, 4.820251%)" offset="0.640625"/><stop stop-opacity="1" stop-color="rgb(75.184631%, 94.969177%, 4.603577%)" offset="0.644531"/><stop stop-opacity="1" stop-color="rgb(74.568176%, 95.010376%, 4.386902%)" offset="0.648438"/><stop stop-opacity="1" stop-color="rgb(73.950195%, 95.051575%, 4.168701%)" offset="0.652344"/><stop stop-opacity="1" stop-color="rgb(73.33374%, 95.092773%, 3.952026%)" offset="0.65625"/><stop stop-opacity="1" stop-color="rgb(72.715759%, 95.132446%, 3.735352%)" offset="0.660156"/><stop stop-opacity="1" stop-color="rgb(72.099304%, 95.173645%, 3.518677%)" offset="0.664062"/><stop stop-opacity="1" stop-color="rgb(71.481323%, 95.214844%, 3.300476%)" offset="0.667969"/><stop stop-opacity="1" stop-color="rgb(70.864868%, 95.256042%, 3.083801%)" offset="0.671875"/><stop stop-opacity="1" stop-color="rgb(70.246887%, 95.295715%, 2.867126%)" offset="0.675781"/><stop stop-opacity="1" stop-color="rgb(69.630432%, 95.336914%, 2.650452%)" offset="0.679688"/><stop stop-opacity="1" stop-color="rgb(69.012451%, 95.378113%, 2.432251%)" offset="0.683594"/><stop stop-opacity="1" stop-color="rgb(68.39447%, 95.419312%, 2.215576%)" offset="0.6875"/><stop stop-opacity="1" stop-color="rgb(67.776489%, 95.458984%, 1.998901%)" offset="0.691406"/><stop stop-opacity="1" stop-color="rgb(67.160034%, 95.500183%, 1.782227%)" offset="0.695312"/><stop stop-opacity="1" stop-color="rgb(66.542053%, 95.541382%, 1.564026%)" offset="0.699219"/><stop stop-opacity="1" stop-color="rgb(65.925598%, 95.582581%, 1.347351%)" offset="0.703125"/><stop stop-opacity="1" stop-color="rgb(65.307617%, 95.622253%, 1.130676%)" offset="0.707031"/><stop stop-opacity="1" stop-color="rgb(64.691162%, 95.663452%, 0.914001%)" offset="0.710937"/><stop stop-opacity="1" stop-color="rgb(64.500427%, 95.675659%, 0.846863%)" offset="0.71875"/><stop stop-opacity="1" stop-color="rgb(64.309692%, 95.689392%, 0.779724%)" offset="0.75"/><stop stop-opacity="1" stop-color="rgb(64.309692%, 95.689392%, 0.779724%)" offset="1"/></linearGradient><clipPath id="cf468af459"><rect x="0" width="120" y="0" height="68"/></clipPath><clipPath id="1059438320"><path d="M 0.441406 0 L 119.558594 0 L 119.558594 67.003906 L 0.441406 67.003906 Z M 0.441406 0 " clip-rule="nonzero"/></clipPath><clipPath id="2638aa6535"><rect x="0" width="120" y="0" height="68"/></clipPath><clipPath id="2451fa2665"><rect x="0" width="120" y="0" height="68"/></clipPath><mask id="eb386692a0"><g filter="url(#b9f33e57c4)"><g transform="matrix(1, 0, 0, 1, 0.000000000000000056, 0)"><g clip-path="url(#2451fa2665)"><g clip-path="url(#1059438320)"><g transform="matrix(1, 0, 0, 1, 0.000000000000000056, 0)"><g clip-path="url(#2638aa6535)"><g fill="#000000" fill-opacity="1"><g transform="translate(16.162002, 43.924629)"><g><path d="M 23.203125 -24.890625 C 23.503906 -24.585938 23.625 -24.285156 23.5625 -23.984375 C 23.5 -23.691406 23.316406 -23.269531 23.015625 -22.71875 C 22.910156 -22.519531 22.757812 -22.242188 22.5625 -21.890625 C 22.363281 -21.535156 22.140625 -21.210938 21.890625 -20.921875 C 21.640625 -20.640625 21.375 -20.5 21.09375 -20.5 C 20.695312 -20.5 20.285156 -20.609375 19.859375 -20.828125 C 19.429688 -21.054688 19.003906 -21.316406 18.578125 -21.609375 C 18.160156 -21.898438 17.765625 -22.109375 17.390625 -22.234375 C 15.878906 -22.773438 14.363281 -22.910156 12.84375 -22.640625 C 11.1875 -22.367188 9.804688 -21.726562 8.703125 -20.71875 C 7.609375 -19.71875 6.800781 -18.515625 6.28125 -17.109375 C 5.769531 -15.710938 5.59375 -14.25 5.75 -12.71875 C 5.914062 -11.195312 6.425781 -9.757812 7.28125 -8.40625 C 7.90625 -7.4375 8.769531 -6.648438 9.875 -6.046875 C 10.976562 -5.441406 12.148438 -5.070312 13.390625 -4.9375 C 14.628906 -4.800781 15.785156 -4.90625 16.859375 -5.25 C 17.753906 -5.582031 18.382812 -6.070312 18.75 -6.71875 C 19.113281 -7.375 19.332031 -8.113281 19.40625 -8.9375 C 19.488281 -9.757812 19.515625 -10.5625 19.484375 -11.34375 C 19.484375 -11.613281 19.457031 -11.898438 19.40625 -12.203125 C 19.363281 -12.503906 19.375 -12.785156 19.4375 -13.046875 C 19.5 -13.304688 19.675781 -13.472656 19.96875 -13.546875 C 20.195312 -13.628906 20.46875 -13.660156 20.78125 -13.640625 C 21.09375 -13.628906 21.363281 -13.625 21.59375 -13.625 C 21.988281 -13.65625 22.378906 -13.703125 22.765625 -13.765625 C 23.160156 -13.828125 23.554688 -13.832031 23.953125 -13.78125 C 24.523438 -13.726562 24.863281 -13.546875 24.96875 -13.234375 C 25.070312 -12.921875 25.109375 -12.515625 25.078125 -12.015625 C 25.078125 -11.191406 25.101562 -10.316406 25.15625 -9.390625 C 25.207031 -8.460938 25.191406 -7.539062 25.109375 -6.625 C 25.035156 -5.707031 24.816406 -4.867188 24.453125 -4.109375 C 24.097656 -3.347656 23.503906 -2.71875 22.671875 -2.21875 C 21.472656 -1.507812 20.144531 -0.96875 18.6875 -0.59375 C 17.238281 -0.21875 15.765625 -0.03125 14.265625 -0.03125 C 13.035156 -0.03125 11.8125 -0.160156 10.59375 -0.421875 C 9.382812 -0.691406 8.234375 -1.101562 7.140625 -1.65625 C 5.585938 -2.425781 4.285156 -3.429688 3.234375 -4.671875 C 2.179688 -5.910156 1.390625 -7.285156 0.859375 -8.796875 C 0.335938 -10.316406 0.0625 -11.890625 0.03125 -13.515625 C 0.0078125 -15.140625 0.25 -16.734375 0.75 -18.296875 C 1.25 -19.867188 2.015625 -21.316406 3.046875 -22.640625 C 4.367188 -24.316406 5.914062 -25.609375 7.6875 -26.515625 C 9.46875 -27.429688 11.320312 -27.890625 13.25 -27.890625 L 13.484375 -27.890625 C 15.054688 -27.867188 16.613281 -27.664062 18.15625 -27.28125 C 19.695312 -26.894531 21.140625 -26.273438 22.484375 -25.421875 C 22.640625 -25.316406 22.769531 -25.21875 22.875 -25.125 C 22.988281 -25.039062 23.097656 -24.960938 23.203125 -24.890625 Z M 23.203125 -24.890625 "/></g></g></g><g fill="#000000" fill-opacity="1"><g transform="translate(41.432684, 43.924629)"><g><path d="M 0 -13.9375 C 0 -15.863281 0.367188 -17.671875 1.109375 -19.359375 C 1.847656 -21.046875 2.859375 -22.523438 4.140625 -23.796875 C 5.429688 -25.078125 6.925781 -26.078125 8.625 -26.796875 C 10.332031 -27.523438 12.148438 -27.890625 14.078125 -27.890625 L 14.15625 -27.890625 C 16.082031 -27.867188 17.953125 -27.503906 19.765625 -26.796875 C 21.578125 -26.097656 23.160156 -25.050781 24.515625 -23.65625 C 25.796875 -22.351562 26.757812 -20.867188 27.40625 -19.203125 C 28.0625 -17.535156 28.390625 -15.8125 28.390625 -14.03125 C 28.390625 -12.257812 28.082031 -10.539062 27.46875 -8.875 C 26.851562 -7.21875 25.921875 -5.710938 24.671875 -4.359375 C 23.390625 -2.984375 21.863281 -1.929688 20.09375 -1.203125 C 18.332031 -0.472656 16.484375 -0.0820312 14.546875 -0.03125 C 12.609375 0.0078125 10.738281 -0.285156 8.9375 -0.921875 C 7.132812 -1.554688 5.570312 -2.550781 4.25 -3.90625 C 2.914062 -5.226562 1.875 -6.773438 1.125 -8.546875 C 0.375 -10.328125 0 -12.125 0 -13.9375 Z M 14.265625 -23.203125 C 13.867188 -23.203125 13.460938 -23.171875 13.046875 -23.109375 C 12.628906 -23.046875 12.222656 -22.941406 11.828125 -22.796875 C 10.703125 -22.390625 9.703125 -21.765625 8.828125 -20.921875 C 7.953125 -20.085938 7.238281 -19.144531 6.6875 -18.09375 C 5.851562 -16.519531 5.519531 -14.84375 5.6875 -13.0625 C 5.851562 -11.289062 6.472656 -9.703125 7.546875 -8.296875 C 7.597656 -8.222656 7.644531 -8.15625 7.6875 -8.09375 C 7.738281 -8.03125 7.789062 -7.972656 7.84375 -7.921875 C 8.675781 -6.972656 9.632812 -6.226562 10.71875 -5.6875 C 11.8125 -5.144531 12.960938 -4.863281 14.171875 -4.84375 C 15.390625 -4.820312 16.570312 -5.097656 17.71875 -5.671875 C 18.894531 -6.273438 19.863281 -7.078125 20.625 -8.078125 C 21.394531 -9.078125 21.941406 -10.171875 22.265625 -11.359375 C 22.585938 -12.546875 22.6875 -13.757812 22.5625 -15 C 22.4375 -16.238281 22.085938 -17.414062 21.515625 -18.53125 C 20.941406 -19.644531 20.128906 -20.601562 19.078125 -21.40625 C 18.367188 -21.957031 17.609375 -22.390625 16.796875 -22.703125 C 15.984375 -23.015625 15.140625 -23.179688 14.265625 -23.203125 Z M 14.265625 -23.203125 "/></g></g></g><g fill="#000000" fill-opacity="1"><g transform="translate(69.895113, 43.924629)"><g><path d="M 14.34375 -0.296875 C 13.9375 -0.273438 13.539062 -0.253906 13.15625 -0.234375 C 12.769531 -0.222656 12.390625 -0.207031 12.015625 -0.1875 C 10.460938 -0.164062 8.894531 -0.171875 7.3125 -0.203125 C 5.738281 -0.242188 4.175781 -0.203125 2.625 -0.078125 C 2.375 -0.046875 2.035156 -0.0234375 1.609375 -0.015625 C 1.179688 -0.00390625 0.8125 -0.0664062 0.5 -0.203125 C 0.1875 -0.335938 0.03125 -0.609375 0.03125 -1.015625 C 0.0820312 -3.566406 0.109375 -6.113281 0.109375 -8.65625 C 0.109375 -11.195312 0.125 -13.742188 0.15625 -16.296875 C 0.15625 -17.347656 0.15625 -18.398438 0.15625 -19.453125 C 0.15625 -20.503906 0.15625 -21.554688 0.15625 -22.609375 C 0.15625 -23.128906 0.160156 -23.648438 0.171875 -24.171875 C 0.179688 -24.703125 0.1875 -25.226562 0.1875 -25.75 C 0.1875 -26.101562 0.21875 -26.503906 0.28125 -26.953125 C 0.34375 -27.410156 0.570312 -27.703125 0.96875 -27.828125 C 1.050781 -27.847656 1.128906 -27.859375 1.203125 -27.859375 C 1.273438 -27.859375 1.347656 -27.859375 1.421875 -27.859375 C 3.753906 -27.835938 6.085938 -27.800781 8.421875 -27.75 C 10.765625 -27.695312 13.078125 -27.484375 15.359375 -27.109375 C 16.484375 -26.929688 17.457031 -26.507812 18.28125 -25.84375 C 19.113281 -25.1875 19.722656 -24.375 20.109375 -23.40625 C 20.492188 -22.445312 20.585938 -21.40625 20.390625 -20.28125 C 20.210938 -19.269531 19.875 -18.367188 19.375 -17.578125 C 18.875 -16.796875 18.410156 -15.96875 17.984375 -15.09375 C 17.960938 -14.988281 17.929688 -14.894531 17.890625 -14.8125 C 17.847656 -14.726562 17.828125 -14.632812 17.828125 -14.53125 C 17.859375 -14.300781 18.003906 -14.066406 18.265625 -13.828125 C 18.523438 -13.597656 18.816406 -13.375 19.140625 -13.15625 C 19.472656 -12.945312 19.710938 -12.765625 19.859375 -12.609375 C 20.359375 -12.109375 20.816406 -11.550781 21.234375 -10.9375 C 21.648438 -10.332031 21.929688 -9.664062 22.078125 -8.9375 C 22.304688 -7.863281 22.210938 -6.710938 21.796875 -5.484375 C 21.378906 -4.253906 20.785156 -3.238281 20.015625 -2.4375 C 19.285156 -1.664062 18.410156 -1.132812 17.390625 -0.84375 C 16.378906 -0.550781 15.363281 -0.367188 14.34375 -0.296875 Z M 5.859375 -19.671875 C 5.859375 -19.648438 5.859375 -19.617188 5.859375 -19.578125 C 5.859375 -19.546875 5.859375 -19.515625 5.859375 -19.484375 C 5.828125 -19.234375 5.800781 -18.921875 5.78125 -18.546875 C 5.757812 -18.171875 5.789062 -17.820312 5.875 -17.5 C 5.957031 -17.175781 6.140625 -16.9375 6.421875 -16.78125 C 6.566406 -16.707031 6.710938 -16.664062 6.859375 -16.65625 C 7.015625 -16.644531 7.179688 -16.640625 7.359375 -16.640625 C 8.109375 -16.609375 8.863281 -16.578125 9.625 -16.546875 C 10.394531 -16.523438 11.15625 -16.59375 11.90625 -16.75 C 12.476562 -16.84375 13.007812 -17.132812 13.5 -17.625 C 13.988281 -18.113281 14.28125 -18.644531 14.375 -19.21875 C 14.53125 -19.945312 14.453125 -20.570312 14.140625 -21.09375 C 13.828125 -21.625 13.390625 -22.03125 12.828125 -22.3125 C 12.265625 -22.601562 11.65625 -22.773438 11 -22.828125 C 10.625 -22.878906 10.179688 -22.921875 9.671875 -22.953125 C 9.160156 -22.992188 8.648438 -22.988281 8.140625 -22.9375 C 7.640625 -22.882812 7.203125 -22.738281 6.828125 -22.5 C 6.453125 -22.269531 6.21875 -21.890625 6.125 -21.359375 C 6.070312 -21.085938 6.023438 -20.804688 5.984375 -20.515625 C 5.953125 -20.234375 5.910156 -19.953125 5.859375 -19.671875 Z M 6.15625 -6.15625 C 6.476562 -5.582031 6.945312 -5.203125 7.5625 -5.015625 C 8.175781 -4.828125 8.84375 -4.75 9.5625 -4.78125 C 10.289062 -4.820312 10.957031 -4.878906 11.5625 -4.953125 C 12.289062 -5.023438 13.03125 -5.238281 13.78125 -5.59375 C 14.53125 -5.945312 15.101562 -6.4375 15.5 -7.0625 C 15.875 -7.582031 16.019531 -8.113281 15.9375 -8.65625 C 15.851562 -9.195312 15.628906 -9.695312 15.265625 -10.15625 C 14.898438 -10.613281 14.476562 -10.984375 14 -11.265625 C 13.445312 -11.617188 12.84375 -11.835938 12.1875 -11.921875 C 11.539062 -12.003906 10.90625 -12.0625 10.28125 -12.09375 C 9.5625 -12.144531 8.859375 -12.082031 8.171875 -11.90625 C 7.484375 -11.726562 6.910156 -11.410156 6.453125 -10.953125 C 6.003906 -10.503906 5.742188 -9.859375 5.671875 -9.015625 C 5.640625 -8.660156 5.644531 -8.304688 5.6875 -7.953125 C 5.726562 -7.609375 5.785156 -7.257812 5.859375 -6.90625 C 5.910156 -6.78125 5.953125 -6.65625 5.984375 -6.53125 C 6.023438 -6.40625 6.082031 -6.28125 6.15625 -6.15625 Z M 6.15625 -6.15625 "/></g></g></g><g fill="#000000" fill-opacity="1"><g transform="translate(92.161806, 43.924629)"><g><path d="M 1.28125 -27.859375 C 1.300781 -27.859375 1.320312 -27.859375 1.34375 -27.859375 C 1.375 -27.859375 1.398438 -27.859375 1.421875 -27.859375 C 2.046875 -27.859375 2.660156 -27.851562 3.265625 -27.84375 C 3.867188 -27.832031 4.484375 -27.8125 5.109375 -27.78125 C 5.554688 -27.757812 5.78125 -27.582031 5.78125 -27.25 C 5.78125 -26.925781 5.78125 -26.59375 5.78125 -26.25 C 5.78125 -24.09375 5.78125 -21.925781 5.78125 -19.75 C 5.78125 -17.570312 5.78125 -15.40625 5.78125 -13.25 C 5.78125 -12.226562 5.773438 -11.195312 5.765625 -10.15625 C 5.753906 -9.113281 5.75 -8.082031 5.75 -7.0625 C 5.75 -6.101562 5.800781 -5.140625 5.90625 -4.171875 C 6.019531 -3.210938 6.015625 -2.25 5.890625 -1.28125 C 5.816406 -0.800781 5.65625 -0.492188 5.40625 -0.359375 C 5.15625 -0.222656 4.789062 -0.128906 4.3125 -0.078125 C 4.09375 -0.046875 3.75 -0.0234375 3.28125 -0.015625 C 2.820312 -0.00390625 2.34375 -0.03125 1.84375 -0.09375 C 1.34375 -0.15625 0.910156 -0.28125 0.546875 -0.46875 C 0.179688 -0.65625 0 -0.925781 0 -1.28125 C 0 -5.476562 0.00390625 -9.679688 0.015625 -13.890625 C 0.0234375 -18.097656 0.0195312 -22.304688 0 -26.515625 C 0 -27.015625 0.09375 -27.359375 0.28125 -27.546875 C 0.46875 -27.734375 0.800781 -27.835938 1.28125 -27.859375 Z M 1.28125 -27.859375 "/></g></g></g></g></g></g></g></g></g></mask><clipPath id="fe8ab35823"><path d="M 0.441406 0 L 119.558594 0 L 119.558594 67.003906 L 0.441406 67.003906 Z M 0.441406 0 " clip-rule="nonzero"/></clipPath><clipPath id="8ade7aa4cb"><rect x="0" width="120" y="0" height="68"/></clipPath><clipPath id="c17bd10e36"><rect x="0" width="120" y="0" height="68"/></clipPath><clipPath id="33fb84c683"><path d="M 0.441406 31 L 119.558594 31 L 119.558594 67.003906 L 0.441406 67.003906 Z M 0.441406 31 " clip-rule="nonzero"/></clipPath><clipPath id="9a53fe4437"><path d="M 0.441406 1.015625 L 119.558594 1.015625 L 119.558594 36.003906 L 0.441406 36.003906 Z M 0.441406 1.015625 " clip-rule="nonzero"/></clipPath><clipPath id="0638def0bb"><path d="M 0.441406 0.015625 L 119.558594 0.015625 L 119.558594 35.003906 L 0.441406 35.003906 Z M 0.441406 0.015625 " clip-rule="nonzero"/></clipPath><clipPath id="446c098b4c"><path d="M 1.496094 0.015625 L 116.105469 0.015625 L 116.105469 35.003906 L 1.496094 35.003906 Z M 1.496094 0.015625 " clip-rule="nonzero"/></clipPath><linearGradient x1="24.893889" gradientTransform="matrix(0.701647, 0, 0, 0.703127, 6.276445, 16.892381)" y1="57.465108" x2="131.444998" gradientUnits="userSpaceOnUse" y2="-49.085997" id="c4bf64da42"><stop stop-opacity="1" stop-color="rgb(99.609375%, 51.368713%, 33.729553%)" offset="0"/><stop stop-opacity="1" stop-color="rgb(99.609375%, 51.368713%, 33.729553%)" offset="0.233495"/><stop stop-opacity="1" stop-color="rgb(99.609375%, 51.368713%, 33.729553%)" offset="0.25"/><stop stop-opacity="1" stop-color="rgb(99.610901%, 51.65863%, 33.587646%)" offset="0.253906"/><stop stop-opacity="1" stop-color="rgb(99.613953%, 51.948547%, 33.447266%)" offset="0.257812"/><stop stop-opacity="1" stop-color="rgb(99.621582%, 52.714539%, 33.074951%)" offset="0.261719"/><stop stop-opacity="1" stop-color="rgb(99.629211%, 53.48053%, 32.702637%)" offset="0.265625"/><stop stop-opacity="1" stop-color="rgb(99.635315%, 54.246521%, 32.330322%)" offset="0.269531"/><stop stop-opacity="1" stop-color="rgb(99.642944%, 55.012512%, 31.958008%)" offset="0.273438"/><stop stop-opacity="1" stop-color="rgb(99.649048%, 55.776978%, 31.585693%)" offset="0.277344"/><stop stop-opacity="1" stop-color="rgb(99.656677%, 56.542969%, 31.213379%)" offset="0.28125"/><stop stop-opacity="1" stop-color="rgb(99.664307%, 57.30896%, 30.841064%)" offset="0.285156"/><stop stop-opacity="1" stop-color="rgb(99.671936%, 58.074951%, 30.46875%)" offset="0.289062"/><stop stop-opacity="1" stop-color="rgb(99.67804%, 58.839417%, 30.096436%)" offset="0.292969"/><stop stop-opacity="1" stop-color="rgb(99.685669%, 59.605408%, 29.725647%)" offset="0.296875"/><stop stop-opacity="1" stop-color="rgb(99.691772%, 60.371399%, 29.353333%)" offset="0.300781"/><stop stop-opacity="1" stop-color="rgb(99.699402%, 61.13739%, 28.981018%)" offset="0.304688"/><stop stop-opacity="1" stop-color="rgb(99.707031%, 61.901855%, 28.608704%)" offset="0.308594"/><stop stop-opacity="1" stop-color="rgb(99.714661%, 62.667847%, 28.236389%)" offset="0.3125"/><stop stop-opacity="1" stop-color="rgb(99.720764%, 63.433838%, 27.864075%)" offset="0.316406"/><stop stop-opacity="1" stop-color="rgb(99.728394%, 64.199829%, 27.49176%)" offset="0.320313"/><stop stop-opacity="1" stop-color="rgb(99.734497%, 64.964294%, 27.119446%)" offset="0.324219"/><stop stop-opacity="1" stop-color="rgb(99.742126%, 65.730286%, 26.747131%)" offset="0.328125"/><stop stop-opacity="1" stop-color="rgb(99.749756%, 66.496277%, 26.374817%)" offset="0.332031"/><stop stop-opacity="1" stop-color="rgb(99.757385%, 67.262268%, 26.002502%)" offset="0.335938"/><stop stop-opacity="1" stop-color="rgb(99.763489%, 68.026733%, 25.630188%)" offset="0.339844"/><stop stop-opacity="1" stop-color="rgb(99.771118%, 68.792725%, 25.257874%)" offset="0.34375"/><stop stop-opacity="1" stop-color="rgb(99.777222%, 69.558716%, 24.885559%)" offset="0.347656"/><stop stop-opacity="1" stop-color="rgb(99.784851%, 70.324707%, 24.513245%)" offset="0.351563"/><stop stop-opacity="1" stop-color="rgb(99.79248%, 71.089172%, 24.14093%)" offset="0.355469"/><stop stop-opacity="1" stop-color="rgb(99.80011%, 71.855164%, 23.768616%)" offset="0.359375"/><stop stop-opacity="1" stop-color="rgb(99.806213%, 72.621155%, 23.396301%)" offset="0.363281"/><stop stop-opacity="1" stop-color="rgb(99.813843%, 73.387146%, 23.023987%)" offset="0.367188"/><stop stop-opacity="1" stop-color="rgb(99.819946%, 74.153137%, 22.651672%)" offset="0.371094"/><stop stop-opacity="1" stop-color="rgb(99.827576%, 74.919128%, 22.280884%)" offset="0.375"/><stop stop-opacity="1" stop-color="rgb(99.835205%, 75.683594%, 21.908569%)" offset="0.378906"/><stop stop-opacity="1" stop-color="rgb(99.842834%, 76.449585%, 21.536255%)" offset="0.382813"/><stop stop-opacity="1" stop-color="rgb(99.848938%, 77.215576%, 21.16394%)" offset="0.386719"/><stop stop-opacity="1" stop-color="rgb(99.856567%, 77.981567%, 20.791626%)" offset="0.390625"/><stop stop-opacity="1" stop-color="rgb(99.862671%, 78.746033%, 20.419312%)" offset="0.394531"/><stop stop-opacity="1" stop-color="rgb(99.8703%, 79.512024%, 20.046997%)" offset="0.398438"/><stop stop-opacity="1" stop-color="rgb(99.87793%, 80.278015%, 19.674683%)" offset="0.402344"/><stop stop-opacity="1" stop-color="rgb(99.885559%, 81.044006%, 19.302368%)" offset="0.40625"/><stop stop-opacity="1" stop-color="rgb(99.891663%, 81.808472%, 18.930054%)" offset="0.410156"/><stop stop-opacity="1" stop-color="rgb(99.899292%, 82.574463%, 18.557739%)" offset="0.414063"/><stop stop-opacity="1" stop-color="rgb(99.905396%, 83.340454%, 18.185425%)" offset="0.417969"/><stop stop-opacity="1" stop-color="rgb(99.913025%, 84.106445%, 17.81311%)" offset="0.421875"/><stop stop-opacity="1" stop-color="rgb(99.920654%, 84.870911%, 17.440796%)" offset="0.425781"/><stop stop-opacity="1" stop-color="rgb(99.928284%, 85.636902%, 17.068481%)" offset="0.429688"/><stop stop-opacity="1" stop-color="rgb(99.934387%, 86.402893%, 16.696167%)" offset="0.433594"/><stop stop-opacity="1" stop-color="rgb(99.942017%, 87.168884%, 16.323853%)" offset="0.4375"/><stop stop-opacity="1" stop-color="rgb(99.94812%, 87.93335%, 15.951538%)" offset="0.441406"/><stop stop-opacity="1" stop-color="rgb(99.95575%, 88.699341%, 15.579224%)" offset="0.445312"/><stop stop-opacity="1" stop-color="rgb(99.963379%, 89.465332%, 15.206909%)" offset="0.449219"/><stop stop-opacity="1" stop-color="rgb(99.971008%, 90.231323%, 14.836121%)" offset="0.453125"/><stop stop-opacity="1" stop-color="rgb(99.977112%, 90.995789%, 14.463806%)" offset="0.457031"/><stop stop-opacity="1" stop-color="rgb(99.984741%, 91.76178%, 14.091492%)" offset="0.460938"/><stop stop-opacity="1" stop-color="rgb(99.990845%, 92.527771%, 13.719177%)" offset="0.464844"/><stop stop-opacity="1" stop-color="rgb(99.998474%, 93.293762%, 13.346863%)" offset="0.46875"/><stop stop-opacity="1" stop-color="rgb(99.362183%, 93.353271%, 13.113403%)" offset="0.472656"/><stop stop-opacity="1" stop-color="rgb(98.727417%, 93.412781%, 12.88147%)" offset="0.476562"/><stop stop-opacity="1" stop-color="rgb(98.075867%, 93.455505%, 12.652588%)" offset="0.480469"/><stop stop-opacity="1" stop-color="rgb(97.424316%, 93.499756%, 12.423706%)" offset="0.484375"/><stop stop-opacity="1" stop-color="rgb(96.772766%, 93.54248%, 12.194824%)" offset="0.488281"/><stop stop-opacity="1" stop-color="rgb(96.122742%, 93.585205%, 11.965942%)" offset="0.492188"/><stop stop-opacity="1" stop-color="rgb(95.471191%, 93.62793%, 11.737061%)" offset="0.496094"/><stop stop-opacity="1" stop-color="rgb(94.819641%, 93.67218%, 11.508179%)" offset="0.5"/><stop stop-opacity="1" stop-color="rgb(94.168091%, 93.714905%, 11.279297%)" offset="0.503906"/><stop stop-opacity="1" stop-color="rgb(93.516541%, 93.757629%, 11.050415%)" offset="0.507812"/><stop stop-opacity="1" stop-color="rgb(92.86499%, 93.800354%, 10.820007%)" offset="0.511719"/><stop stop-opacity="1" stop-color="rgb(92.214966%, 93.844604%, 10.591125%)" offset="0.515625"/><stop stop-opacity="1" stop-color="rgb(91.563416%, 93.887329%, 10.362244%)" offset="0.519531"/><stop stop-opacity="1" stop-color="rgb(90.911865%, 93.930054%, 10.133362%)" offset="0.523438"/><stop stop-opacity="1" stop-color="rgb(90.260315%, 93.972778%, 9.90448%)" offset="0.527344"/><stop stop-opacity="1" stop-color="rgb(89.610291%, 94.015503%, 9.675598%)" offset="0.53125"/><stop stop-opacity="1" stop-color="rgb(88.95874%, 94.058228%, 9.446716%)" offset="0.535156"/><stop stop-opacity="1" stop-color="rgb(88.30719%, 94.102478%, 9.217834%)" offset="0.539062"/><stop stop-opacity="1" stop-color="rgb(87.65564%, 94.145203%, 8.988953%)" offset="0.542969"/><stop stop-opacity="1" stop-color="rgb(87.004089%, 94.187927%, 8.760071%)" offset="0.546875"/><stop stop-opacity="1" stop-color="rgb(86.352539%, 94.230652%, 8.531189%)" offset="0.550781"/><stop stop-opacity="1" stop-color="rgb(85.702515%, 94.274902%, 8.302307%)" offset="0.554688"/><stop stop-opacity="1" stop-color="rgb(85.050964%, 94.317627%, 8.073425%)" offset="0.558594"/><stop stop-opacity="1" stop-color="rgb(84.399414%, 94.360352%, 7.844543%)" offset="0.5625"/><stop stop-opacity="1" stop-color="rgb(83.747864%, 94.403076%, 7.614136%)" offset="0.566406"/><stop stop-opacity="1" stop-color="rgb(83.097839%, 94.447327%, 7.385254%)" offset="0.570313"/><stop stop-opacity="1" stop-color="rgb(82.446289%, 94.490051%, 7.156372%)" offset="0.574219"/><stop stop-opacity="1" stop-color="rgb(81.794739%, 94.532776%, 6.92749%)" offset="0.578125"/><stop stop-opacity="1" stop-color="rgb(81.143188%, 94.5755%, 6.698608%)" offset="0.582031"/><stop stop-opacity="1" stop-color="rgb(80.493164%, 94.619751%, 6.469727%)" offset="0.585938"/><stop stop-opacity="1" stop-color="rgb(79.841614%, 94.662476%, 6.240845%)" offset="0.589844"/><stop stop-opacity="1" stop-color="rgb(79.190063%, 94.7052%, 6.011963%)" offset="0.59375"/><stop stop-opacity="1" stop-color="rgb(78.538513%, 94.747925%, 5.783081%)" offset="0.597656"/><stop stop-opacity="1" stop-color="rgb(77.886963%, 94.790649%, 5.554199%)" offset="0.601563"/><stop stop-opacity="1" stop-color="rgb(77.235413%, 94.833374%, 5.325317%)" offset="0.605469"/><stop stop-opacity="1" stop-color="rgb(76.585388%, 94.877625%, 5.096436%)" offset="0.609375"/><stop stop-opacity="1" stop-color="rgb(75.933838%, 94.920349%, 4.866028%)" offset="0.613281"/><stop stop-opacity="1" stop-color="rgb(75.282288%, 94.963074%, 4.637146%)" offset="0.617188"/><stop stop-opacity="1" stop-color="rgb(74.630737%, 95.005798%, 4.408264%)" offset="0.621094"/><stop stop-opacity="1" stop-color="rgb(73.980713%, 95.050049%, 4.179382%)" offset="0.625"/><stop stop-opacity="1" stop-color="rgb(73.329163%, 95.092773%, 3.9505%)" offset="0.628906"/><stop stop-opacity="1" stop-color="rgb(72.677612%, 95.135498%, 3.721619%)" offset="0.632813"/><stop stop-opacity="1" stop-color="rgb(72.026062%, 95.178223%, 3.492737%)" offset="0.636719"/><stop stop-opacity="1" stop-color="rgb(71.374512%, 95.222473%, 3.263855%)" offset="0.640625"/><stop stop-opacity="1" stop-color="rgb(70.722961%, 95.265198%, 3.034973%)" offset="0.644531"/><stop stop-opacity="1" stop-color="rgb(70.072937%, 95.307922%, 2.806091%)" offset="0.648438"/><stop stop-opacity="1" stop-color="rgb(69.421387%, 95.350647%, 2.577209%)" offset="0.652344"/><stop stop-opacity="1" stop-color="rgb(68.769836%, 95.394897%, 2.348328%)" offset="0.65625"/><stop stop-opacity="1" stop-color="rgb(68.118286%, 95.437622%, 2.119446%)" offset="0.660156"/><stop stop-opacity="1" stop-color="rgb(67.468262%, 95.480347%, 1.890564%)" offset="0.664063"/><stop stop-opacity="1" stop-color="rgb(66.816711%, 95.523071%, 1.660156%)" offset="0.667969"/><stop stop-opacity="1" stop-color="rgb(66.165161%, 95.565796%, 1.431274%)" offset="0.671875"/><stop stop-opacity="1" stop-color="rgb(65.513611%, 95.608521%, 1.202393%)" offset="0.675781"/><stop stop-opacity="1" stop-color="rgb(64.863586%, 95.652771%, 0.973511%)" offset="0.679688"/><stop stop-opacity="1" stop-color="rgb(64.585876%, 95.671082%, 0.875854%)" offset="0.683594"/><stop stop-opacity="1" stop-color="rgb(64.309692%, 95.689392%, 0.779724%)" offset="0.6875"/><stop stop-opacity="1" stop-color="rgb(64.309692%, 95.689392%, 0.779724%)" offset="0.75"/><stop stop-opacity="1" stop-color="rgb(64.309692%, 95.689392%, 0.779724%)" offset="0.766505"/><stop stop-opacity="1" stop-color="rgb(64.309692%, 95.689392%, 0.779724%)" offset="1"/></linearGradient><clipPath id="d89914cf48"><rect x="0" width="120" y="0" height="36"/></clipPath><clipPath id="09624c04ca"><path d="M 0.441406 0.015625 L 119.558594 0.015625 L 119.558594 35.003906 L 0.441406 35.003906 Z M 0.441406 0.015625 " clip-rule="nonzero"/></clipPath><clipPath id="9b80453d02"><rect x="0" width="120" y="0" height="36"/></clipPath><clipPath id="4d2368fa32"><rect x="0" width="120" y="0" height="36"/></clipPath><mask id="dc9c4b88b4"><g filter="url(#b9f33e57c4)"><g transform="matrix(1, 0, 0, 1, 0.000000000000000056, 0)"><g clip-path="url(#4d2368fa32)"><g clip-path="url(#09624c04ca)"><g transform="matrix(1, 0, 0, 1, 0.000000000000000056, 0)"><g clip-path="url(#9b80453d02)"><g fill="#000000" fill-opacity="1"><g transform="translate(18.503026, 24.626775)"><g><path d="M 7.105469 -3.460938 L 7.105469 -5.769531 L 5.890625 -5.769531 L 5.890625 -3.460938 Z M 5.316406 -4.675781 L 5.316406 -5.769531 L 2.546875 -5.769531 L 2.546875 -4.675781 Z M 7.949219 0 L 7.949219 -3.054688 L 6.734375 -3.054688 L 6.734375 0 Z M 5.519531 -2.371094 L 5.519531 -3.460938 L 2.546875 -3.460938 L 2.546875 -2.371094 Z M 6.160156 0 L 6.160156 -1.097656 L 2.546875 -1.097656 L 2.546875 0 Z M 1.972656 0 L 1.972656 -5.769531 L 0.757812 -5.769531 L 0.757812 0 Z M 1.972656 0 "/></g></g></g><g fill="#000000" fill-opacity="1"><g transform="translate(27.210625, 24.626775)"><g><path d="M 6.734375 -4.675781 L 6.734375 -5.769531 L 2.546875 -5.769531 L 2.546875 -4.675781 Z M 4.664062 -2.371094 L 4.664062 -3.460938 L 2.546875 -3.460938 L 2.546875 -2.371094 Z M 6.734375 0 L 6.734375 -1.097656 L 2.546875 -1.097656 L 2.546875 0 Z M 1.972656 0 L 1.972656 -5.769531 L 0.757812 -5.769531 L 0.757812 0 Z M 1.972656 0 "/></g></g></g><g fill="#000000" fill-opacity="1"><g transform="translate(34.703212, 24.626775)"><g><path d="M 1.972656 0 L 1.972656 -5.769531 L 0.757812 -5.769531 L 0.757812 0 Z M 1.972656 0 "/></g></g></g><g fill="#000000" fill-opacity="1"><g transform="translate(37.436995, 24.626775)"><g><path d="M 6.734375 0 L 6.734375 -5.769531 L 5.507812 -5.769531 L 5.507812 0 Z M 4.9375 0 L 4.9375 -1.097656 L 0.757812 -1.097656 L 0.757812 0 Z M 4.9375 0 "/></g></g></g><g fill="#000000" fill-opacity="1"><g transform="translate(44.929581, 24.626775)"><g><path d="M 1.972656 0 L 1.972656 -5.769531 L 0.757812 -5.769531 L 0.757812 0 Z M 1.972656 0 "/></g></g></g><g fill="#000000" fill-opacity="1"><g transform="translate(47.663364, 24.626775)"><g><path d="M 7.949219 0 L 7.949219 -5.769531 L 6.734375 -5.769531 L 6.734375 0 Z M 6.335938 -1.753906 L 3.222656 -4.867188 L 2.363281 -4.015625 L 5.484375 -0.894531 Z M 1.972656 0 L 1.972656 -5.769531 L 0.757812 -5.769531 L 0.757812 0 Z M 1.972656 0 "/></g></g></g><g fill="#000000" fill-opacity="1"><g transform="translate(56.370964, 24.626775)"><g><path d="M 6.160156 -4.675781 L 6.160156 -5.769531 L 2.546875 -5.769531 L 2.546875 -4.675781 Z M 6.976562 -2.371094 L 6.976562 -3.460938 L 4.050781 -3.460938 L 4.050781 -2.371094 Z M 6.160156 0 L 6.160156 -1.796875 L 4.9375 -1.796875 L 4.9375 0 Z M 1.972656 0 L 1.972656 -5.769531 L 0.757812 -5.769531 L 0.757812 0 Z M 4.371094 0 L 4.371094 -1.097656 L 2.546875 -1.097656 L 2.546875 0 Z M 4.371094 0 "/></g></g></g><g fill="#000000" fill-opacity="1"><g transform="translate(64.108233, 24.626775)"><g><path d="M 1.972656 -2.34375 L 1.972656 -3.5 L 0.757812 -3.5 L 0.757812 -2.34375 Z M 1.972656 -2.34375 "/></g></g></g><g fill="#000000" fill-opacity="1"><g transform="translate(66.842015, 24.626775)"><g><path d="M 5.550781 -4.675781 L 5.550781 -5.769531 L 1.972656 -5.769531 L 1.972656 -4.675781 Z M 1.972656 0 L 1.972656 -3.460938 L 0.757812 -3.460938 L 0.757812 0 Z M 5.550781 -2.371094 L 5.550781 -3.460938 L 2.546875 -3.460938 L 2.546875 -2.371094 Z M 7.339844 -2.371094 L 7.339844 -5.769531 L 6.125 -5.769531 L 6.125 -2.371094 Z M 7.339844 0 L 7.339844 -1.097656 L 2.546875 -1.097656 L 2.546875 0 Z M 7.339844 0 "/></g></g></g><g fill="#000000" fill-opacity="1"><g transform="translate(74.942103, 24.626775)"><g><path d="M 7.695312 -1.097656 L 7.695312 -4.675781 L 6.480469 -4.675781 L 6.480469 -1.097656 Z M 5.90625 -4.675781 L 5.90625 -5.769531 L 2.546875 -5.769531 L 2.546875 -4.675781 Z M 5.90625 0 L 5.90625 -1.097656 L 2.546875 -1.097656 L 2.546875 0 Z M 1.972656 -1.097656 L 1.972656 -4.675781 L 0.757812 -4.675781 L 0.757812 -1.097656 Z M 1.972656 -1.097656 "/></g></g></g><g fill="#000000" fill-opacity="1"><g transform="translate(83.396566, 24.626775)"><g><path d="M 5.550781 -4.675781 L 5.550781 -5.769531 L 1.972656 -5.769531 L 1.972656 -4.675781 Z M 1.972656 0 L 1.972656 -3.460938 L 0.757812 -3.460938 L 0.757812 0 Z M 5.550781 -2.371094 L 5.550781 -3.460938 L 2.546875 -3.460938 L 2.546875 -2.371094 Z M 7.339844 -2.371094 L 7.339844 -5.769531 L 6.125 -5.769531 L 6.125 -2.371094 Z M 7.339844 0 L 7.339844 -1.097656 L 2.546875 -1.097656 L 2.546875 0 Z M 7.339844 0 "/></g></g></g><g fill="#000000" fill-opacity="1"><g transform="translate(91.496654, 24.626775)"><g><path d="M 6.125 -4.675781 L 6.125 -5.769531 L 2.546875 -5.769531 L 2.546875 -4.675781 Z M 7.339844 0 L 7.339844 -3.460938 L 6.125 -3.460938 L 6.125 0 Z M 5.550781 -2.371094 L 5.550781 -3.460938 L 2.546875 -3.460938 L 2.546875 -2.371094 Z M 1.972656 -2.371094 L 1.972656 -5.769531 L 0.757812 -5.769531 L 0.757812 -2.371094 Z M 5.550781 0 L 5.550781 -1.097656 L 0.757812 -1.097656 L 0.757812 0 Z M 5.550781 0 "/></g></g></g></g></g></g></g></g></g></mask><clipPath id="24a962d034"><path d="M 1.496094 0.015625 L 116.105469 0.015625 L 116.105469 35.003906 L 1.496094 35.003906 Z M 1.496094 0.015625 " clip-rule="nonzero"/></clipPath><clipPath id="4c1ca43ba0"><rect x="0" width="120" y="0" height="36"/></clipPath><clipPath id="594d9cebe1"><rect x="0" width="120" y="0" height="36"/></clipPath><clipPath id="a4942d1537"><rect x="0" width="120" y="0" height="37"/></clipPath></defs><g clip-path="url(#fb8899a023)"><g transform="matrix(1, 0, 0, 1, 0.000000000000000056, 0)"><g clip-path="url(#c17bd10e36)"><g clip-path="url(#b36af6acc7)"><g mask="url(#eb386692a0)"><g transform="matrix(1, 0, 0, 1, 0.000000000000000056, 0)"><g clip-path="url(#8ade7aa4cb)"><g clip-path="url(#fe8ab35823)"><path fill="url(#76d8efb539)" d="M 0.441406 0 L 0.441406 67.003906 L 119.558594 67.003906 L 119.558594 0 Z M 0.441406 0 " fill-rule="nonzero"/></g></g></g></g></g></g></g></g><g clip-path="url(#33fb84c683)"><g transform="matrix(1, 0, 0, 1, 0.000000000000000056, 31)"><g clip-path="url(#a4942d1537)"><g clip-path="url(#9a53fe4437)"><g transform="matrix(1, 0, 0, 1, 0.000000000000000056, 1)"><g clip-path="url(#594d9cebe1)"><g clip-path="url(#0638def0bb)"><g mask="url(#dc9c4b88b4)"><g transform="matrix(1, 0, 0, 1, 0.000000000000000056, 0)"><g clip-path="url(#4c1ca43ba0)"><g clip-path="url(#24a962d034)"><path fill="url(#c4bf64da42)" d="M 1.496094 0.015625 L 1.496094 35.003906 L 116.105469 35.003906 L 116.105469 0.015625 Z M 1.496094 0.015625 " fill-rule="nonzero"/></g></g></g></g></g></g></g></g></g></g></g></svg>