<svg xmlns="http://www.w3.org/2000/svg" xmlns:xlink="http://www.w3.org/1999/xlink" width="145" zoomAndPan="magnify" viewBox="0 0 108.75 57.749997" height="77" preserveAspectRatio="xMidYMid meet" version="1.0"><defs><g/><clipPath id="241539c7ab"><path d="M 86.125 9.097656 L 88.195312 9.097656 L 88.195312 11.464844 L 86.125 11.464844 Z M 86.125 9.097656 " clip-rule="nonzero"/></clipPath><clipPath id="f952dc38c2"><path d="M 87.003906 11.367188 L 87.003906 9.414062 L 86.1875 9.414062 L 86.1875 9.144531 L 88.140625 9.144531 L 88.140625 9.402344 L 87.328125 9.402344 L 87.328125 11.355469 Z M 87.003906 11.367188 " clip-rule="nonzero"/></clipPath><clipPath id="54e6a68fef"><path d="M 0.125 0.0976562 L 2.175781 0.0976562 L 2.175781 2.464844 L 0.125 2.464844 Z M 0.125 0.0976562 " clip-rule="nonzero"/></clipPath><clipPath id="464ab4e27f"><path d="M 1.003906 2.367188 L 1.003906 0.414062 L 0.1875 0.414062 L 0.1875 0.144531 L 2.140625 0.144531 L 2.140625 0.402344 L 1.328125 0.402344 L 1.328125 2.355469 Z M 1.003906 2.367188 " clip-rule="nonzero"/></clipPath><clipPath id="307cd20e03"><rect x="0" width="3" y="0" height="3"/></clipPath><clipPath id="48be920f10"><path d="M 88.34375 9.097656 L 90.859375 9.097656 L 90.859375 11.464844 L 88.34375 11.464844 Z M 88.34375 9.097656 " clip-rule="nonzero"/></clipPath><clipPath id="2bdc1f4b17"><path d="M 88.460938 11.367188 L 88.460938 9.144531 L 88.945312 9.144531 L 89.53125 10.722656 C 89.582031 10.871094 89.621094 10.980469 89.648438 11.050781 C 89.679688 10.96875 89.71875 10.851562 89.777344 10.691406 L 90.363281 9.144531 L 90.800781 9.144531 L 90.800781 11.367188 L 90.480469 11.367188 L 90.480469 9.511719 L 89.769531 11.367188 L 89.472656 11.367188 L 88.757812 9.472656 L 88.757812 11.367188 Z M 88.460938 11.367188 " clip-rule="nonzero"/></clipPath><clipPath id="af3159dfb3"><path d="M 0.414062 0.0976562 L 2.800781 0.0976562 L 2.800781 2.464844 L 0.414062 2.464844 Z M 0.414062 0.0976562 " clip-rule="nonzero"/></clipPath><clipPath id="45a2f503c8"><path d="M 0.460938 2.367188 L 0.460938 0.144531 L 0.945312 0.144531 L 1.53125 1.722656 C 1.582031 1.871094 1.621094 1.980469 1.648438 2.050781 C 1.679688 1.96875 1.71875 1.851562 1.777344 1.691406 L 2.363281 0.144531 L 2.800781 0.144531 L 2.800781 2.367188 L 2.480469 2.367188 L 2.480469 0.511719 L 1.769531 2.367188 L 1.472656 2.367188 L 0.757812 0.472656 L 0.757812 2.367188 Z M 0.460938 2.367188 " clip-rule="nonzero"/></clipPath><clipPath id="d9cad0100f"><rect x="0" width="3" y="0" height="3"/></clipPath><clipPath id="21feea0723"><path d="M 12.121094 16.347656 L 21.445312 16.347656 L 21.445312 32.628906 L 12.121094 32.628906 Z M 12.121094 16.347656 " clip-rule="nonzero"/></clipPath><clipPath id="82d4019a19"><path d="M 19.476562 16.582031 C 19.179688 16.503906 18.878906 16.464844 18.5625 16.464844 C 17.472656 16.464844 16.660156 16.679688 16.132812 17.109375 L 16.132812 16.570312 L 12.21875 16.570312 L 12.21875 32.535156 L 16.132812 32.535156 L 16.132812 19.695312 C 16.132812 19.230469 16.363281 18.992188 16.820312 18.992188 C 17.273438 18.992188 17.503906 19.238281 17.503906 19.726562 L 17.503906 32.542969 L 21.417969 32.542969 L 21.417969 29.429688 L 19.476562 29.429688 Z M 19.476562 16.582031 " clip-rule="nonzero"/></clipPath><clipPath id="82d694b9df"><path d="M 0.183594 0.347656 L 9.445312 0.347656 L 9.445312 16.628906 L 0.183594 16.628906 Z M 0.183594 0.347656 " clip-rule="nonzero"/></clipPath><clipPath id="43b6f80054"><path d="M 7.476562 0.582031 C 7.179688 0.503906 6.878906 0.464844 6.5625 0.464844 C 5.472656 0.464844 4.660156 0.679688 4.132812 1.109375 L 4.132812 0.570312 L 0.21875 0.570312 L 0.21875 16.535156 L 4.132812 16.535156 L 4.132812 3.695312 C 4.132812 3.230469 4.363281 2.992188 4.820312 2.992188 C 5.273438 2.992188 5.503906 3.238281 5.503906 3.726562 L 5.503906 16.542969 L 9.417969 16.542969 L 9.417969 13.429688 L 7.476562 13.429688 Z M 7.476562 0.582031 " clip-rule="nonzero"/></clipPath><clipPath id="3b6ed38138"><rect x="0" width="10" y="0" height="17"/></clipPath><clipPath id="1ac70deb8a"><path d="M 19.375 13.242188 L 28.699219 13.242188 L 28.699219 29.519531 L 19.375 29.519531 Z M 19.375 13.242188 " clip-rule="nonzero"/></clipPath><clipPath id="84bec24161"><path d="M 26.59375 19.726562 C 26.59375 18.226562 27.289062 17.226562 28.675781 16.730469 L 28.675781 15.621094 C 28.675781 14.875 28.378906 14.3125 27.785156 13.925781 C 27.1875 13.539062 26.535156 13.351562 25.820312 13.351562 C 24.730469 13.351562 23.917969 13.566406 23.390625 13.996094 L 23.390625 13.457031 L 19.476562 13.457031 L 19.476562 16.582031 C 19.84375 16.671875 20.1875 16.828125 20.515625 17.039062 C 21.113281 17.425781 21.410156 17.988281 21.410156 18.734375 L 21.410156 29.429688 L 23.390625 29.429688 L 23.390625 16.582031 C 23.390625 16.117188 23.621094 15.878906 24.074219 15.878906 C 24.53125 15.878906 24.761719 16.125 24.761719 16.613281 L 24.761719 29.429688 L 26.605469 29.429688 C 26.605469 29.382812 26.59375 29.339844 26.59375 29.292969 Z M 26.59375 19.726562 " clip-rule="nonzero"/></clipPath><clipPath id="4ab19fe7f2"><path d="M 0.375 0.242188 L 9.699219 0.242188 L 9.699219 16.519531 L 0.375 16.519531 Z M 0.375 0.242188 " clip-rule="nonzero"/></clipPath><clipPath id="af39de367b"><path d="M 7.59375 6.726562 C 7.59375 5.226562 8.289062 4.226562 9.675781 3.730469 L 9.675781 2.621094 C 9.675781 1.875 9.378906 1.3125 8.785156 0.925781 C 8.1875 0.539062 7.535156 0.351562 6.820312 0.351562 C 5.730469 0.351562 4.917969 0.566406 4.390625 0.996094 L 4.390625 0.457031 L 0.476562 0.457031 L 0.476562 3.582031 C 0.84375 3.671875 1.1875 3.828125 1.515625 4.039062 C 2.113281 4.425781 2.410156 4.988281 2.410156 5.734375 L 2.410156 16.429688 L 4.390625 16.429688 L 4.390625 3.582031 C 4.390625 3.117188 4.621094 2.878906 5.074219 2.878906 C 5.53125 2.878906 5.761719 3.125 5.761719 3.613281 L 5.761719 16.429688 L 7.605469 16.429688 C 7.605469 16.382812 7.59375 16.339844 7.59375 16.292969 Z M 7.59375 6.726562 " clip-rule="nonzero"/></clipPath><clipPath id="03207a0a5d"><rect x="0" width="10" y="0" height="17"/></clipPath><clipPath id="a8b02569ea"><path d="M 19.375 16.496094 L 21.445312 16.496094 L 21.445312 29.519531 L 19.375 29.519531 Z M 19.375 16.496094 " clip-rule="nonzero"/></clipPath><clipPath id="8467882e5c"><path d="M 20.515625 17.046875 C 20.1875 16.828125 19.84375 16.679688 19.476562 16.59375 L 19.476562 29.429688 L 21.417969 29.429688 L 21.417969 18.734375 C 21.417969 17.988281 21.121094 17.425781 20.527344 17.039062 " clip-rule="nonzero"/></clipPath><clipPath id="d12a875c9e"><path d="M 0.375 0.507812 L 2.445312 0.507812 L 2.445312 13.519531 L 0.375 13.519531 Z M 0.375 0.507812 " clip-rule="nonzero"/></clipPath><clipPath id="42dfd8f1c1"><path d="M 1.515625 1.046875 C 1.1875 0.828125 0.84375 0.679688 0.476562 0.59375 L 0.476562 13.429688 L 2.417969 13.429688 L 2.417969 2.734375 C 2.417969 1.988281 2.121094 1.425781 1.527344 1.039062 " clip-rule="nonzero"/></clipPath><clipPath id="195e8eb4a3"><rect x="0" width="3" y="0" height="14"/></clipPath><clipPath id="ae6172c88e"><path d="M 26.476562 16.347656 L 35.800781 16.347656 L 35.800781 32.777344 L 26.476562 32.777344 Z M 26.476562 16.347656 " clip-rule="nonzero"/></clipPath><clipPath id="bdba81bb03"><path d="M 31.867188 29.390625 C 31.867188 29.9375 31.640625 30.203125 31.195312 30.203125 C 30.75 30.203125 30.511719 29.9375 30.511719 29.390625 L 30.511719 19.617188 C 30.511719 19.089844 30.738281 18.832031 31.195312 18.832031 C 31.648438 18.832031 31.867188 19.089844 31.867188 19.617188 Z M 34.417969 17.136719 C 33.503906 16.613281 32.445312 16.355469 31.242188 16.355469 C 30.210938 16.355469 29.359375 16.484375 28.667969 16.730469 L 28.667969 29.429688 L 26.585938 29.429688 C 26.652344 31.582031 28.199219 32.652344 31.242188 32.652344 C 34.269531 32.652344 35.785156 31.574219 35.785156 29.421875 L 35.785156 19.585938 C 35.785156 18.476562 35.328125 17.664062 34.417969 17.136719 " clip-rule="nonzero"/></clipPath><clipPath id="87dbcc4511"><path d="M 0.519531 0.347656 L 9.800781 0.347656 L 9.800781 16.757812 L 0.519531 16.757812 Z M 0.519531 0.347656 " clip-rule="nonzero"/></clipPath><clipPath id="ac18f2294a"><path d="M 5.867188 13.390625 C 5.867188 13.9375 5.640625 14.203125 5.195312 14.203125 C 4.75 14.203125 4.511719 13.9375 4.511719 13.390625 L 4.511719 3.617188 C 4.511719 3.089844 4.738281 2.832031 5.195312 2.832031 C 5.648438 2.832031 5.867188 3.089844 5.867188 3.617188 Z M 8.417969 1.136719 C 7.503906 0.613281 6.445312 0.355469 5.242188 0.355469 C 4.210938 0.355469 3.359375 0.484375 2.667969 0.730469 L 2.667969 13.429688 L 0.585938 13.429688 C 0.652344 15.582031 2.199219 16.652344 5.242188 16.652344 C 8.269531 16.652344 9.785156 15.574219 9.785156 13.421875 L 9.785156 3.585938 C 9.785156 2.476562 9.328125 1.664062 8.417969 1.136719 " clip-rule="nonzero"/></clipPath><clipPath id="44d62887b5"><rect x="0" width="10" y="0" height="17"/></clipPath><clipPath id="baa7e984a4"><path d="M 26.476562 16.644531 L 28.699219 16.644531 L 28.699219 29.519531 L 26.476562 29.519531 Z M 26.476562 16.644531 " clip-rule="nonzero"/></clipPath><clipPath id="d75efe9fd3"><path d="M 28.675781 16.730469 C 27.289062 17.226562 26.59375 18.226562 26.59375 19.726562 L 26.59375 29.28125 C 26.59375 29.332031 26.605469 29.382812 26.605469 29.429688 L 28.6875 29.429688 Z M 28.675781 16.730469 " clip-rule="nonzero"/></clipPath><clipPath id="bdc5ca5e74"><path d="M 0.519531 0.644531 L 2.699219 0.644531 L 2.699219 13.519531 L 0.519531 13.519531 Z M 0.519531 0.644531 " clip-rule="nonzero"/></clipPath><clipPath id="2c51394148"><path d="M 2.675781 0.730469 C 1.289062 1.226562 0.59375 2.226562 0.59375 3.726562 L 0.59375 13.28125 C 0.59375 13.332031 0.605469 13.382812 0.605469 13.429688 L 2.6875 13.429688 Z M 2.675781 0.730469 " clip-rule="nonzero"/></clipPath><clipPath id="96197c082f"><rect x="0" width="3" y="0" height="14"/></clipPath><clipPath id="21b86d37a2"><path d="M 42.609375 5.691406 L 52.824219 5.691406 L 52.824219 31.890625 L 42.609375 31.890625 Z M 42.609375 5.691406 " clip-rule="nonzero"/></clipPath><clipPath id="d11d80391f"><path d="M 52.6875 29.085938 L 42.664062 31.769531 L 42.664062 8.433594 L 52.628906 5.765625 L 52.628906 8.757812 L 47.789062 10.058594 L 47.789062 16.375 L 52.152344 15.203125 L 52.152344 18.039062 L 47.789062 19.210938 L 47.789062 27.410156 L 52.6875 26.101562 Z M 52.6875 29.085938 " clip-rule="nonzero"/></clipPath><clipPath id="4f7a696bd9"><path d="M 0.609375 0.753906 L 10.808594 0.753906 L 10.808594 26.800781 L 0.609375 26.800781 Z M 0.609375 0.753906 " clip-rule="nonzero"/></clipPath><clipPath id="57dc49f98c"><path d="M 10.6875 24.085938 L 0.664062 26.769531 L 0.664062 3.433594 L 10.628906 0.765625 L 10.628906 3.757812 L 5.789062 5.058594 L 5.789062 11.375 L 10.152344 10.203125 L 10.152344 13.039062 L 5.789062 14.210938 L 5.789062 22.410156 L 10.6875 21.101562 Z M 10.6875 24.085938 " clip-rule="nonzero"/></clipPath><clipPath id="6761a42d54"><rect x="0" width="11" y="0" height="27"/></clipPath><clipPath id="0eb8eb91c7"><path d="M 54.597656 16.347656 L 63.921875 16.347656 L 63.921875 32.777344 L 54.597656 32.777344 Z M 54.597656 16.347656 " clip-rule="nonzero"/></clipPath><clipPath id="113d56814a"><path d="M 61.917969 26.167969 L 61.917969 25.523438 L 59.875 25.523438 L 59.875 29.390625 C 59.875 29.9375 59.660156 30.203125 59.210938 30.203125 C 58.765625 30.203125 58.539062 29.9375 58.539062 29.390625 L 58.539062 19.617188 C 58.539062 19.089844 58.765625 18.832031 59.210938 18.832031 C 59.648438 18.832031 59.875 19.089844 59.875 19.617188 L 59.875 23.53125 L 61.917969 23.53125 L 61.917969 16.769531 C 61.226562 16.492188 60.34375 16.355469 59.273438 16.355469 C 56.167969 16.355469 54.621094 17.472656 54.621094 19.726562 L 54.621094 29.28125 C 54.621094 31.53125 56.167969 32.652344 59.273438 32.652344 C 62.285156 32.652344 63.792969 31.574219 63.792969 29.421875 L 63.792969 29.085938 C 62.542969 28.570312 61.917969 27.597656 61.917969 26.167969 " clip-rule="nonzero"/></clipPath><clipPath id="95411f3b40"><path d="M 0.597656 0.347656 L 9.800781 0.347656 L 9.800781 16.757812 L 0.597656 16.757812 Z M 0.597656 0.347656 " clip-rule="nonzero"/></clipPath><clipPath id="61fc66ed9a"><path d="M 7.917969 10.167969 L 7.917969 9.523438 L 5.875 9.523438 L 5.875 13.390625 C 5.875 13.9375 5.660156 14.203125 5.210938 14.203125 C 4.765625 14.203125 4.539062 13.9375 4.539062 13.390625 L 4.539062 3.617188 C 4.539062 3.089844 4.765625 2.832031 5.210938 2.832031 C 5.648438 2.832031 5.875 3.089844 5.875 3.617188 L 5.875 7.53125 L 7.917969 7.53125 L 7.917969 0.769531 C 7.226562 0.492188 6.34375 0.355469 5.273438 0.355469 C 2.167969 0.355469 0.621094 1.472656 0.621094 3.726562 L 0.621094 13.28125 C 0.621094 15.53125 2.167969 16.652344 5.273438 16.652344 C 8.285156 16.652344 9.792969 15.574219 9.792969 13.421875 L 9.792969 13.085938 C 8.542969 12.570312 7.917969 11.597656 7.917969 10.167969 " clip-rule="nonzero"/></clipPath><clipPath id="f620d9f6b5"><rect x="0" width="10" y="0" height="17"/></clipPath><clipPath id="262c9a5a99"><path d="M 61.851562 13.242188 L 71.175781 13.242188 L 71.175781 29.667969 L 61.851562 29.667969 Z M 61.851562 13.242188 " clip-rule="nonzero"/></clipPath><clipPath id="b3a6bbfc74"><path d="M 67.203125 26.277344 C 67.203125 26.824219 66.976562 27.089844 66.527344 27.089844 C 66.074219 27.089844 65.84375 26.824219 65.84375 26.277344 L 65.84375 16.503906 C 65.84375 15.976562 66.074219 15.71875 66.527344 15.71875 C 66.976562 15.71875 67.203125 15.976562 67.203125 16.503906 Z M 69.75 14.023438 C 68.839844 13.5 67.777344 13.242188 66.578125 13.242188 C 63.464844 13.242188 61.917969 14.359375 61.917969 16.613281 L 61.917969 16.769531 C 63.167969 17.265625 63.792969 18.199219 63.792969 19.585938 L 63.792969 23.53125 L 61.917969 23.53125 L 61.917969 25.523438 L 63.792969 25.523438 L 63.792969 29.085938 C 64.515625 29.382812 65.4375 29.539062 66.578125 29.539062 C 69.601562 29.539062 71.121094 28.460938 71.121094 26.308594 L 71.121094 16.472656 C 71.121094 15.363281 70.664062 14.550781 69.75 14.023438 " clip-rule="nonzero"/></clipPath><clipPath id="ccaa01bc68"><path d="M 0.886719 0.242188 L 10.175781 0.242188 L 10.175781 16.648438 L 0.886719 16.648438 Z M 0.886719 0.242188 " clip-rule="nonzero"/></clipPath><clipPath id="c59863ba6f"><path d="M 6.203125 13.277344 C 6.203125 13.824219 5.976562 14.089844 5.527344 14.089844 C 5.074219 14.089844 4.84375 13.824219 4.84375 13.277344 L 4.84375 3.503906 C 4.84375 2.976562 5.074219 2.71875 5.527344 2.71875 C 5.976562 2.71875 6.203125 2.976562 6.203125 3.503906 Z M 8.75 1.023438 C 7.839844 0.5 6.777344 0.242188 5.578125 0.242188 C 2.464844 0.242188 0.917969 1.359375 0.917969 3.613281 L 0.917969 3.769531 C 2.167969 4.265625 2.792969 5.199219 2.792969 6.585938 L 2.792969 10.53125 L 0.917969 10.53125 L 0.917969 12.523438 L 2.792969 12.523438 L 2.792969 16.085938 C 3.515625 16.382812 4.4375 16.539062 5.578125 16.539062 C 8.601562 16.539062 10.121094 15.460938 10.121094 13.308594 L 10.121094 3.472656 C 10.121094 2.363281 9.664062 1.550781 8.75 1.023438 " clip-rule="nonzero"/></clipPath><clipPath id="1ba7e632e9"><rect x="0" width="11" y="0" height="17"/></clipPath><clipPath id="15a313823a"><path d="M 61.851562 16.644531 L 63.921875 16.644531 L 63.921875 23.601562 L 61.851562 23.601562 Z M 61.851562 16.644531 " clip-rule="nonzero"/></clipPath><clipPath id="ba5fc4cc06"><path d="M 63.800781 23.53125 L 63.800781 19.585938 C 63.800781 18.199219 63.179688 17.265625 61.929688 16.769531 L 61.929688 23.53125 Z M 63.800781 23.53125 " clip-rule="nonzero"/></clipPath><clipPath id="48f878ed6f"><path d="M 0.886719 0.746094 L 2.921875 0.746094 L 2.921875 7.601562 L 0.886719 7.601562 Z M 0.886719 0.746094 " clip-rule="nonzero"/></clipPath><clipPath id="cac7a661dd"><path d="M 2.800781 7.53125 L 2.800781 3.585938 C 2.800781 2.199219 2.179688 1.265625 0.929688 0.769531 L 0.929688 7.53125 Z M 2.800781 7.53125 " clip-rule="nonzero"/></clipPath><clipPath id="f27e4e250d"><rect x="0" width="3" y="0" height="8"/></clipPath><clipPath id="5184a4f97c"><path d="M 73.097656 9.097656 L 84.9375 9.097656 L 84.9375 33.8125 L 73.097656 33.8125 Z M 73.097656 9.097656 " clip-rule="nonzero"/></clipPath><clipPath id="abe9fb277d"><path d="M 73.25 25.316406 L 77.910156 24.066406 L 77.910156 29.421875 C 77.910156 29.957031 78.238281 30.136719 78.882812 29.957031 C 79.507812 29.789062 79.8125 29.441406 79.8125 28.90625 L 79.8125 26.140625 C 79.8125 25.296875 79.25 24.453125 78.117188 23.609375 C 75.9375 22.074219 74.578125 21.023438 74.054688 20.4375 C 73.527344 19.855469 73.25 19.128906 73.25 18.257812 L 73.25 15.640625 C 73.25 12.617188 75.222656 10.5625 79.179688 9.511719 C 82.71875 8.5625 84.492188 9.464844 84.492188 12.21875 L 84.492188 16.253906 L 79.835938 17.503906 L 79.835938 13.210938 C 79.835938 12.746094 79.578125 12.578125 79.050781 12.714844 C 78.445312 12.882812 78.140625 13.410156 78.140625 14.3125 L 78.238281 15.796875 C 78.238281 16.671875 78.8125 17.523438 79.964844 18.367188 C 82.105469 19.84375 83.472656 20.914062 84.046875 21.570312 C 84.621094 22.222656 84.921875 23.074219 84.921875 24.105469 L 84.921875 27.082031 C 84.921875 30.183594 82.9375 32.265625 78.972656 33.328125 C 75.144531 34.347656 73.230469 33.457031 73.230469 30.628906 Z M 73.25 25.316406 " clip-rule="nonzero"/></clipPath><clipPath id="f32176d68f"><path d="M 0.121094 0.0976562 L 11.9375 0.0976562 L 11.9375 24.8125 L 0.121094 24.8125 Z M 0.121094 0.0976562 " clip-rule="nonzero"/></clipPath><clipPath id="b56631625d"><path d="M 0.25 16.316406 L 4.910156 15.066406 L 4.910156 20.421875 C 4.910156 20.957031 5.238281 21.136719 5.882812 20.957031 C 6.507812 20.789062 6.8125 20.441406 6.8125 19.90625 L 6.8125 17.140625 C 6.8125 16.296875 6.25 15.453125 5.117188 14.609375 C 2.9375 13.074219 1.578125 12.023438 1.054688 11.4375 C 0.527344 10.855469 0.25 10.128906 0.25 9.257812 L 0.25 6.640625 C 0.25 3.617188 2.222656 1.5625 6.179688 0.511719 C 9.71875 -0.4375 11.492188 0.464844 11.492188 3.21875 L 11.492188 7.253906 L 6.835938 8.503906 L 6.835938 4.210938 C 6.835938 3.746094 6.578125 3.578125 6.050781 3.714844 C 5.445312 3.882812 5.140625 4.410156 5.140625 5.3125 L 5.238281 6.796875 C 5.238281 7.671875 5.8125 8.523438 6.964844 9.367188 C 9.105469 10.84375 10.472656 11.914062 11.046875 12.570312 C 11.621094 13.222656 11.921875 14.074219 11.921875 15.105469 L 11.921875 18.082031 C 11.921875 21.183594 9.9375 23.265625 5.972656 24.328125 C 2.144531 25.347656 0.230469 24.457031 0.230469 21.628906 Z M 0.25 16.316406 " clip-rule="nonzero"/></clipPath><clipPath id="ca38131125"><rect x="0" width="12" y="0" height="25"/></clipPath><clipPath id="78189793b8"><path d="M 5.164062 7.617188 L 10.34375 7.617188 L 10.34375 32.480469 L 5.164062 32.480469 Z M 5.164062 7.617188 " clip-rule="nonzero"/></clipPath><clipPath id="4a0f238ec0"><path d="M 10.253906 31.066406 L 5.238281 32.40625 L 5.238281 9.066406 L 10.253906 7.726562 Z M 10.253906 31.066406 " clip-rule="nonzero"/></clipPath><clipPath id="a9fff9ed4f"><path d="M 0.164062 0.664062 L 5.269531 0.664062 L 5.269531 25.480469 L 0.164062 25.480469 Z M 0.164062 0.664062 " clip-rule="nonzero"/></clipPath><clipPath id="82c49daeed"><path d="M 5.253906 24.066406 L 0.238281 25.40625 L 0.238281 2.066406 L 5.253906 0.726562 Z M 5.253906 24.066406 " clip-rule="nonzero"/></clipPath><clipPath id="8254870eb9"><rect x="0" width="6" y="0" height="26"/></clipPath><clipPath id="a7ec011097"><path d="M 37.429688 27.746094 L 40.835938 27.746094 L 40.835938 31.148438 L 37.429688 31.148438 Z M 37.429688 27.746094 " clip-rule="nonzero"/></clipPath><clipPath id="e59d7b0fbb"><path d="M 40.792969 31.027344 L 37.550781 31.027344 L 37.550781 27.785156 L 40.800781 27.785156 Z M 40.792969 31.027344 " clip-rule="nonzero"/></clipPath><clipPath id="b4dff624eb"><path d="M 0.511719 0.746094 L 3.835938 0.746094 L 3.835938 4.082031 L 0.511719 4.082031 Z M 0.511719 0.746094 " clip-rule="nonzero"/></clipPath><clipPath id="1286857887"><path d="M 3.792969 4.027344 L 0.550781 4.027344 L 0.550781 0.785156 L 3.800781 0.785156 Z M 3.792969 4.027344 " clip-rule="nonzero"/></clipPath><clipPath id="5ce9c50520"><rect x="0" width="4" y="0" height="5"/></clipPath><clipPath id="61ad052a11"><path d="M 61.851562 25.523438 L 63.921875 25.523438 L 63.921875 29.226562 L 61.851562 29.226562 Z M 61.851562 25.523438 " clip-rule="nonzero"/></clipPath><clipPath id="47a685c038"><path d="M 61.917969 25.523438 L 61.917969 26.167969 C 61.917969 27.597656 62.542969 28.570312 63.792969 29.085938 L 63.792969 25.523438 Z M 61.917969 25.523438 " clip-rule="nonzero"/></clipPath><clipPath id="ea8dabe02f"><path d="M 0.886719 0.523438 L 2.800781 0.523438 L 2.800781 4.171875 L 0.886719 4.171875 Z M 0.886719 0.523438 " clip-rule="nonzero"/></clipPath><clipPath id="c55641b80c"><path d="M 0.917969 0.523438 L 0.917969 1.167969 C 0.917969 2.597656 1.542969 3.570312 2.792969 4.085938 L 2.792969 0.523438 Z M 0.917969 0.523438 " clip-rule="nonzero"/></clipPath><clipPath id="7ac227b8a7"><rect x="0" width="3" y="0" height="5"/></clipPath><clipPath id="ac476ce796"><path d="M 17 35 L 75 35 L 75 42.316406 L 17 42.316406 Z M 17 35 " clip-rule="nonzero"/></clipPath><clipPath id="dd2371acf6"><path d="M 0.203125 1 L 6 1 L 6 7 L 0.203125 7 Z M 0.203125 1 " clip-rule="nonzero"/></clipPath><clipPath id="b250f435b7"><rect x="0" width="58" y="0" height="8"/></clipPath><clipPath id="34aa2274c0"><rect x="0" width="97" y="0" height="43"/></clipPath></defs><g transform="matrix(1, 0, 0, 1, 8, 5)"><g clip-path="url(#34aa2274c0)"><g clip-path="url(#241539c7ab)"><g clip-path="url(#f952dc38c2)"><g transform="matrix(1, 0, 0, 1, 86, 9)"><g clip-path="url(#307cd20e03)"><g clip-path="url(#54e6a68fef)"><g clip-path="url(#464ab4e27f)"><rect x="-133.585" width="187.92" fill="#9fa0a0" y="-35.020999" height="99.791995" fill-opacity="1"/></g></g></g></g></g></g><g clip-path="url(#48be920f10)"><g clip-path="url(#2bdc1f4b17)"><g transform="matrix(1, 0, 0, 1, 88, 9)"><g clip-path="url(#d9cad0100f)"><g clip-path="url(#af3159dfb3)"><g clip-path="url(#45a2f503c8)"><rect x="-135.585" width="187.92" fill="#9fa0a0" y="-35.020999" height="99.791995" fill-opacity="1"/></g></g></g></g></g></g><g clip-path="url(#21feea0723)"><g clip-path="url(#82d4019a19)"><g transform="matrix(1, 0, 0, 1, 12, 16)"><g clip-path="url(#3b6ed38138)"><g clip-path="url(#82d694b9df)"><g clip-path="url(#43b6f80054)"><rect x="-59.585" width="187.92" fill="#de561b" y="-42.020999" height="99.791995" fill-opacity="1"/></g></g></g></g></g></g><g clip-path="url(#1ac70deb8a)"><g clip-path="url(#84bec24161)"><g transform="matrix(1, 0, 0, 1, 19, 13)"><g clip-path="url(#03207a0a5d)"><g clip-path="url(#4ab19fe7f2)"><g clip-path="url(#af39de367b)"><rect x="-66.585" width="187.92" fill="#efb135" y="-39.020999" height="99.791995" fill-opacity="1"/></g></g></g></g></g></g><g clip-path="url(#a8b02569ea)"><g clip-path="url(#8467882e5c)"><g transform="matrix(1, 0, 0, 1, 19, 16)"><g clip-path="url(#195e8eb4a3)"><g clip-path="url(#d12a875c9e)"><g clip-path="url(#42dfd8f1c1)"><rect x="-66.585" width="187.92" fill="#b84721" y="-42.020999" height="99.791995" fill-opacity="1"/></g></g></g></g></g></g><g clip-path="url(#ae6172c88e)"><g clip-path="url(#bdba81bb03)"><g transform="matrix(1, 0, 0, 1, 26, 16)"><g clip-path="url(#44d62887b5)"><g clip-path="url(#87dbcc4511)"><g clip-path="url(#ac18f2294a)"><rect x="-73.585" width="187.92" fill="#8aba2a" y="-42.020999" height="99.791995" fill-opacity="1"/></g></g></g></g></g></g><g clip-path="url(#baa7e984a4)"><g clip-path="url(#d75efe9fd3)"><g transform="matrix(1, 0, 0, 1, 26, 16)"><g clip-path="url(#96197c082f)"><g clip-path="url(#bdc5ca5e74)"><g clip-path="url(#2c51394148)"><rect x="-73.585" width="187.92" fill="#739d2f" y="-42.020999" height="99.791995" fill-opacity="1"/></g></g></g></g></g></g><g clip-path="url(#21b86d37a2)"><g clip-path="url(#d11d80391f)"><g transform="matrix(1, 0, 0, 1, 42, 5)"><g clip-path="url(#6761a42d54)"><g clip-path="url(#4f7a696bd9)"><g clip-path="url(#57dc49f98c)"><rect x="-89.585" width="187.92" fill="#035a30" y="-31.020999" height="99.791995" fill-opacity="1"/></g></g></g></g></g></g><g clip-path="url(#0eb8eb91c7)"><g clip-path="url(#113d56814a)"><g transform="matrix(1, 0, 0, 1, 54, 16)"><g clip-path="url(#f620d9f6b5)"><g clip-path="url(#95411f3b40)"><g clip-path="url(#61fc66ed9a)"><rect x="-101.585" width="187.92" fill="#109b94" y="-42.020999" height="99.791995" fill-opacity="1"/></g></g></g></g></g></g><g clip-path="url(#262c9a5a99)"><g clip-path="url(#b3a6bbfc74)"><g transform="matrix(1, 0, 0, 1, 61, 13)"><g clip-path="url(#1ba7e632e9)"><g clip-path="url(#ccaa01bc68)"><g clip-path="url(#c59863ba6f)"><rect x="-108.585" width="187.92" fill="#359dd1" y="-39.020999" height="99.791995" fill-opacity="1"/></g></g></g></g></g></g><g clip-path="url(#15a313823a)"><g clip-path="url(#ba5fc4cc06)"><g transform="matrix(1, 0, 0, 1, 61, 16)"><g clip-path="url(#f27e4e250d)"><g clip-path="url(#48f878ed6f)"><g clip-path="url(#cac7a661dd)"><rect x="-108.585" width="187.92" fill="#11808f" y="-42.020999" height="99.791995" fill-opacity="1"/></g></g></g></g></g></g><g clip-path="url(#5184a4f97c)"><g clip-path="url(#abe9fb277d)"><g transform="matrix(1, 0, 0, 1, 73, 9)"><g clip-path="url(#ca38131125)"><g clip-path="url(#f32176d68f)"><g clip-path="url(#b56631625d)"><rect x="-120.585" width="187.92" fill="#173262" y="-35.020999" height="99.791995" fill-opacity="1"/></g></g></g></g></g></g><g clip-path="url(#78189793b8)"><g clip-path="url(#4a0f238ec0)"><g transform="matrix(1, 0, 0, 1, 5, 7)"><g clip-path="url(#8254870eb9)"><g clip-path="url(#a9fff9ed4f)"><g clip-path="url(#82c49daeed)"><rect x="-52.585" width="187.92" fill="#b41e23" y="-33.020999" height="99.791995" fill-opacity="1"/></g></g></g></g></g></g><g clip-path="url(#a7ec011097)"><g clip-path="url(#e59d7b0fbb)"><g transform="matrix(1, 0, 0, 1, 37, 27)"><g clip-path="url(#5ce9c50520)"><g clip-path="url(#b4dff624eb)"><g clip-path="url(#1286857887)"><rect x="-84.585" width="187.92" fill="#8aba2a" y="-53.020999" height="99.791995" fill-opacity="1"/></g></g></g></g></g></g><g clip-path="url(#61ad052a11)"><g clip-path="url(#47a685c038)"><g transform="matrix(1, 0, 0, 1, 61, 25)"><g clip-path="url(#7ac227b8a7)"><g clip-path="url(#ea8dabe02f)"><g clip-path="url(#c55641b80c)"><rect x="-108.585" width="187.92" fill="#11808f" y="-51.020999" height="99.791995" fill-opacity="1"/></g></g></g></g></g></g><g clip-path="url(#ac476ce796)"><g transform="matrix(1, 0, 0, 1, 17, 35)"><g clip-path="url(#b250f435b7)"><g clip-path="url(#dd2371acf6)"><g fill="#ffffff" fill-opacity="1"><g transform="translate(0.258087, 5.919161)"><g><path d="M 2.9375 -1.757812 L 2.9375 -3.210938 L 4.511719 -3.210938 L 4.511719 -1.757812 Z M 0.949219 -1.757812 L 0.949219 -3.210938 L 2.515625 -3.210938 L 2.515625 -1.757812 Z M 2.9375 -3.613281 L 2.9375 -4.589844 L 2.515625 -4.589844 L 2.515625 -3.613281 L 0.546875 -3.613281 L 0.546875 -1.019531 L 0.949219 -1.019531 L 0.949219 -1.359375 L 2.515625 -1.359375 L 2.515625 0.417969 L 2.9375 0.417969 L 2.9375 -1.359375 L 4.511719 -1.359375 L 4.511719 -1.046875 L 4.929688 -1.046875 L 4.929688 -3.613281 Z M 2.9375 -3.613281 "/></g></g></g></g><g fill="#ffffff" fill-opacity="1"><g transform="translate(7.383995, 5.919161)"><g><path d="M 1.246094 -4.363281 C 1.464844 -4.078125 1.695312 -3.679688 1.785156 -3.421875 L 2.148438 -3.617188 C 2.050781 -3.871094 1.8125 -4.253906 1.585938 -4.53125 Z M 5.109375 -1.644531 L 5.109375 -2.042969 L 2.976562 -2.042969 C 2.980469 -2.148438 2.988281 -2.246094 2.988281 -2.351562 L 2.988281 -3.019531 L 4.8125 -3.019531 L 4.8125 -3.421875 L 3.726562 -3.421875 C 3.925781 -3.714844 4.144531 -4.089844 4.324219 -4.414062 L 3.890625 -4.566406 C 3.75 -4.222656 3.503906 -3.75 3.289062 -3.421875 L 0.722656 -3.421875 L 0.722656 -3.019531 L 2.53125 -3.019531 L 2.53125 -2.355469 C 2.53125 -2.253906 2.527344 -2.152344 2.519531 -2.042969 L 0.394531 -2.042969 L 0.394531 -1.644531 L 2.4375 -1.644531 C 2.265625 -1.058594 1.742188 -0.4375 0.285156 0.0585938 C 0.394531 0.140625 0.519531 0.316406 0.574219 0.410156 C 1.980469 -0.078125 2.578125 -0.707031 2.824219 -1.335938 C 3.273438 -0.5 3.992188 0.0976562 4.960938 0.378906 C 5.015625 0.257812 5.148438 0.0859375 5.246094 -0.00390625 C 4.25 -0.253906 3.503906 -0.84375 3.089844 -1.644531 Z M 5.109375 -1.644531 "/></g></g></g><g fill="#ffffff" fill-opacity="1"><g transform="translate(14.509903, 5.919161)"><g><path d="M 1.59375 -3.144531 L 2.285156 -3.144531 L 2.285156 -3.53125 L 1.59375 -3.53125 L 1.59375 -4.582031 L 1.199219 -4.582031 L 1.199219 -3.53125 L 0.378906 -3.53125 L 0.378906 -3.144531 L 1.160156 -3.144531 C 0.980469 -2.390625 0.609375 -1.5 0.234375 -1.019531 C 0.300781 -0.925781 0.410156 -0.765625 0.460938 -0.652344 C 0.734375 -1.015625 0.992188 -1.585938 1.199219 -2.171875 L 1.199219 0.417969 L 1.59375 0.417969 L 1.59375 -2.4375 C 1.796875 -2.144531 2.050781 -1.757812 2.164062 -1.558594 L 2.402344 -1.933594 C 2.292969 -2.097656 1.785156 -2.742188 1.59375 -2.964844 Z M 5.222656 -3.382812 L 4.476562 -3.382812 L 4.476562 -4.570312 L 4.078125 -4.570312 L 4.078125 -3.382812 L 2.472656 -3.382812 L 2.472656 -2.980469 L 4.078125 -2.980469 L 4.078125 -0.171875 C 4.078125 -0.0585938 4.027344 -0.0273438 3.914062 -0.0234375 C 3.796875 -0.015625 3.410156 -0.0117188 2.988281 -0.0273438 C 3.046875 0.0859375 3.113281 0.28125 3.136719 0.394531 C 3.695312 0.394531 4.023438 0.382812 4.214844 0.3125 C 4.402344 0.246094 4.476562 0.121094 4.476562 -0.175781 L 4.476562 -2.980469 L 5.222656 -2.980469 Z M 3.632812 -1.199219 C 3.519531 -1.539062 3.25 -2.0625 2.992188 -2.460938 L 2.648438 -2.3125 C 2.894531 -1.917969 3.15625 -1.382812 3.273438 -1.035156 Z M 3.632812 -1.199219 "/></g></g></g><g fill="#ffffff" fill-opacity="1"><g transform="translate(21.635811, 5.919161)"><g><path d="M 1.425781 -1.429688 C 1.199219 -0.914062 0.8125 -0.40625 0.410156 -0.0703125 C 0.511719 -0.00390625 0.679688 0.121094 0.757812 0.199219 C 1.152344 -0.175781 1.566406 -0.75 1.824219 -1.328125 Z M 4.769531 -1.871094 L 4.773438 -2.265625 L 3.191406 -2.265625 L 3.191406 -3.0625 L 2.785156 -3.0625 L 2.785156 -2.265625 L 1.492188 -2.265625 C 1.75 -2.621094 2.011719 -3.035156 2.253906 -3.476562 L 5 -3.476562 L 5 -3.863281 L 2.460938 -3.863281 C 2.558594 -4.050781 2.652344 -4.25 2.734375 -4.433594 L 2.3125 -4.617188 C 2.210938 -4.363281 2.09375 -4.105469 1.96875 -3.863281 L 0.445312 -3.863281 L 0.445312 -3.476562 L 1.765625 -3.476562 C 1.546875 -3.082031 1.34375 -2.761719 1.25 -2.636719 C 1.078125 -2.394531 0.964844 -2.242188 0.839844 -2.210938 C 0.894531 -2.09375 0.964844 -1.878906 0.992188 -1.785156 C 1.042969 -1.839844 1.253906 -1.871094 1.578125 -1.871094 L 2.785156 -1.871094 L 2.785156 -0.140625 C 2.785156 -0.0664062 2.757812 -0.0429688 2.675781 -0.0390625 C 2.585938 -0.03125 2.296875 -0.03125 1.980469 -0.0429688 C 2.042969 0.0703125 2.117188 0.257812 2.132812 0.371094 C 2.519531 0.371094 2.800781 0.363281 2.972656 0.289062 C 3.136719 0.226562 3.191406 0.105469 3.191406 -0.136719 L 3.191406 -1.871094 Z M 3.640625 -1.273438 C 4.066406 -0.84375 4.554688 -0.246094 4.769531 0.125 L 5.136719 -0.0703125 C 4.90625 -0.453125 4.402344 -1.03125 3.972656 -1.441406 Z M 3.640625 -1.273438 "/></g></g></g><g fill="#ffffff" fill-opacity="1"><g transform="translate(28.761719, 5.919161)"><g><path d="M 5.191406 -2.390625 L 4.011719 -2.390625 L 4.011719 -4.476562 L 3.601562 -4.476562 L 3.601562 -2.390625 L 1.933594 -2.390625 L 1.933594 -3.734375 C 2.339844 -3.863281 2.71875 -4.007812 3.027344 -4.164062 L 2.71875 -4.5 C 2.175781 -4.171875 1.210938 -3.871094 0.34375 -3.667969 C 0.40625 -3.585938 0.472656 -3.4375 0.492188 -3.339844 C 0.832031 -3.414062 1.183594 -3.507812 1.535156 -3.605469 L 1.535156 -2.390625 L 0.300781 -2.390625 L 0.300781 -1.996094 L 1.53125 -1.996094 C 1.484375 -1.210938 1.261719 -0.445312 0.246094 0.125 C 0.335938 0.191406 0.476562 0.339844 0.539062 0.433594 C 1.648438 -0.203125 1.886719 -1.089844 1.929688 -1.996094 L 3.601562 -1.996094 L 3.601562 0.421875 L 4.011719 0.421875 L 4.011719 -1.996094 L 5.191406 -1.996094 Z M 5.191406 -2.390625 "/></g></g></g><g fill="#ffffff" fill-opacity="1"><g transform="translate(35.887627, 5.919161)"><g><path d="M 3.910156 -3.457031 C 3.726562 -3.6875 3.34375 -4 3.015625 -4.210938 L 2.757812 -3.972656 C 3.082031 -3.75 3.457031 -3.425781 3.628906 -3.195312 Z M 3.777344 -2.015625 C 3.574219 -2.253906 3.144531 -2.578125 2.796875 -2.789062 L 2.542969 -2.550781 C 2.890625 -2.328125 3.3125 -1.988281 3.507812 -1.75 Z M 2.335938 -1.628906 C 2.21875 -1.777344 1.75 -2.378906 1.578125 -2.570312 L 1.578125 -2.667969 L 2.382812 -2.667969 L 2.382812 -3.054688 L 1.578125 -3.054688 L 1.578125 -3.96875 C 1.839844 -4.027344 2.09375 -4.105469 2.296875 -4.1875 L 2.050781 -4.511719 C 1.640625 -4.332031 0.921875 -4.171875 0.308594 -4.074219 C 0.351562 -3.984375 0.40625 -3.84375 0.425781 -3.753906 C 0.667969 -3.789062 0.925781 -3.832031 1.179688 -3.878906 L 1.179688 -3.054688 L 0.257812 -3.054688 L 0.257812 -2.667969 L 1.125 -2.667969 C 0.910156 -2.039062 0.527344 -1.335938 0.179688 -0.949219 C 0.246094 -0.855469 0.34375 -0.691406 0.382812 -0.582031 C 0.667969 -0.921875 0.953125 -1.464844 1.179688 -2.011719 L 1.179688 0.410156 L 1.578125 0.410156 L 1.578125 -2.125 C 1.765625 -1.847656 1.996094 -1.492188 2.089844 -1.308594 Z M 5.269531 -1.132812 L 5.207031 -1.507812 L 4.566406 -1.410156 L 4.566406 -4.589844 L 4.164062 -4.589844 L 4.164062 -1.34375 L 2.3125 -1.046875 L 2.378906 -0.65625 L 4.164062 -0.953125 L 4.164062 0.410156 L 4.566406 0.410156 L 4.566406 -1.019531 Z M 5.269531 -1.132812 "/></g></g></g><g fill="#ffffff" fill-opacity="1"><g transform="translate(43.013535, 5.919161)"><g><path d="M 2 -2.191406 C 1.796875 -2.132812 1.589844 -2.070312 1.390625 -2.015625 L 1.390625 -3.101562 L 2 -3.101562 L 2 -3.484375 L 1.390625 -3.484375 L 1.390625 -4.582031 L 0.992188 -4.582031 L 0.992188 -3.484375 L 0.289062 -3.484375 L 0.289062 -3.101562 L 0.992188 -3.101562 L 0.992188 -1.90625 C 0.703125 -1.824219 0.4375 -1.757812 0.21875 -1.710938 L 0.335938 -1.308594 L 0.992188 -1.5 L 0.992188 -0.0703125 C 0.992188 0.00390625 0.964844 0.03125 0.882812 0.03125 C 0.816406 0.0390625 0.582031 0.0390625 0.316406 0.03125 C 0.371094 0.140625 0.433594 0.300781 0.449219 0.40625 C 0.820312 0.410156 1.050781 0.398438 1.191406 0.335938 C 1.332031 0.269531 1.390625 0.160156 1.390625 -0.0703125 L 1.390625 -1.621094 C 1.605469 -1.6875 1.832031 -1.753906 2.050781 -1.820312 Z M 4.441406 -2.152344 C 4.242188 -1.65625 3.9375 -1.234375 3.558594 -0.894531 C 3.210938 -1.246094 2.9375 -1.675781 2.75 -2.152344 Z M 4.699219 -2.550781 L 4.632812 -2.53125 L 3.761719 -2.53125 L 3.761719 -3.347656 L 5.070312 -3.347656 L 5.070312 -3.726562 L 3.761719 -3.726562 L 3.761719 -4.589844 L 3.359375 -4.589844 L 3.359375 -3.726562 L 2.078125 -3.726562 L 2.078125 -3.347656 L 3.359375 -3.347656 L 3.359375 -2.53125 L 2.1875 -2.53125 L 2.1875 -2.152344 L 2.367188 -2.152344 L 2.351562 -2.148438 C 2.566406 -1.5625 2.867188 -1.058594 3.25 -0.648438 C 2.804688 -0.324219 2.296875 -0.09375 1.765625 0.0507812 C 1.839844 0.136719 1.941406 0.308594 1.984375 0.417969 C 2.542969 0.242188 3.074219 -0.0117188 3.539062 -0.367188 C 3.945312 -0.0117188 4.433594 0.253906 5.003906 0.425781 C 5.066406 0.316406 5.179688 0.160156 5.269531 0.078125 C 4.71875 -0.0703125 4.25 -0.308594 3.851562 -0.628906 C 4.347656 -1.085938 4.734375 -1.683594 4.964844 -2.433594 Z M 4.699219 -2.550781 "/></g></g></g><g fill="#ffffff" fill-opacity="1"><g transform="translate(50.139443, 5.919161)"><g><path d="M 4.046875 -3.398438 L 1.445312 -3.398438 L 1.445312 -3.0625 L 4.046875 -3.0625 Z M 3.492188 -0.867188 C 3.359375 -0.867188 3.339844 -0.882812 3.339844 -1.007812 L 3.339844 -2.121094 L 4.363281 -2.121094 L 4.363281 -2.464844 L 1.089844 -2.464844 L 1.089844 -2.121094 L 1.980469 -2.121094 C 1.917969 -1.34375 1.742188 -0.914062 1.007812 -0.664062 C 1.085938 -0.597656 1.191406 -0.449219 1.226562 -0.367188 C 2.070312 -0.675781 2.285156 -1.207031 2.351562 -2.121094 L 2.980469 -2.121094 L 2.980469 -1.003906 C 2.980469 -0.636719 3.070312 -0.53125 3.449219 -0.53125 L 3.980469 -0.53125 C 4.285156 -0.53125 4.386719 -0.683594 4.417969 -1.265625 C 4.320312 -1.292969 4.171875 -1.347656 4.101562 -1.410156 C 4.089844 -0.933594 4.0625 -0.867188 3.941406 -0.867188 Z M 0.871094 -0.214844 L 0.871094 -3.945312 L 4.605469 -3.945312 L 4.605469 -0.214844 Z M 0.472656 -4.332031 L 0.472656 0.421875 L 0.871094 0.421875 L 0.871094 0.171875 L 4.605469 0.171875 L 4.605469 0.421875 L 5.019531 0.421875 L 5.019531 -4.332031 Z M 0.472656 -4.332031 "/></g></g></g></g></g></g></g></g></svg>