<svg xmlns="http://www.w3.org/2000/svg" xmlns:xlink="http://www.w3.org/1999/xlink" width="160" zoomAndPan="magnify" viewBox="0 0 120 67.499998" height="90" preserveAspectRatio="xMidYMid meet" version="1.0"><defs><filter x="0%" y="0%" width="100%" height="100%" id="097d86f007"><feColorMatrix values="0 0 0 0 1 0 0 0 0 1 0 0 0 0 1 0 0 0 1 0" color-interpolation-filters="sRGB"/></filter><g/><clipPath id="a61988e297"><path d="M 0.441406 0 L 119.558594 0 L 119.558594 67.003906 L 0.441406 67.003906 Z M 0.441406 0 " clip-rule="nonzero"/></clipPath><clipPath id="8e26164a82"><path d="M 0.441406 0 L 119.558594 0 L 119.558594 67.003906 L 0.441406 67.003906 Z M 0.441406 0 " clip-rule="nonzero"/></clipPath><clipPath id="bbd5f7e53e"><path d="M 0.441406 0 L 119.558594 0 L 119.558594 67.003906 L 0.441406 67.003906 Z M 0.441406 0 " clip-rule="nonzero"/></clipPath><clipPath id="976768f6bd"><path d="M 0.441406 0 L 119.558594 0 L 119.558594 67.003906 L 0.441406 67.003906 Z M 0.441406 0 " clip-rule="nonzero"/></clipPath><linearGradient x1="19.042441" gradientTransform="matrix(0.744055, 0, 0, 0.744861, -2.027096, 14.638136)" y1="86.027561" x2="144.065957" gradientUnits="userSpaceOnUse" y2="-38.995966" id="74f44bf08c"><stop stop-opacity="1" stop-color="rgb(0%, 49.01886%, 68.629456%)" offset="0"/><stop stop-opacity="1" stop-color="rgb(0%, 49.01886%, 68.629456%)" offset="0.125"/><stop stop-opacity="1" stop-color="rgb(0%, 49.01886%, 68.629456%)" offset="0.15625"/><stop stop-opacity="1" stop-color="rgb(0%, 49.01886%, 68.629456%)" offset="0.171875"/><stop stop-opacity="1" stop-color="rgb(0.518799%, 48.986816%, 68.725586%)" offset="0.175781"/><stop stop-opacity="1" stop-color="rgb(1.037598%, 48.956299%, 68.821716%)" offset="0.179688"/><stop stop-opacity="1" stop-color="rgb(2.012634%, 48.89679%, 69.003296%)" offset="0.183594"/><stop stop-opacity="1" stop-color="rgb(2.987671%, 48.838806%, 69.184875%)" offset="0.1875"/><stop stop-opacity="1" stop-color="rgb(3.962708%, 48.779297%, 69.366455%)" offset="0.191406"/><stop stop-opacity="1" stop-color="rgb(4.937744%, 48.721313%, 69.548035%)" offset="0.195312"/><stop stop-opacity="1" stop-color="rgb(5.912781%, 48.661804%, 69.728088%)" offset="0.199219"/><stop stop-opacity="1" stop-color="rgb(6.889343%, 48.603821%, 69.909668%)" offset="0.203125"/><stop stop-opacity="1" stop-color="rgb(7.86438%, 48.544312%, 70.091248%)" offset="0.207031"/><stop stop-opacity="1" stop-color="rgb(8.839417%, 48.486328%, 70.272827%)" offset="0.210938"/><stop stop-opacity="1" stop-color="rgb(9.814453%, 48.426819%, 70.454407%)" offset="0.214844"/><stop stop-opacity="1" stop-color="rgb(10.78949%, 48.36731%, 70.635986%)" offset="0.21875"/><stop stop-opacity="1" stop-color="rgb(11.764526%, 48.3078%, 70.81604%)" offset="0.222656"/><stop stop-opacity="1" stop-color="rgb(12.739563%, 48.249817%, 70.99762%)" offset="0.226563"/><stop stop-opacity="1" stop-color="rgb(13.7146%, 48.190308%, 71.179199%)" offset="0.230469"/><stop stop-opacity="1" stop-color="rgb(14.689636%, 48.132324%, 71.360779%)" offset="0.234375"/><stop stop-opacity="1" stop-color="rgb(15.664673%, 48.072815%, 71.542358%)" offset="0.238281"/><stop stop-opacity="1" stop-color="rgb(16.641235%, 48.014832%, 71.723938%)" offset="0.242188"/><stop stop-opacity="1" stop-color="rgb(17.616272%, 47.955322%, 71.903992%)" offset="0.246094"/><stop stop-opacity="1" stop-color="rgb(18.591309%, 47.897339%, 72.085571%)" offset="0.25"/><stop stop-opacity="1" stop-color="rgb(19.566345%, 47.83783%, 72.267151%)" offset="0.253906"/><stop stop-opacity="1" stop-color="rgb(20.541382%, 47.779846%, 72.44873%)" offset="0.257812"/><stop stop-opacity="1" stop-color="rgb(21.516418%, 47.720337%, 72.63031%)" offset="0.261719"/><stop stop-opacity="1" stop-color="rgb(22.491455%, 47.662354%, 72.81189%)" offset="0.265625"/><stop stop-opacity="1" stop-color="rgb(23.466492%, 47.602844%, 72.991943%)" offset="0.269531"/><stop stop-opacity="1" stop-color="rgb(24.441528%, 47.543335%, 73.173523%)" offset="0.273438"/><stop stop-opacity="1" stop-color="rgb(25.416565%, 47.483826%, 73.355103%)" offset="0.277344"/><stop stop-opacity="1" stop-color="rgb(26.393127%, 47.425842%, 73.536682%)" offset="0.28125"/><stop stop-opacity="1" stop-color="rgb(27.368164%, 47.366333%, 73.718262%)" offset="0.285156"/><stop stop-opacity="1" stop-color="rgb(28.343201%, 47.30835%, 73.899841%)" offset="0.289063"/><stop stop-opacity="1" stop-color="rgb(29.318237%, 47.24884%, 74.079895%)" offset="0.292969"/><stop stop-opacity="1" stop-color="rgb(30.293274%, 47.190857%, 74.261475%)" offset="0.296875"/><stop stop-opacity="1" stop-color="rgb(31.268311%, 47.131348%, 74.443054%)" offset="0.300781"/><stop stop-opacity="1" stop-color="rgb(32.243347%, 47.073364%, 74.624634%)" offset="0.304688"/><stop stop-opacity="1" stop-color="rgb(33.218384%, 47.013855%, 74.806213%)" offset="0.308594"/><stop stop-opacity="1" stop-color="rgb(34.19342%, 46.955872%, 74.987793%)" offset="0.3125"/><stop stop-opacity="1" stop-color="rgb(35.168457%, 46.896362%, 75.167847%)" offset="0.316406"/><stop stop-opacity="1" stop-color="rgb(36.14502%, 46.838379%, 75.349426%)" offset="0.320313"/><stop stop-opacity="1" stop-color="rgb(37.120056%, 46.77887%, 75.531006%)" offset="0.324219"/><stop stop-opacity="1" stop-color="rgb(38.095093%, 46.71936%, 75.712585%)" offset="0.328125"/><stop stop-opacity="1" stop-color="rgb(39.070129%, 46.659851%, 75.892639%)" offset="0.332031"/><stop stop-opacity="1" stop-color="rgb(40.045166%, 46.601868%, 76.074219%)" offset="0.335938"/><stop stop-opacity="1" stop-color="rgb(41.020203%, 46.542358%, 76.255798%)" offset="0.339844"/><stop stop-opacity="1" stop-color="rgb(41.995239%, 46.484375%, 76.437378%)" offset="0.34375"/><stop stop-opacity="1" stop-color="rgb(42.970276%, 46.424866%, 76.618958%)" offset="0.347656"/><stop stop-opacity="1" stop-color="rgb(43.945312%, 46.366882%, 76.800537%)" offset="0.351563"/><stop stop-opacity="1" stop-color="rgb(44.920349%, 46.307373%, 76.980591%)" offset="0.355469"/><stop stop-opacity="1" stop-color="rgb(45.896912%, 46.24939%, 77.16217%)" offset="0.359375"/><stop stop-opacity="1" stop-color="rgb(46.871948%, 46.18988%, 77.34375%)" offset="0.363281"/><stop stop-opacity="1" stop-color="rgb(47.846985%, 46.131897%, 77.52533%)" offset="0.367188"/><stop stop-opacity="1" stop-color="rgb(48.822021%, 46.072388%, 77.706909%)" offset="0.371094"/><stop stop-opacity="1" stop-color="rgb(49.797058%, 46.014404%, 77.888489%)" offset="0.375"/><stop stop-opacity="1" stop-color="rgb(50.772095%, 45.954895%, 78.068542%)" offset="0.378906"/><stop stop-opacity="1" stop-color="rgb(51.747131%, 45.895386%, 78.250122%)" offset="0.382812"/><stop stop-opacity="1" stop-color="rgb(52.722168%, 45.835876%, 78.431702%)" offset="0.386719"/><stop stop-opacity="1" stop-color="rgb(53.697205%, 45.777893%, 78.613281%)" offset="0.390625"/><stop stop-opacity="1" stop-color="rgb(54.672241%, 45.718384%, 78.794861%)" offset="0.394531"/><stop stop-opacity="1" stop-color="rgb(55.648804%, 45.6604%, 78.97644%)" offset="0.398438"/><stop stop-opacity="1" stop-color="rgb(56.62384%, 45.600891%, 79.156494%)" offset="0.402344"/><stop stop-opacity="1" stop-color="rgb(57.598877%, 45.542908%, 79.338074%)" offset="0.40625"/><stop stop-opacity="1" stop-color="rgb(58.573914%, 45.483398%, 79.519653%)" offset="0.410156"/><stop stop-opacity="1" stop-color="rgb(59.54895%, 45.425415%, 79.701233%)" offset="0.414063"/><stop stop-opacity="1" stop-color="rgb(60.523987%, 45.365906%, 79.882812%)" offset="0.417969"/><stop stop-opacity="1" stop-color="rgb(61.499023%, 45.307922%, 80.064392%)" offset="0.421875"/><stop stop-opacity="1" stop-color="rgb(62.47406%, 45.248413%, 80.244446%)" offset="0.425781"/><stop stop-opacity="1" stop-color="rgb(63.449097%, 45.19043%, 80.426025%)" offset="0.429688"/><stop stop-opacity="1" stop-color="rgb(64.424133%, 45.13092%, 80.607605%)" offset="0.433594"/><stop stop-opacity="1" stop-color="rgb(65.39917%, 45.071411%, 80.789185%)" offset="0.4375"/><stop stop-opacity="1" stop-color="rgb(66.374207%, 45.011902%, 80.970764%)" offset="0.441406"/><stop stop-opacity="1" stop-color="rgb(67.350769%, 44.953918%, 81.152344%)" offset="0.445313"/><stop stop-opacity="1" stop-color="rgb(68.325806%, 44.894409%, 81.332397%)" offset="0.449219"/><stop stop-opacity="1" stop-color="rgb(69.300842%, 44.836426%, 81.513977%)" offset="0.453125"/><stop stop-opacity="1" stop-color="rgb(70.275879%, 44.776917%, 81.695557%)" offset="0.457031"/><stop stop-opacity="1" stop-color="rgb(71.250916%, 44.718933%, 81.877136%)" offset="0.460938"/><stop stop-opacity="1" stop-color="rgb(72.225952%, 44.659424%, 82.058716%)" offset="0.464844"/><stop stop-opacity="1" stop-color="rgb(73.200989%, 44.60144%, 82.240295%)" offset="0.46875"/><stop stop-opacity="1" stop-color="rgb(74.176025%, 44.541931%, 82.420349%)" offset="0.472656"/><stop stop-opacity="1" stop-color="rgb(75.151062%, 44.483948%, 82.601929%)" offset="0.476563"/><stop stop-opacity="1" stop-color="rgb(76.126099%, 44.424438%, 82.783508%)" offset="0.480469"/><stop stop-opacity="1" stop-color="rgb(77.102661%, 44.366455%, 82.965088%)" offset="0.484375"/><stop stop-opacity="1" stop-color="rgb(77.713013%, 44.517517%, 82.615662%)" offset="0.488281"/><stop stop-opacity="1" stop-color="rgb(78.32489%, 44.670105%, 82.267761%)" offset="0.492188"/><stop stop-opacity="1" stop-color="rgb(78.598022%, 45.018005%, 81.430054%)" offset="0.496094"/><stop stop-opacity="1" stop-color="rgb(78.872681%, 45.367432%, 80.592346%)" offset="0.5"/><stop stop-opacity="1" stop-color="rgb(79.147339%, 45.715332%, 79.754639%)" offset="0.503906"/><stop stop-opacity="1" stop-color="rgb(79.421997%, 46.063232%, 78.916931%)" offset="0.507813"/><stop stop-opacity="1" stop-color="rgb(79.696655%, 46.411133%, 78.077698%)" offset="0.511719"/><stop stop-opacity="1" stop-color="rgb(79.971313%, 46.759033%, 77.23999%)" offset="0.515625"/><stop stop-opacity="1" stop-color="rgb(80.244446%, 47.106934%, 76.402283%)" offset="0.519531"/><stop stop-opacity="1" stop-color="rgb(80.519104%, 47.454834%, 75.564575%)" offset="0.523438"/><stop stop-opacity="1" stop-color="rgb(80.793762%, 47.802734%, 74.726868%)" offset="0.527344"/><stop stop-opacity="1" stop-color="rgb(81.06842%, 48.150635%, 73.88916%)" offset="0.53125"/><stop stop-opacity="1" stop-color="rgb(81.343079%, 48.498535%, 73.049927%)" offset="0.535156"/><stop stop-opacity="1" stop-color="rgb(81.617737%, 48.846436%, 72.212219%)" offset="0.539063"/><stop stop-opacity="1" stop-color="rgb(81.890869%, 49.194336%, 71.374512%)" offset="0.542969"/><stop stop-opacity="1" stop-color="rgb(82.165527%, 49.543762%, 70.536804%)" offset="0.546875"/><stop stop-opacity="1" stop-color="rgb(82.440186%, 49.891663%, 69.699097%)" offset="0.550781"/><stop stop-opacity="1" stop-color="rgb(82.714844%, 50.239563%, 68.861389%)" offset="0.554688"/><stop stop-opacity="1" stop-color="rgb(82.989502%, 50.587463%, 68.022156%)" offset="0.558594"/><stop stop-opacity="1" stop-color="rgb(83.26416%, 50.935364%, 67.184448%)" offset="0.5625"/><stop stop-opacity="1" stop-color="rgb(83.537292%, 51.283264%, 66.346741%)" offset="0.566406"/><stop stop-opacity="1" stop-color="rgb(83.811951%, 51.631165%, 65.509033%)" offset="0.570312"/><stop stop-opacity="1" stop-color="rgb(84.086609%, 51.979065%, 64.671326%)" offset="0.574219"/><stop stop-opacity="1" stop-color="rgb(84.361267%, 52.326965%, 63.833618%)" offset="0.578125"/><stop stop-opacity="1" stop-color="rgb(84.635925%, 52.674866%, 62.994385%)" offset="0.582031"/><stop stop-opacity="1" stop-color="rgb(84.910583%, 53.022766%, 62.156677%)" offset="0.585938"/><stop stop-opacity="1" stop-color="rgb(85.183716%, 53.370667%, 61.31897%)" offset="0.589844"/><stop stop-opacity="1" stop-color="rgb(85.458374%, 53.718567%, 60.481262%)" offset="0.59375"/><stop stop-opacity="1" stop-color="rgb(85.733032%, 54.066467%, 59.642029%)" offset="0.597656"/><stop stop-opacity="1" stop-color="rgb(86.00769%, 54.415894%, 58.804321%)" offset="0.601563"/><stop stop-opacity="1" stop-color="rgb(86.282349%, 54.763794%, 57.966614%)" offset="0.605469"/><stop stop-opacity="1" stop-color="rgb(86.557007%, 55.111694%, 57.128906%)" offset="0.609375"/><stop stop-opacity="1" stop-color="rgb(86.830139%, 55.459595%, 56.291199%)" offset="0.613281"/><stop stop-opacity="1" stop-color="rgb(87.104797%, 55.807495%, 55.453491%)" offset="0.617188"/><stop stop-opacity="1" stop-color="rgb(87.379456%, 56.155396%, 54.614258%)" offset="0.621094"/><stop stop-opacity="1" stop-color="rgb(87.654114%, 56.503296%, 53.77655%)" offset="0.625"/><stop stop-opacity="1" stop-color="rgb(87.928772%, 56.851196%, 52.938843%)" offset="0.628906"/><stop stop-opacity="1" stop-color="rgb(88.20343%, 57.199097%, 52.101135%)" offset="0.632812"/><stop stop-opacity="1" stop-color="rgb(88.478088%, 57.546997%, 51.263428%)" offset="0.636719"/><stop stop-opacity="1" stop-color="rgb(88.752747%, 57.894897%, 50.42572%)" offset="0.640625"/><stop stop-opacity="1" stop-color="rgb(89.025879%, 58.242798%, 49.586487%)" offset="0.644531"/><stop stop-opacity="1" stop-color="rgb(89.300537%, 58.590698%, 48.748779%)" offset="0.648438"/><stop stop-opacity="1" stop-color="rgb(89.575195%, 58.938599%, 47.911072%)" offset="0.652344"/><stop stop-opacity="1" stop-color="rgb(89.849854%, 59.288025%, 47.073364%)" offset="0.65625"/><stop stop-opacity="1" stop-color="rgb(90.124512%, 59.635925%, 46.235657%)" offset="0.660156"/><stop stop-opacity="1" stop-color="rgb(90.39917%, 59.983826%, 45.397949%)" offset="0.664063"/><stop stop-opacity="1" stop-color="rgb(90.672302%, 60.331726%, 44.558716%)" offset="0.667969"/><stop stop-opacity="1" stop-color="rgb(90.94696%, 60.679626%, 43.721008%)" offset="0.671875"/><stop stop-opacity="1" stop-color="rgb(91.221619%, 61.027527%, 42.883301%)" offset="0.675781"/><stop stop-opacity="1" stop-color="rgb(91.496277%, 61.375427%, 42.045593%)" offset="0.679688"/><stop stop-opacity="1" stop-color="rgb(91.770935%, 61.723328%, 41.207886%)" offset="0.683594"/><stop stop-opacity="1" stop-color="rgb(92.045593%, 62.071228%, 40.370178%)" offset="0.6875"/><stop stop-opacity="1" stop-color="rgb(92.318726%, 62.419128%, 39.530945%)" offset="0.691406"/><stop stop-opacity="1" stop-color="rgb(92.593384%, 62.767029%, 38.693237%)" offset="0.695312"/><stop stop-opacity="1" stop-color="rgb(92.868042%, 63.114929%, 37.85553%)" offset="0.699219"/><stop stop-opacity="1" stop-color="rgb(93.1427%, 63.46283%, 37.017822%)" offset="0.703125"/><stop stop-opacity="1" stop-color="rgb(93.417358%, 63.81073%, 36.178589%)" offset="0.707031"/><stop stop-opacity="1" stop-color="rgb(93.692017%, 64.160156%, 35.340881%)" offset="0.710938"/><stop stop-opacity="1" stop-color="rgb(93.965149%, 64.508057%, 34.503174%)" offset="0.714844"/><stop stop-opacity="1" stop-color="rgb(94.239807%, 64.855957%, 33.665466%)" offset="0.71875"/><stop stop-opacity="1" stop-color="rgb(94.514465%, 65.203857%, 32.827759%)" offset="0.722656"/><stop stop-opacity="1" stop-color="rgb(94.789124%, 65.551758%, 31.990051%)" offset="0.726563"/><stop stop-opacity="1" stop-color="rgb(95.063782%, 65.899658%, 31.150818%)" offset="0.730469"/><stop stop-opacity="1" stop-color="rgb(95.33844%, 66.247559%, 30.31311%)" offset="0.734375"/><stop stop-opacity="1" stop-color="rgb(95.611572%, 66.595459%, 29.475403%)" offset="0.738281"/><stop stop-opacity="1" stop-color="rgb(95.88623%, 66.943359%, 28.637695%)" offset="0.742188"/><stop stop-opacity="1" stop-color="rgb(96.160889%, 67.29126%, 27.799988%)" offset="0.746094"/><stop stop-opacity="1" stop-color="rgb(96.435547%, 67.63916%, 26.96228%)" offset="0.75"/><stop stop-opacity="1" stop-color="rgb(96.710205%, 67.987061%, 26.123047%)" offset="0.753906"/><stop stop-opacity="1" stop-color="rgb(96.984863%, 68.336487%, 25.285339%)" offset="0.757813"/><stop stop-opacity="1" stop-color="rgb(97.257996%, 68.684387%, 24.447632%)" offset="0.761719"/><stop stop-opacity="1" stop-color="rgb(97.532654%, 69.032288%, 23.609924%)" offset="0.765625"/><stop stop-opacity="1" stop-color="rgb(97.807312%, 69.380188%, 22.772217%)" offset="0.769531"/><stop stop-opacity="1" stop-color="rgb(98.08197%, 69.728088%, 21.934509%)" offset="0.773438"/><stop stop-opacity="1" stop-color="rgb(98.356628%, 70.075989%, 21.095276%)" offset="0.777344"/><stop stop-opacity="1" stop-color="rgb(98.631287%, 70.423889%, 20.257568%)" offset="0.78125"/><stop stop-opacity="1" stop-color="rgb(98.904419%, 70.77179%, 19.419861%)" offset="0.785156"/><stop stop-opacity="1" stop-color="rgb(99.179077%, 71.11969%, 18.582153%)" offset="0.789063"/><stop stop-opacity="1" stop-color="rgb(99.453735%, 71.46759%, 17.744446%)" offset="0.792969"/><stop stop-opacity="1" stop-color="rgb(99.728394%, 71.815491%, 16.906738%)" offset="0.796875"/><stop stop-opacity="1" stop-color="rgb(99.864197%, 71.986389%, 16.493225%)" offset="0.800781"/><stop stop-opacity="1" stop-color="rgb(100%, 72.158813%, 16.079712%)" offset="0.804688"/><stop stop-opacity="1" stop-color="rgb(100%, 72.158813%, 16.079712%)" offset="0.8125"/><stop stop-opacity="1" stop-color="rgb(100%, 72.158813%, 16.079712%)" offset="0.875"/><stop stop-opacity="1" stop-color="rgb(100%, 72.158813%, 16.079712%)" offset="1"/></linearGradient><clipPath id="1b60ae23e1"><rect x="0" width="120" y="0" height="68"/></clipPath><clipPath id="d4bd2b8571"><path d="M 0.441406 0 L 119.558594 0 L 119.558594 67.003906 L 0.441406 67.003906 Z M 0.441406 0 " clip-rule="nonzero"/></clipPath><clipPath id="a24719ee38"><rect x="0" width="120" y="0" height="68"/></clipPath><clipPath id="11407669c9"><rect x="0" width="120" y="0" height="68"/></clipPath><mask id="c1bcb09175"><g filter="url(#097d86f007)"><g transform="matrix(1, 0, 0, 1, 0.000000000000000056, 0)"><g clip-path="url(#11407669c9)"><g clip-path="url(#d4bd2b8571)"><g transform="matrix(1, 0, 0, 1, 0.000000000000000056, 0)"><g clip-path="url(#a24719ee38)"><g fill="#000000" fill-opacity="1"><g transform="translate(2.440735, 48.886396)"><g><path d="M 32.625 -24.328125 C 32.625 -21.765625 32.640625 -19.1875 32.671875 -16.59375 C 32.710938 -14 32.695312 -11.421875 32.625 -8.859375 C 32.582031 -7.429688 32.5625 -5.945312 32.5625 -4.40625 C 32.5625 -2.863281 32.445312 -1.34375 32.21875 0.15625 C 32 1.664062 31.53125 3.082031 30.8125 4.40625 C 29.875 6.132812 28.632812 7.570312 27.09375 8.71875 C 25.550781 9.863281 23.847656 10.71875 21.984375 11.28125 C 20.117188 11.851562 18.226562 12.140625 16.3125 12.140625 C 16.15625 12.140625 16.003906 12.140625 15.859375 12.140625 C 15.710938 12.140625 15.5625 12.140625 15.40625 12.140625 C 14.164062 12.054688 12.929688 11.945312 11.703125 11.8125 C 10.484375 11.6875 9.273438 11.4375 8.078125 11.0625 C 7.585938 10.914062 7.003906 10.71875 6.328125 10.46875 C 5.648438 10.226562 5.007812 9.9375 4.40625 9.59375 C 3.800781 9.257812 3.375 8.835938 3.125 8.328125 C 2.882812 7.816406 2.929688 7.203125 3.265625 6.484375 C 3.535156 5.960938 3.800781 5.425781 4.0625 4.875 C 4.320312 4.332031 4.585938 3.796875 4.859375 3.265625 C 5.160156 2.703125 5.550781 2.410156 6.03125 2.390625 C 6.519531 2.378906 7.066406 2.515625 7.671875 2.796875 C 8.273438 3.078125 8.859375 3.382812 9.421875 3.71875 C 9.984375 4.0625 10.457031 4.289062 10.84375 4.40625 C 11.625 4.664062 12.4375 4.867188 13.28125 5.015625 C 14.132812 5.171875 14.972656 5.25 15.796875 5.25 C 17.867188 5.25 19.710938 4.710938 21.328125 3.640625 C 22.953125 2.566406 24.117188 1.050781 24.828125 -0.90625 C 24.910156 -1.09375 24.96875 -1.269531 25 -1.4375 C 25.039062 -1.601562 25.039062 -1.765625 25 -1.921875 C 24.96875 -2.554688 24.722656 -2.929688 24.265625 -3.046875 C 23.816406 -3.160156 23.300781 -3.140625 22.71875 -2.984375 C 22.132812 -2.835938 21.566406 -2.640625 21.015625 -2.390625 C 20.472656 -2.148438 20.050781 -1.992188 19.75 -1.921875 C 18.882812 -1.660156 18 -1.441406 17.09375 -1.265625 C 16.195312 -1.097656 15.296875 -1.015625 14.390625 -1.015625 C 12.023438 -1.015625 9.921875 -1.617188 8.078125 -2.828125 C 6.566406 -3.804688 5.226562 -4.914062 4.0625 -6.15625 C 2.894531 -7.394531 2.050781 -8.597656 1.53125 -9.765625 C 0.0625 -13.191406 -0.351562 -16.597656 0.28125 -19.984375 C 0.914062 -23.367188 2.550781 -26.320312 5.1875 -28.84375 C 7.820312 -31.394531 10.851562 -32.671875 14.28125 -32.671875 C 16.875 -32.671875 19.453125 -31.957031 22.015625 -30.53125 C 22.203125 -30.382812 22.445312 -30.3125 22.75 -30.3125 C 23.195312 -30.3125 23.570312 -30.5 23.875 -30.875 C 24.0625 -31.09375 24.519531 -31.320312 25.25 -31.5625 C 25.988281 -31.8125 26.851562 -32.03125 27.84375 -32.21875 C 28.84375 -32.414062 29.796875 -32.515625 30.703125 -32.515625 C 31.265625 -32.515625 31.65625 -32.472656 31.875 -32.390625 C 32.101562 -32.316406 32.296875 -32.015625 32.453125 -31.484375 C 32.640625 -30.890625 32.695312 -30.1875 32.625 -29.375 C 32.550781 -28.5625 32.53125 -27.835938 32.5625 -27.203125 C 32.5625 -26.710938 32.5625 -26.234375 32.5625 -25.765625 C 32.5625 -25.296875 32.582031 -24.816406 32.625 -24.328125 Z M 22.625 -10.71875 C 24.175781 -12.5625 24.953125 -14.726562 24.953125 -17.21875 C 24.953125 -18.875 24.582031 -20.359375 23.84375 -21.671875 C 23.113281 -22.984375 22.132812 -24.015625 20.90625 -24.765625 C 19.6875 -25.523438 18.304688 -25.90625 16.765625 -25.90625 C 15.710938 -25.863281 14.695312 -25.632812 13.71875 -25.21875 C 12.738281 -24.8125 11.875 -24.210938 11.125 -23.421875 C 9.351562 -21.617188 8.503906 -19.378906 8.578125 -16.703125 C 8.617188 -15.160156 9.03125 -13.710938 9.8125 -12.359375 C 10.601562 -11.003906 11.609375 -9.910156 12.828125 -9.078125 C 14.054688 -8.253906 15.367188 -7.84375 16.765625 -7.84375 C 16.765625 -7.84375 16.769531 -7.84375 16.78125 -7.84375 C 16.800781 -7.84375 16.8125 -7.84375 16.8125 -7.84375 C 19.070312 -7.84375 21.007812 -8.800781 22.625 -10.71875 Z M 22.625 -10.71875 "/></g></g></g><g fill="#000000" fill-opacity="1"><g transform="translate(35.277363, 48.886396)"><g><path d="M 0.0625 -16.359375 C 0.0195312 -18.472656 0.429688 -20.570312 1.296875 -22.65625 C 2.160156 -24.75 3.363281 -26.582031 4.90625 -28.15625 C 6.375 -29.664062 8.046875 -30.816406 9.921875 -31.609375 C 11.804688 -32.398438 13.75 -32.796875 15.75 -32.796875 C 15.9375 -32.796875 16.132812 -32.796875 16.34375 -32.796875 C 16.550781 -32.796875 16.75 -32.796875 16.9375 -32.796875 C 16.9375 -32.796875 16.941406 -32.796875 16.953125 -32.796875 C 16.972656 -32.796875 16.984375 -32.796875 16.984375 -32.796875 C 20.253906 -32.796875 23.140625 -32.117188 25.640625 -30.765625 C 28.148438 -29.410156 30.117188 -27.523438 31.546875 -25.109375 C 32.972656 -22.703125 33.6875 -19.921875 33.6875 -16.765625 C 33.6875 -11.835938 32.144531 -7.828125 29.0625 -4.734375 C 27.5625 -3.234375 25.765625 -2.078125 23.671875 -1.265625 C 21.585938 -0.460938 19.320312 -0.0625 16.875 -0.0625 C 14.539062 -0.0625 12.367188 -0.484375 10.359375 -1.328125 C 8.347656 -2.171875 6.578125 -3.332031 5.046875 -4.8125 C 3.523438 -6.300781 2.320312 -8.035156 1.4375 -10.015625 C 0.550781 -11.992188 0.09375 -14.109375 0.0625 -16.359375 Z M 16.703125 -26.078125 C 15.390625 -26.078125 14.109375 -25.648438 12.859375 -24.796875 C 11.617188 -23.953125 10.59375 -22.863281 9.78125 -21.53125 C 8.976562 -20.195312 8.554688 -18.796875 8.515625 -17.328125 C 8.484375 -15.710938 8.75 -14.148438 9.3125 -12.640625 C 9.875 -11.140625 10.738281 -9.878906 11.90625 -8.859375 C 13.070312 -7.847656 14.519531 -7.242188 16.25 -7.046875 C 18.164062 -6.859375 19.78125 -7.160156 21.09375 -7.953125 C 22.414062 -8.742188 23.4375 -9.828125 24.15625 -11.203125 C 24.875 -12.578125 25.269531 -14.082031 25.34375 -15.71875 C 25.414062 -17.351562 25.171875 -18.921875 24.609375 -20.421875 C 24.046875 -21.929688 23.140625 -23.203125 21.890625 -24.234375 C 20.648438 -25.273438 19.070312 -25.890625 17.15625 -26.078125 C 17.082031 -26.078125 17.003906 -26.078125 16.921875 -26.078125 C 16.847656 -26.078125 16.773438 -26.078125 16.703125 -26.078125 Z M 16.703125 -26.078125 "/></g></g></g><g fill="#000000" fill-opacity="1"><g transform="translate(69.073161, 48.886396)"><g><path d="M 0.21875 -2.09375 C 0.375 -5.78125 0.460938 -9.46875 0.484375 -13.15625 C 0.503906 -16.84375 0.472656 -20.53125 0.390625 -24.21875 C 0.390625 -26.28125 0.367188 -28.351562 0.328125 -30.4375 C 0.296875 -32.53125 0.28125 -34.613281 0.28125 -36.6875 C 0.28125 -37.25 0.234375 -37.953125 0.140625 -38.796875 C 0.046875 -39.648438 0.015625 -40.507812 0.046875 -41.375 C 0.0859375 -42.238281 0.257812 -42.960938 0.5625 -43.546875 C 0.863281 -44.128906 1.410156 -44.421875 2.203125 -44.421875 C 2.273438 -44.421875 2.328125 -44.421875 2.359375 -44.421875 C 2.398438 -44.421875 2.441406 -44.421875 2.484375 -44.421875 C 3.046875 -44.378906 3.570312 -44.359375 4.0625 -44.359375 C 4.550781 -44.359375 4.984375 -44.335938 5.359375 -44.296875 C 5.703125 -44.296875 6.085938 -44.316406 6.515625 -44.359375 C 6.953125 -44.398438 7.347656 -44.363281 7.703125 -44.25 C 8.054688 -44.132812 8.253906 -43.851562 8.296875 -43.40625 C 8.484375 -41.707031 8.507812 -40.019531 8.375 -38.34375 C 8.25 -36.675781 8.1875 -34.972656 8.1875 -33.234375 C 8.1875 -32.640625 8.328125 -32.085938 8.609375 -31.578125 C 8.890625 -31.066406 9.390625 -30.8125 10.109375 -30.8125 C 10.296875 -30.8125 10.484375 -30.835938 10.671875 -30.890625 C 10.859375 -30.953125 11.023438 -31.003906 11.171875 -31.046875 C 11.242188 -31.046875 11.289062 -31.050781 11.3125 -31.0625 C 11.332031 -31.082031 11.363281 -31.09375 11.40625 -31.09375 C 11.625 -31.132812 11.835938 -31.191406 12.046875 -31.265625 C 12.253906 -31.335938 12.472656 -31.394531 12.703125 -31.4375 C 12.890625 -31.46875 13.078125 -31.507812 13.265625 -31.5625 C 13.453125 -31.625 13.640625 -31.675781 13.828125 -31.71875 C 16.796875 -32.351562 19.65625 -32.390625 22.40625 -31.828125 C 25.15625 -31.265625 27.523438 -29.703125 29.515625 -27.140625 C 31.171875 -25.035156 32.242188 -22.703125 32.734375 -20.140625 C 33.222656 -17.585938 33.191406 -15.054688 32.640625 -12.546875 C 32.097656 -10.046875 31.09375 -7.789062 29.625 -5.78125 C 28.15625 -3.769531 26.289062 -2.21875 24.03125 -1.125 C 21.78125 -0.03125 19.207031 0.34375 16.3125 0 C 15.257812 -0.113281 14.242188 -0.320312 13.265625 -0.625 C 12.285156 -0.925781 11.269531 -1.078125 10.21875 -1.078125 C 9.757812 -1.078125 9.3125 -1.046875 8.875 -0.984375 C 8.445312 -0.929688 8.03125 -0.8125 7.625 -0.625 C 6.945312 -0.351562 6.023438 -0.21875 4.859375 -0.21875 C 4.671875 -0.21875 4.460938 -0.21875 4.234375 -0.21875 C 4.003906 -0.21875 3.796875 -0.21875 3.609375 -0.21875 C 3.117188 -0.257812 2.597656 -0.25 2.046875 -0.1875 C 1.503906 -0.132812 1.0625 -0.203125 0.71875 -0.390625 C 0.382812 -0.578125 0.21875 -1.03125 0.21875 -1.75 C 0.21875 -1.820312 0.21875 -1.882812 0.21875 -1.9375 C 0.21875 -2 0.21875 -2.050781 0.21875 -2.09375 Z M 11.125 -22.796875 C 9.5 -20.953125 8.6875 -18.710938 8.6875 -16.078125 C 8.6875 -14.503906 9.082031 -12.984375 9.875 -11.515625 C 10.664062 -10.046875 11.691406 -8.835938 12.953125 -7.890625 C 14.210938 -6.953125 15.5 -6.484375 16.8125 -6.484375 L 16.9375 -6.484375 C 19.269531 -6.566406 21.28125 -7.566406 22.96875 -9.484375 C 24.625 -11.441406 25.453125 -13.695312 25.453125 -16.25 C 25.410156 -17.90625 25.003906 -19.445312 24.234375 -20.875 C 23.460938 -22.3125 22.457031 -23.46875 21.21875 -24.34375 C 19.976562 -25.226562 18.625 -25.671875 17.15625 -25.671875 C 17.15625 -25.671875 17.144531 -25.671875 17.125 -25.671875 C 17.101562 -25.671875 17.09375 -25.671875 17.09375 -25.671875 C 16.007812 -25.671875 14.9375 -25.425781 13.875 -24.9375 C 12.820312 -24.457031 11.90625 -23.742188 11.125 -22.796875 Z M 11.125 -22.796875 "/></g></g></g><g fill="#000000" fill-opacity="1"><g transform="translate(102.248321, 48.886396)"><g><path d="M 2.140625 -35.5625 C 1.316406 -36.082031 0.71875 -36.820312 0.34375 -37.78125 C -0.03125 -38.738281 -0.0507812 -39.785156 0.28125 -40.921875 C 0.914062 -43.140625 2.421875 -44.285156 4.796875 -44.359375 L 4.90625 -44.359375 C 6.070312 -44.359375 7.050781 -44.046875 7.84375 -43.421875 C 8.632812 -42.804688 9.160156 -41.953125 9.421875 -40.859375 C 9.765625 -39.503906 9.632812 -38.257812 9.03125 -37.125 C 8.425781 -36 7.410156 -35.269531 5.984375 -34.9375 C 5.265625 -34.78125 4.578125 -34.757812 3.921875 -34.875 C 3.265625 -34.988281 2.671875 -35.21875 2.140625 -35.5625 Z M 1.359375 -29.90625 C 1.878906 -30.25 2.628906 -30.398438 3.609375 -30.359375 C 4.171875 -30.359375 4.789062 -30.375 5.46875 -30.40625 C 6.144531 -30.445312 6.773438 -30.382812 7.359375 -30.21875 C 7.941406 -30.050781 8.328125 -29.664062 8.515625 -29.0625 C 8.859375 -28.125 8.972656 -26.984375 8.859375 -25.640625 C 8.742188 -24.304688 8.6875 -23.15625 8.6875 -22.1875 C 8.726562 -19.882812 8.75 -17.601562 8.75 -15.34375 C 8.75 -13.09375 8.765625 -10.816406 8.796875 -8.515625 C 8.796875 -8.140625 8.84375 -7.507812 8.9375 -6.625 C 9.039062 -5.75 9.097656 -4.800781 9.109375 -3.78125 C 9.128906 -2.757812 9.023438 -1.890625 8.796875 -1.171875 C 8.578125 -0.460938 8.128906 -0.09375 7.453125 -0.0625 C 6.585938 -0.0195312 5.679688 0.0078125 4.734375 0.03125 C 3.796875 0.0507812 2.894531 0.00390625 2.03125 -0.109375 C 1.425781 -0.179688 1.007812 -0.507812 0.78125 -1.09375 C 0.5625 -1.675781 0.441406 -2.378906 0.421875 -3.203125 C 0.398438 -4.035156 0.425781 -4.828125 0.5 -5.578125 C 0.582031 -6.335938 0.625 -6.925781 0.625 -7.34375 C 0.582031 -8.882812 0.550781 -10.429688 0.53125 -11.984375 C 0.519531 -13.546875 0.515625 -15.101562 0.515625 -16.65625 C 0.472656 -17.96875 0.453125 -19.28125 0.453125 -20.59375 C 0.453125 -21.914062 0.429688 -23.21875 0.390625 -24.5 C 0.390625 -25.582031 0.367188 -26.628906 0.328125 -27.640625 C 0.296875 -28.660156 0.640625 -29.414062 1.359375 -29.90625 Z M 1.359375 -29.90625 "/></g></g></g></g></g></g></g></g></g></mask><clipPath id="de745123d9"><path d="M 0.441406 0 L 119.558594 0 L 119.558594 67.003906 L 0.441406 67.003906 Z M 0.441406 0 " clip-rule="nonzero"/></clipPath><clipPath id="7922696ff5"><rect x="0" width="120" y="0" height="68"/></clipPath><clipPath id="5624a37b10"><rect x="0" width="120" y="0" height="68"/></clipPath><clipPath id="b005af0406"><rect x="0" width="120" y="0" height="68"/></clipPath></defs><g clip-path="url(#a61988e297)"><g transform="matrix(1, 0, 0, 1, 0.000000000000000056, 0)"><g clip-path="url(#b005af0406)"><g clip-path="url(#8e26164a82)"><g transform="matrix(1, 0, 0, 1, 0.000000000000000056, 0)"><g clip-path="url(#5624a37b10)"><g clip-path="url(#bbd5f7e53e)"><g mask="url(#c1bcb09175)"><g transform="matrix(1, 0, 0, 1, 0.000000000000000056, 0)"><g clip-path="url(#7922696ff5)"><g clip-path="url(#de745123d9)"><path fill="url(#74f44bf08c)" d="M 0.441406 0 L 0.441406 67.003906 L 119.558594 67.003906 L 119.558594 0 Z M 0.441406 0 " fill-rule="nonzero"/></g></g></g></g></g></g></g></g></g></g></g></svg>