<svg xmlns="http://www.w3.org/2000/svg" xmlns:xlink="http://www.w3.org/1999/xlink" width="160" zoomAndPan="magnify" viewBox="0 0 120 67.499998" height="90" preserveAspectRatio="xMidYMid meet" version="1.0"><defs><filter x="0%" y="0%" width="100%" height="100%" id="abd0c52a6b"><feColorMatrix values="0 0 0 0 1 0 0 0 0 1 0 0 0 0 1 0 0 0 1 0" color-interpolation-filters="sRGB"/></filter><g/><clipPath id="0e784f6f3a"><path d="M 0.441406 0 L 119.558594 0 L 119.558594 67.003906 L 0.441406 67.003906 Z M 0.441406 0 " clip-rule="nonzero"/></clipPath><clipPath id="d19c338919"><path d="M 0.441406 0 L 119.558594 0 L 119.558594 67.003906 L 0.441406 67.003906 Z M 0.441406 0 " clip-rule="nonzero"/></clipPath><clipPath id="5b966545d5"><path d="M 0.441406 0 L 119.558594 0 L 119.558594 67.003906 L 0.441406 67.003906 Z M 0.441406 0 " clip-rule="nonzero"/></clipPath><clipPath id="b7d8b3ea1e"><path d="M 0.441406 0 L 119.558594 0 L 119.558594 67.003906 L 0.441406 67.003906 Z M 0.441406 0 " clip-rule="nonzero"/></clipPath><linearGradient x1="3.317325" gradientTransform="matrix(0.744055, 0, 0, 0.744861, -2.027096, 14.638136)" y1="25" x2="163.409749" gradientUnits="userSpaceOnUse" y2="25" id="3c5a50c512"><stop stop-opacity="1" stop-color="rgb(38.42926%, 74.899292%, 83.139038%)" offset="0"/><stop stop-opacity="1" stop-color="rgb(38.42926%, 74.899292%, 83.139038%)" offset="0.015625"/><stop stop-opacity="1" stop-color="rgb(38.555908%, 74.925232%, 83.055115%)" offset="0.0234375"/><stop stop-opacity="1" stop-color="rgb(38.920593%, 75.001526%, 82.815552%)" offset="0.0273438"/><stop stop-opacity="1" stop-color="rgb(39.15863%, 75.05188%, 82.659912%)" offset="0.03125"/><stop stop-opacity="1" stop-color="rgb(39.396667%, 75.102234%, 82.502747%)" offset="0.0351563"/><stop stop-opacity="1" stop-color="rgb(39.634705%, 75.152588%, 82.347107%)" offset="0.0390625"/><stop stop-opacity="1" stop-color="rgb(39.872742%, 75.201416%, 82.189941%)" offset="0.0429688"/><stop stop-opacity="1" stop-color="rgb(40.110779%, 75.25177%, 82.034302%)" offset="0.046875"/><stop stop-opacity="1" stop-color="rgb(40.348816%, 75.302124%, 81.877136%)" offset="0.0507813"/><stop stop-opacity="1" stop-color="rgb(40.586853%, 75.352478%, 81.721497%)" offset="0.0546875"/><stop stop-opacity="1" stop-color="rgb(40.82489%, 75.401306%, 81.564331%)" offset="0.0585938"/><stop stop-opacity="1" stop-color="rgb(41.062927%, 75.45166%, 81.408691%)" offset="0.0625"/><stop stop-opacity="1" stop-color="rgb(41.300964%, 75.502014%, 81.251526%)" offset="0.0664063"/><stop stop-opacity="1" stop-color="rgb(41.539001%, 75.552368%, 81.095886%)" offset="0.0703125"/><stop stop-opacity="1" stop-color="rgb(41.777039%, 75.601196%, 80.938721%)" offset="0.0742188"/><stop stop-opacity="1" stop-color="rgb(42.015076%, 75.65155%, 80.781555%)" offset="0.078125"/><stop stop-opacity="1" stop-color="rgb(42.253113%, 75.701904%, 80.62439%)" offset="0.0820313"/><stop stop-opacity="1" stop-color="rgb(42.49115%, 75.752258%, 80.46875%)" offset="0.0859375"/><stop stop-opacity="1" stop-color="rgb(42.729187%, 75.801086%, 80.311584%)" offset="0.0898438"/><stop stop-opacity="1" stop-color="rgb(42.967224%, 75.85144%, 80.155945%)" offset="0.09375"/><stop stop-opacity="1" stop-color="rgb(43.205261%, 75.901794%, 79.998779%)" offset="0.0976562"/><stop stop-opacity="1" stop-color="rgb(43.443298%, 75.952148%, 79.84314%)" offset="0.101562"/><stop stop-opacity="1" stop-color="rgb(43.681335%, 76.000977%, 79.685974%)" offset="0.105469"/><stop stop-opacity="1" stop-color="rgb(43.919373%, 76.051331%, 79.530334%)" offset="0.109375"/><stop stop-opacity="1" stop-color="rgb(44.15741%, 76.101685%, 79.373169%)" offset="0.113281"/><stop stop-opacity="1" stop-color="rgb(44.395447%, 76.152039%, 79.217529%)" offset="0.117188"/><stop stop-opacity="1" stop-color="rgb(44.633484%, 76.200867%, 79.060364%)" offset="0.121094"/><stop stop-opacity="1" stop-color="rgb(44.871521%, 76.251221%, 78.904724%)" offset="0.125"/><stop stop-opacity="1" stop-color="rgb(45.109558%, 76.300049%, 78.747559%)" offset="0.128906"/><stop stop-opacity="1" stop-color="rgb(45.347595%, 76.350403%, 78.590393%)" offset="0.132813"/><stop stop-opacity="1" stop-color="rgb(45.585632%, 76.400757%, 78.433228%)" offset="0.136719"/><stop stop-opacity="1" stop-color="rgb(45.823669%, 76.451111%, 78.277588%)" offset="0.140625"/><stop stop-opacity="1" stop-color="rgb(46.061707%, 76.499939%, 78.120422%)" offset="0.144531"/><stop stop-opacity="1" stop-color="rgb(46.299744%, 76.550293%, 77.964783%)" offset="0.148438"/><stop stop-opacity="1" stop-color="rgb(46.537781%, 76.600647%, 77.807617%)" offset="0.152344"/><stop stop-opacity="1" stop-color="rgb(46.775818%, 76.651001%, 77.651978%)" offset="0.15625"/><stop stop-opacity="1" stop-color="rgb(47.013855%, 76.699829%, 77.494812%)" offset="0.160156"/><stop stop-opacity="1" stop-color="rgb(47.251892%, 76.750183%, 77.339172%)" offset="0.164062"/><stop stop-opacity="1" stop-color="rgb(47.489929%, 76.800537%, 77.182007%)" offset="0.167969"/><stop stop-opacity="1" stop-color="rgb(47.727966%, 76.850891%, 77.026367%)" offset="0.171875"/><stop stop-opacity="1" stop-color="rgb(47.966003%, 76.899719%, 76.869202%)" offset="0.175781"/><stop stop-opacity="1" stop-color="rgb(48.204041%, 76.950073%, 76.713562%)" offset="0.179688"/><stop stop-opacity="1" stop-color="rgb(48.442078%, 77.000427%, 76.556396%)" offset="0.183594"/><stop stop-opacity="1" stop-color="rgb(48.680115%, 77.050781%, 76.400757%)" offset="0.1875"/><stop stop-opacity="1" stop-color="rgb(48.918152%, 77.099609%, 76.243591%)" offset="0.191406"/><stop stop-opacity="1" stop-color="rgb(49.156189%, 77.149963%, 76.086426%)" offset="0.195312"/><stop stop-opacity="1" stop-color="rgb(49.394226%, 77.200317%, 75.92926%)" offset="0.199219"/><stop stop-opacity="1" stop-color="rgb(49.632263%, 77.250671%, 75.773621%)" offset="0.203125"/><stop stop-opacity="1" stop-color="rgb(49.8703%, 77.2995%, 75.616455%)" offset="0.207031"/><stop stop-opacity="1" stop-color="rgb(50.108337%, 77.349854%, 75.460815%)" offset="0.210937"/><stop stop-opacity="1" stop-color="rgb(50.346375%, 77.400208%, 75.30365%)" offset="0.214844"/><stop stop-opacity="1" stop-color="rgb(50.584412%, 77.450562%, 75.14801%)" offset="0.21875"/><stop stop-opacity="1" stop-color="rgb(50.822449%, 77.49939%, 74.990845%)" offset="0.222656"/><stop stop-opacity="1" stop-color="rgb(51.060486%, 77.549744%, 74.835205%)" offset="0.226563"/><stop stop-opacity="1" stop-color="rgb(51.298523%, 77.600098%, 74.67804%)" offset="0.230469"/><stop stop-opacity="1" stop-color="rgb(51.53656%, 77.650452%, 74.5224%)" offset="0.234375"/><stop stop-opacity="1" stop-color="rgb(51.774597%, 77.69928%, 74.365234%)" offset="0.238281"/><stop stop-opacity="1" stop-color="rgb(52.012634%, 77.749634%, 74.209595%)" offset="0.242188"/><stop stop-opacity="1" stop-color="rgb(52.250671%, 77.799988%, 74.052429%)" offset="0.246094"/><stop stop-opacity="1" stop-color="rgb(52.488708%, 77.850342%, 73.89679%)" offset="0.25"/><stop stop-opacity="1" stop-color="rgb(52.726746%, 77.89917%, 73.739624%)" offset="0.253906"/><stop stop-opacity="1" stop-color="rgb(52.964783%, 77.949524%, 73.582458%)" offset="0.257813"/><stop stop-opacity="1" stop-color="rgb(53.20282%, 77.999878%, 73.425293%)" offset="0.261719"/><stop stop-opacity="1" stop-color="rgb(53.440857%, 78.050232%, 73.269653%)" offset="0.265625"/><stop stop-opacity="1" stop-color="rgb(53.678894%, 78.09906%, 73.112488%)" offset="0.269531"/><stop stop-opacity="1" stop-color="rgb(53.916931%, 78.149414%, 72.956848%)" offset="0.273438"/><stop stop-opacity="1" stop-color="rgb(54.154968%, 78.199768%, 72.799683%)" offset="0.277344"/><stop stop-opacity="1" stop-color="rgb(54.393005%, 78.250122%, 72.644043%)" offset="0.28125"/><stop stop-opacity="1" stop-color="rgb(54.631042%, 78.29895%, 72.486877%)" offset="0.285156"/><stop stop-opacity="1" stop-color="rgb(54.86908%, 78.349304%, 72.331238%)" offset="0.289062"/><stop stop-opacity="1" stop-color="rgb(55.107117%, 78.399658%, 72.174072%)" offset="0.292969"/><stop stop-opacity="1" stop-color="rgb(55.345154%, 78.450012%, 72.018433%)" offset="0.296875"/><stop stop-opacity="1" stop-color="rgb(55.583191%, 78.49884%, 71.861267%)" offset="0.300781"/><stop stop-opacity="1" stop-color="rgb(55.821228%, 78.549194%, 71.705627%)" offset="0.304688"/><stop stop-opacity="1" stop-color="rgb(56.059265%, 78.599548%, 71.548462%)" offset="0.308594"/><stop stop-opacity="1" stop-color="rgb(56.297302%, 78.649902%, 71.392822%)" offset="0.3125"/><stop stop-opacity="1" stop-color="rgb(56.535339%, 78.69873%, 71.235657%)" offset="0.316406"/><stop stop-opacity="1" stop-color="rgb(56.773376%, 78.749084%, 71.078491%)" offset="0.320312"/><stop stop-opacity="1" stop-color="rgb(57.011414%, 78.799438%, 70.921326%)" offset="0.324219"/><stop stop-opacity="1" stop-color="rgb(57.249451%, 78.849792%, 70.765686%)" offset="0.328125"/><stop stop-opacity="1" stop-color="rgb(57.487488%, 78.898621%, 70.608521%)" offset="0.332031"/><stop stop-opacity="1" stop-color="rgb(57.725525%, 78.948975%, 70.452881%)" offset="0.335938"/><stop stop-opacity="1" stop-color="rgb(57.963562%, 78.999329%, 70.295715%)" offset="0.339844"/><stop stop-opacity="1" stop-color="rgb(58.201599%, 79.049683%, 70.140076%)" offset="0.34375"/><stop stop-opacity="1" stop-color="rgb(58.439636%, 79.098511%, 69.98291%)" offset="0.347656"/><stop stop-opacity="1" stop-color="rgb(58.677673%, 79.148865%, 69.827271%)" offset="0.351562"/><stop stop-opacity="1" stop-color="rgb(58.91571%, 79.197693%, 69.670105%)" offset="0.355469"/><stop stop-opacity="1" stop-color="rgb(59.153748%, 79.248047%, 69.514465%)" offset="0.359375"/><stop stop-opacity="1" stop-color="rgb(59.391785%, 79.298401%, 69.3573%)" offset="0.363281"/><stop stop-opacity="1" stop-color="rgb(59.629822%, 79.348755%, 69.20166%)" offset="0.367188"/><stop stop-opacity="1" stop-color="rgb(59.867859%, 79.397583%, 69.044495%)" offset="0.371094"/><stop stop-opacity="1" stop-color="rgb(60.105896%, 79.447937%, 68.887329%)" offset="0.375"/><stop stop-opacity="1" stop-color="rgb(60.343933%, 79.498291%, 68.730164%)" offset="0.378906"/><stop stop-opacity="1" stop-color="rgb(60.58197%, 79.548645%, 68.574524%)" offset="0.382812"/><stop stop-opacity="1" stop-color="rgb(60.820007%, 79.597473%, 68.417358%)" offset="0.386719"/><stop stop-opacity="1" stop-color="rgb(61.058044%, 79.647827%, 68.261719%)" offset="0.390625"/><stop stop-opacity="1" stop-color="rgb(61.296082%, 79.698181%, 68.104553%)" offset="0.394531"/><stop stop-opacity="1" stop-color="rgb(61.534119%, 79.748535%, 67.948914%)" offset="0.398437"/><stop stop-opacity="1" stop-color="rgb(61.772156%, 79.797363%, 67.791748%)" offset="0.402344"/><stop stop-opacity="1" stop-color="rgb(62.010193%, 79.847717%, 67.636108%)" offset="0.40625"/><stop stop-opacity="1" stop-color="rgb(62.24823%, 79.898071%, 67.478943%)" offset="0.410156"/><stop stop-opacity="1" stop-color="rgb(62.486267%, 79.948425%, 67.323303%)" offset="0.414062"/><stop stop-opacity="1" stop-color="rgb(62.724304%, 79.997253%, 67.166138%)" offset="0.417969"/><stop stop-opacity="1" stop-color="rgb(62.962341%, 80.047607%, 67.010498%)" offset="0.421875"/><stop stop-opacity="1" stop-color="rgb(63.200378%, 80.097961%, 66.853333%)" offset="0.425781"/><stop stop-opacity="1" stop-color="rgb(63.438416%, 80.148315%, 66.697693%)" offset="0.429687"/><stop stop-opacity="1" stop-color="rgb(63.676453%, 80.197144%, 66.540527%)" offset="0.433594"/><stop stop-opacity="1" stop-color="rgb(63.91449%, 80.247498%, 66.383362%)" offset="0.4375"/><stop stop-opacity="1" stop-color="rgb(64.152527%, 80.297852%, 66.226196%)" offset="0.441406"/><stop stop-opacity="1" stop-color="rgb(64.390564%, 80.348206%, 66.070557%)" offset="0.445313"/><stop stop-opacity="1" stop-color="rgb(64.628601%, 80.397034%, 65.913391%)" offset="0.449219"/><stop stop-opacity="1" stop-color="rgb(64.866638%, 80.447388%, 65.757751%)" offset="0.453125"/><stop stop-opacity="1" stop-color="rgb(65.104675%, 80.497742%, 65.600586%)" offset="0.457031"/><stop stop-opacity="1" stop-color="rgb(65.342712%, 80.548096%, 65.444946%)" offset="0.460938"/><stop stop-opacity="1" stop-color="rgb(65.58075%, 80.596924%, 65.287781%)" offset="0.464844"/><stop stop-opacity="1" stop-color="rgb(65.818787%, 80.647278%, 65.132141%)" offset="0.46875"/><stop stop-opacity="1" stop-color="rgb(66.056824%, 80.697632%, 64.974976%)" offset="0.472656"/><stop stop-opacity="1" stop-color="rgb(66.294861%, 80.747986%, 64.819336%)" offset="0.476562"/><stop stop-opacity="1" stop-color="rgb(66.532898%, 80.796814%, 64.66217%)" offset="0.480469"/><stop stop-opacity="1" stop-color="rgb(66.770935%, 80.847168%, 64.506531%)" offset="0.484375"/><stop stop-opacity="1" stop-color="rgb(67.008972%, 80.897522%, 64.349365%)" offset="0.488281"/><stop stop-opacity="1" stop-color="rgb(67.247009%, 80.947876%, 64.193726%)" offset="0.492188"/><stop stop-opacity="1" stop-color="rgb(67.485046%, 80.996704%, 64.03656%)" offset="0.496094"/><stop stop-opacity="1" stop-color="rgb(67.723083%, 81.047058%, 63.879395%)" offset="0.5"/><stop stop-opacity="1" stop-color="rgb(67.961121%, 81.097412%, 63.722229%)" offset="0.503906"/><stop stop-opacity="1" stop-color="rgb(68.199158%, 81.147766%, 63.566589%)" offset="0.507813"/><stop stop-opacity="1" stop-color="rgb(68.437195%, 81.196594%, 63.409424%)" offset="0.511719"/><stop stop-opacity="1" stop-color="rgb(68.675232%, 81.246948%, 63.253784%)" offset="0.515625"/><stop stop-opacity="1" stop-color="rgb(68.913269%, 81.297302%, 63.096619%)" offset="0.519531"/><stop stop-opacity="1" stop-color="rgb(69.151306%, 81.347656%, 62.940979%)" offset="0.523438"/><stop stop-opacity="1" stop-color="rgb(69.389343%, 81.396484%, 62.783813%)" offset="0.527344"/><stop stop-opacity="1" stop-color="rgb(69.62738%, 81.446838%, 62.628174%)" offset="0.53125"/><stop stop-opacity="1" stop-color="rgb(69.865417%, 81.497192%, 62.471008%)" offset="0.535156"/><stop stop-opacity="1" stop-color="rgb(70.103455%, 81.547546%, 62.315369%)" offset="0.539063"/><stop stop-opacity="1" stop-color="rgb(70.341492%, 81.596375%, 62.158203%)" offset="0.542969"/><stop stop-opacity="1" stop-color="rgb(70.579529%, 81.646729%, 62.002563%)" offset="0.546875"/><stop stop-opacity="1" stop-color="rgb(70.817566%, 81.697083%, 61.845398%)" offset="0.550781"/><stop stop-opacity="1" stop-color="rgb(71.055603%, 81.747437%, 61.688232%)" offset="0.554688"/><stop stop-opacity="1" stop-color="rgb(71.29364%, 81.796265%, 61.531067%)" offset="0.558594"/><stop stop-opacity="1" stop-color="rgb(71.531677%, 81.846619%, 61.375427%)" offset="0.5625"/><stop stop-opacity="1" stop-color="rgb(71.769714%, 81.896973%, 61.218262%)" offset="0.566406"/><stop stop-opacity="1" stop-color="rgb(72.007751%, 81.947327%, 61.062622%)" offset="0.570313"/><stop stop-opacity="1" stop-color="rgb(72.245789%, 81.996155%, 60.905457%)" offset="0.574219"/><stop stop-opacity="1" stop-color="rgb(72.483826%, 82.046509%, 60.749817%)" offset="0.578125"/><stop stop-opacity="1" stop-color="rgb(72.721863%, 82.096863%, 60.592651%)" offset="0.582031"/><stop stop-opacity="1" stop-color="rgb(72.9599%, 82.147217%, 60.437012%)" offset="0.585938"/><stop stop-opacity="1" stop-color="rgb(73.197937%, 82.196045%, 60.279846%)" offset="0.589844"/><stop stop-opacity="1" stop-color="rgb(73.435974%, 82.246399%, 60.124207%)" offset="0.59375"/><stop stop-opacity="1" stop-color="rgb(73.674011%, 82.295227%, 59.967041%)" offset="0.597656"/><stop stop-opacity="1" stop-color="rgb(73.912048%, 82.345581%, 59.811401%)" offset="0.601562"/><stop stop-opacity="1" stop-color="rgb(74.150085%, 82.395935%, 59.654236%)" offset="0.605469"/><stop stop-opacity="1" stop-color="rgb(74.388123%, 82.446289%, 59.498596%)" offset="0.609375"/><stop stop-opacity="1" stop-color="rgb(74.62616%, 82.495117%, 59.341431%)" offset="0.613281"/><stop stop-opacity="1" stop-color="rgb(74.864197%, 82.545471%, 59.184265%)" offset="0.617188"/><stop stop-opacity="1" stop-color="rgb(75.102234%, 82.595825%, 59.0271%)" offset="0.621094"/><stop stop-opacity="1" stop-color="rgb(75.340271%, 82.646179%, 58.87146%)" offset="0.625"/><stop stop-opacity="1" stop-color="rgb(75.578308%, 82.695007%, 58.714294%)" offset="0.628906"/><stop stop-opacity="1" stop-color="rgb(75.816345%, 82.745361%, 58.558655%)" offset="0.632812"/><stop stop-opacity="1" stop-color="rgb(76.054382%, 82.795715%, 58.401489%)" offset="0.636719"/><stop stop-opacity="1" stop-color="rgb(76.292419%, 82.846069%, 58.24585%)" offset="0.640625"/><stop stop-opacity="1" stop-color="rgb(76.530457%, 82.894897%, 58.088684%)" offset="0.644531"/><stop stop-opacity="1" stop-color="rgb(76.768494%, 82.945251%, 57.933044%)" offset="0.648438"/><stop stop-opacity="1" stop-color="rgb(77.006531%, 82.995605%, 57.775879%)" offset="0.652344"/><stop stop-opacity="1" stop-color="rgb(77.244568%, 83.045959%, 57.620239%)" offset="0.65625"/><stop stop-opacity="1" stop-color="rgb(77.482605%, 83.094788%, 57.463074%)" offset="0.660156"/><stop stop-opacity="1" stop-color="rgb(77.720642%, 83.145142%, 57.307434%)" offset="0.664062"/><stop stop-opacity="1" stop-color="rgb(77.958679%, 83.195496%, 57.150269%)" offset="0.667969"/><stop stop-opacity="1" stop-color="rgb(78.196716%, 83.24585%, 56.994629%)" offset="0.671875"/><stop stop-opacity="1" stop-color="rgb(78.434753%, 83.294678%, 56.837463%)" offset="0.675781"/><stop stop-opacity="1" stop-color="rgb(78.672791%, 83.345032%, 56.680298%)" offset="0.679688"/><stop stop-opacity="1" stop-color="rgb(78.910828%, 83.395386%, 56.523132%)" offset="0.683594"/><stop stop-opacity="1" stop-color="rgb(79.148865%, 83.44574%, 56.367493%)" offset="0.6875"/><stop stop-opacity="1" stop-color="rgb(79.386902%, 83.494568%, 56.210327%)" offset="0.691406"/><stop stop-opacity="1" stop-color="rgb(79.624939%, 83.544922%, 56.054688%)" offset="0.695312"/><stop stop-opacity="1" stop-color="rgb(79.862976%, 83.595276%, 55.897522%)" offset="0.699219"/><stop stop-opacity="1" stop-color="rgb(80.101013%, 83.64563%, 55.741882%)" offset="0.703125"/><stop stop-opacity="1" stop-color="rgb(80.33905%, 83.694458%, 55.584717%)" offset="0.707031"/><stop stop-opacity="1" stop-color="rgb(80.577087%, 83.744812%, 55.429077%)" offset="0.710938"/><stop stop-opacity="1" stop-color="rgb(80.815125%, 83.795166%, 55.271912%)" offset="0.714844"/><stop stop-opacity="1" stop-color="rgb(81.053162%, 83.84552%, 55.116272%)" offset="0.71875"/><stop stop-opacity="1" stop-color="rgb(81.291199%, 83.894348%, 54.959106%)" offset="0.722656"/><stop stop-opacity="1" stop-color="rgb(81.529236%, 83.944702%, 54.803467%)" offset="0.726562"/><stop stop-opacity="1" stop-color="rgb(81.767273%, 83.995056%, 54.646301%)" offset="0.730469"/><stop stop-opacity="1" stop-color="rgb(82.00531%, 84.04541%, 54.490662%)" offset="0.734375"/><stop stop-opacity="1" stop-color="rgb(82.243347%, 84.094238%, 54.333496%)" offset="0.738281"/><stop stop-opacity="1" stop-color="rgb(82.481384%, 84.144592%, 54.176331%)" offset="0.742188"/><stop stop-opacity="1" stop-color="rgb(82.719421%, 84.194946%, 54.019165%)" offset="0.746094"/><stop stop-opacity="1" stop-color="rgb(82.957458%, 84.2453%, 53.863525%)" offset="0.75"/><stop stop-opacity="1" stop-color="rgb(83.195496%, 84.294128%, 53.70636%)" offset="0.753906"/><stop stop-opacity="1" stop-color="rgb(83.433533%, 84.344482%, 53.55072%)" offset="0.757812"/><stop stop-opacity="1" stop-color="rgb(83.67157%, 84.394836%, 53.393555%)" offset="0.761719"/><stop stop-opacity="1" stop-color="rgb(83.909607%, 84.44519%, 53.237915%)" offset="0.765625"/><stop stop-opacity="1" stop-color="rgb(84.147644%, 84.494019%, 53.08075%)" offset="0.769531"/><stop stop-opacity="1" stop-color="rgb(84.385681%, 84.544373%, 52.92511%)" offset="0.773437"/><stop stop-opacity="1" stop-color="rgb(84.623718%, 84.594727%, 52.767944%)" offset="0.777344"/><stop stop-opacity="1" stop-color="rgb(84.861755%, 84.645081%, 52.612305%)" offset="0.78125"/><stop stop-opacity="1" stop-color="rgb(85.099792%, 84.693909%, 52.455139%)" offset="0.785156"/><stop stop-opacity="1" stop-color="rgb(85.33783%, 84.744263%, 52.2995%)" offset="0.789062"/><stop stop-opacity="1" stop-color="rgb(85.575867%, 84.794617%, 52.142334%)" offset="0.792969"/><stop stop-opacity="1" stop-color="rgb(85.813904%, 84.844971%, 51.985168%)" offset="0.796875"/><stop stop-opacity="1" stop-color="rgb(86.051941%, 84.893799%, 51.828003%)" offset="0.800781"/><stop stop-opacity="1" stop-color="rgb(86.289978%, 84.944153%, 51.672363%)" offset="0.804687"/><stop stop-opacity="1" stop-color="rgb(86.528015%, 84.994507%, 51.515198%)" offset="0.808594"/><stop stop-opacity="1" stop-color="rgb(86.766052%, 85.044861%, 51.359558%)" offset="0.8125"/><stop stop-opacity="1" stop-color="rgb(87.004089%, 85.093689%, 51.202393%)" offset="0.816406"/><stop stop-opacity="1" stop-color="rgb(87.242126%, 85.144043%, 51.046753%)" offset="0.820312"/><stop stop-opacity="1" stop-color="rgb(87.480164%, 85.194397%, 50.889587%)" offset="0.824219"/><stop stop-opacity="1" stop-color="rgb(87.718201%, 85.244751%, 50.733948%)" offset="0.828125"/><stop stop-opacity="1" stop-color="rgb(87.956238%, 85.293579%, 50.576782%)" offset="0.832031"/><stop stop-opacity="1" stop-color="rgb(88.194275%, 85.343933%, 50.421143%)" offset="0.835937"/><stop stop-opacity="1" stop-color="rgb(88.432312%, 85.392761%, 50.263977%)" offset="0.839844"/><stop stop-opacity="1" stop-color="rgb(88.670349%, 85.443115%, 50.108337%)" offset="0.84375"/><stop stop-opacity="1" stop-color="rgb(88.908386%, 85.493469%, 49.951172%)" offset="0.847656"/><stop stop-opacity="1" stop-color="rgb(89.146423%, 85.543823%, 49.795532%)" offset="0.851562"/><stop stop-opacity="1" stop-color="rgb(89.38446%, 85.592651%, 49.638367%)" offset="0.855469"/><stop stop-opacity="1" stop-color="rgb(89.622498%, 85.643005%, 49.481201%)" offset="0.859375"/><stop stop-opacity="1" stop-color="rgb(89.860535%, 85.693359%, 49.324036%)" offset="0.863281"/><stop stop-opacity="1" stop-color="rgb(90.098572%, 85.743713%, 49.168396%)" offset="0.867187"/><stop stop-opacity="1" stop-color="rgb(90.336609%, 85.792542%, 49.01123%)" offset="0.871094"/><stop stop-opacity="1" stop-color="rgb(90.574646%, 85.842896%, 48.855591%)" offset="0.875"/><stop stop-opacity="1" stop-color="rgb(90.812683%, 85.89325%, 48.698425%)" offset="0.878906"/><stop stop-opacity="1" stop-color="rgb(91.05072%, 85.943604%, 48.542786%)" offset="0.882813"/><stop stop-opacity="1" stop-color="rgb(91.288757%, 85.992432%, 48.38562%)" offset="0.886719"/><stop stop-opacity="1" stop-color="rgb(91.526794%, 86.042786%, 48.22998%)" offset="0.890625"/><stop stop-opacity="1" stop-color="rgb(91.764832%, 86.09314%, 48.072815%)" offset="0.894531"/><stop stop-opacity="1" stop-color="rgb(92.002869%, 86.143494%, 47.917175%)" offset="0.898438"/><stop stop-opacity="1" stop-color="rgb(92.240906%, 86.192322%, 47.76001%)" offset="0.902344"/><stop stop-opacity="1" stop-color="rgb(92.478943%, 86.242676%, 47.60437%)" offset="0.90625"/><stop stop-opacity="1" stop-color="rgb(92.71698%, 86.29303%, 47.447205%)" offset="0.910156"/><stop stop-opacity="1" stop-color="rgb(92.955017%, 86.343384%, 47.291565%)" offset="0.914062"/><stop stop-opacity="1" stop-color="rgb(93.193054%, 86.392212%, 47.134399%)" offset="0.917969"/><stop stop-opacity="1" stop-color="rgb(93.431091%, 86.442566%, 46.977234%)" offset="0.921875"/><stop stop-opacity="1" stop-color="rgb(93.669128%, 86.49292%, 46.820068%)" offset="0.925781"/><stop stop-opacity="1" stop-color="rgb(93.907166%, 86.543274%, 46.664429%)" offset="0.929688"/><stop stop-opacity="1" stop-color="rgb(94.145203%, 86.592102%, 46.507263%)" offset="0.933594"/><stop stop-opacity="1" stop-color="rgb(94.38324%, 86.642456%, 46.351624%)" offset="0.9375"/><stop stop-opacity="1" stop-color="rgb(94.445801%, 86.656189%, 46.310425%)" offset="1"/></linearGradient><clipPath id="5b7efa89a9"><rect x="0" width="120" y="0" height="68"/></clipPath><clipPath id="8b86f561e0"><path d="M 0.441406 0 L 119.558594 0 L 119.558594 67.003906 L 0.441406 67.003906 Z M 0.441406 0 " clip-rule="nonzero"/></clipPath><clipPath id="9fa53b9fd4"><rect x="0" width="120" y="0" height="68"/></clipPath><clipPath id="feda8d8ae3"><rect x="0" width="120" y="0" height="68"/></clipPath><mask id="d0f9b7509b"><g filter="url(#abd0c52a6b)"><g transform="matrix(1, 0, 0, 1, 0.000000000000000056, 0)"><g clip-path="url(#feda8d8ae3)"><g clip-path="url(#8b86f561e0)"><g transform="matrix(1, 0, 0, 1, 0.000000000000000056, 0)"><g clip-path="url(#9fa53b9fd4)"><g fill="#000000" fill-opacity="1"><g transform="translate(2.440735, 48.886396)"><g><path d="M 32.625 -24.328125 C 32.625 -21.765625 32.640625 -19.1875 32.671875 -16.59375 C 32.710938 -14 32.695312 -11.421875 32.625 -8.859375 C 32.582031 -7.429688 32.5625 -5.945312 32.5625 -4.40625 C 32.5625 -2.863281 32.445312 -1.34375 32.21875 0.15625 C 32 1.664062 31.53125 3.082031 30.8125 4.40625 C 29.875 6.132812 28.632812 7.570312 27.09375 8.71875 C 25.550781 9.863281 23.847656 10.71875 21.984375 11.28125 C 20.117188 11.851562 18.226562 12.140625 16.3125 12.140625 C 16.15625 12.140625 16.003906 12.140625 15.859375 12.140625 C 15.710938 12.140625 15.5625 12.140625 15.40625 12.140625 C 14.164062 12.054688 12.929688 11.945312 11.703125 11.8125 C 10.484375 11.6875 9.273438 11.4375 8.078125 11.0625 C 7.585938 10.914062 7.003906 10.71875 6.328125 10.46875 C 5.648438 10.226562 5.007812 9.9375 4.40625 9.59375 C 3.800781 9.257812 3.375 8.835938 3.125 8.328125 C 2.882812 7.816406 2.929688 7.203125 3.265625 6.484375 C 3.535156 5.960938 3.800781 5.425781 4.0625 4.875 C 4.320312 4.332031 4.585938 3.796875 4.859375 3.265625 C 5.160156 2.703125 5.550781 2.410156 6.03125 2.390625 C 6.519531 2.378906 7.066406 2.515625 7.671875 2.796875 C 8.273438 3.078125 8.859375 3.382812 9.421875 3.71875 C 9.984375 4.0625 10.457031 4.289062 10.84375 4.40625 C 11.625 4.664062 12.4375 4.867188 13.28125 5.015625 C 14.132812 5.171875 14.972656 5.25 15.796875 5.25 C 17.867188 5.25 19.710938 4.710938 21.328125 3.640625 C 22.953125 2.566406 24.117188 1.050781 24.828125 -0.90625 C 24.910156 -1.09375 24.96875 -1.269531 25 -1.4375 C 25.039062 -1.601562 25.039062 -1.765625 25 -1.921875 C 24.96875 -2.554688 24.722656 -2.929688 24.265625 -3.046875 C 23.816406 -3.160156 23.300781 -3.140625 22.71875 -2.984375 C 22.132812 -2.835938 21.566406 -2.640625 21.015625 -2.390625 C 20.472656 -2.148438 20.050781 -1.992188 19.75 -1.921875 C 18.882812 -1.660156 18 -1.441406 17.09375 -1.265625 C 16.195312 -1.097656 15.296875 -1.015625 14.390625 -1.015625 C 12.023438 -1.015625 9.921875 -1.617188 8.078125 -2.828125 C 6.566406 -3.804688 5.226562 -4.914062 4.0625 -6.15625 C 2.894531 -7.394531 2.050781 -8.597656 1.53125 -9.765625 C 0.0625 -13.191406 -0.351562 -16.597656 0.28125 -19.984375 C 0.914062 -23.367188 2.550781 -26.320312 5.1875 -28.84375 C 7.820312 -31.394531 10.851562 -32.671875 14.28125 -32.671875 C 16.875 -32.671875 19.453125 -31.957031 22.015625 -30.53125 C 22.203125 -30.382812 22.445312 -30.3125 22.75 -30.3125 C 23.195312 -30.3125 23.570312 -30.5 23.875 -30.875 C 24.0625 -31.09375 24.519531 -31.320312 25.25 -31.5625 C 25.988281 -31.8125 26.851562 -32.03125 27.84375 -32.21875 C 28.84375 -32.414062 29.796875 -32.515625 30.703125 -32.515625 C 31.265625 -32.515625 31.65625 -32.472656 31.875 -32.390625 C 32.101562 -32.316406 32.296875 -32.015625 32.453125 -31.484375 C 32.640625 -30.890625 32.695312 -30.1875 32.625 -29.375 C 32.550781 -28.5625 32.53125 -27.835938 32.5625 -27.203125 C 32.5625 -26.710938 32.5625 -26.234375 32.5625 -25.765625 C 32.5625 -25.296875 32.582031 -24.816406 32.625 -24.328125 Z M 22.625 -10.71875 C 24.175781 -12.5625 24.953125 -14.726562 24.953125 -17.21875 C 24.953125 -18.875 24.582031 -20.359375 23.84375 -21.671875 C 23.113281 -22.984375 22.132812 -24.015625 20.90625 -24.765625 C 19.6875 -25.523438 18.304688 -25.90625 16.765625 -25.90625 C 15.710938 -25.863281 14.695312 -25.632812 13.71875 -25.21875 C 12.738281 -24.8125 11.875 -24.210938 11.125 -23.421875 C 9.351562 -21.617188 8.503906 -19.378906 8.578125 -16.703125 C 8.617188 -15.160156 9.03125 -13.710938 9.8125 -12.359375 C 10.601562 -11.003906 11.609375 -9.910156 12.828125 -9.078125 C 14.054688 -8.253906 15.367188 -7.84375 16.765625 -7.84375 C 16.765625 -7.84375 16.769531 -7.84375 16.78125 -7.84375 C 16.800781 -7.84375 16.8125 -7.84375 16.8125 -7.84375 C 19.070312 -7.84375 21.007812 -8.800781 22.625 -10.71875 Z M 22.625 -10.71875 "/></g></g></g><g fill="#000000" fill-opacity="1"><g transform="translate(35.277363, 48.886396)"><g><path d="M 0.0625 -16.359375 C 0.0195312 -18.472656 0.429688 -20.570312 1.296875 -22.65625 C 2.160156 -24.75 3.363281 -26.582031 4.90625 -28.15625 C 6.375 -29.664062 8.046875 -30.816406 9.921875 -31.609375 C 11.804688 -32.398438 13.75 -32.796875 15.75 -32.796875 C 15.9375 -32.796875 16.132812 -32.796875 16.34375 -32.796875 C 16.550781 -32.796875 16.75 -32.796875 16.9375 -32.796875 C 16.9375 -32.796875 16.941406 -32.796875 16.953125 -32.796875 C 16.972656 -32.796875 16.984375 -32.796875 16.984375 -32.796875 C 20.253906 -32.796875 23.140625 -32.117188 25.640625 -30.765625 C 28.148438 -29.410156 30.117188 -27.523438 31.546875 -25.109375 C 32.972656 -22.703125 33.6875 -19.921875 33.6875 -16.765625 C 33.6875 -11.835938 32.144531 -7.828125 29.0625 -4.734375 C 27.5625 -3.234375 25.765625 -2.078125 23.671875 -1.265625 C 21.585938 -0.460938 19.320312 -0.0625 16.875 -0.0625 C 14.539062 -0.0625 12.367188 -0.484375 10.359375 -1.328125 C 8.347656 -2.171875 6.578125 -3.332031 5.046875 -4.8125 C 3.523438 -6.300781 2.320312 -8.035156 1.4375 -10.015625 C 0.550781 -11.992188 0.09375 -14.109375 0.0625 -16.359375 Z M 16.703125 -26.078125 C 15.390625 -26.078125 14.109375 -25.648438 12.859375 -24.796875 C 11.617188 -23.953125 10.59375 -22.863281 9.78125 -21.53125 C 8.976562 -20.195312 8.554688 -18.796875 8.515625 -17.328125 C 8.484375 -15.710938 8.75 -14.148438 9.3125 -12.640625 C 9.875 -11.140625 10.738281 -9.878906 11.90625 -8.859375 C 13.070312 -7.847656 14.519531 -7.242188 16.25 -7.046875 C 18.164062 -6.859375 19.78125 -7.160156 21.09375 -7.953125 C 22.414062 -8.742188 23.4375 -9.828125 24.15625 -11.203125 C 24.875 -12.578125 25.269531 -14.082031 25.34375 -15.71875 C 25.414062 -17.351562 25.171875 -18.921875 24.609375 -20.421875 C 24.046875 -21.929688 23.140625 -23.203125 21.890625 -24.234375 C 20.648438 -25.273438 19.070312 -25.890625 17.15625 -26.078125 C 17.082031 -26.078125 17.003906 -26.078125 16.921875 -26.078125 C 16.847656 -26.078125 16.773438 -26.078125 16.703125 -26.078125 Z M 16.703125 -26.078125 "/></g></g></g><g fill="#000000" fill-opacity="1"><g transform="translate(69.073161, 48.886396)"><g><path d="M 0.21875 -2.09375 C 0.375 -5.78125 0.460938 -9.46875 0.484375 -13.15625 C 0.503906 -16.84375 0.472656 -20.53125 0.390625 -24.21875 C 0.390625 -26.28125 0.367188 -28.351562 0.328125 -30.4375 C 0.296875 -32.53125 0.28125 -34.613281 0.28125 -36.6875 C 0.28125 -37.25 0.234375 -37.953125 0.140625 -38.796875 C 0.046875 -39.648438 0.015625 -40.507812 0.046875 -41.375 C 0.0859375 -42.238281 0.257812 -42.960938 0.5625 -43.546875 C 0.863281 -44.128906 1.410156 -44.421875 2.203125 -44.421875 C 2.273438 -44.421875 2.328125 -44.421875 2.359375 -44.421875 C 2.398438 -44.421875 2.441406 -44.421875 2.484375 -44.421875 C 3.046875 -44.378906 3.570312 -44.359375 4.0625 -44.359375 C 4.550781 -44.359375 4.984375 -44.335938 5.359375 -44.296875 C 5.703125 -44.296875 6.085938 -44.316406 6.515625 -44.359375 C 6.953125 -44.398438 7.347656 -44.363281 7.703125 -44.25 C 8.054688 -44.132812 8.253906 -43.851562 8.296875 -43.40625 C 8.484375 -41.707031 8.507812 -40.019531 8.375 -38.34375 C 8.25 -36.675781 8.1875 -34.972656 8.1875 -33.234375 C 8.1875 -32.640625 8.328125 -32.085938 8.609375 -31.578125 C 8.890625 -31.066406 9.390625 -30.8125 10.109375 -30.8125 C 10.296875 -30.8125 10.484375 -30.835938 10.671875 -30.890625 C 10.859375 -30.953125 11.023438 -31.003906 11.171875 -31.046875 C 11.242188 -31.046875 11.289062 -31.050781 11.3125 -31.0625 C 11.332031 -31.082031 11.363281 -31.09375 11.40625 -31.09375 C 11.625 -31.132812 11.835938 -31.191406 12.046875 -31.265625 C 12.253906 -31.335938 12.472656 -31.394531 12.703125 -31.4375 C 12.890625 -31.46875 13.078125 -31.507812 13.265625 -31.5625 C 13.453125 -31.625 13.640625 -31.675781 13.828125 -31.71875 C 16.796875 -32.351562 19.65625 -32.390625 22.40625 -31.828125 C 25.15625 -31.265625 27.523438 -29.703125 29.515625 -27.140625 C 31.171875 -25.035156 32.242188 -22.703125 32.734375 -20.140625 C 33.222656 -17.585938 33.191406 -15.054688 32.640625 -12.546875 C 32.097656 -10.046875 31.09375 -7.789062 29.625 -5.78125 C 28.15625 -3.769531 26.289062 -2.21875 24.03125 -1.125 C 21.78125 -0.03125 19.207031 0.34375 16.3125 0 C 15.257812 -0.113281 14.242188 -0.320312 13.265625 -0.625 C 12.285156 -0.925781 11.269531 -1.078125 10.21875 -1.078125 C 9.757812 -1.078125 9.3125 -1.046875 8.875 -0.984375 C 8.445312 -0.929688 8.03125 -0.8125 7.625 -0.625 C 6.945312 -0.351562 6.023438 -0.21875 4.859375 -0.21875 C 4.671875 -0.21875 4.460938 -0.21875 4.234375 -0.21875 C 4.003906 -0.21875 3.796875 -0.21875 3.609375 -0.21875 C 3.117188 -0.257812 2.597656 -0.25 2.046875 -0.1875 C 1.503906 -0.132812 1.0625 -0.203125 0.71875 -0.390625 C 0.382812 -0.578125 0.21875 -1.03125 0.21875 -1.75 C 0.21875 -1.820312 0.21875 -1.882812 0.21875 -1.9375 C 0.21875 -2 0.21875 -2.050781 0.21875 -2.09375 Z M 11.125 -22.796875 C 9.5 -20.953125 8.6875 -18.710938 8.6875 -16.078125 C 8.6875 -14.503906 9.082031 -12.984375 9.875 -11.515625 C 10.664062 -10.046875 11.691406 -8.835938 12.953125 -7.890625 C 14.210938 -6.953125 15.5 -6.484375 16.8125 -6.484375 L 16.9375 -6.484375 C 19.269531 -6.566406 21.28125 -7.566406 22.96875 -9.484375 C 24.625 -11.441406 25.453125 -13.695312 25.453125 -16.25 C 25.410156 -17.90625 25.003906 -19.445312 24.234375 -20.875 C 23.460938 -22.3125 22.457031 -23.46875 21.21875 -24.34375 C 19.976562 -25.226562 18.625 -25.671875 17.15625 -25.671875 C 17.15625 -25.671875 17.144531 -25.671875 17.125 -25.671875 C 17.101562 -25.671875 17.09375 -25.671875 17.09375 -25.671875 C 16.007812 -25.671875 14.9375 -25.425781 13.875 -24.9375 C 12.820312 -24.457031 11.90625 -23.742188 11.125 -22.796875 Z M 11.125 -22.796875 "/></g></g></g><g fill="#000000" fill-opacity="1"><g transform="translate(102.248321, 48.886396)"><g><path d="M 2.140625 -35.5625 C 1.316406 -36.082031 0.71875 -36.820312 0.34375 -37.78125 C -0.03125 -38.738281 -0.0507812 -39.785156 0.28125 -40.921875 C 0.914062 -43.140625 2.421875 -44.285156 4.796875 -44.359375 L 4.90625 -44.359375 C 6.070312 -44.359375 7.050781 -44.046875 7.84375 -43.421875 C 8.632812 -42.804688 9.160156 -41.953125 9.421875 -40.859375 C 9.765625 -39.503906 9.632812 -38.257812 9.03125 -37.125 C 8.425781 -36 7.410156 -35.269531 5.984375 -34.9375 C 5.265625 -34.78125 4.578125 -34.757812 3.921875 -34.875 C 3.265625 -34.988281 2.671875 -35.21875 2.140625 -35.5625 Z M 1.359375 -29.90625 C 1.878906 -30.25 2.628906 -30.398438 3.609375 -30.359375 C 4.171875 -30.359375 4.789062 -30.375 5.46875 -30.40625 C 6.144531 -30.445312 6.773438 -30.382812 7.359375 -30.21875 C 7.941406 -30.050781 8.328125 -29.664062 8.515625 -29.0625 C 8.859375 -28.125 8.972656 -26.984375 8.859375 -25.640625 C 8.742188 -24.304688 8.6875 -23.15625 8.6875 -22.1875 C 8.726562 -19.882812 8.75 -17.601562 8.75 -15.34375 C 8.75 -13.09375 8.765625 -10.816406 8.796875 -8.515625 C 8.796875 -8.140625 8.84375 -7.507812 8.9375 -6.625 C 9.039062 -5.75 9.097656 -4.800781 9.109375 -3.78125 C 9.128906 -2.757812 9.023438 -1.890625 8.796875 -1.171875 C 8.578125 -0.460938 8.128906 -0.09375 7.453125 -0.0625 C 6.585938 -0.0195312 5.679688 0.0078125 4.734375 0.03125 C 3.796875 0.0507812 2.894531 0.00390625 2.03125 -0.109375 C 1.425781 -0.179688 1.007812 -0.507812 0.78125 -1.09375 C 0.5625 -1.675781 0.441406 -2.378906 0.421875 -3.203125 C 0.398438 -4.035156 0.425781 -4.828125 0.5 -5.578125 C 0.582031 -6.335938 0.625 -6.925781 0.625 -7.34375 C 0.582031 -8.882812 0.550781 -10.429688 0.53125 -11.984375 C 0.519531 -13.546875 0.515625 -15.101562 0.515625 -16.65625 C 0.472656 -17.96875 0.453125 -19.28125 0.453125 -20.59375 C 0.453125 -21.914062 0.429688 -23.21875 0.390625 -24.5 C 0.390625 -25.582031 0.367188 -26.628906 0.328125 -27.640625 C 0.296875 -28.660156 0.640625 -29.414062 1.359375 -29.90625 Z M 1.359375 -29.90625 "/></g></g></g></g></g></g></g></g></g></mask><clipPath id="0b7cafc2dd"><path d="M 0.441406 0 L 119.558594 0 L 119.558594 67.003906 L 0.441406 67.003906 Z M 0.441406 0 " clip-rule="nonzero"/></clipPath><clipPath id="b40a6fd12f"><rect x="0" width="120" y="0" height="68"/></clipPath><clipPath id="0d2ba7a1fa"><rect x="0" width="120" y="0" height="68"/></clipPath><clipPath id="2c9067ad09"><rect x="0" width="120" y="0" height="68"/></clipPath></defs><g clip-path="url(#0e784f6f3a)"><path fill="#ffffff" d="M 0.441406 0 L 119.558594 0 L 119.558594 67.003906 L 0.441406 67.003906 Z M 0.441406 0 " fill-opacity="1" fill-rule="nonzero"/><path fill="#ffffff" d="M 0.441406 0 L 119.558594 0 L 119.558594 67.003906 L 0.441406 67.003906 Z M 0.441406 0 " fill-opacity="1" fill-rule="nonzero"/><g transform="matrix(1, 0, 0, 1, 0.000000000000000056, 0)"><g clip-path="url(#2c9067ad09)"><g clip-path="url(#d19c338919)"><g transform="matrix(1, 0, 0, 1, 0.000000000000000056, 0)"><g clip-path="url(#0d2ba7a1fa)"><g clip-path="url(#5b966545d5)"><g mask="url(#d0f9b7509b)"><g transform="matrix(1, 0, 0, 1, 0.000000000000000056, 0)"><g clip-path="url(#b40a6fd12f)"><g clip-path="url(#0b7cafc2dd)"><path fill="url(#3c5a50c512)" d="M 0.441406 0 L 0.441406 67.003906 L 119.558594 67.003906 L 119.558594 0 Z M 0.441406 0 " fill-rule="nonzero"/></g></g></g></g></g></g></g></g></g></g></g></svg>