<svg xmlns="http://www.w3.org/2000/svg" width="48" height="48" viewBox="0 0 24 24" fill="none" stroke="currentColor" stroke-width="2" stroke-linecap="round" stroke-linejoin="round">
  <path d="M12 20.94c1.5 0 2.75 1.06 4 1.06 3 0 5-2.16 5-4.96 0-2.8-2-4.84-5-4.84"/>
  <path d="M4.34 15.66A8 8 0 0 1 12 3c1.5 0 2.75 1.06 4 1.06 3 0 5 2.04 5 4.84 0 2.8-2 4.84-5 4.84"/>
  <path d="M12 20.94c-1.5 0-2.75 1.06-4 1.06-3 0-5-2.04-5-4.84 0-2.8 2-4.84 5-4.84"/>
  <path d="M4.34 8.36A8 8 0 0 1 12 21c-1.5 0-2.75-1.06-4-1.06-3 0-5-2.04-5-4.84 0-2.8 2-4.84 5-4.84"/>
</svg>